<svg width="30" height="30" viewBox="0 0 30 30" fill="none" xmlns="http://www.w3.org/2000/svg">
<g clip-path="url(#clip0_1186_4617)">
<path d="M23.75 0H6.25C4.59301 0.00198482 3.00445 0.661102 1.83277 1.83277C0.661102 3.00445 0.00198482 4.59301 0 6.25L0 23.75C0.00198482 25.407 0.661102 26.9956 1.83277 28.1672C3.00445 29.3389 4.59301 29.998 6.25 30H23.75C25.407 29.998 26.9956 29.3389 28.1672 28.1672C29.3389 26.9956 29.998 25.407 30 23.75V6.25C29.998 4.59301 29.3389 3.00445 28.1672 1.83277C26.9956 0.661102 25.407 0.00198482 23.75 0V0ZM27.5 23.75C27.5 24.7446 27.1049 25.6984 26.4017 26.4017C25.6984 27.1049 24.7446 27.5 23.75 27.5H6.25C5.25544 27.5 4.30161 27.1049 3.59835 26.4017C2.89509 25.6984 2.5 24.7446 2.5 23.75V6.25C2.5 5.25544 2.89509 4.30161 3.59835 3.59835C4.30161 2.89509 5.25544 2.5 6.25 2.5H23.75C24.7446 2.5 25.6984 2.89509 26.4017 3.59835C27.1049 4.30161 27.5 5.25544 27.5 6.25V23.75Z" fill="white"/>
<path d="M11.666 19.8997L6.76728 15.001C6.53287 14.7666 6.21498 14.635 5.88353 14.635C5.55207 14.635 5.23419 14.7666 4.99978 15.001C4.76544 15.2354 4.6338 15.5533 4.6338 15.8847C4.6338 16.2162 4.76544 16.5341 4.99978 16.7685L9.89853 21.6672C10.1307 21.8995 10.4063 22.0837 10.7097 22.2094C11.0131 22.3351 11.3383 22.3998 11.6667 22.3998C11.995 22.3998 12.3202 22.3351 12.6236 22.2094C12.927 22.0837 13.2026 21.8995 13.4348 21.6672L24.9998 10.1022C25.2341 9.86782 25.3658 9.54994 25.3658 9.21848C25.3658 8.88703 25.2341 8.56914 24.9998 8.33473C24.7654 8.10039 24.4475 7.96875 24.116 7.96875C23.7846 7.96875 23.4667 8.10039 23.2323 8.33473L11.666 19.8997Z" fill="white"/>
</g>
<defs>
<clipPath id="clip0_1186_4617">
<rect width="30" height="30" fill="white"/>
</clipPath>
</defs>
</svg>
