<svg width="51" height="51" viewBox="0 0 51 51" fill="none" xmlns="http://www.w3.org/2000/svg">
<circle cx="25.5" cy="25.5" r="25.5" fill="#E9EAFF"/>
<g clip-path="url(#clip0_1186_4677)">
<path d="M26 26C27.1867 26 28.3467 25.6481 29.3334 24.9888C30.3201 24.3295 31.0892 23.3925 31.5433 22.2961C31.9974 21.1997 32.1162 19.9933 31.8847 18.8295C31.6532 17.6656 31.0818 16.5965 30.2426 15.7574C29.4035 14.9182 28.3344 14.3468 27.1705 14.1153C26.0067 13.8838 24.8003 14.0026 23.7039 14.4567C22.6075 14.9109 21.6705 15.6799 21.0112 16.6666C20.3519 17.6533 20 18.8133 20 20C20.0016 21.5908 20.6342 23.116 21.7591 24.2409C22.884 25.3658 24.4092 25.9984 26 26ZM26 16C26.7911 16 27.5645 16.2346 28.2223 16.6741C28.8801 17.1136 29.3928 17.7384 29.6955 18.4693C29.9983 19.2002 30.0775 20.0044 29.9231 20.7804C29.7688 21.5563 29.3878 22.269 28.8284 22.8284C28.269 23.3878 27.5563 23.7688 26.7804 23.9231C26.0044 24.0775 25.2002 23.9983 24.4693 23.6955C23.7384 23.3928 23.1136 22.8801 22.6741 22.2223C22.2346 21.5645 22 20.7911 22 20C22 18.9391 22.4214 17.9217 23.1716 17.1716C23.9217 16.4214 24.9391 16 26 16Z" fill="#979DFF"/>
<path d="M26 28C23.6139 28.0026 21.3262 28.9517 19.639 30.639C17.9517 32.3262 17.0026 34.6139 17 37C17 37.2652 17.1053 37.5196 17.2929 37.7071C17.4804 37.8946 17.7348 38 18 38C18.2652 38 18.5196 37.8946 18.7071 37.7071C18.8946 37.5196 19 37.2652 19 37C19 35.1435 19.7375 33.363 21.0502 32.0503C22.363 30.7375 24.1435 30 26 30C27.8565 30 29.637 30.7375 30.9497 32.0503C32.2625 33.363 33 35.1435 33 37C33 37.2652 33.1053 37.5196 33.2929 37.7071C33.4804 37.8946 33.7348 38 34 38C34.2652 38 34.5196 37.8946 34.7071 37.7071C34.8946 37.5196 35 37.2652 35 37C34.9973 34.6139 34.0483 32.3262 32.361 30.639C30.6738 28.9517 28.3861 28.0026 26 28Z" fill="#979DFF"/>
</g>
<defs>
<clipPath id="clip0_1186_4677">
<rect width="24" height="24" fill="white" transform="translate(14 14)"/>
</clipPath>
</defs>
</svg>
