<svg width="30" height="30" viewBox="0 0 30 30" fill="none" xmlns="http://www.w3.org/2000/svg">
<g clip-path="url(#clip0_1186_4671)">
<path d="M23.75 0H6.25C4.59301 0.00198482 3.00445 0.661102 1.83277 1.83277C0.661102 3.00445 0.00198482 4.59301 0 6.25L0 23.75C0.00198482 25.407 0.661102 26.9956 1.83277 28.1672C3.00445 29.3389 4.59301 29.998 6.25 30H23.75C25.407 29.998 26.9956 29.3389 28.1672 28.1672C29.3389 26.9956 29.998 25.407 30 23.75V6.25C29.998 4.59301 29.3389 3.00445 28.1672 1.83277C26.9956 0.661102 25.407 0.00198482 23.75 0V0ZM27.5 23.75C27.5 24.7446 27.1049 25.6984 26.4017 26.4017C25.6984 27.1049 24.7446 27.5 23.75 27.5H6.25C5.25544 27.5 4.30161 27.1049 3.59835 26.4017C2.89509 25.6984 2.5 24.7446 2.5 23.75V6.25C2.5 5.25544 2.89509 4.30161 3.59835 3.59835C4.30161 2.89509 5.25544 2.5 6.25 2.5H23.75C24.7446 2.5 25.6984 2.89509 26.4017 3.59835C27.1049 4.30161 27.5 5.25544 27.5 6.25V23.75Z" fill="white"/>
</g>
<path d="M21.25 7.75126C21.039 7.54035 20.7529 7.42188 20.4546 7.42188C20.1563 7.42188 19.8702 7.54035 19.6592 7.75126L14.5 12.9105L9.34073 7.75126C9.12976 7.54035 8.84366 7.42188 8.54535 7.42188C8.24704 7.42188 7.96095 7.54035 7.74998 7.75126C7.53907 7.96223 7.42059 8.24832 7.42059 8.54663C7.42059 8.84494 7.53907 9.13104 7.74998 9.34201L12.9092 14.5013L7.74998 19.6605C7.53907 19.8715 7.42059 20.1576 7.42059 20.4559C7.42059 20.7542 7.53907 21.0403 7.74998 21.2513C7.96095 21.4622 8.24704 21.5806 8.54535 21.5806C8.84366 21.5806 9.12976 21.4622 9.34073 21.2513L14.5 16.092L19.6592 21.2513C19.8702 21.4622 20.1563 21.5806 20.4546 21.5806C20.7529 21.5806 21.039 21.4622 21.25 21.2513C21.4609 21.0403 21.5794 20.7542 21.5794 20.4559C21.5794 20.1576 21.4609 19.8715 21.25 19.6605L16.0907 14.5013L21.25 9.34201C21.4609 9.13104 21.5794 8.84494 21.5794 8.54663C21.5794 8.24832 21.4609 7.96223 21.25 7.75126Z" fill="white"/>
<defs>
<clipPath id="clip0_1186_4671">
<rect width="30" height="30" fill="white"/>
</clipPath>
</defs>
</svg>
