<svg width="48" height="48" viewBox="0 0 48 48" fill="none" xmlns="http://www.w3.org/2000/svg">
<g clip-path="url(#clip0_69_2936)">
<path d="M46 22H26V2C26 1.46957 25.7893 0.960859 25.4142 0.585786C25.0391 0.210714 24.5304 0 24 0V0C23.4696 0 22.9609 0.210714 22.5858 0.585786C22.2107 0.960859 22 1.46957 22 2V22H2C1.46957 22 0.960859 22.2107 0.585786 22.5858C0.210714 22.9609 0 23.4696 0 24H0C0 24.5304 0.210714 25.0391 0.585786 25.4142C0.960859 25.7893 1.46957 26 2 26H22V46C22 46.5304 22.2107 47.0391 22.5858 47.4142C22.9609 47.7893 23.4696 48 24 48C24.5304 48 25.0391 47.7893 25.4142 47.4142C25.7893 47.0391 26 46.5304 26 46V26H46C46.5304 26 47.0391 25.7893 47.4142 25.4142C47.7893 25.0391 48 24.5304 48 24C48 23.4696 47.7893 22.9609 47.4142 22.5858C47.0391 22.2107 46.5304 22 46 22Z" fill="white"/>
</g>
<defs>
<clipPath id="clip0_69_2936">
<rect width="48" height="48" fill="white"/>
</clipPath>
</defs>
</svg>
