<svg width="28" height="28" viewBox="0 0 28 28" fill="none" xmlns="http://www.w3.org/2000/svg">
<circle cx="14" cy="14" r="14" fill="#FFF0F0"/>
<mask id="mask0_534_6669" style="mask-type:alpha" maskUnits="userSpaceOnUse" x="0" y="1" width="27" height="27">
<circle cx="13.6303" cy="14.7455" r="13.2533" fill="#C4C4C4"/>
</mask>
<g mask="url(#mask0_534_6669)">
<path d="M31 27.242C31.8544 26.6887 32.3871 26.2306 32.9661 25.8986C33.679 25.4894 33.944 25.2707 33.8591 25.1446C33.7433 24.9722 33.7948 25.0339 32.3948 25.5898C32.3948 25.5898 34.3867 24.7766 33.8179 24.6144C33.5606 24.5424 31.9033 25.2012 31.9033 25.2012C33.2852 24.7946 33.7433 24.4292 33.6712 24.2156C33.5657 23.917 31.5533 24.7303 31.5533 24.7303C31.5533 24.7303 33.0974 24.1384 33.3393 23.9582C33.5812 23.7781 33.2183 23.7009 32.9044 23.7009C32.5492 23.724 30.5162 24.1512 29.9217 24.2439C29.8723 24.2576 29.8205 24.2604 29.7699 24.2523C29.7193 24.2441 29.6711 24.225 29.6285 24.1964C29.586 24.1678 29.5501 24.1303 29.5234 24.0865C29.4968 24.0427 29.4799 23.9937 29.4739 23.9428C29.5022 23.0704 29.057 22.3781 28.8486 22.2469C28.6401 22.1156 28.3905 22.3575 28.4934 22.6097C28.5802 22.8926 28.627 23.1863 28.6324 23.4821C28.6471 23.7182 28.6209 23.9549 28.5552 24.1821C28.4806 24.4395 28.4059 24.6659 28.3365 24.8486L24.3965 31.0249L26.1053 35.248L31 27.242Z" fill="#FFBE9D"/>
<path d="M19.8989 20.8097V30.226L19.9478 36.9993L9.44034 40.4503L9.54585 35.3034C9.54585 35.3034 7.37385 28.512 7.37385 28.3988C7.37385 28.2856 7.16797 21.0001 7.16797 21.0001L11.0513 20.0556L15.9409 19.999L19.8989 20.8097Z" fill="#9DCEFF"/>
<path d="M7.16543 20.998C7.16543 20.998 5.79378 21.6028 5.24048 22.0532C4.8699 22.3543 1.63763 28.1394 -0.459738 31.9584C-0.695006 32.3859 -0.841001 32.8566 -0.888869 33.3422C-0.936738 33.8278 -0.885479 34.318 -0.738206 34.7832C-0.590934 35.2483 -0.350716 35.6787 -0.0321179 36.0483C0.28648 36.4178 0.676819 36.7188 1.11522 36.9329L7.14999 39.8795L8.972 34.8201L5.51842 32.9544L8.12791 28.4122L7.16543 20.998Z" fill="#9DCEFF"/>
<path d="M19.8985 20.8096L24.137 30.4369L26.8623 26.7002C26.8623 26.7002 29.6365 28.0616 29.302 32.0222L26.0054 36.5026C25.6604 36.776 25.2604 36.9717 24.8328 37.0763C24.4052 37.1808 23.96 37.1919 23.5277 37.1085C23.0955 37.0252 22.6863 36.8495 22.3282 36.5935C21.9701 36.3374 21.6716 36.0071 21.4529 35.625L18.4883 30.4369L19.8985 20.8096Z" fill="#9DCEFF"/>
<path d="M9.20922 20.5037C9.16547 20.5037 15.316 27.3491 15.316 27.3491L16.5796 20.1202C16.5796 20.1202 12.7709 19.2247 9.20922 20.5037Z" fill="#FFBE9D"/>
<path d="M19.9469 32.3258C19.9015 32.2959 19.86 32.2604 19.8233 32.2203C19.7384 32.1353 19.6278 32.0273 19.4888 31.896C19.2006 31.6103 18.7914 31.1934 18.2896 30.671C17.2859 29.6288 15.9297 28.1568 14.4602 26.5097L10.7081 22.279L9.57067 20.9922L9.26443 20.6345C9.22627 20.5955 9.19261 20.5524 9.16406 20.5059C9.20726 20.5395 9.2477 20.5765 9.28501 20.6165L9.60927 20.9511C9.88978 21.2444 10.2887 21.6716 10.7776 22.2043C11.7581 23.2698 13.0937 24.7624 14.5606 26.4094C16.0275 28.0564 17.3734 29.5361 18.3565 30.5964L19.5274 31.8471L19.8439 32.1894C19.8822 32.2317 19.9166 32.2774 19.9469 32.3258Z" fill="#263238"/>
<path d="M9.23992 34.3637C9.19361 34.259 9.15658 34.1505 9.12926 34.0394L8.87191 33.1438C8.6506 32.3872 8.32892 31.3424 7.97378 30.2024C7.61864 29.0623 7.31497 28.0072 7.12711 27.2403C7.03446 26.8569 6.9624 26.5455 6.92123 26.3293C6.89258 26.2189 6.87449 26.106 6.86719 25.9922C6.91456 26.0968 6.94996 26.2064 6.9727 26.319C7.03704 26.5558 7.11939 26.8569 7.23005 27.2172C7.44107 27.9738 7.74474 29.0186 8.11017 30.1638C8.4756 31.309 8.7767 32.3564 8.97485 33.1181C9.07265 33.499 9.14985 33.8104 9.19617 34.024C9.22284 34.1353 9.23751 34.2492 9.23992 34.3637Z" fill="#263238"/>
<path d="M19.5449 23.207C19.5934 23.327 19.6313 23.451 19.6581 23.5776C19.7225 23.8169 19.8126 24.1669 19.9155 24.607C20.1975 25.7401 20.3528 26.901 20.3787 28.0683C20.3625 29.2344 20.2333 30.3962 19.9927 31.5373C19.9078 31.9748 19.8306 32.3274 19.774 32.5667C19.7525 32.6943 19.718 32.8193 19.671 32.9399C19.6777 32.8109 19.6949 32.6826 19.7225 32.5564L19.9001 31.5142C20.1121 30.3756 20.2274 29.2212 20.2449 28.0632C20.216 26.9053 20.0747 25.753 19.8229 24.6224C19.7379 24.2055 19.6659 23.8504 19.6093 23.5931C19.575 23.4668 19.5535 23.3375 19.5449 23.207Z" fill="#263238"/>
<path d="M11.1316 22.9224C11.1316 22.9224 11.0312 22.8709 10.846 22.7911C10.5829 22.6855 10.3006 22.6364 10.0173 22.647C9.59976 22.6568 9.19715 22.8042 8.87211 23.0665C8.5041 23.3599 8.25962 23.8385 7.89419 24.2734C7.71846 24.4969 7.49044 24.6737 7.23024 24.7881C6.98447 24.8822 6.71925 24.914 6.4582 24.8808C6.02279 24.8221 5.61215 24.6439 5.27183 24.3661C5.04222 24.1887 4.82866 23.9915 4.63361 23.7768C4.55709 23.7032 4.48812 23.6222 4.42773 23.5349C4.51645 23.5934 4.59769 23.6625 4.66964 23.7407C4.87716 23.9365 5.0963 24.1195 5.32587 24.2889C5.65965 24.5432 6.05472 24.7048 6.47106 24.7572C6.71267 24.7838 6.95711 24.752 7.18391 24.6646C7.42236 24.5593 7.63231 24.3988 7.7964 24.1962C8.14639 23.7819 8.39859 23.2904 8.79748 22.979C9.14632 22.7065 9.57726 22.5605 10.0199 22.5647C10.314 22.5603 10.605 22.6256 10.8691 22.7551C10.9404 22.7902 11.0084 22.8316 11.0724 22.8786C11.1153 22.9061 11.135 22.9207 11.1316 22.9224Z" fill="#FAFAFA"/>
<path d="M7.34683 31.5926C7.34683 31.5926 7.32367 31.608 7.27735 31.6235C7.20657 31.6468 7.13301 31.6606 7.0586 31.6646C6.78207 31.671 6.51102 31.5869 6.28656 31.4253C5.94616 31.1964 5.67828 30.875 5.51452 30.4989C5.31894 30.0871 5.19541 29.6059 4.99983 29.1349C4.82849 28.6895 4.55425 28.2909 4.19948 27.9717C3.90758 27.7131 3.57095 27.5099 3.20613 27.3721C2.86369 27.2558 2.50864 27.1806 2.14844 27.1482C2.24574 27.1281 2.34552 27.1229 2.44438 27.1328C2.71456 27.1427 2.98173 27.193 3.23701 27.282C3.62066 27.4115 3.9755 27.6143 4.28184 27.8791C4.65609 28.2067 4.94566 28.6199 5.12593 29.0834C5.31894 29.5698 5.43732 30.0485 5.62004 30.4474C5.76987 30.8063 6.0145 31.1176 6.32774 31.3481C6.53628 31.505 6.78758 31.5947 7.04831 31.6054C7.24389 31.6157 7.34426 31.5797 7.34683 31.5926Z" fill="#FAFAFA"/>
<path d="M14.8983 27.0938C14.8002 27.1415 14.6987 27.182 14.5946 27.2147C14.3269 27.3361 14.0747 27.489 13.8432 27.6702C13.5472 27.8967 13.2256 28.2055 12.8653 28.5478C12.4879 28.9393 12.0542 29.2724 11.5786 29.536C11.0786 29.7814 10.5141 29.8634 9.96499 29.7701C9.52579 29.6933 9.09901 29.5574 8.69627 29.3661C8.35143 29.2066 8.08636 29.0547 7.90622 28.9492C7.80799 28.8996 7.71563 28.8392 7.63086 28.7691C7.64373 28.7459 8.04776 28.9801 8.73487 29.2838C9.1338 29.4562 9.55331 29.5764 9.983 29.6415C10.5095 29.7252 11.0491 29.6434 11.5271 29.4073C11.9947 29.1498 12.4236 28.8275 12.8009 28.45C13.118 28.142 13.4531 27.8533 13.8046 27.5853C14.0467 27.4067 14.3127 27.2629 14.5946 27.1581C14.6926 27.1233 14.7947 27.1016 14.8983 27.0938Z" fill="#FAFAFA"/>
<path d="M19.7268 24.6709C19.5336 24.6481 19.3436 24.6032 19.1606 24.5371L17.8173 24.146L16.4765 23.7497C16.2862 23.7063 16.1015 23.6415 15.9258 23.5566C16.1204 23.567 16.3131 23.6007 16.4997 23.657C16.8497 23.7394 17.3283 23.8629 17.8559 24.0173C18.3834 24.1717 18.8518 24.3261 19.1889 24.4471C19.3764 24.5001 19.557 24.5753 19.7268 24.6709Z" fill="#FAFAFA"/>
<path d="M21.6489 25.207C21.6643 25.2456 21.2834 25.4026 20.8768 25.6934C20.4702 25.9842 20.1871 26.2802 20.1562 26.2544C20.4967 25.7215 21.0342 25.3449 21.6514 25.207H21.6489Z" fill="#FAFAFA"/>
<path d="M19.4689 15.1931C19.4973 15.2265 19.4689 15.3192 19.3403 15.4324C19.1542 15.5898 18.9242 15.686 18.6815 15.7078C18.4922 15.7279 18.3009 15.7093 18.119 15.6531C17.9372 15.5969 17.7687 15.5043 17.6238 15.3809C17.4405 15.2287 17.295 15.0361 17.1985 14.8182C17.1021 14.6004 17.0574 14.3631 17.0679 14.1251C17.1109 13.7036 17.2462 13.2968 17.4642 12.9336C17.6112 12.6549 17.7745 12.385 17.9532 12.1255C18.262 11.6829 18.509 11.4487 18.5863 11.4976C18.6635 11.5465 18.5631 11.8656 18.3701 12.3494C18.2671 12.6068 18.1488 12.8873 18.0227 13.1961C17.8766 13.4987 17.7801 13.8228 17.737 14.156C17.731 14.2985 17.7546 14.4407 17.8064 14.5736C17.8583 14.7065 17.9372 14.8272 18.0381 14.928C18.2078 15.1019 18.4323 15.2119 18.6738 15.2394C19.119 15.2857 19.4098 15.1133 19.4689 15.1931Z" fill="#263238"/>
<path d="M10.5913 8.58318C10.9334 8.44718 11.2203 8.20099 11.4068 7.88358C11.5932 7.56617 11.6685 7.19565 11.6207 6.83065C11.5591 6.46706 11.401 6.12669 11.1629 5.84511C10.9247 5.56353 10.6154 5.35108 10.267 5.22996C9.91661 5.11575 9.54667 5.07375 9.17956 5.10648C8.81244 5.13921 8.45577 5.246 8.13107 5.42039C7.51327 5.72496 7.03013 6.24752 6.77485 6.88727C6.65175 7.20633 6.60554 7.5499 6.63997 7.89014C6.67439 8.23039 6.78849 8.55774 6.97301 8.84567C7.23862 9.19693 7.60088 9.46312 8.01545 9.61167C8.43001 9.76022 8.87889 9.78468 9.30714 9.68205C9.7322 9.56947 10.1294 9.37033 10.4739 9.09711C10.8185 8.82388 11.1029 8.48246 11.3093 8.09422" fill="#263238"/>
<path d="M8.14648 5.45154C8.32396 5.40122 8.51312 5.41118 8.68434 5.47985C9.11122 5.61949 9.47554 5.90456 9.71372 6.28535C9.9367 6.65973 10.0934 7.06978 10.1769 7.49745C10.2226 7.66941 10.2426 7.8472 10.2361 8.02501C10.162 7.85998 10.1059 7.68741 10.0689 7.51031C9.96341 7.10246 9.80051 6.71168 9.58505 6.34968C9.36318 5.99479 9.03555 5.71845 8.64831 5.55963C8.48416 5.51036 8.31636 5.47422 8.14648 5.45154Z" fill="#455A64"/>
<path d="M10.3398 5.13672C10.44 5.23747 10.5157 5.35984 10.5612 5.49443C10.6958 5.80877 10.7691 6.14593 10.7773 6.48779C10.7886 6.82923 10.7353 7.16973 10.6204 7.49144C10.5834 7.62899 10.5147 7.75593 10.4196 7.86202C10.5621 7.41849 10.6376 6.95617 10.6435 6.49036C10.6091 6.02671 10.5068 5.57063 10.3398 5.13672Z" fill="#455A64"/>
<path d="M6.66602 7.19238C6.68918 7.19238 6.7355 7.39311 6.90535 7.67877C7.12266 8.05216 7.45062 8.34881 7.84388 8.52769C8.23714 8.70657 8.67626 8.75884 9.10052 8.67727C9.42735 8.61808 9.61521 8.52029 9.61521 8.54087C9.46659 8.66085 9.28914 8.73982 9.10052 8.76991C8.65545 8.88193 8.18553 8.83927 7.76792 8.64894C7.3503 8.45861 7.00983 8.13191 6.80241 7.72252C6.71253 7.56031 6.66559 7.37783 6.66602 7.19238Z" fill="#455A64"/>
<path d="M10.6992 5.47992C10.7249 5.45543 10.7544 5.43542 10.7867 5.42073C10.873 5.37837 10.9687 5.35887 11.0647 5.36412C11.2095 5.36856 11.3499 5.41506 11.4687 5.49793C11.6135 5.60145 11.7217 5.74836 11.7775 5.91741C11.8843 6.2187 11.8751 6.54896 11.7518 6.84386C11.7122 6.93215 11.6512 7.00913 11.5742 7.06775C11.5476 7.09106 11.5158 7.10781 11.4816 7.11665C11.5851 7.04439 11.6662 6.94452 11.7157 6.82842C11.8223 6.5403 11.8223 6.22355 11.7157 5.93543C11.661 5.77773 11.5607 5.63981 11.4275 5.53911C11.3175 5.45894 11.1875 5.41084 11.0518 5.40015C10.9296 5.39846 10.8088 5.4258 10.6992 5.47992Z" fill="#263238"/>
<path d="M11.0805 16.3786C10.3085 15.3827 9.48753 14.1114 9.12982 12.907C8.7372 11.7006 8.79294 10.393 9.2868 9.22439C9.90443 7.88877 11.2195 6.94945 12.6323 6.58145C13.8408 6.24067 15.1331 6.36651 16.2532 6.93401C16.8045 7.22345 17.2713 7.65083 17.6082 8.17447C17.9452 8.69811 18.1406 9.30012 18.1755 9.9218" fill="#263238"/>
<path d="M15.3398 7.21192C15.6512 7.18103 17.0692 7.51816 17.849 8.06631C18.2993 8.38237 18.6581 8.81184 18.8891 9.31122C19.12 9.8106 19.2149 10.3621 19.164 10.91C19.0919 11.5147 18.4692 12.3383 18.2195 12.8066C17.8188 13.5554 17.3674 14.2759 16.8685 14.9632" fill="#263238"/>
<path d="M11.0078 11.544C11.0172 11.0781 11.1201 10.6188 11.3104 10.1934C11.5007 9.76799 11.7745 9.38515 12.1156 9.06759C12.4566 8.75004 12.858 8.50423 13.2959 8.34478C13.7338 8.18532 14.1993 8.11546 14.6647 8.13934C15.5626 8.20522 16.402 8.60967 17.013 9.27088C17.6241 9.93209 17.9612 10.8007 17.9562 11.701C17.9867 12.9888 17.9489 14.2774 17.8429 15.5612C17.5624 17.324 16.4275 17.8619 15.9797 18.006C15.8215 18.039 15.6602 18.0554 15.4985 18.0549L15.4856 18.0678L15.5834 20.1523C15.5654 21.5085 14.6518 22.5842 13.2982 22.5842C11.9446 22.5842 11.0464 21.4133 11.0361 20.0519L11.0078 11.544Z" fill="#FFBE9D"/>
<path d="M17.1443 12.4822C17.145 12.5562 17.117 12.6276 17.0661 12.6814C17.0152 12.7351 16.9455 12.7671 16.8715 12.7704C16.8353 12.7732 16.7988 12.7687 16.7643 12.7572C16.7298 12.7457 16.698 12.7275 16.6706 12.7035C16.6433 12.6795 16.621 12.6503 16.6052 12.6176C16.5893 12.5849 16.5801 12.5493 16.5781 12.513C16.5774 12.4393 16.6055 12.3681 16.6565 12.3148C16.7074 12.2614 16.7772 12.2301 16.8509 12.2274C16.887 12.2246 16.9232 12.229 16.9575 12.2403C16.9919 12.2516 17.0236 12.2697 17.0509 12.2934C17.0782 12.3171 17.1005 12.346 17.1166 12.3784C17.1326 12.4108 17.142 12.4461 17.1443 12.4822Z" fill="#263238"/>
<path d="M17.4913 12.1218C17.4553 12.1578 17.234 11.9983 16.9355 12.0009C16.6369 12.0034 16.4053 12.1527 16.3744 12.1167C16.3436 12.0806 16.3925 12.0317 16.4902 11.9623C16.6222 11.8701 16.7797 11.8215 16.9406 11.8233C17.0995 11.8218 17.2547 11.8714 17.3832 11.9648C17.4759 12.0369 17.5093 12.1038 17.4913 12.1218Z" fill="#263238"/>
<path d="M14.2146 12.4822C14.2154 12.5562 14.1873 12.6276 14.1364 12.6814C14.0856 12.7351 14.0158 12.767 13.9418 12.7704C13.9056 12.7732 13.8691 12.7687 13.8346 12.7572C13.8001 12.7457 13.7683 12.7274 13.741 12.7035C13.7136 12.6795 13.6914 12.6503 13.6755 12.6176C13.6596 12.5849 13.6504 12.5493 13.6485 12.513C13.6477 12.4388 13.6762 12.3673 13.7277 12.3139C13.7792 12.2605 13.8496 12.2294 13.9238 12.2274C13.9597 12.2246 13.9958 12.229 14.03 12.2404C14.0642 12.2517 14.0958 12.2698 14.1229 12.2935C14.15 12.3173 14.172 12.3462 14.1878 12.3786C14.2035 12.411 14.2127 12.4462 14.2146 12.4822Z" fill="#263238"/>
<path d="M14.4864 12.1794C14.453 12.2154 14.2291 12.0559 13.9331 12.0585C13.6372 12.061 13.403 12.2103 13.3696 12.1743C13.3361 12.1382 13.3876 12.0919 13.4879 12.0199C13.6192 11.9282 13.7757 11.8797 13.9357 11.8809C14.0945 11.8801 14.2495 11.9297 14.3784 12.0224C14.4736 12.0945 14.5044 12.1614 14.4864 12.1794Z" fill="#263238"/>
<path d="M15.5973 14.4431C15.7586 14.3931 15.9254 14.3628 16.094 14.353C16.1712 14.353 16.2458 14.3298 16.2587 14.2758C16.2643 14.1961 16.2464 14.1164 16.2072 14.0468L15.9756 13.4523C15.7641 12.9518 15.592 12.4355 15.4609 11.9082C15.7143 12.3931 15.9285 12.8973 16.1017 13.4163C16.1789 13.6247 16.2536 13.8229 16.323 14.0133C16.3722 14.1074 16.3868 14.2158 16.3642 14.3195C16.3526 14.3471 16.3351 14.3718 16.3128 14.3918C16.2906 14.4118 16.2642 14.4267 16.2356 14.4353C16.1928 14.447 16.1486 14.453 16.1043 14.4534C15.9356 14.4713 15.7652 14.4679 15.5973 14.4431Z" fill="#263238"/>
<path d="M15.4996 18.0625C15.4996 18.0625 14.3209 18.1603 12.8438 17.2725C12.8438 17.2725 13.3095 18.832 15.5253 18.6235L15.4996 18.0625Z" fill="#EB996E"/>
<path d="M15.4691 15.1785C15.4106 15.1057 15.3346 15.0489 15.2482 15.0133C15.1618 14.9778 15.0678 14.9647 14.975 14.9752C14.8392 14.9885 14.7142 15.0552 14.6276 15.1605C14.5872 15.2115 14.5634 15.2735 14.5592 15.3383C14.5551 15.4032 14.5709 15.4677 14.6044 15.5234C14.6534 15.5786 14.7179 15.6179 14.7894 15.6362C14.8609 15.6546 14.9363 15.6511 15.0059 15.6263C15.1495 15.5745 15.2815 15.495 15.3944 15.3921C15.4292 15.3681 15.4589 15.3375 15.4819 15.3021C15.4933 15.2854 15.4994 15.2657 15.4994 15.2455C15.4994 15.2253 15.4933 15.2055 15.4819 15.1888" fill="#EB996E"/>
<path d="M14.6994 14.6534C14.7483 14.6534 14.7483 14.9828 15.034 15.217C15.3196 15.4512 15.6696 15.4177 15.6722 15.4743C15.6748 15.5309 15.595 15.5387 15.4457 15.5412C15.2511 15.5443 15.0616 15.4787 14.9104 15.3559C14.7662 15.2377 14.6739 15.0678 14.6531 14.8824C14.6402 14.7332 14.6763 14.6508 14.6994 14.6534Z" fill="#263238"/>
<path d="M14.6247 11.6446C14.5938 11.7269 14.2902 11.6883 13.9299 11.7321C13.5696 11.7758 13.2839 11.8736 13.235 11.799C13.2145 11.7629 13.2634 11.6832 13.3817 11.6034C13.5376 11.5049 13.7139 11.4433 13.8972 11.4232C14.0805 11.4031 14.2659 11.4252 14.4394 11.4876C14.5707 11.539 14.6376 11.606 14.6247 11.6446Z" fill="#263238"/>
<path d="M17.3765 11.4956C17.3251 11.5651 17.1192 11.4956 16.8619 11.4956C16.6045 11.4956 16.3961 11.542 16.3472 11.4699C16.2983 11.3979 16.3472 11.3644 16.4527 11.3001C16.5769 11.2184 16.7236 11.1778 16.8721 11.1843C17.0207 11.1877 17.1646 11.2371 17.2839 11.3258C17.3714 11.3901 17.4023 11.4622 17.3765 11.4956Z" fill="#263238"/>
<path d="M10.6447 12.6575C11.8722 12.9612 13.0895 12.3847 14.0854 11.5792C14.5906 11.154 15.0019 10.6282 15.2929 10.0354C15.584 9.44264 15.7486 8.79577 15.7762 8.13595C15.7762 7.86574 15.8122 7.2687 15.5523 7.21208C15.0067 7.09113 14.9372 7.11171 14.5924 7.21208C13.563 7.49773 11.6638 7.68302 11.0101 8.59146C10.3565 9.49989 10.2227 10.9796 10.2227 12.1351" fill="#263238"/>
<path d="M18.0373 11.2965C18.1119 11.2832 18.1857 11.266 18.2586 11.245C18.4553 11.1833 18.6326 11.0716 18.7733 10.9208C18.9851 10.7025 19.1127 10.4162 19.1336 10.1127C19.1594 9.74116 19.0695 9.37074 18.8762 9.05242C18.6778 8.73586 18.4147 8.46486 18.1042 8.25722C17.8523 8.08561 17.5842 7.93908 17.3038 7.81973C17.0671 7.71422 16.8689 7.63959 16.7325 7.58554L16.5755 7.52378C16.5565 7.5175 16.5384 7.50885 16.5215 7.49805C16.5411 7.49971 16.5603 7.50494 16.5781 7.51349L16.7402 7.56496C16.8766 7.61386 17.0773 7.68334 17.3193 7.7837C17.6041 7.90029 17.8765 8.04513 18.1325 8.21605C18.4498 8.42595 18.7183 8.70151 18.9199 9.02411C19.1185 9.35261 19.2085 9.73528 19.1773 10.1178C19.1523 10.4311 19.0174 10.7256 18.7964 10.9491C18.6498 11.0996 18.466 11.2088 18.2637 11.2656C18.1904 11.288 18.1139 11.2984 18.0373 11.2965Z" fill="#263238"/>
<path d="M9.0452 10.0167C9.0452 10.0167 9.1327 10.0913 9.30254 10.1968C9.54336 10.3426 9.81465 10.4307 10.0952 10.4542C10.5125 10.4858 10.9312 10.4151 11.315 10.2483C11.7884 10.0421 12.2415 9.79221 12.6686 9.50199C13.1073 9.22936 13.5184 8.91478 13.8962 8.56268C14.4953 8.01465 14.9121 7.29611 15.0903 6.50391C15.0954 6.61051 15.0841 6.71727 15.0568 6.82045C14.9964 7.10431 14.8959 7.37813 14.7583 7.63366C14.5557 8.01463 14.2953 8.36188 13.9863 8.66304C13.6072 9.02667 13.1915 9.35008 12.7458 9.62809C12.311 9.9212 11.8491 10.172 11.3665 10.377C10.96 10.546 10.5174 10.6097 10.0797 10.5623C9.78779 10.5296 9.50844 10.4252 9.26652 10.2586C9.20291 10.2115 9.1435 10.159 9.08895 10.1016C9.05807 10.0424 9.04263 10.0193 9.0452 10.0167Z" fill="#455A64"/>
<path d="M11.7825 7.08789C11.295 7.37415 10.8304 7.69765 10.3928 8.05551C9.98505 8.447 9.6082 8.86945 9.26562 9.31908C9.31892 9.15762 9.39895 9.00625 9.50238 8.8713C9.95816 8.19361 10.5778 7.64211 11.3038 7.26803C11.4511 7.17947 11.6133 7.11843 11.7825 7.08789Z" fill="#455A64"/>
<path d="M11.4636 12.8197C11.318 12.7499 11.1552 12.7242 10.9952 12.7457C10.8352 12.7671 10.6849 12.8349 10.5629 12.9406C10.4694 13.0317 10.398 13.1431 10.3542 13.2661C10.3104 13.3891 10.2954 13.5205 10.3103 13.6502C10.3252 13.7799 10.3696 13.9045 10.4402 14.0144C10.5108 14.1242 10.6056 14.2165 10.7173 14.284C10.7923 14.3492 10.8799 14.3983 10.9746 14.4284C11.0693 14.4585 11.1692 14.4689 11.268 14.459" fill="#FFBE9D"/>
<path d="M11.1838 13.9186C11.1838 13.934 11.1169 13.988 10.9805 13.97C10.9003 13.9586 10.8257 13.9227 10.7669 13.8671C10.694 13.7999 10.6483 13.7083 10.6382 13.6097C10.6296 13.5076 10.6589 13.406 10.7205 13.3241C10.7693 13.2598 10.8367 13.2122 10.9135 13.1877C11.0448 13.1465 11.1271 13.1877 11.122 13.2031C11.1168 13.2186 11.0448 13.2212 10.9496 13.2752C10.8916 13.3061 10.8439 13.3532 10.8124 13.4108C10.7808 13.4684 10.7668 13.534 10.772 13.5995C10.7775 13.6647 10.8022 13.7269 10.8429 13.7782C10.8837 13.8295 10.9387 13.8676 11.001 13.8877C11.104 13.9134 11.1786 13.9005 11.1838 13.9186Z" fill="#EB996E"/>
<path d="M11.3407 16.7419C11.3407 16.7805 11.14 16.8628 10.7462 16.8345C10.1814 16.7676 9.65882 16.5022 9.27162 16.0857C8.99206 15.7927 8.79418 15.4316 8.69774 15.0383C8.59119 14.5817 8.61617 14.1044 8.7698 13.6615C8.93291 13.1646 9.24239 12.7286 9.65764 12.4107C10.1031 12.1051 10.6146 11.9093 11.1502 11.8394C11.6147 11.7766 12.0717 11.6671 12.5142 11.5126C13.0497 11.3058 13.5387 10.9946 13.9527 10.5969C14.3666 10.1993 14.6974 9.72323 14.9255 9.1965C15.1204 8.73686 15.2478 8.25145 15.3038 7.75536C15.345 7.39764 15.3553 7.19177 15.4042 7.18662C15.4531 7.18148 15.5277 7.37706 15.5663 7.75793C15.6089 8.30109 15.5415 8.84726 15.3682 9.36377C15.1098 10.1478 14.6374 10.844 14.0042 11.3736C13.6308 11.6896 13.2095 11.9441 12.7561 12.1277C12.2782 12.3064 11.7819 12.4316 11.2763 12.5008C10.8392 12.5546 10.4197 12.7059 10.0488 12.9435C9.73061 13.1784 9.48817 13.5013 9.3514 13.8725C9.21968 14.2077 9.18143 14.5724 9.24074 14.9276C9.2992 15.2397 9.43255 15.5328 9.62934 15.782C9.93066 16.1589 10.3374 16.4375 10.7977 16.5823C11.1297 16.6801 11.3381 16.6904 11.3407 16.7419Z" fill="#455A64"/>
<path d="M8.75586 11.3312C8.75586 11.236 9.27055 11.1742 10.0606 11.0739C10.8507 10.9735 11.9495 10.8165 12.9866 10.3018C13.4683 10.0578 13.8995 9.72516 14.2579 9.32133C14.5455 8.98874 14.7689 8.60567 14.9167 8.19158C15.1741 7.47616 15.0917 6.96919 15.1947 6.95117C15.2358 6.95117 15.3156 7.05668 15.3722 7.29087C15.4455 7.63008 15.4455 7.98104 15.3722 8.32025C15.2671 8.8268 15.0499 9.30339 14.7366 9.71507C14.3482 10.2117 13.8553 10.6167 13.2929 10.9014C12.7436 11.1797 12.1539 11.3699 11.5455 11.465C11.0614 11.5424 10.5712 11.5743 10.0812 11.5602C9.25511 11.5268 8.75586 11.4213 8.75586 11.3312Z" fill="#455A64"/>
</g>
</svg>
