<svg width="21" height="21" viewBox="0 0 21 21" fill="none" xmlns="http://www.w3.org/2000/svg">
<path d="M7.52535 8.64472L11.5416 4.62847C11.7055 4.4655 11.9273 4.37402 12.1585 4.37402C12.3896 4.37402 12.6114 4.4655 12.7754 4.62847C12.8574 4.70981 12.9225 4.80659 12.9669 4.91321C13.0113 5.01984 13.0342 5.13421 13.0342 5.24972C13.0342 5.36523 13.0113 5.47959 12.9669 5.58622C12.9225 5.69285 12.8574 5.78962 12.7754 5.87097L8.75035 9.87847C8.66834 9.95981 8.60325 10.0566 8.55883 10.1632C8.5144 10.2698 8.49153 10.3842 8.49153 10.4997C8.49153 10.6152 8.5144 10.7296 8.55883 10.8362C8.60325 10.9428 8.66834 11.0396 8.75035 11.121L12.7754 15.1285C12.9401 15.2921 13.0331 15.5144 13.034 15.7466C13.0348 15.9788 12.9433 16.2018 12.7797 16.3666C12.6161 16.5314 12.3938 16.6244 12.1616 16.6252C11.9294 16.626 11.7064 16.5346 11.5416 16.371L7.52535 12.3547C7.03378 11.8625 6.75766 11.1953 6.75766 10.4997C6.75766 9.80409 7.03378 9.13691 7.52535 8.64472Z" fill="white"/>
</svg>
