<svg width="16" height="16" viewBox="0 0 16 16" fill="none" xmlns="http://www.w3.org/2000/svg">
<path d="M15.4998 0.500749C15.2654 0.26641 14.9475 0.134766 14.616 0.134766C14.2846 0.134766 13.9667 0.26641 13.7323 0.500749L7.99977 6.23325L2.26727 0.500749C2.03286 0.26641 1.71498 0.134766 1.38352 0.134766C1.05207 0.134766 0.734182 0.26641 0.499772 0.500749C0.265433 0.735158 0.133789 1.05304 0.133789 1.3845C0.133789 1.71595 0.265433 2.03384 0.499772 2.26825L6.23227 8.00075L0.499772 13.7332C0.265433 13.9677 0.133789 14.2855 0.133789 14.617C0.133789 14.9485 0.265433 15.2663 0.499772 15.5007C0.734182 15.7351 1.05207 15.8667 1.38352 15.8667C1.71498 15.8667 2.03286 15.7351 2.26727 15.5007L7.99977 9.76825L13.7323 15.5007C13.9667 15.7351 14.2846 15.8667 14.616 15.8667C14.9475 15.8667 15.2654 15.7351 15.4998 15.5007C15.7341 15.2663 15.8658 14.9485 15.8658 14.617C15.8658 14.2855 15.7341 13.9677 15.4998 13.7332L9.76727 8.00075L15.4998 2.26825C15.7341 2.03384 15.8658 1.71595 15.8658 1.3845C15.8658 1.05304 15.7341 0.735158 15.4998 0.500749V0.500749Z" fill="#979DFF"/>
</svg>
