<svg width="33" height="33" viewBox="0 0 33 33" fill="none" xmlns="http://www.w3.org/2000/svg">
<path d="M26.125 5.5H25.4265L22.4235 1.606C22.0365 1.10798 21.5412 0.704573 20.9752 0.426324C20.4091 0.148076 19.7872 0.00228668 19.1565 0L13.8435 0C13.2128 0.00228668 12.5909 0.148076 12.0248 0.426324C11.4588 0.704573 10.9635 1.10798 10.5765 1.606L7.5735 5.5H6.875C5.05231 5.50218 3.30489 6.22721 2.01605 7.51605C0.727213 8.80489 0.0021833 10.5523 0 12.375L0 26.125C0.0021833 27.9477 0.727213 29.6951 2.01605 30.9839C3.30489 32.2728 5.05231 32.9978 6.875 33H26.125C27.9477 32.9978 29.6951 32.2728 30.9839 30.9839C32.2728 29.6951 32.9978 27.9477 33 26.125V12.375C32.9978 10.5523 32.2728 8.80489 30.9839 7.51605C29.6951 6.22721 27.9477 5.50218 26.125 5.5V5.5ZM12.7545 3.28625C12.8833 3.11995 13.0483 2.98521 13.237 2.89229C13.4257 2.79936 13.6332 2.7507 13.8435 2.75H19.1565C19.3668 2.7509 19.5742 2.79966 19.7628 2.89257C19.9515 2.98547 20.1166 3.1201 20.2455 3.28625L21.9532 5.5H11.0468L12.7545 3.28625ZM30.25 26.125C30.25 27.219 29.8154 28.2682 29.0418 29.0418C28.2682 29.8154 27.219 30.25 26.125 30.25H6.875C5.78098 30.25 4.73177 29.8154 3.95818 29.0418C3.1846 28.2682 2.75 27.219 2.75 26.125V12.375C2.75 11.281 3.1846 10.2318 3.95818 9.45818C4.73177 8.6846 5.78098 8.25 6.875 8.25H26.125C27.219 8.25 28.2682 8.6846 29.0418 9.45818C29.8154 10.2318 30.25 11.281 30.25 12.375V26.125Z" fill="#FD797A"/>
<path d="M16.5 11C14.8683 11 13.2733 11.4839 11.9166 12.3904C10.5598 13.2969 9.50242 14.5854 8.878 16.0929C8.25357 17.6004 8.0902 19.2592 8.40853 20.8595C8.72685 22.4598 9.51259 23.9298 10.6664 25.0836C11.8202 26.2374 13.2902 27.0232 14.8905 27.3415C16.4909 27.6598 18.1497 27.4964 19.6571 26.872C21.1646 26.2476 22.4531 25.1902 23.3596 23.8335C24.2662 22.4768 24.75 20.8817 24.75 19.25C24.7478 17.0626 23.8779 14.9655 22.3312 13.4188C20.7845 11.8721 18.6874 11.0022 16.5 11V11ZM16.5 24.75C15.4122 24.75 14.3488 24.4274 13.4444 23.8231C12.5399 23.2187 11.8349 22.3598 11.4187 21.3548C11.0024 20.3498 10.8935 19.2439 11.1057 18.177C11.3179 17.1101 11.8417 16.1301 12.6109 15.3609C13.3801 14.5917 14.3601 14.0679 15.427 13.8557C16.4939 13.6435 17.5998 13.7524 18.6048 14.1687C19.6098 14.5849 20.4687 15.2899 21.0731 16.1944C21.6774 17.0988 22 18.1622 22 19.25C22 20.7087 21.4205 22.1076 20.3891 23.1391C19.3576 24.1705 17.9587 24.75 16.5 24.75Z" fill="#FD797A"/>
</svg>
