<svg width="33" height="33" viewBox="0 0 33 33" fill="none" xmlns="http://www.w3.org/2000/svg">
<g clip-path="url(#clip0_438_2496)">
<path d="M27.4299 7.61301L22.6394 2.81976C21.7474 1.92345 20.6867 1.21284 19.5184 0.729015C18.3502 0.245191 17.0976 -0.00224627 15.8331 0.00100825H9.625C7.80231 0.00319156 6.05489 0.728221 4.76605 2.01706C3.47721 3.3059 2.75218 5.05331 2.75 6.87601V26.126C2.75218 27.9487 3.47721 29.6961 4.76605 30.985C6.05489 32.2738 7.80231 32.9988 9.625 33.001H23.375C25.1977 32.9988 26.9451 32.2738 28.2339 30.985C29.5228 29.6961 30.2478 27.9487 30.25 26.126V14.4179C30.2534 13.1535 30.0059 11.9009 29.5218 10.7328C29.0377 9.56476 28.3267 8.50434 27.4299 7.61301V7.61301ZM25.4856 9.55726C25.9055 9.98921 26.2666 10.4746 26.5595 11.001H20.625C20.2603 11.001 19.9106 10.8561 19.6527 10.5983C19.3949 10.3404 19.25 9.99068 19.25 9.62601V3.69151C19.7765 3.98428 20.2624 4.34485 20.6951 4.76401L25.4856 9.55726ZM27.5 26.126C27.5 27.22 27.0654 28.2692 26.2918 29.0428C25.5182 29.8164 24.469 30.251 23.375 30.251H9.625C8.53098 30.251 7.48177 29.8164 6.70818 29.0428C5.9346 28.2692 5.5 27.22 5.5 26.126V6.87601C5.5 5.78199 5.9346 4.73278 6.70818 3.95919C7.48177 3.18561 8.53098 2.75101 9.625 2.75101H15.8331C16.0586 2.75101 16.2772 2.79501 16.5 2.81563V9.62601C16.5 10.72 16.9346 11.7692 17.7082 12.5428C18.4818 13.3164 19.531 13.751 20.625 13.751H27.4354C27.456 13.9738 27.5 14.191 27.5 14.4179V26.126Z" fill="#FD797A"/>
</g>
<defs>
<clipPath id="clip0_438_2496">
<rect width="33" height="33" fill="white"/>
</clipPath>
</defs>
</svg>
