<svg width="33" height="33" viewBox="0 0 33 33" fill="none" xmlns="http://www.w3.org/2000/svg">
<g clip-path="url(#clip0_438_2480)">
<path d="M16.5 27.5C19.4164 27.4967 22.2124 26.3367 24.2746 24.2746C26.3367 22.2124 27.4967 19.4164 27.5 16.5V11C27.5 8.08262 26.3411 5.28473 24.2782 3.22183C22.2153 1.15893 19.4174 0 16.5 0C13.5826 0 10.7847 1.15893 8.72183 3.22183C6.65893 5.28473 5.5 8.08262 5.5 11V16.5C5.50328 19.4164 6.66325 22.2124 8.72544 24.2746C10.7876 26.3367 13.5836 27.4967 16.5 27.5ZM16.5 2.75C18.4478 2.75362 20.3316 3.44557 21.8185 4.7036C23.3055 5.96162 24.3 7.70476 24.6262 9.625H20.625C20.2603 9.625 19.9106 9.76987 19.6527 10.0277C19.3949 10.2856 19.25 10.6353 19.25 11C19.25 11.3647 19.3949 11.7144 19.6527 11.9723C19.9106 12.2301 20.2603 12.375 20.625 12.375H24.75V15.125H20.625C20.2603 15.125 19.9106 15.2699 19.6527 15.5277C19.3949 15.7856 19.25 16.1353 19.25 16.5C19.25 16.8647 19.3949 17.2144 19.6527 17.4723C19.9106 17.7301 20.2603 17.875 20.625 17.875H24.6262C24.3031 19.7966 23.3094 21.5414 21.8217 22.7998C20.334 24.0582 18.4485 24.7487 16.5 24.7487C14.5515 24.7487 12.666 24.0582 11.1783 22.7998C9.69056 21.5414 8.69692 19.7966 8.37375 17.875H12.375C12.7397 17.875 13.0894 17.7301 13.3473 17.4723C13.6051 17.2144 13.75 16.8647 13.75 16.5C13.75 16.1353 13.6051 15.7856 13.3473 15.5277C13.0894 15.2699 12.7397 15.125 12.375 15.125H8.25V12.375H12.375C12.7397 12.375 13.0894 12.2301 13.3473 11.9723C13.6051 11.7144 13.75 11.3647 13.75 11C13.75 10.6353 13.6051 10.2856 13.3473 10.0277C13.0894 9.76987 12.7397 9.625 12.375 9.625H8.37375C8.7 7.70476 9.69447 5.96162 11.1815 4.7036C12.6684 3.44557 14.5522 2.75362 16.5 2.75Z" fill="#FDB572"/>
<path d="M31.625 16.5C31.2603 16.5 30.9106 16.6449 30.6527 16.9027C30.3949 17.1606 30.25 17.5103 30.25 17.875C30.2464 21.1559 28.9414 24.3015 26.6214 26.6214C24.3015 28.9414 21.1559 30.2464 17.875 30.25H15.125C11.8442 30.246 8.69887 28.9409 6.37897 26.621C4.05908 24.3011 2.754 21.1558 2.75 17.875C2.75 17.5103 2.60513 17.1606 2.34727 16.9027C2.08941 16.6449 1.73967 16.5 1.375 16.5C1.01033 16.5 0.660591 16.6449 0.402728 16.9027C0.144866 17.1606 0 17.5103 0 17.875C0.00473065 21.8849 1.59977 25.7293 4.43523 28.5648C7.2707 31.4002 11.1151 32.9953 15.125 33H17.875C21.8849 32.9953 25.7293 31.4002 28.5648 28.5648C31.4002 25.7293 32.9953 21.8849 33 17.875C33 17.5103 32.8551 17.1606 32.5973 16.9027C32.3394 16.6449 31.9897 16.5 31.625 16.5Z" fill="#FDB572"/>
</g>
<defs>
<clipPath id="clip0_438_2480">
<rect width="33" height="33" fill="white"/>
</clipPath>
</defs>
</svg>
