<svg width="49" height="49" viewBox="0 0 49 49" fill="none" xmlns="http://www.w3.org/2000/svg">
<path d="M38.7917 49H10.2083C7.50191 48.9968 4.90726 47.9202 2.99353 46.0065C1.0798 44.0927 0.00324188 41.4981 0 38.7917L0 10.2083C0.00324188 7.50191 1.0798 4.90726 2.99353 2.99353C4.90726 1.0798 7.50191 0.00324188 10.2083 0L38.7917 0C41.4981 0.00324188 44.0927 1.0798 46.0065 2.99353C47.9202 4.90726 48.9968 7.50191 49 10.2083V38.7917C48.9968 41.4981 47.9202 44.0927 46.0065 46.0065C44.0927 47.9202 41.4981 48.9968 38.7917 49V49ZM10.2083 4.08333C8.58388 4.08333 7.02597 4.72864 5.8773 5.8773C4.72864 7.02597 4.08333 8.58388 4.08333 10.2083V38.7917C4.08333 40.4161 4.72864 41.974 5.8773 43.1227C7.02597 44.2714 8.58388 44.9167 10.2083 44.9167H38.7917C40.4161 44.9167 41.974 44.2714 43.1227 43.1227C44.2714 41.974 44.9167 40.4161 44.9167 38.7917V10.2083C44.9167 8.58388 44.2714 7.02597 43.1227 5.8773C41.974 4.72864 40.4161 4.08333 38.7917 4.08333H10.2083ZM19.0733 34.7185C18.2221 34.7157 17.3869 34.4882 16.6518 34.0591C15.9257 33.6435 15.323 33.0424 14.9055 32.3174C14.4879 31.5924 14.2704 30.7695 14.2753 29.9329V19.0671C14.2746 18.2303 14.494 17.4081 14.9115 16.6829C15.3289 15.9576 15.9298 15.355 16.6537 14.9353C17.3776 14.5156 18.1992 14.2937 19.036 14.2918C19.8728 14.2899 20.6954 14.5082 21.4212 14.9246L32.1971 20.3044C32.9456 20.7084 33.5724 21.3054 34.0126 22.0332C34.4528 22.7611 34.6903 23.5935 34.7005 24.444C34.7107 25.2946 34.4932 26.1324 34.0707 26.8706C33.6481 27.6089 33.0357 28.2206 32.2971 28.6425L21.3211 34.1285C20.6366 34.519 19.8613 34.7225 19.0733 34.7185V34.7185ZM19.0222 18.3852C18.9097 18.3852 18.7991 18.4147 18.7017 18.471C18.5958 18.5299 18.5079 18.6165 18.4475 18.7215C18.3871 18.8265 18.3564 18.946 18.3587 19.0671V29.9329C18.3594 30.0522 18.3911 30.1693 18.4507 30.2727C18.5104 30.3761 18.5959 30.4622 18.6988 30.5225C18.8018 30.5829 18.9187 30.6154 19.038 30.6169C19.1574 30.6184 19.275 30.5888 19.3795 30.5311L30.3555 25.0431C30.4372 24.9792 30.5022 24.8963 30.5449 24.8017C30.5876 24.7071 30.6067 24.6036 30.6005 24.5C30.6031 24.3786 30.5722 24.2588 30.5114 24.1536C30.4506 24.0485 30.362 23.9621 30.2555 23.9038L19.4877 18.524C19.3473 18.4379 19.1868 18.3901 19.0222 18.3852V18.3852Z" fill="#9BDE90"/>
</svg>
