<svg width="29" height="29" viewBox="0 0 29 29" fill="none" xmlns="http://www.w3.org/2000/svg">
<path d="M22.9583 4.83333H22.3445L19.7055 1.41133C19.3654 0.973683 18.9301 0.61917 18.4327 0.374649C17.9353 0.130127 17.3888 0.00200951 16.8345 0L12.1655 0C11.6112 0.00200951 11.0647 0.130127 10.5673 0.374649C10.0699 0.61917 9.63461 0.973683 9.2945 1.41133L6.6555 4.83333H6.04167C4.43991 4.83525 2.9043 5.4724 1.77168 6.60502C0.639066 7.73763 0.00191866 9.27324 0 10.875L0 22.9583C0.00191866 24.5601 0.639066 26.0957 1.77168 27.2283C2.9043 28.3609 4.43991 28.9981 6.04167 29H22.9583C24.5601 28.9981 26.0957 28.3609 27.2283 27.2283C28.3609 26.0957 28.9981 24.5601 29 22.9583V10.875C28.9981 9.27324 28.3609 7.73763 27.2283 6.60502C26.0957 5.4724 24.5601 4.83525 22.9583 4.83333ZM11.2085 2.88792C11.3217 2.74177 11.4667 2.62337 11.6325 2.54171C11.7984 2.46005 11.9807 2.41728 12.1655 2.41667H16.8345C17.0193 2.41746 17.2015 2.46031 17.3673 2.54195C17.5331 2.6236 17.6782 2.74191 17.7915 2.88792L19.2922 4.83333H9.70775L11.2085 2.88792ZM26.5833 22.9583C26.5833 23.9197 26.2014 24.8418 25.5216 25.5216C24.8418 26.2014 23.9197 26.5833 22.9583 26.5833H6.04167C5.08026 26.5833 4.15822 26.2014 3.4784 25.5216C2.79859 24.8418 2.41667 23.9197 2.41667 22.9583V10.875C2.41667 9.91359 2.79859 8.99156 3.4784 8.31174C4.15822 7.63192 5.08026 7.25 6.04167 7.25H22.9583C23.9197 7.25 24.8418 7.63192 25.5216 8.31174C26.2014 8.99156 26.5833 9.91359 26.5833 10.875V22.9583Z" fill="white"/>
<path d="M14.5 9.66656C13.0661 9.66656 11.6644 10.0918 10.4721 10.8884C9.27986 11.6851 8.35061 12.8173 7.80188 14.1421C7.25314 15.4669 7.10957 16.9246 7.38931 18.331C7.66905 19.7373 8.35955 21.0292 9.37348 22.0431C10.3874 23.057 11.6792 23.7475 13.0856 24.0273C14.492 24.307 15.9497 24.1634 17.2745 23.6147C18.5992 23.066 19.7315 22.1367 20.5282 20.9444C21.3248 19.7522 21.75 18.3505 21.75 16.9166C21.7481 14.9943 20.9836 13.1514 19.6244 11.7922C18.2652 10.4329 16.4222 9.66848 14.5 9.66656ZM14.5 21.7499C13.5441 21.7499 12.6096 21.4664 11.8147 20.9353C11.0199 20.4042 10.4004 19.6494 10.0346 18.7662C9.66876 17.883 9.57305 16.9112 9.75954 15.9736C9.94604 15.0361 10.4064 14.1748 11.0823 13.4989C11.7583 12.8229 12.6195 12.3626 13.5571 12.1761C14.4946 11.9896 15.4665 12.0853 16.3496 12.4511C17.2328 12.817 17.9877 13.4365 18.5188 14.2313C19.0499 15.0261 19.3333 15.9606 19.3333 16.9166C19.3333 18.1984 18.8241 19.4278 17.9177 20.3342C17.0113 21.2407 15.7819 21.7499 14.5 21.7499Z" fill="white"/>
</svg>
