<svg width="29" height="29" viewBox="0 0 29 29" fill="none" xmlns="http://www.w3.org/2000/svg">
<g clip-path="url(#clip0_1_4830)">
<path d="M14.4997 24.1667C17.0626 24.1638 19.5196 23.1444 21.3319 21.3322C23.1441 19.52 24.1635 17.0629 24.1663 14.5V9.66667C24.1663 7.10291 23.1479 4.64415 21.335 2.8313C19.5222 1.01845 17.0634 0 14.4997 0C11.9359 0 9.47716 1.01845 7.66431 2.8313C5.85146 4.64415 4.83301 7.10291 4.83301 9.66667V14.5C4.83589 17.0629 5.85526 19.52 7.66749 21.3322C9.47972 23.1444 11.9368 24.1638 14.4997 24.1667ZM14.4997 2.41667C16.2113 2.41984 17.8668 3.02792 19.1735 4.13346C20.4803 5.239 21.3542 6.77085 21.6409 8.45833H18.1247C17.8042 8.45833 17.4969 8.58564 17.2703 8.81225C17.0436 9.03885 16.9163 9.3462 16.9163 9.66667C16.9163 9.98714 17.0436 10.2945 17.2703 10.5211C17.4969 10.7477 17.8042 10.875 18.1247 10.875H21.7497V13.2917H18.1247C17.8042 13.2917 17.4969 13.419 17.2703 13.6456C17.0436 13.8722 16.9163 14.1795 16.9163 14.5C16.9163 14.8205 17.0436 15.1278 17.2703 15.3544C17.4969 15.581 17.8042 15.7083 18.1247 15.7083H21.6409C21.3569 17.397 20.4837 18.9303 19.1764 20.0362C17.869 21.142 16.212 21.7488 14.4997 21.7488C12.7873 21.7488 11.1304 21.142 9.823 20.0362C8.51562 18.9303 7.64242 17.397 7.35842 15.7083H10.8747C11.1951 15.7083 11.5025 15.581 11.7291 15.3544C11.9557 15.1278 12.083 14.8205 12.083 14.5C12.083 14.1795 11.9557 13.8722 11.7291 13.6456C11.5025 13.419 11.1951 13.2917 10.8747 13.2917H7.24967V10.875H10.8747C11.1951 10.875 11.5025 10.7477 11.7291 10.5211C11.9557 10.2945 12.083 9.98714 12.083 9.66667C12.083 9.3462 11.9557 9.03885 11.7291 8.81225C11.5025 8.58564 11.1951 8.45833 10.8747 8.45833H7.35842C7.64512 6.77085 8.51906 5.239 9.8258 4.13346C11.1326 3.02792 12.788 2.41984 14.4997 2.41667Z" fill="white"/>
<path d="M27.7917 14.5C27.4712 14.5 27.1639 14.6273 26.9372 14.8539C26.7106 15.0805 26.5833 15.3879 26.5833 15.7083C26.5801 18.5916 25.4334 21.3558 23.3946 23.3946C21.3558 25.4334 18.5916 26.5801 15.7083 26.5833H13.2917C10.4085 26.5798 7.64446 25.4329 5.60577 23.3942C3.56707 21.3555 2.42018 18.5915 2.41667 15.7083C2.41667 15.3879 2.28936 15.0805 2.06275 14.8539C1.83615 14.6273 1.5288 14.5 1.20833 14.5C0.887863 14.5 0.580519 14.6273 0.353913 14.8539C0.127306 15.0805 0 15.3879 0 15.7083C0.00415724 19.2322 1.40586 22.6106 3.89763 25.1024C6.3894 27.5941 9.76777 28.9958 13.2917 29H15.7083C19.2322 28.9958 22.6106 27.5941 25.1024 25.1024C27.5941 22.6106 28.9958 19.2322 29 15.7083C29 15.3879 28.8727 15.0805 28.6461 14.8539C28.4195 14.6273 28.1121 14.5 27.7917 14.5Z" fill="white"/>
</g>
<defs>
<clipPath id="clip0_1_4830">
<rect width="29" height="29" fill="white"/>
</clipPath>
</defs>
</svg>
