<svg width="16" height="16" viewBox="0 0 16 16" fill="none" xmlns="http://www.w3.org/2000/svg">
<path d="M14.4442 0.266929L8 6.71116L1.55577 0.266929C1.38486 0.0960174 1.15306 4.99338e-07 0.911351 4.99338e-07C0.669646 4.99338e-07 0.43784 0.0960174 0.266928 0.266929C0.0960169 0.43784 0 0.669646 0 0.911351C0 1.15306 0.0960169 1.38486 0.266928 1.55577L6.71115 8L0.266928 14.4442C0.0960169 14.6151 0 14.8469 0 15.0887C0 15.3304 0.0960169 15.5622 0.266928 15.7331C0.43784 15.904 0.669646 16 0.911351 16C1.15306 16 1.38486 15.904 1.55577 15.7331L8 9.28885L14.4442 15.7331C14.6151 15.904 14.8469 16 15.0887 16C15.3304 16 15.5622 15.904 15.7331 15.7331C15.904 15.5622 16 15.3304 16 15.0887C16 14.8469 15.904 14.6151 15.7331 14.4442L9.28885 8L15.7331 1.55577C15.904 1.38486 16 1.15306 16 0.911351C16 0.669646 15.904 0.43784 15.7331 0.266929C15.5622 0.0960174 15.3304 0 15.0887 0C14.8469 0 14.6151 0.0960174 14.4442 0.266929Z" fill="#FD797A"/>
</svg>
