<svg width="190" height="51" viewBox="0 0 190 51" fill="none" xmlns="http://www.w3.org/2000/svg">
<path d="M104.35 48.4936C104.35 47.1917 105.414 46.1278 106.716 46.1278C108.018 46.1278 109.082 47.1917 109.082 48.4936C109.082 49.7954 108.018 50.8594 106.716 50.8594C105.402 50.8594 104.35 49.8079 104.35 48.4936Z" fill="#72B8FF"/>
<path d="M77.4624 48.4936C77.4624 47.1917 78.5264 46.1278 79.8282 46.1278C81.13 46.1278 82.194 47.1917 82.194 48.4936C82.194 49.7954 81.13 50.8594 79.8282 50.8594C78.5139 50.8594 77.4624 49.8079 77.4624 48.4936Z" fill="#72B8FF"/>
<path d="M50.5627 48.4936C50.5627 47.1917 51.6267 46.1278 52.9285 46.1278C54.2304 46.1278 55.2943 47.1917 55.2944 48.4936C55.2944 49.7954 54.2304 50.8594 52.9285 50.8594C51.6267 50.8594 50.5627 49.8079 50.5627 48.4936Z" fill="#72B8FF"/>
<path d="M23.6754 48.4936C23.6754 47.1917 24.7394 46.1278 26.0412 46.1278C27.343 46.1278 28.407 47.1917 28.407 48.4936C28.407 49.7954 27.343 50.8594 26.0412 50.8594C24.7394 50.8594 23.6754 49.8079 23.6754 48.4936Z" fill="#72B8FF"/>
<path d="M-3.21204 48.4936C-3.21204 47.1917 -2.14805 46.1278 -0.846233 46.1278C0.455586 46.1278 1.51957 47.1917 1.51957 48.4936C1.51957 49.7954 0.455586 50.8594 -0.846232 50.8594C-2.16057 50.8594 -3.21204 49.8079 -3.21204 48.4936Z" fill="#72B8FF"/>
<path d="M104.35 25.4359C104.35 24.1341 105.414 23.0701 106.716 23.0701C108.018 23.0701 109.082 24.1341 109.082 25.4359C109.082 26.7378 108.018 27.8018 106.716 27.8018C105.402 27.8018 104.35 26.7378 104.35 25.4359Z" fill="#72B8FF"/>
<path d="M77.4624 25.4359C77.4624 24.1341 78.5264 23.0701 79.8282 23.0701C81.13 23.0701 82.194 24.1341 82.194 25.4359C82.194 26.7378 81.13 27.8018 79.8282 27.8018C78.5139 27.8018 77.4624 26.7378 77.4624 25.4359Z" fill="#72B8FF"/>
<path d="M50.5627 25.4359C50.5627 24.1341 51.6267 23.0701 52.9285 23.0701C54.2304 23.0701 55.2943 24.1341 55.2944 25.4359C55.2944 26.7378 54.2304 27.8018 52.9285 27.8018C51.6267 27.8018 50.5627 26.7378 50.5627 25.4359Z" fill="#72B8FF"/>
<path d="M23.6754 25.4359C23.6754 24.1341 24.7394 23.0701 26.0412 23.0701C27.343 23.0701 28.407 24.1341 28.407 25.4359C28.407 26.7378 27.343 27.8018 26.0412 27.8018C24.7394 27.8018 23.6754 26.7378 23.6754 25.4359Z" fill="#72B8FF"/>
<path d="M-3.21204 25.4359C-3.21204 24.1341 -2.14805 23.0701 -0.846233 23.0701C0.455586 23.0701 1.51957 24.1341 1.51957 25.4359C1.51957 26.7378 0.455586 27.8018 -0.846232 27.8018C-2.16057 27.8018 -3.21204 26.7378 -3.21204 25.4359Z" fill="#72B8FF"/>
<path d="M104.35 2.3666C104.35 1.06478 105.414 0.000776721 106.716 0.000776664C108.018 0.000776607 109.082 1.06478 109.082 2.3666C109.082 3.66842 108.018 4.73242 106.716 4.73242C105.402 4.73242 104.35 3.66842 104.35 2.3666Z" fill="#72B8FF"/>
<path d="M77.4624 2.3666C77.4624 1.06478 78.5264 0.000776721 79.8282 0.000776664C81.13 0.000776607 82.194 1.06478 82.194 2.3666C82.194 3.66842 81.13 4.73242 79.8282 4.73242C78.5139 4.73242 77.4624 3.66842 77.4624 2.3666Z" fill="#72B8FF"/>
<path d="M50.5627 2.3666C50.5627 1.06478 51.6267 0.000776721 52.9285 0.000776664C54.2304 0.000776607 55.2943 1.06478 55.2944 2.3666C55.2944 3.66842 54.2304 4.73242 52.9285 4.73242C51.6267 4.73242 50.5627 3.66842 50.5627 2.3666Z" fill="#72B8FF"/>
<path d="M23.6754 2.3666C23.6754 1.06478 24.7394 0.000776721 26.0412 0.000776664C27.343 0.000776607 28.407 1.06478 28.407 2.3666C28.407 3.66842 27.343 4.73242 26.0412 4.73242C24.7394 4.73242 23.6754 3.66842 23.6754 2.3666Z" fill="#72B8FF"/>
<path d="M185.026 48.4936C185.026 47.1917 186.09 46.1278 187.391 46.1278C188.693 46.1278 189.757 47.1917 189.757 48.4936C189.757 49.7954 188.693 50.8594 187.391 50.8594C186.077 50.8594 185.026 49.8079 185.026 48.4936Z" fill="#72B8FF"/>
<path d="M158.125 48.4936C158.125 47.1917 159.189 46.1278 160.491 46.1278C161.793 46.1278 162.857 47.1917 162.857 48.4936C162.857 49.7954 161.793 50.8594 160.491 50.8594C159.189 50.8594 158.125 49.8079 158.125 48.4936Z" fill="#72B8FF"/>
<path d="M131.238 48.4936C131.238 47.1917 132.302 46.1278 133.604 46.1278C134.906 46.1278 135.97 47.1917 135.97 48.4936C135.97 49.7954 134.906 50.8594 133.604 50.8594C132.302 50.8594 131.238 49.8079 131.238 48.4936Z" fill="#72B8FF"/>
<path d="M189.757 25.4359C189.757 24.1293 188.698 23.0701 187.391 23.0701C186.085 23.0701 185.026 24.1293 185.026 25.4359C185.026 26.7425 186.085 27.8018 187.391 27.8018C188.698 27.8018 189.757 26.7425 189.757 25.4359Z" fill="#72B8FF"/>
<path d="M158.125 25.4359C158.125 24.1341 159.189 23.0701 160.491 23.0701C161.793 23.0701 162.857 24.1341 162.857 25.4359C162.857 26.7378 161.793 27.8018 160.491 27.8018C159.189 27.8018 158.125 26.7378 158.125 25.4359Z" fill="#72B8FF"/>
<path d="M131.238 25.4359C131.238 24.1341 132.302 23.0701 133.604 23.0701C134.906 23.0701 135.97 24.1341 135.97 25.4359C135.97 26.7378 134.906 27.8018 133.604 27.8018C132.302 27.8018 131.238 26.7378 131.238 25.4359Z" fill="#72B8FF"/>
<path d="M185.026 2.3666C185.026 1.06478 186.09 0.000776721 187.391 0.000776664C188.693 0.000776607 189.757 1.06478 189.757 2.3666C189.757 3.66842 188.693 4.73242 187.391 4.73242C186.077 4.73242 185.026 3.66842 185.026 2.3666Z" fill="#72B8FF"/>
<path d="M158.125 2.3666C158.125 1.06478 159.189 0.000776721 160.491 0.000776664C161.793 0.000776607 162.857 1.06478 162.857 2.3666C162.857 3.66842 161.793 4.73242 160.491 4.73242C159.189 4.73242 158.125 3.66842 158.125 2.3666Z" fill="#72B8FF"/>
<path d="M131.238 2.3666C131.238 1.06478 132.302 0.000776721 133.604 0.000776664C134.906 0.000776607 135.97 1.06478 135.97 2.3666C135.97 3.66842 134.906 4.73242 133.604 4.73242C132.302 4.73242 131.238 3.66842 131.238 2.3666Z" fill="#72B8FF"/>
<path d="M-3.21204 2.3666C-3.21204 1.06478 -2.14805 0.000776721 -0.846233 0.000776664C0.455586 0.000776607 1.51957 1.06478 1.51957 2.3666C1.51957 3.66842 0.455586 4.73242 -0.846232 4.73242C-2.16057 4.73242 -3.21204 3.66842 -3.21204 2.3666Z" fill="#72B8FF"/>
</svg>
