<svg width="13" height="13" viewBox="0 0 13 13" fill="none" xmlns="http://www.w3.org/2000/svg">
<g clip-path="url(#clip0_1406_5182)">
<path d="M12.3787 0.622052C12.0105 0.254367 11.5114 0.0478516 10.991 0.0478516C10.4706 0.0478516 9.97147 0.254367 9.60322 0.622052L0.79355 9.43172C0.541269 9.68258 0.341238 9.98098 0.205028 10.3096C0.0688182 10.6383 -0.00086557 10.9907 8.11483e-06 11.3465V12.4586C8.11483e-06 12.6022 0.0570764 12.74 0.158659 12.8416C0.260241 12.9432 0.398016 13.0002 0.541675 13.0002H1.65372C2.00946 13.0012 2.36187 12.9317 2.69055 12.7955C3.01923 12.6594 3.31764 12.4595 3.56851 12.2072L12.3787 3.39701C12.7462 3.02878 12.9526 2.52978 12.9526 2.00953C12.9526 1.48928 12.7462 0.99028 12.3787 0.622052V0.622052ZM2.80259 11.4413C2.49709 11.7448 2.08432 11.9156 1.65372 11.9169H1.08334V11.3465C1.08279 11.133 1.12459 10.9216 1.20632 10.7244C1.28805 10.5272 1.40808 10.3481 1.55947 10.1976L8.24526 3.51184L9.49109 4.75768L2.80259 11.4413ZM11.6123 2.63109L10.2548 3.98905L9.00901 2.74593L10.367 1.38797C10.4488 1.30634 10.5458 1.24163 10.6527 1.19752C10.7595 1.15342 10.8739 1.13078 10.9895 1.13091C11.105 1.13103 11.2195 1.15392 11.3262 1.19826C11.4329 1.2426 11.5298 1.30752 11.6114 1.38932C11.6931 1.47113 11.7578 1.5682 11.8019 1.67502C11.846 1.78183 11.8686 1.89628 11.8685 2.01184C11.8684 2.1274 11.8455 2.24181 11.8012 2.34852C11.7568 2.45524 11.6919 2.55218 11.6101 2.6338L11.6123 2.63109Z" fill="#757575"/>
</g>
<defs>
<clipPath id="clip0_1406_5182">
<rect width="13" height="13" fill="white"/>
</clipPath>
</defs>
</svg>
