<svg width="31" height="31" viewBox="0 0 31 31" fill="none" xmlns="http://www.w3.org/2000/svg">
<path d="M23.2493 7.75025C23.0071 7.5081 22.6786 7.37207 22.3361 7.37207C21.9936 7.37207 21.6651 7.5081 21.4229 7.75025L15.4993 13.6738L9.57569 7.75025C9.33347 7.5081 9.00499 7.37207 8.66248 7.37207C8.31998 7.37207 7.9915 7.5081 7.74928 7.75025C7.50713 7.99248 7.37109 8.32096 7.37109 8.66346C7.37109 9.00596 7.50713 9.33445 7.74928 9.57667L13.6729 15.5003L7.74928 21.4238C7.50713 21.6661 7.37109 21.9945 7.37109 22.337C7.37109 22.6795 7.50713 23.008 7.74928 23.2503C7.9915 23.4924 8.31998 23.6284 8.66248 23.6284C9.00499 23.6284 9.33347 23.4924 9.57569 23.2503L15.4993 17.3267L21.4229 23.2503C21.6651 23.4924 21.9936 23.6284 22.3361 23.6284C22.6786 23.6284 23.0071 23.4924 23.2493 23.2503C23.4914 23.008 23.6275 22.6795 23.6275 22.337C23.6275 21.9945 23.4914 21.6661 23.2493 21.4238L17.3257 15.5003L23.2493 9.57667C23.4914 9.33445 23.6275 9.00596 23.6275 8.66346C23.6275 8.32096 23.4914 7.99248 23.2493 7.75025Z" fill="#979DFF"/>
</svg>
