<svg width="38" height="38" viewBox="0 0 38 38" fill="none" xmlns="http://www.w3.org/2000/svg">
<rect width="38" height="38" rx="5" fill="url(#paint0_linear_862_3159)"/>
<path d="M8 8.77943C8 7.38354 9.13159 6.25195 10.5275 6.25195C11.9234 6.25195 13.0549 7.38354 13.0549 8.77943V21.9223C13.0549 23.3182 11.9234 24.4498 10.5275 24.4498C9.13159 24.4498 8 23.3182 8 21.9223V8.77943Z" fill="white"/>
<path d="M23.1648 11.3069C23.1648 9.91101 24.2964 8.77943 25.6923 8.77943C27.0882 8.77943 28.2198 9.91101 28.2198 11.3069V21.4168C28.2198 22.8127 27.0882 23.9443 25.6923 23.9443C24.2964 23.9443 23.1648 22.8127 23.1648 21.4168V11.3069Z" fill="white"/>
<path d="M28.2198 21.4168C28.2198 27.0003 23.6934 31.5267 18.1099 31.5267C12.5263 31.5267 8 27.0003 8 21.4168C8 17.6747 10.0331 14.4075 13.0549 12.6594V21.4168C13.0549 24.2086 15.3181 26.4717 18.1099 26.4717C20.9017 26.4717 23.1648 24.2086 23.1648 21.4168V12.6594C26.1867 14.4075 28.2198 17.6747 28.2198 21.4168Z" fill="white"/>
<path fill-rule="evenodd" clip-rule="evenodd" d="M22.532 8.88488C22.0218 9.65022 21.9011 10.6098 21.9011 11.3077V21.4176C21.9011 22.0444 21.7193 22.9678 21.1516 23.7562C20.5561 24.5833 19.5702 25.2088 18.1099 25.2088C16.6496 25.2088 15.6637 24.5833 15.0682 23.7562C14.5005 22.9678 14.3187 22.0444 14.3187 21.4176C14.3187 20.9988 14.6582 20.6593 15.077 20.6593C15.4957 20.6593 15.8352 20.9988 15.8352 21.4176C15.8352 21.8017 15.9567 22.3949 16.2989 22.8701C16.6133 23.3068 17.1439 23.6923 18.1099 23.6923C19.076 23.6923 19.6066 23.3068 19.921 22.8701C20.2632 22.3949 20.3847 21.8017 20.3847 21.4176V11.3077C20.3847 10.4891 20.5167 9.17396 21.2702 8.04369C22.0599 6.85916 23.4495 6 25.6924 6C27.9352 6 29.3248 6.85916 30.1145 8.04369C30.868 9.17396 31 10.4891 31 11.3077C31 11.7265 30.6606 12.0659 30.2418 12.0659C29.823 12.0659 29.4836 11.7265 29.4836 11.3077C29.4836 10.6098 29.3629 9.65022 28.8527 8.88488C28.3786 8.17381 27.4934 7.51648 25.6924 7.51648C23.8913 7.51648 23.0061 8.17381 22.532 8.88488Z" fill="white"/>
<defs>
<linearGradient id="paint0_linear_862_3159" x1="19" y1="0" x2="19" y2="38" gradientUnits="userSpaceOnUse">
<stop stop-color="#83C0FF"/>
<stop offset="1" stop-color="#979DFF"/>
</linearGradient>
</defs>
</svg>
