<svg width="53" height="53" viewBox="0 0 53 53" fill="none" xmlns="http://www.w3.org/2000/svg">
<g clip-path="url(#clip0_891_7873)">
<path d="M44.0556 12.2264L36.3573 4.52811C34.9254 3.08846 33.2222 1.94707 31.3462 1.17C29.4703 0.392928 27.4588 -0.00439093 25.4283 0.00103132H15.4577C12.5303 0.00453784 9.72387 1.16898 7.65392 3.23893C5.58396 5.30889 4.41952 8.11534 4.41602 11.0427V41.9594C4.41952 44.8867 5.58396 47.6932 7.65392 49.7631C9.72387 51.8331 12.5303 52.9975 15.4577 53.001H37.541C40.4684 52.9975 43.2748 51.8331 45.3448 49.7631C47.4147 47.6932 48.5792 44.8867 48.5827 41.9594V23.1554C48.5881 21.1249 48.1908 19.1134 47.4137 17.2375C46.6366 15.3615 45.4953 13.6583 44.0556 12.2264V12.2264ZM40.933 15.3489C41.6067 16.0433 42.1865 16.8228 42.6577 17.6677H33.1243C32.5387 17.6677 31.977 17.435 31.5628 17.0209C31.1487 16.6068 30.916 16.0451 30.916 15.4594V5.92599C31.7609 6.39721 32.5404 6.97705 33.2348 7.6507L40.933 15.3489ZM44.166 41.9594C44.166 43.7164 43.468 45.4015 42.2256 46.644C40.9832 47.8864 39.2981 48.5844 37.541 48.5844H15.4577C13.7006 48.5844 12.0155 47.8864 10.7731 46.644C9.53067 45.4015 8.83268 43.7164 8.83268 41.9594V11.0427C8.83268 9.28564 9.53067 7.60054 10.7731 6.35812C12.0155 5.11569 13.7006 4.4177 15.4577 4.4177H25.4283C25.7927 4.4177 26.1416 4.48836 26.4993 4.52149V15.4594C26.4993 17.2164 27.1973 18.9015 28.4398 20.1439C29.6822 21.3864 31.3673 22.0844 33.1243 22.0844H44.0622C44.0953 22.4421 44.166 22.791 44.166 23.1554V41.9594ZM36.9315 29.3962C37.3348 29.8203 37.5531 30.3873 37.5386 30.9723C37.5241 31.5574 37.278 32.1128 36.8542 32.5165L28.9285 40.0558C27.6827 41.282 26.0027 41.9662 24.2546 41.9591C22.5065 41.9521 20.832 41.2545 19.5961 40.0182L16.1953 36.984C15.7578 36.5939 15.4931 36.046 15.4596 35.4609C15.443 35.1711 15.4836 34.8809 15.5791 34.6069C15.6747 34.3328 15.8232 34.0802 16.0164 33.8636C16.2095 33.647 16.4435 33.4705 16.7048 33.3443C16.9661 33.2181 17.2498 33.1445 17.5395 33.1279C18.1247 33.0944 18.6993 33.2947 19.1368 33.6847L22.637 36.8073C22.8374 37.0323 23.0817 37.214 23.3549 37.3411C23.6281 37.4681 23.9244 37.538 24.2256 37.5462C24.5267 37.5545 24.8264 37.5011 25.1062 37.3892C25.386 37.2773 25.6399 37.1093 25.8523 36.8957L33.8023 29.3189C34.0125 29.1179 34.2604 28.9604 34.5316 28.8554C34.8029 28.7505 35.0922 28.7002 35.383 28.7073C35.6737 28.7145 35.9602 28.7791 36.226 28.8973C36.4917 29.0155 36.7315 29.185 36.9315 29.3962V29.3962Z" fill="white"/>
</g>
<defs>
<clipPath id="clip0_891_7873">
<rect width="53" height="53" fill="white"/>
</clipPath>
</defs>
</svg>
