<svg width="17" height="17" viewBox="0 0 17 17" fill="none" xmlns="http://www.w3.org/2000/svg">
<g clip-path="url(#clip0_750_2820)">
<path d="M0.708333 3.36477H2.64633C2.79837 3.92416 3.13025 4.41798 3.59077 4.77005C4.0513 5.12212 4.61488 5.31287 5.19456 5.31287C5.77425 5.31287 6.33783 5.12212 6.79835 4.77005C7.25888 4.41798 7.59076 3.92416 7.74279 3.36477H16.2917C16.4795 3.36477 16.6597 3.29014 16.7925 3.1573C16.9254 3.02446 17 2.84429 17 2.65643C17 2.46857 16.9254 2.2884 16.7925 2.15557C16.6597 2.02273 16.4795 1.9481 16.2917 1.9481H7.74279C7.59076 1.38871 7.25888 0.894883 6.79835 0.542816C6.33783 0.190748 5.77425 0 5.19456 0C4.61488 0 4.0513 0.190748 3.59077 0.542816C3.13025 0.894883 2.79837 1.38871 2.64633 1.9481H0.708333C0.520472 1.9481 0.340304 2.02273 0.207466 2.15557C0.0746278 2.2884 0 2.46857 0 2.65643C0 2.84429 0.0746278 3.02446 0.207466 3.1573C0.340304 3.29014 0.520472 3.36477 0.708333 3.36477ZM5.19421 1.41685C5.43937 1.41685 5.67904 1.48955 5.88288 1.62576C6.08673 1.76196 6.24561 1.95556 6.33943 2.18207C6.43325 2.40857 6.4578 2.65781 6.40997 2.89826C6.36214 3.13872 6.24408 3.35959 6.07073 3.53295C5.89737 3.70631 5.67649 3.82437 5.43604 3.8722C5.19558 3.92003 4.94634 3.89548 4.71984 3.80166C4.49334 3.70784 4.29974 3.54896 4.16353 3.34511C4.02733 3.14126 3.95463 2.9016 3.95463 2.65643C3.955 2.32779 4.08572 2.01272 4.3181 1.78033C4.55049 1.54794 4.86557 1.41722 5.19421 1.41685Z" fill="#A0A0A0"/>
<path d="M16.2917 7.79058H14.3537C14.2019 7.23106 13.8701 6.73706 13.4096 6.38485C12.9492 6.03263 12.3855 5.8418 11.8058 5.8418C11.226 5.8418 10.6624 6.03263 10.2019 6.38485C9.74144 6.73706 9.4097 7.23106 9.25792 7.79058H0.708333C0.520472 7.79058 0.340304 7.86521 0.207466 7.99805C0.0746278 8.13089 0 8.31105 0 8.49892C0 8.68678 0.0746278 8.86694 0.207466 8.99978C0.340304 9.13262 0.520472 9.20725 0.708333 9.20725H9.25792C9.4097 9.76677 9.74144 10.2608 10.2019 10.613C10.6624 10.9652 11.226 11.156 11.8058 11.156C12.3855 11.156 12.9492 10.9652 13.4096 10.613C13.8701 10.2608 14.2019 9.76677 14.3537 9.20725H16.2917C16.4795 9.20725 16.6597 9.13262 16.7925 8.99978C16.9254 8.86694 17 8.68678 17 8.49892C17 8.31105 16.9254 8.13089 16.7925 7.99805C16.6597 7.86521 16.4795 7.79058 16.2917 7.79058ZM11.8058 9.7385C11.5606 9.7385 11.321 9.6658 11.1171 9.52959C10.9133 9.39338 10.7544 9.19979 10.6606 8.97328C10.5667 8.74678 10.5422 8.49754 10.59 8.25709C10.6379 8.01663 10.7559 7.79576 10.9293 7.6224C11.1026 7.44904 11.3235 7.33098 11.564 7.28315C11.8044 7.23532 12.0537 7.25987 12.2802 7.35369C12.5067 7.44751 12.7003 7.60639 12.8365 7.81024C12.9727 8.01409 13.0454 8.25375 13.0454 8.49892C13.045 8.82756 12.9143 9.14263 12.6819 9.37502C12.4495 9.6074 12.1344 9.73812 11.8058 9.7385Z" fill="#A0A0A0"/>
<path d="M16.2917 13.6356H7.74279C7.59076 13.0762 7.25888 12.5824 6.79835 12.2303C6.33783 11.8782 5.77425 11.6875 5.19456 11.6875C4.61488 11.6875 4.0513 11.8782 3.59077 12.2303C3.13025 12.5824 2.79837 13.0762 2.64633 13.6356H0.708333C0.520472 13.6356 0.340304 13.7102 0.207466 13.8431C0.0746278 13.9759 0 14.1561 0 14.3439C0 14.5318 0.0746278 14.712 0.207466 14.8448C0.340304 14.9776 0.520472 15.0523 0.708333 15.0523H2.64633C2.79837 15.6116 3.13025 16.1055 3.59077 16.4575C4.0513 16.8096 4.61488 17.0003 5.19456 17.0003C5.77425 17.0003 6.33783 16.8096 6.79835 16.4575C7.25888 16.1055 7.59076 15.6116 7.74279 15.0523H16.2917C16.4795 15.0523 16.6597 14.9776 16.7925 14.8448C16.9254 14.712 17 14.5318 17 14.3439C17 14.1561 16.9254 13.9759 16.7925 13.8431C16.6597 13.7102 16.4795 13.6356 16.2917 13.6356ZM5.19421 15.5835C4.94904 15.5835 4.70938 15.5108 4.50553 15.3746C4.30168 15.2384 4.1428 15.0448 4.04898 14.8183C3.95516 14.5918 3.93061 14.3425 3.97844 14.1021C4.02627 13.8616 4.14433 13.6408 4.31769 13.4674C4.49105 13.2941 4.71192 13.176 4.95238 13.1282C5.19283 13.0803 5.44207 13.1049 5.66858 13.1987C5.89508 13.2925 6.08868 13.4514 6.22488 13.6552C6.36109 13.8591 6.43379 14.0988 6.43379 14.3439C6.43323 14.6725 6.30245 14.9875 6.07011 15.2198C5.83776 15.4522 5.52279 15.5829 5.19421 15.5835Z" fill="#A0A0A0"/>
</g>
<defs>
<clipPath id="clip0_750_2820">
<rect width="17" height="17" fill="white"/>
</clipPath>
</defs>
</svg>
