<svg width="38" height="37" viewBox="0 0 38 37" fill="none" xmlns="http://www.w3.org/2000/svg">
<g clip-path="url(#clip0_2190_5631)">
<path d="M37.7384 13.5575C37.4146 12.5537 36.7675 11.6781 35.893 11.06C35.0185 10.442 33.9629 10.1144 32.8824 10.1257H25.9648L23.8637 3.7494C23.5333 2.74572 22.884 1.87013 22.0096 1.24892C21.1351 0.62771 20.0806 0.292969 18.9981 0.292969C17.9156 0.292969 16.8611 0.62771 15.9867 1.24892C15.1122 1.87013 14.4629 2.74572 14.1325 3.7494L12.0314 10.1257H5.11386C4.03679 10.1272 2.98774 10.4601 2.11658 11.0768C1.24541 11.6935 0.596673 12.5625 0.263034 13.5596C-0.0706052 14.5568 -0.072082 15.6311 0.258814 16.6291C0.589711 17.6271 1.23605 18.4978 2.10552 19.1167L7.73586 23.1251L5.59519 29.58C5.24925 30.5812 5.24487 31.6644 5.5827 32.6681C5.92053 33.6719 6.58247 34.5425 7.46986 35.1501C8.34204 35.7772 9.39898 36.1131 10.4832 36.1079C11.5674 36.1026 12.6208 35.7564 13.4865 35.1208L18.9981 31.171L24.5113 35.1162C25.3819 35.7397 26.4331 36.0784 27.5139 36.0835C28.5946 36.0886 29.6492 35.7599 30.526 35.1447C31.4028 34.5295 32.0566 33.6593 32.3936 32.6595C32.7305 31.6596 32.7331 30.5814 32.401 29.58L30.2604 23.1251L35.897 19.1167C36.7764 18.5055 37.4304 17.6349 37.762 16.6336C38.0937 15.6324 38.0854 14.5538 37.7384 13.5575ZM34.0287 16.6269L27.4674 21.2967C27.1979 21.4881 26.9973 21.7575 26.8944 22.0665C26.7915 22.3754 26.7914 22.7081 26.8942 23.0172L29.3879 30.5251C29.5141 30.9059 29.5131 31.3158 29.3849 31.696C29.2567 32.0762 29.008 32.407 28.6745 32.6408C28.3411 32.8747 27.9401 32.9996 27.5291 32.9975C27.1182 32.9955 26.7185 32.8666 26.3875 32.6295L19.9354 28.0044C19.6637 27.8101 19.3353 27.7053 18.9981 27.7053C18.6609 27.7053 18.3325 27.8101 18.0608 28.0044L11.6087 32.6295C11.2779 32.8698 10.8771 33.0014 10.4644 33.005C10.0516 33.0086 9.64843 32.8842 9.31322 32.6497C8.97801 32.4152 8.72821 32.0829 8.60004 31.7009C8.47186 31.3189 8.47197 30.907 8.60036 30.5251L11.102 23.0172C11.2048 22.7081 11.2047 22.3754 11.1018 22.0665C10.9989 21.7575 10.7984 21.4881 10.5289 21.2967L3.96752 16.6269C3.63709 16.3914 3.39156 16.0601 3.26602 15.6806C3.14047 15.301 3.14132 14.8925 3.26846 14.5135C3.39559 14.1344 3.6425 13.8042 3.97392 13.5699C4.30534 13.3356 4.70432 13.2094 5.11386 13.2091H13.1889C13.5241 13.2091 13.8506 13.1055 14.1215 12.9132C14.3924 12.7209 14.5936 12.4499 14.6962 12.1392L17.1504 4.69136C17.2763 4.31024 17.5233 3.97787 17.8556 3.74208C18.1879 3.5063 18.5885 3.37926 18.9997 3.37926C19.4109 3.37926 19.8115 3.5063 20.1438 3.74208C20.4761 3.97787 20.7231 4.31024 20.849 4.69136L23.3032 12.1392C23.4058 12.4499 23.607 12.7209 23.8779 12.9132C24.1487 13.1055 24.4753 13.2091 24.8105 13.2091H32.8855C33.2951 13.2094 33.694 13.3356 34.0255 13.5699C34.3569 13.8042 34.6038 14.1344 34.7309 14.5135C34.8581 14.8925 34.8589 15.301 34.7334 15.6806C34.6078 16.0601 34.3623 16.3914 34.0319 16.6269H34.0287Z" fill="#FDB572"/>
</g>
<path d="M13.5 11.5L18 1.5L19.5 1L20.5 2L21.5 3.5L25 11.5L35 12L36 16.5L28 23.5L31.5 32.5L28 35L26 34L18.5 29L10 34L7.5 31.5L9.5 22.5L1.5 15.5L2.5 13L13.5 11.5Z" fill="#FDB572" stroke="#FDB572"/>
<defs>
<clipPath id="clip0_2190_5631">
<rect width="38" height="37" fill="white"/>
</clipPath>
</defs>
</svg>
