<svg width="37" height="37" viewBox="0 0 37 37" fill="none" xmlns="http://www.w3.org/2000/svg">
<path d="M36.7456 13.5575C36.4303 12.5537 35.8003 11.6781 34.9487 11.06C34.0972 10.442 33.0694 10.1144 32.0173 10.1257H25.2818L23.236 3.7494C22.9143 2.74572 22.2821 1.87014 21.4307 1.24892C20.5792 0.62771 19.5525 0.292969 18.4985 0.292969C17.4445 0.292969 16.4177 0.62771 15.5663 1.24892C14.7148 1.87014 14.0826 2.74572 13.7609 3.7494L11.7151 10.1257H4.97959C3.93086 10.1272 2.90943 10.4601 2.06119 11.0768C1.21294 11.6935 0.581279 12.5625 0.25642 13.5596C-0.0684388 14.5568 -0.0698767 15.6311 0.252312 16.6291C0.574501 17.6271 1.20384 18.4978 2.05042 19.1167L7.53259 23.1251L5.44826 29.58C5.11142 30.5812 5.10715 31.6644 5.43609 32.6681C5.76503 33.6719 6.40956 34.5425 7.27359 35.1501C8.12282 35.7772 9.15195 36.1131 10.2076 36.1079C11.2633 36.1026 12.289 35.7564 13.1319 35.1208L18.4985 31.171L23.8666 35.1162C24.7142 35.7397 25.7378 36.0784 26.7901 36.0835C27.8424 36.0886 28.8693 35.7599 29.723 35.1447C30.5767 34.5295 31.2134 33.6593 31.5414 32.6595C31.8695 31.6596 31.872 30.5814 31.5487 29.58L29.4643 23.1251L34.9527 19.1167C35.8089 18.5055 36.4457 17.6349 36.7686 16.6336C37.0915 15.6324 37.0835 14.5538 36.7456 13.5575ZM33.1335 16.6269L26.7448 21.2967C26.4824 21.4881 26.2872 21.7575 26.187 22.0665C26.0868 22.3754 26.0867 22.7081 26.1868 23.0172L28.6149 30.5251C28.7378 30.9059 28.7367 31.3158 28.6119 31.696C28.4871 32.0762 28.2449 32.407 27.9203 32.6408C27.5956 32.8747 27.2051 32.9996 26.805 32.9975C26.4049 32.9955 26.0157 32.8666 25.6934 32.6294L19.4111 28.0044C19.1465 27.8101 18.8268 27.7053 18.4985 27.7053C18.1701 27.7053 17.8504 27.8101 17.5858 28.0044L11.3035 32.6294C10.9814 32.8698 10.5912 33.0014 10.1893 33.005C9.78742 33.0086 9.39483 32.8842 9.06844 32.6497C8.74206 32.4152 8.49883 32.0829 8.37403 31.7009C8.24923 31.3189 8.24934 30.907 8.37434 30.5251L10.8102 23.0172C10.9103 22.7081 10.9102 22.3754 10.81 22.0665C10.7097 21.7575 10.5145 21.4881 10.2521 21.2967L3.86342 16.6269C3.54168 16.3914 3.30262 16.0601 3.18038 15.6806C3.05813 15.301 3.05897 14.8925 3.18275 14.5135C3.30654 14.1344 3.54696 13.8042 3.86966 13.5699C4.19235 13.3356 4.58083 13.2094 4.97959 13.2091H12.8421C13.1685 13.2091 13.4865 13.1055 13.7502 12.9132C14.014 12.7209 14.2099 12.4499 14.3098 12.1392L16.6993 4.69136C16.822 4.31024 17.0624 3.97787 17.386 3.74208C17.7096 3.5063 18.0996 3.37926 18.5 3.37926C18.9004 3.37926 19.2904 3.5063 19.614 3.74208C19.9376 3.97787 20.178 4.31024 20.3007 4.69136L22.6903 12.1392C22.7901 12.4499 22.9861 12.7209 23.2498 12.9132C23.5136 13.1055 23.8315 13.2091 24.1579 13.2091H32.0204C32.4192 13.2094 32.8077 13.3356 33.1304 13.5699C33.4531 13.8042 33.6935 14.1344 33.8173 14.5135C33.9411 14.8925 33.9419 15.301 33.8196 15.6806C33.6974 16.0601 33.4583 16.3914 33.1366 16.6269H33.1335Z" fill="#FDB572"/>
</svg>
