<svg width="39" height="39" viewBox="0 0 39 39" fill="none" xmlns="http://www.w3.org/2000/svg">
<g clip-path="url(#clip0_2275_6158)">
<path d="M32.1749 7.18124C30.2698 4.59977 27.6993 2.58422 24.738 1.34982C21.7766 0.115419 18.5356 -0.291465 15.361 0.172619C12.2732 0.611611 9.35409 1.85085 6.89352 3.76723C4.43295 5.68362 2.51662 8.21044 1.33488 11.0967C0.153142 13.9829 -0.252863 17.1281 0.157196 20.2199C0.567255 23.3116 1.77911 26.2422 3.67236 28.7206C4.47847 29.8316 4.90061 31.1751 4.87486 32.5475V34.1254C4.87486 35.4183 5.38848 36.6583 6.30272 37.5725C7.21696 38.4868 8.45693 39.0004 9.74986 39.0004H21.1249C22.4178 39.0004 23.6578 38.4868 24.572 37.5725C25.4862 36.6583 25.9999 35.4183 25.9999 34.1254H26.8026C28.7718 34.1206 30.6727 33.4028 32.1535 32.1048C33.6344 30.8068 34.595 29.0163 34.8577 27.0647L35.2136 24.3754H35.7499C36.1791 24.3845 36.6058 24.3066 37.0043 24.1465C37.4027 23.9864 37.7646 23.7473 38.0682 23.4437C38.3718 23.1401 38.6109 22.7782 38.771 22.3798C38.9311 21.9813 39.0089 21.5547 38.9999 21.1254C38.9999 18.8179 34.2354 9.72599 32.1749 7.18124ZM33.7885 21.1254C33.3945 21.1255 33.014 21.2688 32.7177 21.5286C32.4215 21.7883 32.2297 22.1469 32.1781 22.5375L31.6354 26.6406C31.4775 27.8113 30.901 28.8852 30.0126 29.6637C29.1242 30.4422 27.9839 30.8726 26.8026 30.8754H24.3749C23.9439 30.8754 23.5306 31.0466 23.2258 31.3513C22.9211 31.6561 22.7499 32.0694 22.7499 32.5004V34.1254C22.7499 34.5563 22.5787 34.9697 22.2739 35.2744C21.9692 35.5792 21.5558 35.7504 21.1249 35.7504H9.74986C9.31889 35.7504 8.90556 35.5792 8.60081 35.2744C8.29607 34.9697 8.12486 34.5563 8.12486 34.1254V32.5475C8.14942 30.4612 7.49275 28.4239 6.25449 26.7446C4.70726 24.7179 3.71681 22.3218 3.38138 19.7941C3.04595 17.2665 3.37721 14.695 4.34229 12.3349C5.30737 9.97471 6.87274 7.9079 8.88311 6.33943C10.8935 4.77097 13.279 3.75537 15.803 3.39337C16.4922 3.2977 17.1872 3.24991 17.883 3.25037C20.1664 3.24729 22.4183 3.78243 24.4562 4.81238C26.4941 5.84233 28.2605 7.3381 29.6122 9.17837C32.1787 12.871 34.2427 16.8886 35.7499 21.1254H33.7885ZM26.3249 13.0182C26.2186 12.833 26.0768 12.6706 25.9077 12.5402C25.7386 12.4098 25.5454 12.3141 25.3393 12.2584C25.1331 12.2027 24.918 12.1882 24.7062 12.2157C24.4945 12.2432 24.2902 12.3121 24.1051 12.4186L22.5094 13.3351C21.6818 12.4963 20.6414 11.8986 19.4999 11.6061V9.75037C19.4999 9.31939 19.3287 8.90607 19.0239 8.60132C18.7192 8.29657 18.3058 8.12537 17.8749 8.12537C17.4439 8.12537 17.0306 8.29657 16.7258 8.60132C16.4211 8.90607 16.2499 9.31939 16.2499 9.75037V11.6061C15.1066 11.8977 14.0644 12.4955 13.2355 13.3351L11.6397 12.4186C11.4547 12.3119 11.2505 12.2427 11.0387 12.2149C10.827 12.1872 10.6118 12.2014 10.4055 12.2567C10.1993 12.3121 10.0059 12.4076 9.83654 12.5377C9.66716 12.6678 9.52506 12.83 9.41836 13.015C9.31166 13.2 9.24245 13.4042 9.21468 13.616C9.1869 13.8278 9.20111 14.0429 9.25649 14.2492C9.31187 14.4555 9.40733 14.6488 9.53743 14.8182C9.66753 14.9876 9.82972 15.1297 10.0147 15.2364L11.6284 16.1642C11.4668 16.7205 11.3815 17.2961 11.3749 17.8754C11.3831 18.4548 11.47 19.0304 11.6332 19.5865L10.0196 20.5144C9.64596 20.7299 9.37321 21.085 9.26136 21.5015C9.14952 21.9181 9.20775 22.3621 9.42324 22.7357C9.63873 23.1094 9.99382 23.3822 10.4104 23.494C10.827 23.6058 11.271 23.5476 11.6446 23.3321L13.2404 22.4156C14.068 23.2545 15.1083 23.8522 16.2499 24.1446V26.0004C16.2499 26.4313 16.4211 26.8447 16.7258 27.1494C17.0306 27.4542 17.4439 27.6254 17.8749 27.6254C18.3058 27.6254 18.7192 27.4542 19.0239 27.1494C19.3287 26.8447 19.4999 26.4313 19.4999 26.0004V24.1446C20.6431 23.853 21.6853 23.2552 22.5142 22.4156L24.11 23.3321C24.295 23.4388 24.4992 23.508 24.711 23.5358C24.9228 23.5636 25.1379 23.5494 25.3442 23.494C25.5505 23.4386 25.7438 23.3431 25.9132 23.213C26.0826 23.0829 26.2247 22.9208 26.3314 22.7357C26.4381 22.5507 26.5073 22.3465 26.535 22.1347C26.5628 21.923 26.5486 21.7078 26.4932 21.5015C26.4379 21.2953 26.3424 21.1019 26.2123 20.9325C26.0822 20.7632 25.92 20.6211 25.735 20.5144L24.1214 19.5865C24.2829 19.0302 24.3682 18.4546 24.3749 17.8754C24.3666 17.2959 24.2797 16.7203 24.1165 16.1642L25.7301 15.2364C26.1029 15.0209 26.3749 14.6662 26.4864 14.2504C26.5979 13.8345 26.5398 13.3913 26.3249 13.0182ZM17.8749 21.1254C17.2321 21.1254 16.6037 20.9348 16.0693 20.5776C15.5348 20.2205 15.1182 19.7129 14.8723 19.1191C14.6263 18.5252 14.5619 17.8718 14.6873 17.2413C14.8127 16.6109 15.1222 16.0318 15.5768 15.5773C16.0313 15.1228 16.6104 14.8132 17.2408 14.6878C17.8713 14.5624 18.5247 14.6268 19.1186 14.8728C19.7124 15.1187 20.22 15.5353 20.5771 16.0698C20.9343 16.6042 21.1249 17.2326 21.1249 17.8754C21.1249 18.7373 20.7825 19.564 20.173 20.1735C19.5635 20.783 18.7368 21.1254 17.8749 21.1254Z" fill="white"/>
</g>
<defs>
<clipPath id="clip0_2275_6158">
<rect width="39" height="39" fill="white"/>
</clipPath>
</defs>
</svg>
