<svg width="39" height="39" viewBox="0 0 39 39" fill="none" xmlns="http://www.w3.org/2000/svg">
<g clip-path="url(#clip0_2275_6124)">
<path d="M36.5622 6.46094H31.5475C31.2261 6.46101 30.912 6.55635 30.6449 6.73491C30.3777 6.91347 30.1695 7.16724 30.0465 7.46412C29.9235 7.76101 29.8914 8.08769 29.954 8.40286C30.0167 8.71804 30.1714 9.00755 30.3986 9.23481L32.1634 10.9996L26.3361 16.8252C26.0265 17.1211 25.6147 17.2862 25.1864 17.2862C24.7581 17.2862 24.3464 17.1211 24.0367 16.8252L23.7605 16.5473C22.832 15.6602 21.5972 15.1651 20.313 15.1651C19.0289 15.1651 17.7941 15.6602 16.8656 16.5473L8.57811 24.8348C8.27276 25.141 8.10156 25.556 8.10217 25.9884C8.10278 26.4209 8.27515 26.8353 8.58136 27.1407C8.88757 27.446 9.30254 27.6172 9.73497 27.6166C10.1674 27.616 10.5819 27.4436 10.8872 27.1374L19.1747 18.8499C19.4842 18.5537 19.896 18.3883 20.3244 18.3883C20.7528 18.3883 21.1647 18.5537 21.4741 18.8499L21.7504 19.1278C22.6792 20.0142 23.9139 20.5088 25.1978 20.5088C26.4817 20.5088 27.7164 20.0142 28.6452 19.1278L34.4725 13.3006L36.2372 15.0653C36.4653 15.2888 36.7541 15.4402 37.0676 15.5006C37.3812 15.5609 37.7056 15.5276 38.0003 15.4046C38.295 15.2817 38.5469 15.0747 38.7247 14.8095C38.9024 14.5442 38.9981 14.2325 38.9997 13.9132V8.89844C38.9997 8.25197 38.7429 7.63198 38.2858 7.17486C37.8287 6.71774 37.2087 6.46094 36.5622 6.46094Z" fill="white"/>
<path d="M37.375 35.711H8.125C6.83207 35.711 5.59209 35.1974 4.67785 34.2831C3.76361 33.3689 3.25 32.1289 3.25 30.836V1.625C3.25 1.19402 3.0788 0.780698 2.77405 0.475952C2.4693 0.171205 2.05598 0 1.625 0C1.19402 0 0.780698 0.171205 0.475952 0.475952C0.171205 0.780698 0 1.19402 0 1.625L0 30.836C0.00258027 32.9901 0.859433 35.0552 2.38261 36.5784C3.90578 38.1016 5.97091 38.9584 8.125 38.961H37.375C37.806 38.961 38.2193 38.7898 38.524 38.485C38.8288 38.1803 39 37.767 39 37.336C39 36.905 38.8288 36.4917 38.524 36.1869C38.2193 35.8822 37.806 35.711 37.375 35.711Z" fill="white"/>
</g>
<defs>
<clipPath id="clip0_2275_6124">
<rect width="39" height="39" fill="white"/>
</clipPath>
</defs>
</svg>
