<svg width="39" height="39" viewBox="0 0 39 39" fill="none" xmlns="http://www.w3.org/2000/svg">
<g clip-path="url(#clip0_2275_6118)">
<path d="M27.6252 0H11.3752C9.22115 0.00258027 7.15603 0.859433 5.63285 2.38261C4.10968 3.90578 3.25282 5.97091 3.25024 8.125V32.5C3.25024 34.2239 3.93506 35.8772 5.15405 37.0962C6.37304 38.3152 8.02634 39 9.75024 39H27.6252C29.7793 38.9974 31.8445 38.1406 33.3676 36.6174C34.8908 35.0942 35.7477 33.0291 35.7502 30.875V8.125C35.7477 5.97091 34.8908 3.90578 33.3676 2.38261C31.8445 0.859433 29.7793 0.00258027 27.6252 0V0ZM32.5002 8.125V26H13.0002V3.25H27.6252C28.9182 3.25 30.1581 3.76361 31.0724 4.67785C31.9866 5.59209 32.5002 6.83207 32.5002 8.125ZM9.75024 3.5295V26C8.60889 25.999 7.4876 26.3001 6.50024 26.8726V8.125C6.50039 7.117 6.81299 6.13382 7.39502 5.31083C7.97705 4.48784 8.79989 3.8655 9.75024 3.5295ZM27.6252 35.75H9.75024C8.88829 35.75 8.06164 35.4076 7.45215 34.7981C6.84265 34.1886 6.50024 33.362 6.50024 32.5C6.50024 31.638 6.84265 30.8114 7.45215 30.2019C8.06164 29.5924 8.88829 29.25 9.75024 29.25H32.5002V30.875C32.5002 32.1679 31.9866 33.4079 31.0724 34.3221C30.1581 35.2364 28.9182 35.75 27.6252 35.75Z" fill="white"/>
</g>
<defs>
<clipPath id="clip0_2275_6118">
<rect width="39" height="39" fill="white"/>
</clipPath>
</defs>
</svg>
