<svg width="39" height="39" viewBox="0 0 39 39" fill="none" xmlns="http://www.w3.org/2000/svg">
<g clip-path="url(#clip0_2275_6160)">
<path d="M30.875 3.25H29.25V1.625C29.25 1.19402 29.0788 0.780698 28.774 0.475952C28.4693 0.171205 28.056 0 27.625 0C27.194 0 26.7807 0.171205 26.476 0.475952C26.1712 0.780698 26 1.19402 26 1.625V3.25H13V1.625C13 1.19402 12.8288 0.780698 12.524 0.475952C12.2193 0.171205 11.806 0 11.375 0C10.944 0 10.5307 0.171205 10.226 0.475952C9.92121 0.780698 9.75 1.19402 9.75 1.625V3.25H8.125C5.97091 3.25258 3.90578 4.10943 2.38261 5.63261C0.859433 7.15578 0.00258027 9.22091 0 11.375L0 30.875C0.00258027 33.0291 0.859433 35.0942 2.38261 36.6174C3.90578 38.1406 5.97091 38.9974 8.125 39H30.875C33.0291 38.9974 35.0942 38.1406 36.6174 36.6174C38.1406 35.0942 38.9974 33.0291 39 30.875V11.375C38.9974 9.22091 38.1406 7.15578 36.6174 5.63261C35.0942 4.10943 33.0291 3.25258 30.875 3.25V3.25ZM3.25 11.375C3.25 10.0821 3.76361 8.84209 4.67785 7.92785C5.59209 7.01361 6.83207 6.5 8.125 6.5H30.875C32.1679 6.5 33.4079 7.01361 34.3221 7.92785C35.2364 8.84209 35.75 10.0821 35.75 11.375V13H3.25V11.375ZM30.875 35.75H8.125C6.83207 35.75 5.59209 35.2364 4.67785 34.3221C3.76361 33.4079 3.25 32.1679 3.25 30.875V16.25H35.75V30.875C35.75 32.1679 35.2364 33.4079 34.3221 34.3221C33.4079 35.2364 32.1679 35.75 30.875 35.75Z" fill="white"/>
<path d="M19.5 26.8125C20.8462 26.8125 21.9375 25.7212 21.9375 24.375C21.9375 23.0288 20.8462 21.9375 19.5 21.9375C18.1538 21.9375 17.0625 23.0288 17.0625 24.375C17.0625 25.7212 18.1538 26.8125 19.5 26.8125Z" fill="white"/>
<path d="M11.3748 26.8125C12.7209 26.8125 13.8123 25.7212 13.8123 24.375C13.8123 23.0288 12.7209 21.9375 11.3748 21.9375C10.0286 21.9375 8.93726 23.0288 8.93726 24.375C8.93726 25.7212 10.0286 26.8125 11.3748 26.8125Z" fill="white"/>
<path d="M27.6252 26.8125C28.9714 26.8125 30.0627 25.7212 30.0627 24.375C30.0627 23.0288 28.9714 21.9375 27.6252 21.9375C26.279 21.9375 25.1877 23.0288 25.1877 24.375C25.1877 25.7212 26.279 26.8125 27.6252 26.8125Z" fill="white"/>
</g>
<defs>
<clipPath id="clip0_2275_6160">
<rect width="39" height="39" fill="white"/>
</clipPath>
</defs>
</svg>
