<svg width="39" height="39" viewBox="0 0 39 39" fill="none" xmlns="http://www.w3.org/2000/svg">
<g clip-path="url(#clip0_2289_6615)">
<path d="M37.375 35.75H8.125C6.83207 35.75 5.59209 35.2364 4.67785 34.3221C3.76361 33.4079 3.25 32.1679 3.25 30.875V1.625C3.25 1.19402 3.0788 0.780698 2.77405 0.475951C2.4693 0.171205 2.05598 0 1.625 0C1.19402 0 0.780698 0.171205 0.475951 0.475951C0.171205 0.780698 0 1.19402 0 1.625L0 30.875C0.00258027 33.0291 0.859433 35.0942 2.38261 36.6174C3.90578 38.1406 5.97091 38.9974 8.125 39H37.375C37.806 39 38.2193 38.8288 38.524 38.524C38.8288 38.2193 39 37.806 39 37.375C39 36.944 38.8288 36.5307 38.524 36.226C38.2193 35.9212 37.806 35.75 37.375 35.75Z" fill="white"/>
<path d="M9.75024 32.5C10.1812 32.5 10.5945 32.3288 10.8993 32.024C11.204 31.7193 11.3752 31.306 11.3752 30.875V19.5C11.3752 19.069 11.204 18.6557 10.8993 18.351C10.5945 18.0462 10.1812 17.875 9.75024 17.875C9.31927 17.875 8.90594 18.0462 8.6012 18.351C8.29645 18.6557 8.12524 19.069 8.12524 19.5V30.875C8.12524 31.306 8.29645 31.7193 8.6012 32.024C8.90594 32.3288 9.31927 32.5 9.75024 32.5Z" fill="white"/>
<path d="M16.2498 16.25V30.875C16.2498 31.306 16.421 31.7193 16.7257 32.024C17.0305 32.3288 17.4438 32.5 17.8748 32.5C18.3057 32.5 18.7191 32.3288 19.0238 32.024C19.3286 31.7193 19.4998 31.306 19.4998 30.875V16.25C19.4998 15.819 19.3286 15.4057 19.0238 15.101C18.7191 14.7962 18.3057 14.625 17.8748 14.625C17.4438 14.625 17.0305 14.7962 16.7257 15.101C16.421 15.4057 16.2498 15.819 16.2498 16.25Z" fill="white"/>
<path d="M24.375 21.125V30.875C24.375 31.306 24.5462 31.7193 24.851 32.024C25.1557 32.3288 25.569 32.5 26 32.5C26.431 32.5 26.8443 32.3288 27.1491 32.024C27.4538 31.7193 27.625 31.306 27.625 30.875V21.125C27.625 20.694 27.4538 20.2807 27.1491 19.976C26.8443 19.6712 26.431 19.5 26 19.5C25.569 19.5 25.1557 19.6712 24.851 19.976C24.5462 20.2807 24.375 20.694 24.375 21.125Z" fill="white"/>
<path d="M32.5003 14.625V30.875C32.5003 31.306 32.6715 31.7193 32.9763 32.0241C33.281 32.3288 33.6943 32.5 34.1253 32.5C34.5563 32.5 34.9696 32.3288 35.2744 32.0241C35.5791 31.7193 35.7503 31.306 35.7503 30.875V14.625C35.7503 14.194 35.5791 13.7807 35.2744 13.476C34.9696 13.1712 34.5563 13 34.1253 13C33.6943 13 33.281 13.1712 32.9763 13.476C32.6715 13.7807 32.5003 14.194 32.5003 14.625Z" fill="white"/>
<path d="M9.74971 14.6246C10.1807 14.6245 10.5939 14.4532 10.8986 14.1484L16.7258 8.32119C17.0356 8.02613 17.4469 7.86155 17.8747 7.86155C18.3025 7.86155 18.7139 8.02613 19.0236 8.32119L22.5531 11.8507C23.4673 12.7646 24.707 13.278 25.9997 13.278C27.2924 13.278 28.5321 12.7646 29.4463 11.8507L38.5236 2.77344C38.8196 2.46696 38.9834 2.05648 38.9797 1.63041C38.976 1.20434 38.8051 0.796771 38.5038 0.495483C38.2025 0.194195 37.7949 0.0232951 37.3689 0.0195927C36.9428 0.0158902 36.5323 0.179681 36.2258 0.475688L27.1486 9.55131C26.8439 9.85595 26.4306 10.0271 25.9997 10.0271C25.5688 10.0271 25.1556 9.85595 24.8508 9.55131L21.3213 6.02344C20.4071 5.10952 19.1674 4.5961 17.8747 4.5961C16.582 4.5961 15.3423 5.10952 14.4281 6.02344L8.60084 11.8507C8.37365 12.0779 8.21894 12.3675 8.15627 12.6826C8.09359 12.9978 8.12577 13.3245 8.24874 13.6214C8.3717 13.9183 8.57993 14.172 8.84709 14.3506C9.11426 14.5292 9.42837 14.6245 9.74971 14.6246Z" fill="white"/>
</g>
<defs>
<clipPath id="clip0_2289_6615">
<rect width="39" height="39" fill="white"/>
</clipPath>
</defs>
</svg>
