<svg width="39" height="39" viewBox="0 0 39 39" fill="none" xmlns="http://www.w3.org/2000/svg">
<g clip-path="url(#clip0_2275_6277)">
<path d="M37.8152 15.306C35.2948 11.2012 29.5618 4.31445 19.4998 4.31445C9.43778 4.31445 3.70478 11.2012 1.1844 15.306C0.405261 16.5662 -0.00744629 18.0185 -0.00744629 19.5001C-0.00744629 20.9817 0.405261 22.434 1.1844 23.6942C3.70478 27.799 9.43778 34.6857 19.4998 34.6857C29.5618 34.6857 35.2948 27.799 37.8152 23.6942C38.5943 22.434 39.007 20.9817 39.007 19.5001C39.007 18.0185 38.5943 16.5662 37.8152 15.306ZM35.0445 21.9928C32.88 25.5126 27.9807 31.4357 19.4998 31.4357C11.0189 31.4357 6.11953 25.5126 3.95503 21.9928C3.49212 21.2438 3.24693 20.3806 3.24693 19.5001C3.24693 18.6195 3.49212 17.7564 3.95503 17.0073C6.11953 13.4876 11.0189 7.56445 19.4998 7.56445C27.9807 7.56445 32.88 13.4811 35.0445 17.0073C35.5074 17.7564 35.7526 18.6195 35.7526 19.5001C35.7526 20.3806 35.5074 21.2438 35.0445 21.9928Z" fill="white"/>
<path d="M19.4996 11.375C17.8927 11.375 16.3218 11.8515 14.9856 12.7443C13.6495 13.6371 12.6081 14.906 11.9931 16.3907C11.3782 17.8753 11.2173 19.509 11.5308 21.0851C11.8443 22.6612 12.6181 24.1089 13.7544 25.2452C14.8907 26.3815 16.3384 27.1554 17.9145 27.4689C19.4906 27.7824 21.1243 27.6215 22.6089 27.0065C24.0936 26.3916 25.3625 25.3502 26.2553 24.014C27.1481 22.6779 27.6246 21.107 27.6246 19.5C27.6221 17.3459 26.7652 15.2808 25.242 13.7576C23.7189 12.2344 21.6537 11.3776 19.4996 11.375ZM19.4996 24.375C18.5355 24.375 17.5929 24.0891 16.7912 23.5534C15.9895 23.0177 15.3647 22.2564 14.9957 21.3656C14.6267 20.4748 14.5302 19.4946 14.7183 18.5489C14.9064 17.6033 15.3707 16.7346 16.0525 16.0529C16.7343 15.3711 17.6029 14.9068 18.5486 14.7187C19.4942 14.5306 20.4744 14.6271 21.3652 14.9961C22.256 15.3651 23.0174 15.9899 23.5531 16.7916C24.0887 17.5933 24.3746 18.5358 24.3746 19.5C24.3746 20.7929 23.861 22.0329 22.9468 22.9471C22.0325 23.8614 20.7926 24.375 19.4996 24.375Z" fill="white"/>
</g>
<defs>
<clipPath id="clip0_2275_6277">
<rect width="39" height="39" fill="white"/>
</clipPath>
</defs>
</svg>
