<svg width="39" height="39" viewBox="0 0 39 39" fill="none" xmlns="http://www.w3.org/2000/svg">
<g clip-path="url(#clip0_2275_6282)">
<path d="M30.875 0H8.125C5.97091 0.00258027 3.90578 0.859433 2.38261 2.38261C0.859433 3.90578 0.00258027 5.97091 0 8.125L0 30.875C0.00258027 33.0291 0.859433 35.0942 2.38261 36.6174C3.90578 38.1406 5.97091 38.9974 8.125 39H30.875C33.0291 38.9974 35.0942 38.1406 36.6174 36.6174C38.1406 35.0942 38.9974 33.0291 39 30.875V8.125C38.9974 5.97091 38.1406 3.90578 36.6174 2.38261C35.0942 0.859433 33.0291 0.00258027 30.875 0V0ZM35.75 30.875C35.75 32.1679 35.2364 33.4079 34.3221 34.3221C33.4079 35.2364 32.1679 35.75 30.875 35.75H8.125C6.83207 35.75 5.59209 35.2364 4.67785 34.3221C3.76361 33.4079 3.25 32.1679 3.25 30.875V8.125C3.25 6.83207 3.76361 5.59209 4.67785 4.67785C5.59209 3.76361 6.83207 3.25 8.125 3.25H30.875C32.1679 3.25 33.4079 3.76361 34.3221 4.67785C35.2364 5.59209 35.75 6.83207 35.75 8.125V30.875Z" fill="white"/>
<path d="M15.1658 25.8687L8.79745 19.5003C8.49272 19.1957 8.07947 19.0245 7.64858 19.0245C7.21769 19.0245 6.80444 19.1957 6.4997 19.5003C6.19506 19.805 6.02393 20.2183 6.02393 20.6492C6.02393 21.0801 6.19506 21.4933 6.4997 21.798L12.8681 28.1664C13.1699 28.4683 13.5282 28.7078 13.9226 28.8713C14.317 29.0347 14.7397 29.1188 15.1666 29.1188C15.5935 29.1188 16.0163 29.0347 16.4107 28.8713C16.8051 28.7078 17.1634 28.4683 17.4652 28.1664L32.4997 13.1319C32.8043 12.8272 32.9755 12.4139 32.9755 11.983C32.9755 11.5522 32.8043 11.1389 32.4997 10.8342C32.195 10.5295 31.7817 10.3584 31.3508 10.3584C30.9199 10.3584 30.5067 10.5295 30.202 10.8342L15.1658 25.8687Z" fill="white"/>
</g>
<defs>
<clipPath id="clip0_2275_6282">
<rect width="39" height="39" fill="white"/>
</clipPath>
</defs>
</svg>
