<svg width="1523" height="696" viewBox="0 0 1523 696" fill="none" xmlns="http://www.w3.org/2000/svg">
<path d="M378.156 498.457C378.156 599.096 296.82 680.607 196.578 680.607C96.3363 680.607 15 599.096 15 498.457C15 397.818 96.3363 316.308 196.578 316.308C296.82 316.308 378.156 397.818 378.156 498.457Z" stroke="#979DFF" stroke-opacity="0.1" stroke-width="30"/>
<circle cx="199.79" cy="501.265" r="125.836" fill="#979DFF" fill-opacity="0.1"/>
<path d="M1266.75 17.5736C1290.18 -5.85787 1328.17 -5.85786 1351.6 17.5736L1505.25 171.221C1528.68 194.652 1528.68 232.642 1505.25 256.074L1351.6 409.721C1328.17 433.152 1290.18 433.152 1266.75 409.721L1113.1 256.074C1089.67 232.642 1089.67 194.652 1113.1 171.221L1266.75 17.5736Z" fill="#979DFF" fill-opacity="0.1"/>
<path d="M1173.18 469.359C1173.18 468.468 1173.91 467.739 1174.8 467.739C1175.69 467.739 1176.42 468.468 1176.42 469.359C1176.42 470.251 1175.69 470.979 1174.8 470.979C1173.9 470.979 1173.18 470.259 1173.18 469.359Z" fill="#979DFF"/>
<path d="M1154.76 469.359C1154.76 468.468 1155.49 467.739 1156.38 467.739C1157.28 467.739 1158 468.468 1158 469.359C1158 470.251 1157.28 470.979 1156.38 470.979C1155.48 470.979 1154.76 470.259 1154.76 469.359Z" fill="#979DFF"/>
<path d="M1136.34 469.359C1136.34 468.468 1137.07 467.739 1137.96 467.739C1138.85 467.739 1139.58 468.468 1139.58 469.359C1139.58 470.251 1138.85 470.979 1137.96 470.979C1137.07 470.979 1136.34 470.259 1136.34 469.359Z" fill="#979DFF"/>
<path d="M1117.93 469.359C1117.93 468.468 1118.65 467.739 1119.55 467.739C1120.44 467.739 1121.17 468.468 1121.17 469.359C1121.17 470.251 1120.44 470.979 1119.55 470.979C1118.65 470.979 1117.93 470.259 1117.93 469.359Z" fill="#979DFF"/>
<path d="M1099.51 469.359C1099.51 468.468 1100.24 467.739 1101.13 467.739C1102.02 467.739 1102.75 468.468 1102.75 469.359C1102.75 470.251 1102.02 470.979 1101.13 470.979C1100.23 470.979 1099.51 470.259 1099.51 469.359Z" fill="#979DFF"/>
<path d="M1173.18 453.567C1173.18 452.676 1173.91 451.947 1174.8 451.947C1175.69 451.947 1176.42 452.676 1176.42 453.567C1176.42 454.459 1175.69 455.187 1174.8 455.187C1173.9 455.187 1173.18 454.459 1173.18 453.567Z" fill="#979DFF"/>
<path d="M1154.76 453.567C1154.76 452.676 1155.49 451.947 1156.38 451.947C1157.28 451.947 1158 452.676 1158 453.567C1158 454.459 1157.28 455.187 1156.38 455.187C1155.48 455.187 1154.76 454.459 1154.76 453.567Z" fill="#979DFF"/>
<path d="M1136.34 453.567C1136.34 452.676 1137.07 451.947 1137.96 451.947C1138.85 451.947 1139.58 452.676 1139.58 453.567C1139.58 454.459 1138.85 455.187 1137.96 455.187C1137.07 455.187 1136.34 454.459 1136.34 453.567Z" fill="#979DFF"/>
<path d="M1117.93 453.567C1117.93 452.676 1118.65 451.947 1119.55 451.947C1120.44 451.947 1121.17 452.676 1121.17 453.567C1121.17 454.459 1120.44 455.187 1119.55 455.187C1118.65 455.187 1117.93 454.459 1117.93 453.567Z" fill="#979DFF"/>
<path d="M1099.51 453.567C1099.51 452.676 1100.24 451.947 1101.13 451.947C1102.02 451.947 1102.75 452.676 1102.75 453.567C1102.75 454.459 1102.02 455.187 1101.13 455.187C1100.23 455.187 1099.51 454.459 1099.51 453.567Z" fill="#979DFF"/>
<path d="M1173.18 437.768C1173.18 436.877 1173.91 436.148 1174.8 436.148C1175.69 436.148 1176.42 436.877 1176.42 437.768C1176.42 438.66 1175.69 439.389 1174.8 439.389C1173.9 439.389 1173.18 438.66 1173.18 437.768Z" fill="#979DFF"/>
<path d="M1154.76 437.768C1154.76 436.877 1155.49 436.148 1156.38 436.148C1157.28 436.148 1158 436.877 1158 437.768C1158 438.66 1157.28 439.389 1156.38 439.389C1155.48 439.389 1154.76 438.66 1154.76 437.768Z" fill="#979DFF"/>
<path d="M1136.34 437.768C1136.34 436.877 1137.07 436.148 1137.96 436.148C1138.85 436.148 1139.58 436.877 1139.58 437.768C1139.58 438.66 1138.85 439.389 1137.96 439.389C1137.07 439.389 1136.34 438.66 1136.34 437.768Z" fill="#979DFF"/>
<path d="M1117.93 437.768C1117.93 436.877 1118.65 436.148 1119.55 436.148C1120.44 436.148 1121.17 436.877 1121.17 437.768C1121.17 438.66 1120.44 439.389 1119.55 439.389C1118.65 439.389 1117.93 438.66 1117.93 437.768Z" fill="#979DFF"/>
<path d="M1228.43 469.359C1228.43 468.468 1229.16 467.739 1230.05 467.739C1230.94 467.739 1231.67 468.468 1231.67 469.359C1231.67 470.251 1230.94 470.979 1230.05 470.979C1229.15 470.979 1228.43 470.259 1228.43 469.359Z" fill="#979DFF"/>
<path d="M1210.01 469.359C1210.01 468.468 1210.74 467.739 1211.63 467.739C1212.52 467.739 1213.25 468.468 1213.25 469.359C1213.25 470.251 1212.52 470.979 1211.63 470.979C1210.74 470.979 1210.01 470.259 1210.01 469.359Z" fill="#979DFF"/>
<path d="M1191.59 469.359C1191.59 468.468 1192.32 467.739 1193.21 467.739C1194.11 467.739 1194.83 468.468 1194.83 469.359C1194.83 470.251 1194.11 470.979 1193.21 470.979C1192.32 470.979 1191.59 470.259 1191.59 469.359Z" fill="#979DFF"/>
<path d="M1231.67 453.567C1231.67 452.672 1230.95 451.947 1230.05 451.947C1229.16 451.947 1228.43 452.672 1228.43 453.567C1228.43 454.462 1229.16 455.187 1230.05 455.187C1230.95 455.187 1231.67 454.462 1231.67 453.567Z" fill="#979DFF"/>
<path d="M1210.01 453.567C1210.01 452.676 1210.74 451.947 1211.63 451.947C1212.52 451.947 1213.25 452.676 1213.25 453.567C1213.25 454.459 1212.52 455.187 1211.63 455.187C1210.74 455.187 1210.01 454.459 1210.01 453.567Z" fill="#979DFF"/>
<path d="M1191.59 453.567C1191.59 452.676 1192.32 451.947 1193.21 451.947C1194.11 451.947 1194.83 452.676 1194.83 453.567C1194.83 454.459 1194.11 455.187 1193.21 455.187C1192.32 455.187 1191.59 454.459 1191.59 453.567Z" fill="#979DFF"/>
<path d="M1228.43 437.768C1228.43 436.877 1229.16 436.148 1230.05 436.148C1230.94 436.148 1231.67 436.877 1231.67 437.768C1231.67 438.66 1230.94 439.389 1230.05 439.389C1229.15 439.389 1228.43 438.66 1228.43 437.768Z" fill="#979DFF"/>
<path d="M1210.01 437.768C1210.01 436.877 1210.74 436.148 1211.63 436.148C1212.52 436.148 1213.25 436.877 1213.25 437.768C1213.25 438.66 1212.52 439.389 1211.63 439.389C1210.74 439.389 1210.01 438.66 1210.01 437.768Z" fill="#979DFF"/>
<path d="M1191.59 437.768C1191.59 436.877 1192.32 436.148 1193.21 436.148C1194.11 436.148 1194.83 436.877 1194.83 437.768C1194.83 438.66 1194.11 439.389 1193.21 439.389C1192.32 439.389 1191.59 438.66 1191.59 437.768Z" fill="#979DFF"/>
<path d="M1099.51 437.768C1099.51 436.877 1100.24 436.148 1101.13 436.148C1102.02 436.148 1102.75 436.877 1102.75 437.768C1102.75 438.66 1102.02 439.389 1101.13 439.389C1100.23 439.389 1099.51 438.66 1099.51 437.768Z" fill="#979DFF"/>
<path d="M1081.09 469.359C1081.09 468.468 1081.82 467.739 1082.71 467.739C1083.6 467.739 1084.33 468.468 1084.33 469.359C1084.33 470.251 1083.6 470.979 1082.71 470.979C1081.82 470.979 1081.09 470.259 1081.09 469.359Z" fill="#979DFF"/>
<path d="M1062.67 469.359C1062.67 468.468 1063.4 467.739 1064.29 467.739C1065.18 467.739 1065.91 468.468 1065.91 469.359C1065.91 470.251 1065.18 470.979 1064.29 470.979C1063.4 470.979 1062.67 470.259 1062.67 469.359Z" fill="#979DFF"/>
<path d="M1081.09 453.567C1081.09 452.676 1081.82 451.947 1082.71 451.947C1083.6 451.947 1084.33 452.676 1084.33 453.567C1084.33 454.459 1083.6 455.187 1082.71 455.187C1081.82 455.187 1081.09 454.459 1081.09 453.567Z" fill="#979DFF"/>
<path d="M1062.67 453.567C1062.67 452.676 1063.4 451.947 1064.29 451.947C1065.18 451.947 1065.91 452.676 1065.91 453.567C1065.91 454.459 1065.18 455.187 1064.29 455.187C1063.4 455.187 1062.67 454.459 1062.67 453.567Z" fill="#979DFF"/>
<path d="M1081.09 437.768C1081.09 436.877 1081.82 436.148 1082.71 436.148C1083.6 436.148 1084.33 436.877 1084.33 437.768C1084.33 438.66 1083.6 439.389 1082.71 439.389C1081.82 439.389 1081.09 438.66 1081.09 437.768Z" fill="#979DFF"/>
<path d="M1062.67 437.768C1062.67 436.877 1063.4 436.148 1064.29 436.148C1065.18 436.148 1065.91 436.877 1065.91 437.768C1065.91 438.66 1065.18 439.389 1064.29 439.389C1063.4 439.389 1062.67 438.66 1062.67 437.768Z" fill="#979DFF"/>
</svg>
