<svg width="443" height="494" viewBox="0 0 443 494" fill="none" xmlns="http://www.w3.org/2000/svg">
<path d="M442.477 472.629C442.477 472.825 343.415 472.968 221.252 472.968C99.0889 472.968 0 472.825 0 472.629C0 472.433 99.0353 472.29 221.285 472.29C343.536 472.29 442.477 472.447 442.477 472.629Z" fill="#263238"/>
<path d="M293.275 360.271C292.65 362.744 286.644 468.658 286.644 468.658L264.431 467.001L262.978 360.309L293.275 360.271Z" fill="#FFBE9D"/>
<path d="M263.704 468.251L263.768 465.918L287.46 466.402L287.32 474.117H285.854C279.337 474.321 252.7 474.767 248.39 473.467C243.544 472.064 263.704 468.251 263.704 468.251Z" fill="#9DCEFF"/>
<g opacity="0.3">
<path opacity="0.3" d="M278.764 473.786C279.187 471.909 280.303 470.261 281.888 469.17C283.503 468.033 285.467 467.505 287.435 467.678L287.294 473.798L278.764 473.786Z" fill="black"/>
</g>
<g opacity="0.3">
<path opacity="0.3" d="M253.86 470.442C253.86 470.442 246.796 472.189 247.637 473.286C248.479 474.383 275.423 474.867 287.32 474.115V473.63L255.913 473.299C255.913 473.299 255.224 470.519 253.86 470.442Z" fill="black"/>
</g>
<path d="M287.651 473.618C287.52 473.637 287.387 473.637 287.256 473.618H286.083L281.798 473.707C278.177 473.771 273.166 473.784 267.644 473.707C262.123 473.631 257.112 473.427 253.49 473.248L249.206 472.993L248.045 472.917C247.914 472.933 247.781 472.933 247.65 472.917C247.781 472.9 247.914 472.9 248.045 472.917H249.218L253.503 473.083C257.124 473.21 262.123 473.376 267.644 473.465C273.166 473.554 278.177 473.58 281.798 473.58H287.256L287.651 473.618Z" fill="#263238"/>
<path d="M255.875 473.643C255.702 472.978 255.45 472.335 255.123 471.731C254.723 471.159 254.261 470.633 253.745 470.162C254.453 470.42 255.045 470.922 255.416 471.578C255.625 471.875 255.773 472.21 255.852 472.565C255.93 472.919 255.938 473.286 255.875 473.643Z" fill="#263238"/>
<path d="M262.914 470.479C262.837 470.479 262.518 470.135 262.187 469.625C261.855 469.115 261.639 468.682 261.702 468.643C261.766 468.605 262.098 468.988 262.429 469.498C262.761 470.008 262.977 470.454 262.914 470.479Z" fill="#263238"/>
<path d="M264.839 469.589C264.839 469.589 264.418 469.397 264.023 469.053C263.627 468.709 263.347 468.377 263.398 468.326C263.449 468.275 263.819 468.517 264.214 468.862C264.609 469.206 264.89 469.525 264.839 469.589Z" fill="#263238"/>
<path d="M266.088 467.536C265.678 467.672 265.242 467.715 264.813 467.663C264.383 467.698 263.95 467.65 263.538 467.523C263.947 467.38 264.384 467.337 264.813 467.396C265.243 467.343 265.68 467.391 266.088 467.536Z" fill="#263238"/>
<path d="M266.496 466.082C266.079 466.325 265.602 466.444 265.119 466.426C264.639 466.499 264.148 466.432 263.704 466.235C264.168 466.171 264.638 466.15 265.106 466.171C265.566 466.102 266.031 466.072 266.496 466.082Z" fill="#263238"/>
<path d="M262.148 468.556C261.646 468.644 261.133 468.644 260.631 468.556C260.086 468.478 259.548 468.355 259.024 468.186C258.709 468.1 258.405 467.975 258.119 467.816C258.03 467.771 257.951 467.709 257.887 467.632C257.824 467.555 257.777 467.466 257.749 467.37C257.726 467.265 257.737 467.155 257.781 467.057C257.825 466.958 257.898 466.876 257.991 466.822C258.567 466.562 259.212 466.499 259.827 466.642C260.442 466.785 260.993 467.126 261.396 467.612C261.626 467.885 261.788 468.208 261.868 468.556C261.901 468.681 261.901 468.813 261.868 468.939C261.726 468.477 261.501 468.045 261.205 467.663C260.864 467.281 260.422 467.002 259.929 466.86C259.338 466.656 258.691 466.683 258.119 466.937C257.876 467.102 257.953 467.357 258.221 467.51C258.487 467.661 258.769 467.78 259.062 467.867C259.572 468.036 260.092 468.172 260.618 468.276C261.574 468.505 262.148 468.518 262.148 468.556Z" fill="#263238"/>
<path d="M261.753 468.62C261.585 468.322 261.53 467.973 261.6 467.638C261.661 467.267 261.815 466.916 262.046 466.618C262.185 466.407 262.374 466.234 262.597 466.113C262.819 465.993 263.068 465.93 263.321 465.93C263.394 465.942 263.463 465.969 263.525 466.008C263.587 466.048 263.64 466.099 263.682 466.16C263.724 466.221 263.753 466.289 263.767 466.361C263.782 466.434 263.782 466.508 263.767 466.58C263.736 466.809 263.644 467.025 263.499 467.205C263.296 467.52 263.046 467.804 262.76 468.046C262.514 468.299 262.213 468.491 261.88 468.608C261.88 468.608 262.186 468.352 262.62 467.919C262.871 467.666 263.089 467.384 263.27 467.077C263.487 466.784 263.64 466.261 263.27 466.185C263.07 466.204 262.876 466.266 262.702 466.367C262.528 466.469 262.378 466.606 262.263 466.771C262.046 467.035 261.893 467.345 261.816 467.677C261.766 467.989 261.745 468.304 261.753 468.62Z" fill="#263238"/>
<path d="M287.307 467.611C287.307 467.611 286.631 467.534 285.573 467.611C284.198 467.732 282.879 468.212 281.747 469.001C280.657 469.773 279.808 470.838 279.299 472.074C278.917 473.005 278.878 473.642 278.815 473.63C278.795 473.482 278.795 473.331 278.815 473.183C278.87 472.784 278.964 472.391 279.095 472.01C279.57 470.711 280.428 469.586 281.556 468.784C282.736 467.972 284.117 467.5 285.547 467.42C285.972 467.384 286.398 467.384 286.823 467.42C286.995 467.452 287.159 467.517 287.307 467.611Z" fill="#263238"/>
<path d="M275.844 471.59C274.711 471.814 273.555 471.9 272.401 471.845C271.245 471.876 270.089 471.769 268.958 471.526C268.958 471.45 270.501 471.526 272.401 471.526C274.301 471.526 275.844 471.513 275.844 471.59Z" fill="#263238"/>
<path d="M280.523 471.667C280.523 471.667 280.383 471.973 280.23 472.292C280.077 472.61 279.962 472.916 279.885 472.904C279.809 472.891 279.771 472.559 279.962 472.177C280.153 471.794 280.421 471.616 280.523 471.667Z" fill="#263238"/>
<path d="M282.257 469.69C282.257 469.69 282.155 469.958 281.9 470.188C281.645 470.417 281.416 470.557 281.352 470.506C281.288 470.455 281.454 470.226 281.709 469.996C281.964 469.767 282.206 469.626 282.257 469.69Z" fill="#263238"/>
<path d="M284.769 468.812C284.769 468.888 284.438 468.876 284.093 468.99C283.749 469.105 283.481 469.258 283.43 469.207C283.379 469.156 283.571 468.863 284.004 468.735C284.438 468.608 284.795 468.748 284.769 468.812Z" fill="#263238"/>
<path d="M286.555 468.404C286.555 468.481 286.44 468.583 286.249 468.659C286.057 468.736 285.866 468.723 285.841 468.659C285.815 468.596 285.955 468.481 286.147 468.417C286.338 468.353 286.529 468.34 286.555 468.404Z" fill="#263238"/>
<path d="M383.071 160.901C386.299 156.52 387.826 151.116 387.369 145.693C386.912 140.27 384.501 135.198 380.584 131.42L341.552 93.7646L334.079 121.295C334.768 121.678 364.313 148.622 364.313 148.622L343.299 179.62C341.704 181.97 340.732 184.686 340.473 187.514C340.215 190.342 340.678 193.189 341.82 195.789L343.209 199.985C343.688 201.423 344.476 202.739 345.52 203.839C346.563 204.939 347.835 205.796 349.247 206.35C350.658 206.903 352.174 207.14 353.687 207.042C355.199 206.945 356.672 206.516 358.001 205.787L364.377 202.305C364.553 202.208 364.706 202.073 364.826 201.911C364.945 201.749 365.028 201.563 365.069 201.365C365.111 201.168 365.109 200.964 365.064 200.768C365.019 200.571 364.933 200.387 364.811 200.227C364.662 200.036 364.466 199.887 364.243 199.793C364.02 199.699 363.776 199.664 363.535 199.691L354.609 200.405C353.704 200.481 352.8 200.25 352.042 199.751C351.284 199.252 350.715 198.512 350.427 197.651L383.071 160.901Z" fill="#FFBE9D"/>
<path d="M363.829 149.424C365.385 147.128 367.387 145.088 368.929 143.048L363.829 149.424Z" fill="#FFBE9D"/>
<path d="M254.281 123.668L245.546 139.479L240.19 96.4941C239.959 93.3746 240.576 90.2507 241.975 87.4533C242.566 86.208 243.293 85.0319 244.143 83.9466C245.227 82.6124 246.489 81.4326 247.892 80.4399C249.269 79.6621 249.027 77.6346 247.612 77.4816C246.196 77.3286 242.383 79.3816 239.387 83.5003C236.39 87.619 236.059 79.6749 235.88 76.8058C235.702 73.9367 234.784 65.0489 233.865 64.4113C232.501 63.4932 231.239 64.8066 231.468 67.6884C231.698 70.5703 231.8 79.2413 230.282 79.2923C228.765 79.3433 228.127 64.6663 228.127 64.6663C228.127 64.6663 228.497 61.4912 226.737 61.4912C223.562 61.4912 225.398 77.0353 225.615 78.5145C225.755 79.5346 224.111 79.6494 224.009 78.5145C223.906 77.3796 223.69 63.8375 220.464 63.8247C217.99 63.8247 221.866 76.5762 220.349 79.4836C218.831 82.3909 218.398 69.4482 216.039 69.5247C215.146 69.5247 214.496 69.7032 215.809 77.0481C216.523 81.001 219.125 86.6882 219.928 94.4029L220.132 96.4048C220.132 96.4048 224.531 134.06 231.149 157.013C235.102 170.772 254.638 172.123 262.556 160.188C267.937 152.091 276.43 130.923 276.43 130.923L254.281 123.668Z" fill="#FFBE9D"/>
<path d="M223.294 89.671C223.294 89.7475 223.792 89.671 224.57 90.0025C225.598 90.3648 226.462 91.0843 227.005 92.03L227.311 92.5656L227.477 91.9662C227.732 91.1234 228.129 90.33 228.65 89.62C229.67 88.2389 231.083 87.1987 232.705 86.6361C233.98 86.1898 234.809 86.2153 234.796 86.1133C234.061 85.9555 233.296 86.0086 232.59 86.2663C230.83 86.752 229.285 87.8166 228.204 89.2884C227.624 90.0522 227.192 90.917 226.929 91.8387H227.4C227.096 91.3257 226.692 90.8786 226.213 90.5239C225.733 90.1691 225.187 89.9138 224.608 89.773C224.19 89.6068 223.732 89.5712 223.294 89.671Z" fill="#EB996E"/>
<path d="M351.115 364.07C351.931 366.493 360.194 466.082 360.194 466.082L337.905 467.613L324.388 373.608L351.115 364.07Z" fill="#FFBE9D"/>
<path d="M361.636 468.15L361.559 465.816L337.905 466.339L338.046 473.99L339.512 474.054C346.028 474.271 372.666 474.717 376.976 473.404C381.771 471.975 361.636 468.15 361.636 468.15Z" fill="#9DCEFF"/>
<g opacity="0.3">
<path opacity="0.3" d="M346.563 473.68C346.156 471.8 345.042 470.148 343.452 469.064C341.829 467.947 339.867 467.433 337.905 467.611L338.033 473.744L346.563 473.68Z" fill="black"/>
</g>
<g opacity="0.3">
<path opacity="0.3" d="M371.48 470.343C371.48 470.343 378.544 472.09 377.69 473.186C376.835 474.283 349.917 474.768 338.02 474.015V473.531L369.427 473.199C369.427 473.199 370.103 470.419 371.48 470.343Z" fill="black"/>
</g>
<path d="M337.676 473.519H338.084H339.244L343.541 473.621C347.163 473.621 352.161 473.684 357.696 473.621C363.23 473.557 368.228 473.327 371.837 473.149L376.121 472.907L377.282 472.817H377.69H377.282H376.121L371.837 472.97C368.216 473.111 363.217 473.264 357.683 473.366C352.149 473.468 347.163 473.468 343.541 473.468H337.676V473.519Z" fill="#263238"/>
<path d="M369.452 473.542C369.735 472.156 370.515 470.923 371.645 470.073C370.933 470.329 370.337 470.831 369.962 471.489C369.533 472.081 369.35 472.817 369.452 473.542Z" fill="#263238"/>
<path d="M362.426 470.392C362.426 470.392 362.821 470.047 363.153 469.537C363.484 469.027 363.701 468.581 363.637 468.543C363.573 468.504 363.242 468.887 362.91 469.397C362.579 469.907 362.362 470.353 362.426 470.392Z" fill="#263238"/>
<path d="M360.5 469.485C360.5 469.485 360.921 469.294 361.316 468.95C361.711 468.605 361.992 468.286 361.941 468.223C361.89 468.159 361.52 468.414 361.125 468.758C360.73 469.103 360.436 469.434 360.5 469.485Z" fill="#263238"/>
<path d="M359.239 467.434C359.649 467.567 360.084 467.611 360.514 467.561C360.944 467.61 361.38 467.562 361.789 467.421C361.378 467.287 360.943 467.244 360.514 467.293C360.083 467.252 359.649 467.3 359.239 467.434Z" fill="#263238"/>
<path d="M358.792 465.979C359.211 466.229 359.694 466.353 360.182 466.337C360.659 466.402 361.145 466.332 361.584 466.133C361.122 466.09 360.657 466.09 360.194 466.133C359.731 466.049 359.262 465.998 358.792 465.979Z" fill="#263238"/>
<path d="M363.178 468.467C363.682 468.541 364.193 468.541 364.696 468.467C365.241 468.392 365.779 468.268 366.303 468.097C366.621 468.008 366.929 467.884 367.221 467.727C367.394 467.634 367.525 467.479 367.59 467.294C367.609 467.187 367.595 467.077 367.552 466.977C367.509 466.878 367.438 466.793 367.348 466.733C366.766 466.476 366.115 466.417 365.496 466.565C364.877 466.712 364.323 467.058 363.918 467.549C363.7 467.829 363.539 468.15 363.446 468.492C363.415 468.618 363.415 468.749 363.446 468.875C363.594 468.435 363.818 468.025 364.109 467.664C364.451 467.283 364.893 467.004 365.384 466.86C365.976 466.656 366.623 466.683 367.195 466.937C367.437 467.103 367.348 467.37 367.08 467.523C366.812 467.666 366.53 467.782 366.239 467.868C365.738 468.049 365.221 468.186 364.696 468.276C363.765 468.403 363.178 468.416 363.178 468.467Z" fill="#263238"/>
<path d="M363.574 468.519C363.662 468.375 363.721 468.216 363.747 468.049C363.773 467.883 363.766 467.713 363.727 467.55C363.678 467.172 363.528 466.816 363.293 466.517C363.154 466.306 362.965 466.132 362.742 466.012C362.52 465.892 362.271 465.829 362.018 465.828C361.87 465.856 361.738 465.941 361.652 466.065C361.566 466.19 361.533 466.343 361.559 466.491C361.608 466.717 361.703 466.93 361.839 467.116C362.042 467.425 362.287 467.704 362.566 467.945C362.81 468.2 363.112 468.393 363.446 468.506C363.446 468.506 363.14 468.251 362.719 467.817C362.471 467.564 362.249 467.287 362.056 466.989C361.852 466.695 361.686 466.16 362.056 466.083C362.257 466.1 362.452 466.161 362.626 466.262C362.801 466.364 362.95 466.503 363.064 466.67C363.288 466.93 363.446 467.24 363.523 467.575C363.573 467.887 363.59 468.203 363.574 468.519Z" fill="#263238"/>
<path d="M338.019 467.511C338.019 467.511 338.695 467.434 339.766 467.511C341.14 467.638 342.457 468.117 343.592 468.901C344.673 469.679 345.516 470.743 346.027 471.974C346.41 472.905 346.461 473.542 346.512 473.53C346.563 473.517 346.512 473.376 346.512 473.096C346.471 472.69 346.377 472.291 346.231 471.91C345.757 470.61 344.898 469.485 343.77 468.684C342.592 467.868 341.21 467.396 339.779 467.32C339.355 467.275 338.928 467.275 338.504 467.32C338.333 467.355 338.169 467.42 338.019 467.511Z" fill="#263238"/>
<path d="M349.483 471.438C350.62 471.669 351.781 471.754 352.939 471.693C354.095 471.73 355.252 471.623 356.382 471.374C356.382 471.297 354.826 471.374 352.926 471.374C351.026 471.374 349.496 471.438 349.483 471.438Z" fill="#263238"/>
<path d="M344.867 471.565C344.867 471.565 344.994 471.871 345.16 472.203C345.326 472.534 345.415 472.815 345.504 472.802C345.594 472.79 345.619 472.458 345.415 472.088C345.211 471.718 344.918 471.514 344.867 471.565Z" fill="#263238"/>
<path d="M343.082 469.59C343.019 469.59 343.184 469.871 343.427 470.088C343.669 470.304 343.924 470.457 343.975 470.406C344.026 470.355 343.873 470.126 343.631 469.896C343.388 469.667 343.133 469.539 343.082 469.59Z" fill="#263238"/>
<path d="M340.571 468.709C340.571 468.786 340.902 468.773 341.246 468.888C341.591 469.003 341.846 469.156 341.909 469.105C341.973 469.054 341.769 468.76 341.336 468.633C340.902 468.505 340.545 468.646 340.571 468.709Z" fill="#263238"/>
<path d="M338.785 468.315C338.785 468.379 338.887 468.494 339.091 468.557C339.295 468.621 339.474 468.621 339.499 468.557C339.525 468.494 339.384 468.379 339.193 468.302C339.002 468.226 338.811 468.239 338.785 468.315Z" fill="#263238"/>
<path d="M330.955 171.563L346.589 208.083L365.397 460.486H325L302.571 240.727L293.275 461.404L255.977 458.242L261.154 208.313C261.327 202.717 262.679 197.22 265.119 192.182L275.423 171.04L330.955 171.563Z" fill="#263238"/>
<path d="M271.291 179.606C271.291 179.797 285.432 179.937 302.876 179.937C320.32 179.937 334.475 179.797 334.475 179.606C334.475 179.415 320.333 179.274 302.876 179.274C285.42 179.274 271.291 179.427 271.291 179.606Z" fill="#455A64"/>
<path d="M303.272 243.631C303.451 243.631 303.604 229.4 303.604 211.829C303.604 194.257 303.451 180.026 303.272 180.026C303.094 180.026 302.941 194.27 302.941 211.829C302.941 229.387 303.081 243.631 303.272 243.631Z" fill="#455A64"/>
<path d="M297.355 178.791C297.334 179.012 297.334 179.234 297.355 179.454C297.355 179.951 297.355 180.576 297.355 181.329C297.355 183.063 297.355 185.396 297.355 188.24C297.355 194.067 297.355 202.126 297.508 211.014C297.508 215.464 297.61 219.698 297.661 223.562C297.575 226.974 297.784 230.387 298.286 233.763C298.622 236.091 299.612 238.275 301.142 240.062C301.71 240.703 302.405 241.22 303.183 241.579C302.528 241.063 301.914 240.496 301.346 239.883C299.946 238.089 299.064 235.946 298.796 233.686C298.371 230.303 298.214 226.893 298.324 223.485C298.324 219.66 298.261 215.388 298.222 210.938C298.12 202.011 297.993 193.978 297.878 188.151C297.801 185.307 297.738 182.973 297.699 181.252C297.699 180.5 297.636 179.875 297.61 179.365C297.552 179.163 297.467 178.969 297.355 178.791Z" fill="#455A64"/>
<path d="M236.416 166.78C236.594 166.78 236.747 152.244 236.747 134.315C236.747 116.386 236.594 101.85 236.416 101.85C236.237 101.85 236.084 116.386 236.084 134.315C236.084 152.244 236.224 166.78 236.416 166.78Z" fill="#FAFAFA"/>
<path d="M275.422 171.038C275.422 171.038 274.976 132.554 275.04 131.917L250.162 129.06C250.162 129.06 257.812 100.293 261.944 94.9119C272.795 80.8852 289.997 83.4355 289.997 83.4355L315.666 83.1295C316.389 82.9634 317.122 82.84 317.859 82.7597C321.631 82.3268 325.451 82.7097 329.061 83.8823C332.671 85.0549 335.987 86.99 338.785 89.5562L366.698 118.171L348.106 134.314L334.079 128.487L330.891 171.561L275.422 171.038Z" fill="#9DCEFF"/>
<path d="M312.631 158.631C312.256 160.976 311.723 163.294 311.037 165.568C310.142 167.759 309.103 169.889 307.926 171.943C309.669 170.231 310.953 168.109 311.662 165.772C312.569 163.508 312.902 161.055 312.631 158.631Z" fill="#263238"/>
<path d="M304.164 163.86C303.895 165.264 303.839 166.699 303.999 168.119C303.938 169.547 304.102 170.976 304.483 172.353C304.754 170.95 304.814 169.515 304.662 168.094C304.72 166.665 304.552 165.236 304.164 163.86Z" fill="#263238"/>
<path opacity="0.3" d="M325.001 87.0693L325.383 171.51L313.562 171.561L325.001 87.0693Z" fill="black"/>
<path d="M280.752 83.7918L277.322 175.794H269.455L271.253 143.099L264.711 158.936C263.216 162.561 260.671 165.656 257.404 167.824C254.136 169.992 250.295 171.133 246.374 171.101C241.849 171.064 237.475 169.467 233.991 166.579C230.506 163.692 228.125 159.691 227.247 155.251L220.871 111.73L242.472 97.2063L247.076 134.3L257.978 102.218C259.2 98.5022 261.175 95.0785 263.779 92.1605C266.383 89.2424 269.561 86.8927 273.114 85.2582C275.471 84.0591 278.119 83.5508 280.752 83.7918Z" fill="#455A64"/>
<path d="M270.807 167.516C273.008 167.958 275.275 167.958 277.476 167.516C275.275 167.074 273.008 167.074 270.807 167.516Z" fill="#FAFAFA"/>
<path d="M270.577 154.639C273.175 155.098 275.834 155.098 278.432 154.639C275.832 154.197 273.177 154.197 270.577 154.639Z" fill="#FAFAFA"/>
<path d="M226.482 154.411C226.482 154.589 235.408 154.742 246.387 154.742C257.367 154.742 266.28 154.589 266.28 154.411C266.28 154.232 257.354 154.079 246.387 154.079C235.421 154.079 226.482 154.219 226.482 154.411Z" fill="#FAFAFA"/>
<path d="M223.868 134.863C223.868 135.054 236.186 135.194 251.386 135.194C266.586 135.194 278.916 135.054 278.916 134.863C278.916 134.672 266.586 134.531 251.386 134.531C236.186 134.531 223.868 134.684 223.868 134.863Z" fill="#FAFAFA"/>
<path d="M254.37 113.657C258.569 113.994 262.783 114.104 266.994 113.989C271.209 114.104 275.427 113.993 279.631 113.657C275.427 113.329 271.209 113.219 266.994 113.326C262.783 113.218 258.569 113.329 254.37 113.657Z" fill="#FAFAFA"/>
<path d="M262.671 94.1216C268.541 94.5636 274.436 94.5636 280.306 94.1216C274.436 93.6795 268.541 93.6795 262.671 94.1216Z" fill="#FAFAFA"/>
<path d="M267.976 152.803C268.154 152.803 268.307 138.917 268.307 121.805C268.307 104.692 268.154 90.8057 267.976 90.8057C267.797 90.8057 267.644 104.679 267.644 121.805C267.644 138.93 267.772 152.803 267.976 152.803Z" fill="#FAFAFA"/>
<path d="M251.972 167.455C252.151 167.455 252.304 157.407 252.304 145.026C252.304 132.644 252.151 122.596 251.972 122.596C251.794 122.596 251.641 132.631 251.641 145.026C251.641 157.42 251.781 167.455 251.972 167.455Z" fill="#FAFAFA"/>
<path d="M271.393 86.1924C271.215 86.1924 271.062 99.0841 271.062 114.973C271.062 130.861 271.215 143.727 271.393 143.727C271.572 143.727 271.725 130.848 271.725 114.96C271.725 99.0714 271.597 86.1924 271.393 86.1924Z" fill="#263238"/>
<path d="M234.86 166.307C235.016 166.46 235.187 166.597 235.37 166.715C235.879 167.083 236.421 167.403 236.99 167.672C239.09 168.66 241.406 169.099 243.722 168.947C245.33 168.876 246.912 168.513 248.389 167.876C250.086 167.131 251.623 166.065 252.916 164.739C255.683 161.959 257.622 158.108 259.522 154.142C263.347 146.185 266.407 138.841 268.448 133.37C269.468 130.654 270.246 128.448 270.756 126.918L271.329 125.133C271.398 124.929 271.449 124.72 271.482 124.508C271.36 124.688 271.265 124.886 271.202 125.094C271.011 125.553 270.781 126.127 270.513 126.829L267.963 133.204C265.821 138.573 262.722 145.956 258.884 153.862C256.984 157.827 255.059 161.615 252.444 164.318C250.146 166.768 247.009 168.261 243.659 168.5C241.401 168.667 239.136 168.291 237.053 167.404C235.625 166.792 234.898 166.243 234.86 166.307Z" fill="#263238"/>
<path d="M247.178 149.17C247.513 146.604 247.624 144.014 247.51 141.43C247.625 138.845 247.514 136.255 247.178 133.689C246.85 136.256 246.739 138.845 246.847 141.43C246.74 144.014 246.85 146.604 247.178 149.17Z" fill="#263238"/>
<path d="M337.625 87.4025L382.816 133.104C386.58 136.748 388.858 141.659 389.209 146.886C389.56 152.113 387.959 157.285 384.716 161.399L354.826 194.732L348.986 168.349L362.617 149.375L336.821 134.341L337.535 175.834L325.001 177.568V82.5187C325.001 82.5187 332.46 82.4167 337.625 87.4025Z" fill="#455A64"/>
<path d="M324.669 114.395C324.669 114.586 333.519 114.727 344.447 114.727C355.375 114.727 364.224 114.586 364.224 114.395C364.224 114.204 355.362 114.063 344.447 114.063C333.531 114.063 324.669 114.191 324.669 114.395Z" fill="#FAFAFA"/>
<path d="M325.383 95.2697C328.666 95.6056 331.968 95.7163 335.266 95.6013C338.568 95.7165 341.874 95.6058 345.161 95.2697C341.873 94.9414 338.568 94.8306 335.266 94.9382C331.968 94.8308 328.667 94.9416 325.383 95.2697Z" fill="#FAFAFA"/>
<path d="M326.097 133.675C326.097 133.854 338.683 134.007 354.214 134.007C369.745 134.007 382.267 133.854 382.267 133.675C382.267 133.497 369.682 133.344 354.214 133.344C338.746 133.344 326.097 133.522 326.097 133.675Z" fill="#FAFAFA"/>
<path d="M325.613 156.311C329.425 156.756 333.277 156.756 337.089 156.311C333.277 155.866 329.425 155.866 325.613 156.311Z" fill="#FAFAFA"/>
<path d="M358.028 155.369C358.028 155.547 364.646 155.7 372.794 155.7C380.942 155.7 387.573 155.547 387.573 155.369C387.573 155.19 380.955 155.037 372.794 155.037C364.633 155.037 358.028 155.203 358.028 155.369Z" fill="#FAFAFA"/>
<path d="M350.159 173.472C354.043 173.801 357.943 173.911 361.84 173.804C365.736 173.911 369.636 173.801 373.52 173.472C369.636 173.136 365.736 173.026 361.84 173.141C357.943 173.026 354.043 173.136 350.159 173.472Z" fill="#FAFAFA"/>
<path d="M325.154 173.473C329.274 173.915 333.429 173.915 337.548 173.473C333.429 173.031 329.274 173.031 325.154 173.473Z" fill="#FAFAFA"/>
<path d="M350.491 141.748C350.669 141.748 350.823 132.618 350.823 121.346C350.823 110.073 350.669 100.943 350.491 100.943C350.312 100.943 350.159 110.086 350.159 121.346C350.159 132.605 350.3 141.748 350.491 141.748Z" fill="#FAFAFA"/>
<path d="M367.399 144.005C367.577 144.005 367.73 138.152 367.73 130.935C367.73 123.717 367.577 117.852 367.399 117.852C367.063 122.204 366.952 126.571 367.067 130.935C366.952 135.294 367.063 139.657 367.399 144.005Z" fill="#FAFAFA"/>
<path d="M378.213 167.684C378.404 167.684 378.544 159 378.544 148.289C378.544 137.577 378.404 128.906 378.213 128.906C378.021 128.906 377.881 137.577 377.881 148.289C377.881 159 378.034 167.684 378.213 167.684Z" fill="#FAFAFA"/>
<path d="M360.411 186.838C360.59 186.838 360.743 179.519 360.743 170.504C360.743 161.488 360.59 154.156 360.411 154.156C360.233 154.156 360.067 161.476 360.067 170.504C360.067 179.532 360.22 186.838 360.411 186.838Z" fill="#FAFAFA"/>
<path d="M331.096 84.4932C330.918 84.4932 330.765 105.036 330.765 130.399C330.765 155.761 330.918 176.304 331.096 176.304C331.275 176.304 331.428 155.774 331.428 130.399C331.428 105.023 331.287 84.4932 331.096 84.4932Z" fill="#FAFAFA"/>
<path d="M336.987 87.248C336.796 87.248 336.655 97.9848 336.655 111.221C336.655 124.457 336.796 135.206 336.987 135.206C337.178 135.206 337.318 124.47 337.318 111.221C337.318 97.972 337.165 87.248 336.987 87.248Z" fill="#263238"/>
<path d="M358.308 155.29C360.405 153.043 362.331 150.643 364.071 148.111C365.991 145.712 367.738 143.181 369.3 140.536C367.203 142.783 365.276 145.182 363.536 147.715C361.62 150.116 359.873 152.647 358.308 155.29Z" fill="#263238"/>
<path d="M297.241 20.6085C295.937 19.6076 294.432 18.9013 292.83 18.5384C291.227 18.1754 289.565 18.1645 287.957 18.5063C286.35 18.8482 284.836 19.5347 283.519 20.5184C282.203 21.5022 281.116 22.7598 280.332 24.2045C278.847 27.3855 278.332 30.9338 278.853 34.4057C279.185 37.8741 279.963 41.2915 280.039 44.7726C280.141 49.2484 279.108 53.89 280.6 58.1107C281.181 59.7502 282.123 61.2388 283.354 62.4673C284.586 63.6958 286.077 64.633 287.718 65.2102C289.359 65.7873 291.108 65.9898 292.838 65.8028C294.567 65.6158 296.233 65.044 297.713 64.1294C300.888 62.1657 302.902 58.8375 304.764 55.6114C307.161 51.4289 309.52 47.1189 310.362 42.3754C311.204 37.6318 310.362 32.3272 306.932 28.9098" fill="#263238"/>
<path d="M290.724 82.1599C291.285 75.07 299.472 79.38 298.554 72.3284C296.502 56.4342 295.734 40.4004 296.258 24.3828" fill="#263238"/>
<path d="M313.396 80.8859L318.662 33.8839C313.268 26.488 306.625 22.9814 298.872 22.6243C295.433 22.5239 292.071 23.6562 289.394 25.8168C286.717 27.9775 284.9 31.0241 284.272 34.4067C282.754 42.1469 281.071 52.5903 281.453 59.0043C282.155 70.7357 290.864 73.031 290.864 73.031C290.864 73.031 290.558 76.9839 290.125 81.8168C287.88 82.1866 284.246 82.7859 281.772 83.398C281.658 83.398 281.862 83.8698 282.308 84.6731C284.265 87.8646 286.936 90.559 290.11 92.5448C293.284 94.5305 296.875 95.7537 300.602 96.1181C304.328 96.4826 308.088 95.9785 311.587 94.6454C315.085 93.3123 318.227 91.1865 320.766 88.4348L324.592 82.8114C324.592 82.8114 318.981 81.753 313.396 80.8859Z" fill="#FFBE9D"/>
<path d="M284.948 42.733C284.904 43.1193 285.013 43.5074 285.251 43.8146C285.49 44.1218 285.838 44.3239 286.223 44.378C286.411 44.4108 286.603 44.4062 286.789 44.3642C286.975 44.3223 287.151 44.2439 287.306 44.1336C287.461 44.0233 287.593 43.8833 287.694 43.7217C287.795 43.5601 287.863 43.3801 287.894 43.1921C287.934 42.8064 287.824 42.42 287.586 42.1136C287.349 41.8071 287.002 41.6042 286.619 41.5471C286.431 41.5125 286.238 41.5159 286.051 41.5571C285.865 41.5983 285.688 41.6765 285.533 41.7871C285.377 41.8976 285.245 42.0383 285.145 42.2008C285.044 42.3633 284.977 42.5443 284.948 42.733Z" fill="#263238"/>
<path d="M284.654 41.457C284.82 41.6737 286.019 40.9469 287.613 41.1127C289.206 41.2784 290.303 42.1838 290.494 42.0053C290.686 41.8267 290.431 41.559 289.959 41.1382C289.313 40.595 288.517 40.2615 287.676 40.1818C286.846 40.0984 286.011 40.2815 285.292 40.7046C284.769 41.0362 284.565 41.3677 284.654 41.457Z" fill="#263238"/>
<path d="M301.245 44.7318C301.201 45.118 301.31 45.5061 301.548 45.8133C301.786 46.1205 302.135 46.3227 302.52 46.3767C302.707 46.4095 302.898 46.4047 303.083 46.3626C303.268 46.3205 303.443 46.242 303.598 46.1316C303.752 46.0212 303.883 45.8811 303.982 45.7196C304.082 45.558 304.148 45.3783 304.178 45.1908C304.218 44.8052 304.108 44.4188 303.87 44.1123C303.633 43.8059 303.286 43.6029 302.902 43.5459C302.716 43.5131 302.524 43.5179 302.339 43.56C302.154 43.6021 301.979 43.6806 301.825 43.791C301.671 43.9015 301.54 44.0415 301.44 44.203C301.341 44.3645 301.274 44.5443 301.245 44.7318Z" fill="#263238"/>
<path d="M300.925 43.3173C301.091 43.5341 302.29 42.82 303.884 42.973C305.478 43.126 306.574 44.0442 306.766 43.8656C306.957 43.6871 306.702 43.4193 306.23 42.9985C305.581 42.4608 304.786 42.128 303.948 42.0422C303.117 41.9587 302.282 42.1418 301.563 42.565C301.091 42.8965 300.925 43.228 300.925 43.3173Z" fill="#263238"/>
<path d="M293.823 54.3229C293.011 53.9634 292.153 53.7188 291.273 53.5961C290.878 53.5068 290.495 53.392 290.457 53.1115C290.462 52.6847 290.6 52.2702 290.852 51.9256L292.357 48.9418C293.73 46.424 294.903 43.8018 295.864 41.0996C294.281 43.4981 292.899 46.0229 291.732 48.6485L290.266 51.6578C289.967 52.1227 289.84 52.6778 289.909 53.2263C289.951 53.3755 290.027 53.5129 290.131 53.6279C290.235 53.7429 290.364 53.8324 290.508 53.8894C290.731 53.9689 290.962 54.0244 291.196 54.0551C292.058 54.2501 292.94 54.34 293.823 54.3229Z" fill="#263238"/>
<path d="M290.865 73.0806C296.29 73.7131 301.786 72.8304 306.74 70.5303C306.74 70.5303 302.213 78.0919 290.75 75.8731L290.865 73.0806Z" fill="#EB996E"/>
<path d="M294.116 58.2902C294.457 57.9388 294.882 57.6796 295.35 57.5369C295.818 57.3941 296.315 57.3725 296.794 57.4741C297.144 57.5432 297.476 57.6814 297.772 57.8806C298.067 58.0799 298.32 58.3362 298.516 58.6344C298.702 58.9214 298.796 59.2587 298.785 59.6008C298.773 59.9429 298.657 60.2733 298.452 60.5472C298.167 60.8075 297.811 60.9769 297.429 61.0337C297.048 61.0905 296.658 61.0321 296.31 60.866C295.585 60.525 294.935 60.0439 294.397 59.4505C294.226 59.3063 294.087 59.1283 293.989 58.9277C293.932 58.8406 293.901 58.7386 293.901 58.6344C293.901 58.5303 293.932 58.4283 293.989 58.3412" fill="#EB996E"/>
<path d="M298.375 55.8779C298.12 55.8779 297.955 57.5739 296.348 58.6577C294.741 59.7416 292.918 59.3718 292.879 59.6014C292.841 59.8309 293.262 59.9839 294.04 60.0859C295.053 60.1993 296.074 59.9509 296.922 59.3846C297.737 58.8444 298.309 58.007 298.516 57.0511C298.681 56.337 298.528 55.8779 298.375 55.8779Z" fill="#263238"/>
<path d="M290.112 39.1612C290.01 39.4035 288.914 39.1612 287.562 39.1612C286.21 39.1612 285.126 39.3525 285.012 39.1612C284.897 38.9699 286.019 38.2814 287.562 38.2941C289.105 38.3069 290.214 38.9062 290.112 39.1612Z" fill="#263238"/>
<path d="M306.166 39.8126C306.166 39.8126 306.166 39.685 306.166 39.5448V39.7743C305.343 39.4703 304.487 39.2648 303.616 39.1622C302.098 38.9965 300.9 39.4938 300.772 39.2642C300.645 39.0347 300.964 38.8817 301.474 38.6267C302.165 38.3012 302.932 38.169 303.692 38.2441C304.18 38.2787 304.657 38.4091 305.094 38.6279C305.532 38.8467 305.922 39.1496 306.243 39.5193L306.357 39.7105H306.281C306.306 39.8253 306.217 39.8508 306.166 39.8126Z" fill="#263238"/>
<path d="M306.575 50.2036C306.447 50.2036 306.32 50.0505 306.294 49.821C306.269 49.5915 306.294 49.3875 306.473 49.3747C306.651 49.362 306.728 49.5277 306.753 49.7573C306.779 49.9868 306.702 50.1908 306.575 50.2036Z" fill="#EB996E"/>
<path d="M302.915 50.0533C302.788 50.0533 302.698 49.8365 302.8 49.6198C302.902 49.403 303.094 49.3137 303.196 49.3903C303.232 49.4505 303.253 49.5183 303.258 49.5883C303.263 49.6582 303.251 49.7283 303.224 49.7929C303.196 49.8575 303.154 49.9147 303.1 49.96C303.047 50.0052 302.983 50.0372 302.915 50.0533Z" fill="#EB996E"/>
<path d="M304.891 51.6197C304.764 51.6197 304.675 51.4794 304.687 51.3264C304.686 51.2929 304.691 51.2594 304.702 51.2278C304.713 51.1962 304.73 51.1671 304.753 51.1422C304.775 51.1173 304.803 51.0971 304.833 51.0828C304.863 51.0684 304.896 51.0602 304.93 51.0586C304.995 51.071 305.053 51.1087 305.092 51.1635C305.13 51.2184 305.145 51.286 305.134 51.3519C305.137 51.3858 305.134 51.42 305.123 51.4524C305.113 51.4849 305.095 51.5147 305.072 51.5399C305.049 51.5652 305.022 51.5854 304.99 51.5991C304.959 51.6128 304.925 51.6199 304.891 51.6197Z" fill="#EB996E"/>
<path d="M284.018 49.3635C283.903 49.3635 283.814 49.1467 283.852 48.9172C283.89 48.6877 284.005 48.5092 284.12 48.5347C284.234 48.5602 284.336 48.7387 284.298 48.9682C284.26 49.1977 284.145 49.3635 284.018 49.3635Z" fill="#EB996E"/>
<path d="M287.702 49.3633C287.575 49.3633 287.486 49.2103 287.498 49.019C287.511 48.8278 287.613 48.6875 287.741 48.6875C287.868 48.6875 287.97 48.8533 287.957 49.0445C287.945 49.2358 287.83 49.3633 287.702 49.3633Z" fill="#EB996E"/>
<path d="M285.905 50.6394C285.777 50.6394 285.675 50.4481 285.675 50.2313C285.675 50.0146 285.777 49.8105 285.905 49.8105C286.032 49.8105 286.134 49.9891 286.134 50.2186C286.134 50.4481 286.032 50.6394 285.905 50.6394Z" fill="#EB996E"/>
<path d="M292.254 18.1603C291.706 20.1575 291.594 22.2495 291.927 24.2937C292.259 26.338 293.028 28.2867 294.181 30.0072C295.334 31.7277 296.845 33.1797 298.609 34.2643C300.373 35.349 302.351 36.0409 304.407 36.2929C305.396 36.2843 306.366 36.5634 307.199 37.0963C307.917 37.9338 308.361 38.9703 308.474 40.0674C308.844 41.5788 309.524 42.9971 310.47 44.2328C311.416 45.4684 312.608 46.4946 313.97 47.2465C310.463 53.8007 309.826 65.0986 314.824 68.5797C327.321 62.204 321.608 51.9008 323.687 44.9639C326.122 36.8157 323.075 28.5145 316.967 22.6106C310.859 16.7066 300.39 15.4442 292.305 18.1603" fill="#263238"/>
<path d="M322.603 37.7471C320.874 35.4833 319.889 32.739 319.785 29.8922C319.75 28.4748 320.017 27.0662 320.569 25.7602C321.121 24.4542 321.945 23.2807 322.986 22.3178C324.545 21.0139 326.459 20.2057 328.481 19.9971C330.689 19.7396 332.925 20.0767 334.958 20.9735C336.992 21.8702 338.749 23.2941 340.047 25.0977C341.301 26.9338 342.011 29.0863 342.097 31.308C342.183 33.5297 341.64 35.7306 340.532 37.6579C339.352 39.5339 337.644 41.0191 335.622 41.9267C333.601 42.8343 331.356 43.1237 329.17 42.7585C326.991 42.3161 325.004 41.2049 323.486 39.5798C321.968 37.9546 320.996 35.8965 320.703 33.6922" fill="#263238"/>
<path d="M110.951 461.239L108.4 471.836C108.4 471.836 91.0839 494.329 85.741 493.22C82.2471 492.506 86.5443 486.64 93.1368 469.553L94.514 462.489L110.951 461.239Z" fill="#9DCEFF"/>
<path d="M85.0657 489.864C85.2756 490.244 85.5957 490.551 85.9838 490.744C86.5249 490.981 87.1211 491.064 87.7063 490.983C88.2914 490.901 88.8427 490.66 89.2992 490.285C92.3387 487.746 95.2176 485.02 97.9192 482.124C101.133 478.758 103.823 475.519 105.71 473.134C106.565 472.05 107.292 471.094 107.929 470.278C108.146 470.01 108.337 469.755 108.528 469.5C108.597 469.409 108.674 469.323 108.758 469.245C108.711 469.35 108.651 469.448 108.579 469.538L108.031 470.354C107.534 471.056 106.756 472.05 105.889 473.275C103.473 476.429 100.89 479.452 98.1487 482.328C95.4347 485.244 92.5203 487.967 89.4267 490.476C88.8466 490.883 88.1691 491.13 87.463 491.19C86.9321 491.223 86.4027 491.108 85.9328 490.859C85.6345 490.703 85.3836 490.469 85.2059 490.183C85.1384 490.087 85.0907 489.979 85.0657 489.864Z" fill="#263238"/>
<path d="M87.5139 482.635C87.9676 482.457 88.4597 482.4 88.9421 482.469C90.1025 482.593 91.2192 482.982 92.2065 483.604C93.2292 484.204 94.0538 485.091 94.5783 486.154C94.8125 486.576 94.9394 487.049 94.948 487.531C94.948 487.531 94.7823 487.008 94.3742 486.256C93.8209 485.279 93.0149 484.469 92.0407 483.91C91.0913 483.308 90.0277 482.908 88.9166 482.737C88.4511 482.679 87.9829 482.645 87.5139 482.635Z" fill="#263238"/>
<path d="M103.912 477.356C103.814 477.199 103.745 477.027 103.708 476.846C103.548 476.373 103.432 475.887 103.364 475.392C103.113 473.745 103.395 472.061 104.167 470.585C104.914 469.084 106.151 467.882 107.674 467.18C108.128 466.969 108.608 466.819 109.102 466.734C109.282 466.694 109.47 466.694 109.65 466.734C109.002 466.896 108.37 467.118 107.763 467.397C106.332 468.138 105.172 469.312 104.448 470.751C103.707 472.179 103.406 473.793 103.58 475.392C103.721 476.54 103.963 477.343 103.912 477.356Z" fill="#263238"/>
<path d="M109.842 462.998C109.918 462.998 109.536 464.503 109.204 466.377C109.075 467.526 108.769 468.649 108.299 469.705C108.235 469.705 108.579 468.201 108.898 466.313C109.052 465.169 109.37 464.052 109.842 462.998Z" fill="#263238"/>
<path d="M92.8438 471.006C93.5732 470.799 94.3458 470.799 95.0753 471.006C95.8176 471.127 96.5111 471.454 97.0772 471.949C97.0772 472.038 96.1591 471.567 94.9988 471.312C93.8384 471.057 92.8565 471.095 92.8438 471.006Z" fill="#263238"/>
<path d="M92.5 472.815C93.1061 472.626 93.752 472.604 94.3693 472.752C94.9867 472.901 95.5524 473.213 96.0067 473.657C96.0067 473.733 95.2671 473.274 94.298 473.057C93.3289 472.84 92.5128 472.904 92.5 472.815Z" fill="#263238"/>
<path d="M91.1096 475.1C91.7055 474.788 92.3923 474.698 93.0483 474.845C93.7042 474.992 94.2869 475.367 94.6928 475.903C94.1515 475.592 93.5787 475.34 92.9841 475.151C92.3635 475.059 91.7342 475.042 91.1096 475.1Z" fill="#263238"/>
<path d="M94.0427 470.241C94.0427 470.241 94.8461 470.024 96.0702 469.553C96.7918 469.27 97.4909 468.933 98.1615 468.545C98.5582 468.321 98.9414 468.074 99.3091 467.806C99.6661 467.551 100.061 467.168 100.036 466.76C100.01 466.352 99.5131 466.122 99.1178 466.224C98.7018 466.359 98.3311 466.606 98.0467 466.939C97.4091 467.538 96.8608 468.112 96.4272 468.609C95.5346 469.591 95.0501 470.254 95.0118 470.228C94.9736 470.203 95.0883 470.037 95.3051 469.731C95.5986 469.288 95.918 468.862 96.2615 468.456C96.7593 467.852 97.2915 467.277 97.8554 466.734C98.1723 466.357 98.5871 466.075 99.0541 465.918C99.1917 465.879 99.3363 465.869 99.4781 465.889C99.6199 465.91 99.7557 465.961 99.8764 466.038C99.997 466.115 100.1 466.217 100.178 466.337C100.256 466.457 100.308 466.593 100.329 466.734C100.292 466.999 100.194 467.252 100.044 467.473C99.8936 467.694 99.6946 467.878 99.4621 468.01C99.0815 468.279 98.6855 468.526 98.2762 468.749C97.5881 469.132 96.8669 469.452 96.1212 469.706C95.6208 469.879 95.1097 470.019 94.591 470.126C94.4177 470.201 94.2313 470.24 94.0427 470.241Z" fill="#263238"/>
<path d="M94.9478 470.021C94.9478 470.021 94.8331 469.281 94.6291 468.082C94.5233 467.392 94.326 466.719 94.0425 466.08C93.8763 465.711 93.6572 465.367 93.3922 465.06C93.1371 464.767 92.7291 464.512 92.4103 464.703C92.0915 464.894 92.0405 465.366 92.0915 465.749C92.1475 466.153 92.2591 466.548 92.423 466.922C92.706 467.557 93.0892 468.143 93.5579 468.656C94.3613 469.549 94.9861 469.931 94.9478 470.021C94.7792 469.961 94.6233 469.87 94.4888 469.753C94.0956 469.472 93.7285 469.156 93.3922 468.809C92.871 468.294 92.44 467.695 92.117 467.037C91.9407 466.629 91.8165 466.2 91.7472 465.762C91.6788 465.513 91.6872 465.25 91.7714 465.006C91.8556 464.763 92.0117 464.55 92.219 464.397C92.4616 464.302 92.7297 464.293 92.9782 464.372C93.2267 464.451 93.4404 464.613 93.5834 464.831C93.8608 465.169 94.0924 465.542 94.272 465.94C94.5529 466.607 94.7334 467.312 94.8076 468.031C94.8742 468.509 94.9126 468.99 94.9223 469.472C94.9635 469.652 94.9722 469.838 94.9478 470.021Z" fill="#263238"/>
<g opacity="0.4">
<path opacity="0.4" d="M108.426 471.795L109.701 466.694C109.701 466.694 105.455 467.472 104.359 470.647C103.702 472.384 103.42 474.239 103.53 476.092L94.2721 486.038C94.2721 486.038 91.9641 481.512 87.7688 482.595C87.7688 482.595 84.4789 489.851 84.5809 491.662C84.6829 493.472 86.787 493.268 87.5393 492.937C90.5883 491.167 93.3704 488.973 95.8023 486.421C100.648 481.333 106.054 474.906 108.426 471.795Z" fill="black"/>
</g>
<path d="M193.925 466.122L194.002 451.994L167.555 451.675L167.224 472.332L168.856 472.46C176.15 472.957 205.975 474.462 210.872 473.034C216.342 471.44 193.925 466.122 193.925 466.122Z" fill="#9DCEFF"/>
<g opacity="0.4">
<path opacity="0.4" d="M176.812 472.241C176.449 470.004 175.267 467.981 173.497 466.566C171.767 465.151 169.569 464.437 167.338 464.564L167.249 471.96L176.812 472.241Z" fill="black"/>
</g>
<g opacity="0.4">
<path opacity="0.4" d="M204.865 469.117C204.865 469.117 212.72 471.476 211.725 472.764C210.731 474.052 180.522 473.669 167.223 472.331V471.744L202.455 472.496C202.455 472.496 203.335 469.155 204.865 469.117Z" fill="black"/>
</g>
<path d="M166.853 471.719C167.001 471.737 167.151 471.737 167.3 471.719L168.575 471.808L173.382 472.076C177.437 472.28 183.048 472.471 189.245 472.56C195.442 472.65 201.066 472.56 205.121 472.56L209.941 472.42H211.216C211.368 472.437 211.522 472.437 211.675 472.42C211.522 472.401 211.368 472.401 211.216 472.42H209.941H205.133C201.078 472.42 195.468 472.42 189.258 472.42C183.048 472.42 177.463 472.165 173.395 472.025L168.587 471.859H167.312C167.165 471.795 167.011 471.748 166.853 471.719Z" fill="#263238"/>
<path d="M202.481 472.905C202.692 472.109 203 471.342 203.399 470.622C203.889 469.956 204.449 469.345 205.069 468.799C204.244 469.092 203.555 469.677 203.131 470.444C202.612 471.153 202.379 472.032 202.481 472.905Z" fill="#263238"/>
<path d="M194.728 468.889C194.792 468.889 195.174 468.48 195.57 467.881C195.965 467.282 196.22 466.746 196.143 466.695C196.067 466.644 195.697 467.103 195.302 467.703C194.906 468.302 194.651 468.799 194.728 468.889Z" fill="#263238"/>
<path d="M192.599 467.692C192.599 467.755 193.071 467.475 193.543 467.08C194.014 466.684 194.32 466.289 194.269 466.225C194.218 466.161 193.785 466.429 193.326 466.837C192.867 467.245 192.535 467.615 192.599 467.692Z" fill="#263238"/>
<path d="M191.273 465.165C191.711 465.336 192.181 465.405 192.65 465.369C193.117 465.429 193.591 465.386 194.04 465.242C193.602 465.072 193.131 465.002 192.663 465.038C192.196 464.978 191.721 465.021 191.273 465.165Z" fill="#263238"/>
<path d="M190.826 463.404C191.281 463.714 191.819 463.879 192.369 463.876C192.908 463.968 193.462 463.902 193.963 463.685C193.446 463.587 192.921 463.544 192.395 463.557C191.878 463.456 191.353 463.405 190.826 463.404Z" fill="#263238"/>
<path d="M195.646 466.542C196.211 466.644 196.79 466.644 197.355 466.542C197.969 466.478 198.576 466.354 199.166 466.172C199.529 466.07 199.879 465.929 200.212 465.751C200.313 465.697 200.403 465.623 200.475 465.533C200.548 465.443 200.601 465.34 200.632 465.228C200.66 465.104 200.651 464.975 200.608 464.856C200.566 464.736 200.49 464.631 200.39 464.553C199.75 464.236 199.02 464.15 198.323 464.307C197.627 464.465 197.006 464.858 196.565 465.42C196.302 465.751 196.111 466.133 196.004 466.542C195.927 466.835 195.927 467.001 196.004 467.001C196.175 466.476 196.443 465.987 196.794 465.56C197.186 465.118 197.694 464.795 198.261 464.629C198.932 464.416 199.66 464.475 200.288 464.795C200.543 464.999 200.441 465.318 200.135 465.496C199.831 465.662 199.511 465.794 199.179 465.892C198.602 466.074 198.014 466.219 197.419 466.325C196.284 466.504 195.646 466.491 195.646 466.542Z" fill="#263238"/>
<path d="M196.093 466.645C196.303 466.288 196.376 465.866 196.297 465.459C196.252 465.004 196.099 464.567 195.85 464.184C195.712 463.928 195.51 463.713 195.265 463.559C195.019 463.405 194.737 463.317 194.448 463.304C194.276 463.341 194.125 463.442 194.025 463.586C193.926 463.731 193.885 463.908 193.912 464.082C193.945 464.355 194.041 464.617 194.193 464.847C194.407 465.226 194.673 465.574 194.983 465.88C195.506 466.415 195.927 466.619 195.952 466.581C195.978 466.543 195.608 466.275 195.149 465.726C194.883 465.41 194.648 465.068 194.448 464.706C194.218 464.337 194.065 463.686 194.448 463.622C194.83 463.559 195.302 464.018 195.557 464.349C195.793 464.685 195.954 465.068 196.029 465.471C196.078 465.86 196.099 466.253 196.093 466.645Z" fill="#263238"/>
<path d="M167.479 464.49C167.479 464.553 168.244 464.426 169.442 464.592C170.998 464.783 172.467 465.411 173.679 466.404C174.892 467.398 175.797 468.715 176.29 470.202C176.685 471.337 176.711 472.102 176.774 472.09C176.799 471.912 176.799 471.732 176.774 471.554C176.744 471.069 176.654 470.589 176.507 470.126C176.054 468.563 175.138 467.175 173.878 466.146C172.619 465.117 171.076 464.495 169.455 464.362C168.972 464.315 168.485 464.315 168.001 464.362C167.823 464.383 167.647 464.426 167.479 464.49Z" fill="#263238"/>
<path d="M170.36 453.585C170.157 455.388 170.059 457.202 170.067 459.017C169.958 460.826 169.958 462.64 170.067 464.449C170.27 462.646 170.368 460.832 170.36 459.017C170.469 457.208 170.469 455.394 170.36 453.585Z" fill="#263238"/>
<path d="M180.166 469.705C181.416 470.02 182.703 470.166 183.991 470.138C185.272 470.21 186.557 470.124 187.817 469.883C187.817 469.781 186.07 469.883 183.991 469.883C181.913 469.883 180.179 469.615 180.166 469.705Z" fill="#263238"/>
<path d="M174.989 469.628C174.925 469.692 175.129 469.998 175.295 470.393C175.46 470.789 175.562 471.146 175.652 471.146C175.741 471.146 175.792 470.725 175.652 470.266C175.511 469.807 175.04 469.564 174.989 469.628Z" fill="#263238"/>
<path d="M173.063 467.178C173.063 467.178 173.165 467.51 173.433 467.79C173.701 468.071 173.981 468.249 174.045 468.198C174.109 468.147 173.943 467.854 173.675 467.573C173.407 467.293 173.127 467.114 173.063 467.178Z" fill="#263238"/>
<path d="M170.283 466.032C170.283 466.121 170.653 466.121 171.036 466.261C171.418 466.402 171.699 466.618 171.775 466.555C171.852 466.491 171.622 466.134 171.15 465.955C170.679 465.777 170.258 465.943 170.283 466.032Z" fill="#263238"/>
<path d="M168.295 465.482C168.295 465.559 168.422 465.699 168.639 465.788C168.856 465.877 169.06 465.877 169.086 465.788C169.111 465.699 168.971 465.559 168.754 465.482C168.537 465.406 168.333 465.393 168.295 465.482Z" fill="#263238"/>
<path d="M207.276 199.156L196.31 462.653L164.061 462.104L167.275 231.927L115.605 463.392H87.5139L132.233 196.197L207.276 199.156Z" fill="#455A64"/>
<path d="M176.761 205.314C176.728 206.779 176.57 208.238 176.29 209.675C175.907 212.366 175.32 216.051 174.645 220.144C174.38 222.086 173.984 224.008 173.459 225.895C173 227.492 172.061 228.908 170.768 229.95C169.902 230.629 168.873 231.069 167.784 231.226C167.39 231.321 166.98 231.321 166.586 231.226C167.991 231.002 169.312 230.408 170.411 229.504C171.558 228.488 172.382 227.158 172.783 225.679C173.262 223.81 173.633 221.916 173.892 220.004C174.568 215.924 175.231 212.239 175.741 209.586C175.97 208.138 176.311 206.71 176.761 205.314Z" fill="#263238"/>
<path d="M168.23 206.577C168.32 206.577 167.988 207.075 168.23 207.776C168.276 207.963 168.361 208.139 168.48 208.29C168.598 208.442 168.748 208.567 168.919 208.656C169.131 208.751 169.367 208.778 169.595 208.735C169.823 208.692 170.032 208.58 170.194 208.414C170.37 208.277 170.502 208.092 170.575 207.881C170.647 207.671 170.657 207.444 170.602 207.228C170.533 207.048 170.427 206.885 170.291 206.749C170.155 206.612 169.991 206.506 169.812 206.437C169.136 206.144 168.677 206.437 168.626 206.335C168.575 206.233 168.996 205.723 169.965 205.94C170.245 206.004 170.507 206.133 170.728 206.317C170.95 206.501 171.125 206.734 171.24 206.998C171.349 207.342 171.356 207.71 171.261 208.058C171.165 208.406 170.97 208.718 170.7 208.957C170.43 209.196 170.096 209.352 169.739 209.405C169.382 209.458 169.017 209.406 168.689 209.255C168.446 209.106 168.239 208.903 168.084 208.662C167.93 208.422 167.831 208.149 167.797 207.865C167.542 206.883 168.23 206.488 168.23 206.577Z" fill="#263238"/>
<path d="M146.069 210.364C145.452 209.189 145.263 207.837 145.533 206.538C145.531 205.232 145.982 203.966 146.808 202.955C146.999 203.044 146.4 204.6 146.196 206.615C145.992 208.63 146.285 210.313 146.069 210.364Z" fill="#263238"/>
<path d="M151.029 210.034C150.544 208.799 150.34 207.471 150.433 206.148C150.526 204.824 150.912 203.538 151.564 202.383C151.496 203.664 151.36 204.941 151.156 206.208C151.184 207.485 151.141 208.762 151.029 210.034Z" fill="#263238"/>
<path d="M193.594 211.129C193.569 209.798 193.65 208.468 193.836 207.15C193.778 205.817 193.837 204.482 194.014 203.159C194.553 204.429 194.742 205.821 194.563 207.189C194.61 208.566 194.275 209.93 193.594 211.129Z" fill="#263238"/>
<path d="M198.975 210.823C198.783 210.746 199.421 209.012 199.561 206.781C199.702 204.549 199.332 202.764 199.561 202.7C200.257 203.958 200.517 205.411 200.301 206.832C200.323 208.274 199.855 209.681 198.975 210.823Z" fill="#263238"/>
<path d="M154.383 85.3747L179.809 83.3472C179.975 80.3761 179.809 68.887 179.809 68.887C179.809 68.887 190.393 67.2421 190.52 56.6583C190.648 46.0746 188.812 21.7957 188.812 21.7957C182.794 19.2009 176.192 18.2629 169.69 19.079C163.188 19.8951 157.022 22.4357 151.832 26.4373L150.264 27.6359L154.383 85.3747Z" fill="#FFBE9D"/>
<path d="M179.771 68.7341C174.889 68.8292 170.089 67.4662 165.986 64.8193C165.986 64.8193 169.238 72.4702 179.796 71.4756L179.771 68.7341Z" fill="#EB996E"/>
<path d="M151.552 38.6005C151.374 38.524 144.284 36.4455 144.513 43.7011C144.743 50.9567 151.96 49.2098 151.973 49.0058C151.986 48.8017 151.552 38.6005 151.552 38.6005Z" fill="#FFBE9D"/>
<path d="M149.677 46.3153C149.677 46.3153 149.55 46.4045 149.346 46.5065C149.043 46.6272 148.705 46.6272 148.402 46.5065C147.925 46.2252 147.532 45.8216 147.263 45.3374C146.994 44.8532 146.859 44.306 146.872 43.7522C146.828 43.1341 146.928 42.5141 147.165 41.9415C147.225 41.7132 147.34 41.5031 147.5 41.3297C147.66 41.1563 147.861 41.0248 148.083 40.9469C148.226 40.9035 148.38 40.9117 148.517 40.9699C148.655 41.0282 148.767 41.1328 148.836 41.2657C148.938 41.4697 148.899 41.61 148.938 41.6227C148.976 41.6355 149.091 41.4952 149.014 41.2019C148.972 41.0232 148.868 40.8651 148.721 40.7556C148.621 40.6828 148.507 40.6306 148.387 40.6021C148.267 40.5737 148.142 40.5695 148.02 40.5898C147.727 40.6609 147.457 40.8045 147.234 41.0072C147.011 41.21 146.843 41.4655 146.744 41.7502C146.461 42.3914 146.335 43.0907 146.375 43.7905C146.358 44.4353 146.533 45.0706 146.878 45.6156C147.223 46.1605 147.723 46.5905 148.313 46.8508C148.509 46.9001 148.714 46.9051 148.913 46.8654C149.111 46.8257 149.298 46.7423 149.461 46.6213C149.665 46.481 149.703 46.328 149.677 46.3153Z" fill="#EB996E"/>
<path d="M186.439 38.3711C186.443 38.7658 186.291 39.1461 186.017 39.43C185.742 39.7138 185.368 39.8785 184.973 39.8885C184.782 39.9042 184.589 39.8814 184.407 39.8215C184.224 39.7617 184.056 39.666 183.911 39.5401C183.766 39.4142 183.647 39.2606 183.563 39.0883C183.478 38.916 183.428 38.7285 183.417 38.5369C183.41 38.1421 183.559 37.7604 183.831 37.4742C184.103 37.1879 184.476 37.02 184.871 37.0067C185.064 36.9911 185.258 37.0142 185.442 37.0747C185.626 37.1351 185.796 37.2318 185.942 37.3589C186.088 37.486 186.208 37.641 186.293 37.8148C186.378 37.9886 186.428 38.1778 186.439 38.3711Z" fill="#263238"/>
<path d="M186.759 36.674C186.58 36.8653 185.484 36.0237 183.801 36.0237C182.117 36.0237 180.995 36.8398 180.817 36.6485C180.638 36.4573 180.919 36.2022 181.442 35.8197C182.147 35.3351 182.983 35.0771 183.839 35.0801C184.682 35.0817 185.503 35.3495 186.185 35.8452C186.682 36.2277 186.861 36.6103 186.759 36.674Z" fill="#263238"/>
<path d="M170.513 38.7549C170.517 39.1475 170.367 39.5259 170.095 39.8094C169.823 40.0929 169.452 40.259 169.059 40.2723C168.868 40.2879 168.675 40.2651 168.493 40.2053C168.311 40.1455 168.142 40.0498 167.997 39.9239C167.852 39.7979 167.734 39.6443 167.649 39.4721C167.564 39.2998 167.515 39.1123 167.504 38.9206C167.497 38.5259 167.645 38.1442 167.917 37.8579C168.189 37.5717 168.563 37.4038 168.957 37.3905C169.15 37.3749 169.343 37.398 169.526 37.4587C169.71 37.5193 169.879 37.6161 170.024 37.7434C170.169 37.8706 170.287 38.0257 170.371 38.1995C170.455 38.3732 170.503 38.5621 170.513 38.7549Z" fill="#263238"/>
<path d="M170.781 36.971C170.59 37.175 169.506 36.3206 167.823 36.3334C166.14 36.3461 165.005 37.1495 164.826 36.9455C164.648 36.7415 164.928 36.5119 165.451 36.1294C166.155 35.6411 166.992 35.3827 167.848 35.3898C168.697 35.3833 169.524 35.6518 170.207 36.1549C170.705 36.5374 170.87 36.8945 170.781 36.971Z" fill="#263238"/>
<path d="M176.685 49.0306C177.541 48.764 178.428 48.6055 179.324 48.5587C179.745 48.5587 180.128 48.4312 180.204 48.1507C180.243 47.707 180.145 47.262 179.924 46.8755C179.528 45.8682 179.12 44.8226 178.648 43.7132C177.503 41.0398 176.582 38.2759 175.894 35.4502C177.245 38.027 178.383 40.7094 179.299 43.4709C179.719 44.5803 180.102 45.6387 180.485 46.6588C180.739 47.1582 180.816 47.7295 180.701 48.2782C180.64 48.4255 180.546 48.5571 180.427 48.6631C180.308 48.7691 180.166 48.8468 180.013 48.8903C179.784 48.951 179.548 48.9852 179.311 48.9923C178.441 49.114 177.558 49.1268 176.685 49.0306Z" fill="#263238"/>
<path d="M171.903 50.1536C172.158 50.1536 172.171 51.9005 173.676 53.1629C175.181 54.4253 177.068 54.2213 177.081 54.4381C177.093 54.6548 176.66 54.7824 175.869 54.7951C174.835 54.8166 173.826 54.4684 173.026 53.8133C172.25 53.1767 171.755 52.2608 171.648 51.263C171.585 50.6381 171.776 50.1408 171.903 50.1536Z" fill="#263238"/>
<path d="M171.202 30.6079C171.049 31.0414 169.417 30.8374 167.517 31.0669C165.617 31.2964 164.061 31.8192 163.806 31.4239C163.691 31.2327 163.959 30.8119 164.584 30.3911C165.407 29.8543 166.347 29.522 167.325 29.422C168.304 29.3117 169.295 29.4295 170.22 29.7663C170.921 30.0468 171.278 30.3911 171.202 30.6079Z" fill="#263238"/>
<path d="M186.172 31.9694C185.878 32.3392 184.756 31.9694 183.417 31.9694C182.078 31.9694 180.931 32.2244 180.663 31.8291C180.548 31.6506 180.727 31.2808 181.224 30.9237C181.899 30.4517 182.709 30.2102 183.532 30.2352C184.322 30.2493 185.088 30.5077 185.725 30.9747C186.082 31.4083 186.286 31.7908 186.172 31.9694Z" fill="#263238"/>
<path d="M150.124 34.4573C148.458 34.0043 147.035 32.9197 146.156 31.4339C145.277 29.9481 145.013 28.1781 145.419 26.5003C144.128 25.0853 143.295 23.3132 143.029 21.4164C142.763 19.5197 143.077 17.5869 143.929 15.8716C144.781 14.1563 146.132 12.7386 147.804 11.8046C149.476 10.8705 151.392 10.4637 153.299 10.6374C153.34 8.52139 154.029 6.46876 155.272 4.756C156.515 3.04324 158.254 1.75262 160.253 1.05797C162.252 0.363315 164.416 0.297997 166.454 0.870808C168.491 1.44362 170.304 2.62704 171.648 4.2617C172.941 2.88617 174.655 1.97979 176.519 1.68529C178.384 1.39079 180.293 1.72492 181.947 2.63506C183.601 3.5452 184.905 4.97962 185.654 6.71239C186.402 8.44515 186.554 10.3778 186.083 12.2059C186.998 11.4332 188.178 11.0464 189.373 11.1272C190.567 11.208 191.684 11.75 192.487 12.6388C193.29 13.5276 193.716 14.6936 193.675 15.8905C193.634 17.0874 193.129 18.2216 192.268 19.0534C193.02 19.2041 193.699 19.6065 194.193 20.1945C194.686 20.7825 194.965 21.521 194.983 22.2885C195 23.0559 194.756 23.8065 194.291 24.4168C193.825 25.027 193.166 25.4606 192.421 25.646C192.333 26.6354 191.918 27.5674 191.242 28.2952C190.566 29.023 189.667 29.5053 188.687 29.666C187.706 29.8267 186.7 29.6567 185.827 29.1828C184.954 28.709 184.264 27.9582 183.864 27.0486C183.303 29.5989 180.103 30.8741 177.667 29.9815C176.48 29.4687 175.421 28.6999 174.565 27.7299C173.71 26.7599 173.08 25.6129 172.72 24.3708C172.326 25.0297 171.77 25.5765 171.104 25.9591C170.439 26.3417 169.687 26.5474 168.919 26.5563C168.152 26.5653 167.395 26.3773 166.721 26.0103C166.046 25.6433 165.478 25.1095 165.069 24.4601C165.254 25.0526 165.311 25.6778 165.236 26.294C165.161 26.9103 164.955 27.5035 164.633 28.0343C164.311 28.565 163.88 29.0211 163.368 29.3722C162.856 29.7234 162.275 29.9615 161.664 30.0707C161.539 31.7046 160.776 33.2236 159.539 34.2991C158.303 35.3747 156.693 35.9204 155.058 35.8181C153.422 35.7159 151.893 34.974 150.8 33.7529C149.707 32.5318 149.139 30.9296 149.219 29.2929" fill="#263238"/>
<path d="M148.237 29.5469C148.568 32.416 149.512 38.1924 149.945 41.0232C149.978 41.8571 150.313 42.6505 150.889 43.2547C151.407 43.5726 152.027 43.6783 152.621 43.5501C153.215 43.4218 153.736 43.0694 154.077 42.5662C154.716 41.5332 155.072 40.3502 155.11 39.136C155.441 36.2032 155.785 33.2831 156.117 30.3502" fill="#263238"/>
<path d="M174.862 38.2699C174.862 38.2699 174.862 37.6323 174.517 36.5739C174.103 35.0844 173.206 33.7747 171.967 32.8505C170.962 32.0995 169.769 31.6429 168.519 31.5318C167.27 31.4206 166.015 31.6593 164.893 32.2211C163.772 32.7828 162.829 33.6456 162.17 34.7127C161.511 35.7798 161.162 37.0093 161.162 38.2635C161.162 39.5177 161.511 40.7471 162.17 41.8143C162.829 42.8814 163.772 43.7441 164.893 44.3059C166.015 44.8677 167.27 45.1063 168.519 44.9952C169.769 44.884 170.962 44.4274 171.967 43.6765C173.206 42.7522 174.103 41.4425 174.517 39.9531C174.811 38.8947 174.798 38.2571 174.862 38.2699C174.925 38.2826 174.862 38.4229 174.862 38.7162C174.87 39.1455 174.823 39.5741 174.721 39.9913C174.37 41.5953 173.467 43.0256 172.171 44.0335C171.403 44.6339 170.522 45.0739 169.581 45.3276C168.64 45.5812 167.657 45.6433 166.692 45.5101C165.726 45.3769 164.797 45.0512 163.96 44.5522C163.122 44.0532 162.394 43.3912 161.817 42.6054C160.881 41.344 160.376 39.815 160.376 38.2443C160.376 36.6737 160.881 35.1447 161.817 33.8833C162.675 32.7047 163.871 31.8151 165.247 31.333C166.401 30.9213 167.641 30.8071 168.851 31.001C170.061 31.1949 171.203 31.6907 172.171 32.4424C173.467 33.4504 174.37 34.8806 174.721 36.4846C174.822 36.9021 174.869 37.3305 174.862 37.7598C174.9 38.1041 174.887 38.2699 174.862 38.2699Z" fill="#455A64"/>
<path d="M193.071 38.2699C193.071 38.2699 193.071 37.6323 192.726 36.5739C192.312 35.0844 191.415 33.7747 190.176 32.8505C189.171 32.0995 187.978 31.6429 186.728 31.5318C185.479 31.4206 184.224 31.6593 183.102 32.2211C181.981 32.7828 181.038 33.6456 180.379 34.7127C179.72 35.7798 179.371 37.0093 179.371 38.2635C179.371 39.5177 179.72 40.7471 180.379 41.8143C181.038 42.8814 181.981 43.7441 183.102 44.3059C184.224 44.8677 185.479 45.1063 186.728 44.9952C187.978 44.884 189.171 44.4274 190.176 43.6765C191.415 42.7522 192.312 41.4425 192.726 39.9531C193.02 38.8947 193.007 38.2571 193.071 38.2699C193.134 38.2826 193.071 38.4229 193.071 38.7162C193.079 39.1455 193.032 39.5741 192.93 39.9913C192.579 41.5953 191.676 43.0256 190.38 44.0335C189.612 44.6339 188.731 45.0739 187.79 45.3276C186.849 45.5812 185.866 45.6433 184.901 45.5101C183.935 45.3769 183.006 45.0512 182.169 44.5522C181.331 44.0532 180.603 43.3912 180.026 42.6054C179.09 41.344 178.585 39.815 178.585 38.2443C178.585 36.6737 179.09 35.1447 180.026 33.8833C180.884 32.7047 182.08 31.8151 183.456 31.333C184.61 30.9213 185.85 30.8071 187.06 31.001C188.27 31.1949 189.412 31.6907 190.38 32.4424C191.676 33.4504 192.579 34.8806 192.93 36.4846C193.031 36.9021 193.078 37.3305 193.071 37.7598C193.109 38.1041 193.096 38.2699 193.071 38.2699Z" fill="#455A64"/>
<path d="M178.942 37.5171C178.942 37.7084 178.011 37.8486 176.876 37.8486C175.741 37.8486 174.811 37.7084 174.811 37.5171C174.811 37.3258 175.729 37.1855 176.876 37.1855C178.024 37.1855 178.942 37.3386 178.942 37.5171Z" fill="#455A64"/>
<path d="M161.523 37.1863C157.821 38.0265 154.034 38.4288 150.238 38.3849C152.064 37.8517 153.948 37.5392 155.849 37.4541C157.724 37.1467 159.628 37.0568 161.523 37.1863Z" fill="#455A64"/>
<path d="M165.183 9.23382C165.38 9.26225 165.568 9.33649 165.731 9.45059C166.215 9.78037 166.571 10.2667 166.739 10.8278C166.888 11.267 166.938 11.7338 166.885 12.1947C166.832 12.6555 166.678 13.0989 166.433 13.4928C166.066 14.0007 165.561 14.3914 164.977 14.6177C164.393 14.844 163.756 14.8962 163.143 14.768C162.39 14.6615 161.685 14.3329 161.12 13.8241C160.554 13.3153 160.153 12.6495 159.968 11.9116C159.746 11.0804 159.729 10.2078 159.917 9.36844C160.106 8.52908 160.495 7.74787 161.052 7.09156C163.398 4.27348 167.963 3.52114 171.686 5.16609C173.46 5.89031 174.929 7.20584 175.843 8.88953C176.267 9.68656 176.461 10.586 176.403 11.487C176.344 12.3879 176.036 13.2547 175.512 13.9901L175.142 13.5183C176.307 12.9855 177.607 12.8221 178.868 13.0501C180.128 13.278 181.289 13.8864 182.194 14.7935C182.883 15.5164 183.354 16.4202 183.55 17.3998C183.746 18.3795 183.661 19.3947 183.303 20.3276C183.055 20.9187 182.691 21.4543 182.234 21.9031C181.776 22.352 181.234 22.705 180.638 22.9417C180.324 23.0684 179.993 23.15 179.656 23.184C179.542 23.1981 179.426 23.1981 179.312 23.184C179.744 23.068 180.17 22.9275 180.587 22.7632C181.682 22.2497 182.539 21.3375 182.984 20.2129C183.294 19.3411 183.351 18.3993 183.148 17.4966C182.945 16.5938 182.49 15.7671 181.837 15.1123C181.006 14.312 179.955 13.7786 178.819 13.5809C177.682 13.3832 176.513 13.5301 175.461 14.0029L174.339 14.5002L175.104 13.5311C175.556 12.8788 175.818 12.1137 175.861 11.3211C175.904 10.5286 175.725 9.73973 175.346 9.04254C174.489 7.51093 173.141 6.31187 171.521 5.63789C168.039 4.08221 163.755 4.80905 161.625 7.33385C161.124 7.91389 160.769 8.60544 160.589 9.35076C160.409 10.0961 160.411 10.8736 160.593 11.6183C160.751 12.2624 161.093 12.8464 161.578 13.2993C162.062 13.7521 162.668 14.0542 163.321 14.1686C163.853 14.2927 164.409 14.2627 164.924 14.082C165.439 13.9013 165.891 13.5775 166.229 13.1485C166.455 12.7997 166.605 12.4069 166.669 11.9959C166.733 11.5849 166.709 11.165 166.598 10.764C166.455 10.2629 166.161 9.81791 165.757 9.48885C165.374 9.32308 165.17 9.27207 165.183 9.23382Z" fill="#455A64"/>
<path d="M209.8 91.9531C209.8 91.9531 219.147 101.67 219.339 127.772C219.466 146.619 221.175 169.431 221.175 169.431L208.258 168.386L209.8 91.9531Z" fill="#9DCEFF"/>
<path d="M120.591 99.2727C122.835 91.7111 130.92 83.5374 142.141 81.4206C145.712 80.7321 149.18 79.4441 153.375 79.2656C162.197 82.0515 171.663 82.0515 180.485 79.2656C181.594 79.4059 183.112 79.5462 185.037 79.7757C196.82 81.1656 201.334 83.6011 209.801 91.9661L208.87 139.644C208.87 139.644 208.462 193.621 208.258 202.381L131.009 202.662L135.434 151.898" fill="#9DCEFF"/>
<path d="M135.434 151.885L120.591 171.204L126.24 176.955L110.568 197.434C110.568 197.434 82.7191 180.704 83.4842 176.062C84.2493 171.421 121.547 96.7734 121.547 96.7734C121.547 96.7734 136.581 98.3419 135.434 120.3C134.286 142.258 135.434 151.885 135.434 151.885Z" fill="#9DCEFF"/>
<path d="M136.263 159.523C136.114 159.012 136.024 158.486 135.995 157.955C135.88 156.935 135.715 155.468 135.536 153.645C135.179 150.011 134.745 144.974 134.414 139.401C134.082 133.829 133.993 128.779 134.044 125.12C134.044 123.284 134.121 121.804 134.184 120.784C134.18 120.253 134.232 119.723 134.337 119.203C134.431 119.729 134.465 120.264 134.439 120.797C134.439 121.945 134.439 123.347 134.516 125.12C134.592 128.767 134.758 133.804 135.077 139.363C135.396 144.923 135.766 149.819 136.008 153.607C136.11 155.328 136.186 156.769 136.263 157.929C136.313 158.46 136.313 158.993 136.263 159.523Z" fill="#263238"/>
<path d="M104.473 177.527C104.913 176.734 105.502 176.033 106.207 175.462C107.809 173.956 109.654 172.731 111.665 171.84C113.647 170.864 115.831 170.371 118.04 170.399C118.513 170.384 118.983 170.467 119.422 170.643C119.861 170.818 120.259 171.083 120.591 171.419C119.777 171.094 118.915 170.904 118.04 170.858C115.923 170.979 113.85 171.521 111.945 172.452C109.225 173.779 106.709 175.488 104.473 177.527Z" fill="#263238"/>
<path d="M107.649 164.803C110.255 164.524 112.89 164.919 115.3 165.95C116.254 166.302 117.179 166.728 118.067 167.226C118.829 167.595 119.527 168.086 120.132 168.679C120.342 168.903 120.493 169.174 120.573 169.47C120.653 169.766 120.659 170.077 120.591 170.375C120.464 170.796 120.234 170.924 120.209 170.885C120.183 170.847 120.311 170.681 120.336 170.324C120.34 170.085 120.293 169.848 120.199 169.628C120.104 169.408 119.964 169.211 119.788 169.049C119.175 168.538 118.497 168.11 117.773 167.774C116.897 167.325 115.994 166.929 115.07 166.588C112.649 165.792 110.167 165.195 107.649 164.803Z" fill="#263238"/>
<path d="M208.462 179.735C208.27 179.735 208.079 164.267 208.028 145.204C207.977 126.14 208.028 110.673 208.258 110.673C208.487 110.673 208.627 126.128 208.691 145.204C208.755 164.28 208.64 179.735 208.462 179.735Z" fill="#263238"/>
<g opacity="0.3">
<path opacity="0.3" d="M134.77 152.74C132.067 147.015 129.937 141.341 127.782 135.373C127.578 134.812 127.413 134.098 127.846 133.664C128.039 133.508 128.28 133.423 128.528 133.423C128.777 133.423 129.018 133.508 129.211 133.664C129.581 134.018 129.861 134.455 130.027 134.939C130.015 131.097 130.587 127.274 131.723 123.603C131.901 123.004 132.284 122.328 132.896 122.328C133.508 122.328 133.737 123.246 133.763 123.897C134.107 133.537 135.038 142.22 135.433 151.861" fill="black"/>
</g>
<g opacity="0.3">
<path opacity="0.3" d="M120.68 170.974C120.606 170.648 120.464 170.341 120.264 170.073C120.064 169.805 119.811 169.582 119.52 169.418C118.928 169.096 118.285 168.88 117.62 168.78C115.078 168.21 112.442 168.201 109.896 168.754C107.35 169.306 104.955 170.408 102.879 171.981C102.183 172.485 101.637 173.168 101.298 173.957C101.139 174.355 101.108 174.791 101.209 175.207C101.309 175.623 101.536 175.997 101.859 176.278C102.14 176.457 102.459 176.57 102.79 176.608C103.122 176.645 103.457 176.607 103.771 176.495C104.392 176.252 104.98 175.931 105.518 175.539C107.727 174.086 110.098 172.896 112.583 171.994C115.124 170.932 117.911 170.605 120.629 171.05" fill="black"/>
</g>
<path d="M134.796 140.206C134.796 140.206 134.618 140.448 134.171 140.741C133.903 140.931 133.612 141.085 133.304 141.2C133.099 141.274 132.884 141.316 132.667 141.328C132.527 141.33 132.388 141.302 132.26 141.244C132.132 141.187 132.019 141.103 131.927 140.996C130.406 139.076 129.145 136.962 128.178 134.71C127.17 132.494 126.318 130.21 125.628 127.875C125.273 126.933 125.029 125.953 124.901 124.955C125.395 125.835 125.788 126.767 126.074 127.735C126.725 129.469 127.592 131.866 128.778 134.429C129.729 136.621 130.899 138.71 132.271 140.665C132.476 140.996 132.858 140.92 133.202 140.843C133.494 140.758 133.78 140.651 134.057 140.525C134.516 140.308 134.771 140.168 134.796 140.206Z" fill="#263238"/>
<path d="M145.801 195.802C145.78 195.706 145.78 195.606 145.801 195.509C145.801 195.279 145.801 194.986 145.724 194.642C145.724 193.813 145.609 192.691 145.533 191.275C145.38 188.355 145.189 184.135 145.01 178.907C144.628 168.45 144.271 154.016 144.22 138.102C144.169 122.188 144.538 107.689 145.125 97.2969C145.456 92.0816 145.724 87.8608 146.056 84.9535C146.196 83.5381 146.311 82.4032 146.4 81.5998C146.4 81.2556 146.477 80.9623 146.502 80.7328C146.528 80.5032 146.502 80.4395 146.566 80.4395C146.58 80.5367 146.58 80.6355 146.566 80.7328C146.566 80.975 146.566 81.2555 146.566 81.6126C146.566 82.4414 146.438 83.5508 146.349 84.9662C146.107 87.8863 145.915 92.1071 145.635 97.3224C145.163 107.766 144.87 122.201 144.934 138.127C144.997 154.054 145.252 168.501 145.52 178.932C145.648 184.109 145.75 188.317 145.826 191.301C145.826 192.716 145.826 193.851 145.903 194.667V195.547C145.873 195.634 145.839 195.719 145.801 195.802Z" fill="#263238"/>
<path d="M169.429 81.2432C169.443 81.3447 169.443 81.4476 169.429 81.5492C169.429 81.7915 169.429 82.0975 169.518 82.4673C169.518 83.3217 169.672 84.5075 169.786 85.9867C170.016 89.0598 170.284 93.4846 170.577 98.9677C171.151 109.934 171.699 125.108 171.75 141.864C171.801 158.619 171.304 173.743 170.692 184.76C170.386 190.243 170.092 194.681 169.825 197.741C169.697 199.22 169.608 200.406 169.531 201.26C169.531 201.63 169.455 201.923 169.429 202.178C169.443 202.28 169.443 202.383 169.429 202.484C169.415 202.379 169.415 202.271 169.429 202.166C169.429 201.923 169.429 201.617 169.429 201.248C169.429 200.393 169.531 199.207 169.608 197.715C169.786 194.655 170.016 190.217 170.258 184.734C170.743 173.768 171.163 158.619 171.125 141.864C171.087 125.108 170.602 109.985 170.143 98.9932C169.901 93.5611 169.71 89.1363 169.57 86.0122C169.506 84.5203 169.455 83.3344 169.416 82.4801C169.416 82.1103 169.416 81.8042 169.416 81.562C169.406 81.4556 169.411 81.3484 169.429 81.2432Z" fill="#263238"/>
<path d="M193.262 203.058C193.247 202.952 193.247 202.845 193.262 202.739C193.262 202.497 193.262 202.204 193.262 201.834C193.262 200.992 193.16 199.819 193.083 198.353C192.93 195.318 192.79 190.931 192.688 185.512C192.484 174.673 192.573 159.677 193.389 143.151C194.206 126.626 195.608 111.693 196.883 100.918C197.521 95.5373 198.095 91.1891 198.541 88.167C198.758 86.7006 198.936 85.6167 199.064 84.7113L199.217 83.8187C199.227 83.7134 199.252 83.6102 199.293 83.5127C199.305 83.6144 199.305 83.717 199.293 83.8187C199.293 84.061 199.293 84.367 199.204 84.7241C199.115 85.5784 198.975 86.7261 198.809 88.1925C198.439 91.2018 197.942 95.5629 197.368 100.944C196.208 111.719 194.881 126.638 194.065 143.164C193.249 159.69 193.096 174.648 193.173 185.486C193.173 190.906 193.287 195.292 193.351 198.314C193.351 199.794 193.351 200.954 193.351 201.808V202.714C193.344 202.833 193.314 202.95 193.262 203.058Z" fill="#263238"/>
<path d="M94.2723 185.358C94.0439 185.095 93.843 184.808 93.673 184.504C93.169 183.635 92.8033 182.693 92.5891 181.711C91.9515 179.161 92.3723 175.233 94.0555 170.898C94.8589 168.717 95.9555 166.422 97.0776 163.961L100.648 156.042C103.122 150.457 105.749 144.286 108.452 137.77C113.82 124.712 118.232 112.726 121.318 104.016L124.914 93.6748L125.896 90.8568C125.999 90.5285 126.126 90.2088 126.279 89.9004C126.224 90.2433 126.139 90.5805 126.024 90.9078C125.807 91.6091 125.526 92.5655 125.156 93.7513C124.391 96.2251 123.244 99.7828 121.765 104.169C118.793 112.93 114.432 124.954 109.013 138.012C106.335 144.553 103.67 150.763 101.158 156.297C99.883 159.09 98.6843 161.73 97.524 164.191C96.3636 166.652 95.2669 168.921 94.4381 171.076C92.7294 175.335 92.2448 179.148 92.7931 181.647C93.0801 182.957 93.5798 184.21 94.2723 185.358Z" fill="#263238"/>
<path d="M113.119 166.677C112.966 166.588 116.294 159.562 120.566 150.98C124.837 142.398 128.433 135.487 128.599 135.576C128.765 135.665 125.437 142.679 121.165 151.273C116.893 159.868 113.285 166.741 113.119 166.677Z" fill="#263238"/>
<path d="M117.033 186.098C114.952 184.826 113.204 183.078 111.932 180.997C110.482 179.014 109.521 176.716 109.127 174.29C110.127 176.475 111.247 178.604 112.481 180.666C113.893 182.562 115.413 184.375 117.033 186.098Z" fill="#263238"/>
<g opacity="0.3">
<path opacity="0.3" d="M147.829 177.556C168.449 182.896 190.119 182.659 210.617 176.867L147.829 177.556Z" fill="black"/>
</g>
<path d="M148.912 198.556C148.912 198.556 160.745 214.049 161.46 216.638C161.906 218.232 160.847 218.933 159.47 218.015C158.093 217.097 149.881 208.541 149.881 208.541C149.881 208.541 148.109 207.737 148.912 208.974C149.715 210.211 155.67 220.451 156.18 222.07C157.328 225.793 154.548 227.26 153.069 225.385C152.613 224.848 152.188 224.286 151.794 223.702C151.922 224.565 151.812 225.447 151.475 226.252C151.321 226.436 151.132 226.585 150.918 226.693C150.705 226.8 150.472 226.863 150.233 226.877C149.994 226.892 149.755 226.857 149.53 226.776C149.305 226.695 149.099 226.569 148.925 226.405C148.185 225.334 144.538 219.583 144.385 219.124C144.136 218.59 143.842 218.078 143.505 217.594C143.915 219.746 144.184 221.923 144.309 224.11C144.169 225.181 142.294 224.837 141.376 223.154C140.458 221.471 137.423 214.763 137.423 214.763C137.423 214.763 127.923 206.182 126.992 204.192C126.391 202.846 125.88 201.462 125.462 200.048L113.514 193.672L123.384 180.704C123.384 180.704 145.061 194.221 149.065 198.696" fill="#FFBE9D"/>
<path d="M145.788 211.501C148.549 215.163 150.666 219.268 152.049 223.64C150.86 221.697 149.791 219.683 148.848 217.609C147.708 215.635 146.686 213.596 145.788 211.501Z" fill="#EB996E"/>
<path d="M140.509 210.926C141.622 211.859 142.456 213.081 142.919 214.458C143.574 215.755 143.87 217.203 143.773 218.653C143.569 218.653 143.2 216.83 142.307 214.713C141.414 212.596 140.356 211.041 140.509 210.926Z" fill="#EB996E"/>
<path d="M239.32 175.985C239.32 175.985 239.741 180.652 238.836 181.915C237.93 183.177 231.95 183.19 229.259 183.19H208.5L208.411 175.756L239.32 175.985Z" fill="#FFBE9D"/>
<path d="M257.568 130.221C251.791 143.049 235.61 176.879 235.61 176.879H147.892C147.892 175.797 148.322 174.759 149.087 173.994C149.852 173.229 150.89 172.799 151.973 172.799H168.052L186.784 127.518C187.044 126.891 187.485 126.354 188.05 125.977C188.615 125.601 189.28 125.4 189.959 125.401H254.431C255.002 125.401 255.564 125.544 256.067 125.816C256.569 126.088 256.995 126.482 257.307 126.961C257.618 127.439 257.805 127.988 257.851 128.558C257.897 129.127 257.799 129.699 257.568 130.221Z" fill="#E0E0E0"/>
<path d="M218.752 151.465C218.371 151.038 217.9 150.702 217.373 150.481C216.845 150.26 216.275 150.161 215.704 150.189C214.831 150.251 214.006 150.609 213.365 151.206C212.725 151.802 212.308 152.6 212.185 153.467C212.159 154.294 212.443 155.101 212.98 155.731C213.518 156.36 214.271 156.767 215.092 156.871C215.917 156.933 216.74 156.73 217.442 156.292C218.143 155.854 218.687 155.204 218.994 154.436C219.201 153.959 219.287 153.438 219.245 152.92C219.203 152.402 219.033 151.902 218.752 151.465Z" fill="white"/>
<path d="M235.023 178.982C235.436 174.961 235.299 170.903 234.615 166.919C234.525 166.405 234.339 165.912 234.067 165.465C233.927 165.245 233.741 165.058 233.52 164.919C233.299 164.78 233.05 164.692 232.791 164.662C232.463 164.665 232.142 164.757 231.863 164.931C231.584 165.104 231.358 165.351 231.21 165.644C230.922 166.23 230.753 166.867 230.713 167.518C230.343 170.324 230.037 176.636 230.037 179.454" fill="#FFBE9D"/>
<path d="M230.024 178.345C230.572 175.138 230.572 171.861 230.024 168.654C229.929 168.138 229.739 167.645 229.463 167.2C229.326 166.977 229.14 166.789 228.919 166.65C228.698 166.511 228.448 166.424 228.188 166.396C227.86 166.4 227.539 166.494 227.26 166.667C226.982 166.84 226.756 167.086 226.607 167.378C226.32 167.965 226.147 168.601 226.097 169.253C225.74 172.057 225.561 174.881 225.561 177.707" fill="#FFBE9D"/>
<path d="M225.472 181.379C226.02 178.172 226.02 174.895 225.472 171.688C225.381 171.173 225.195 170.68 224.923 170.234C224.783 170.015 224.596 169.829 224.376 169.69C224.155 169.551 223.907 169.463 223.648 169.431C223.32 169.434 222.999 169.528 222.721 169.701C222.442 169.874 222.216 170.12 222.067 170.413C221.777 171.003 221.604 171.644 221.557 172.3C221.2 175.104 221.021 177.927 221.021 180.754" fill="#FFBE9D"/>
<path d="M239.167 180.333C239.448 177.84 239.375 175.32 238.95 172.848C238.862 172.337 238.676 171.847 238.402 171.407C238.262 171.186 238.075 170.998 237.855 170.857C237.635 170.716 237.386 170.625 237.127 170.591C236.799 170.595 236.478 170.688 236.199 170.861C235.92 171.034 235.694 171.28 235.546 171.573C235.255 172.163 235.082 172.804 235.035 173.46C234.689 176.286 234.522 179.131 234.538 181.978" fill="#FFBE9D"/>
<path d="M224.528 180.933C224.528 180.843 225.127 180.933 225.574 180.231C226.02 179.53 225.88 178.421 225.816 177.082C225.624 175.478 225.659 173.856 225.918 172.262C226.321 173.827 226.51 175.44 226.479 177.056C226.479 177.719 226.556 178.331 226.479 178.956C226.469 179.529 226.267 180.081 225.905 180.525C225.781 180.674 225.627 180.798 225.454 180.888C225.281 180.977 225.092 181.032 224.898 181.047C224.656 181.06 224.528 180.971 224.528 180.933Z" fill="#EB996E"/>
<path d="M229.859 181.482C230.067 181.339 230.24 181.149 230.364 180.928C230.488 180.707 230.559 180.46 230.573 180.207C230.606 179.633 230.584 179.056 230.509 178.486C230.509 177.759 230.394 177.045 230.343 176.293C230.125 174.412 230.125 172.512 230.343 170.631C230.784 172.473 231.011 174.36 231.019 176.254C231.019 177.007 231.096 177.721 231.121 178.448C231.182 179.064 231.156 179.687 231.045 180.296C231.012 180.519 230.934 180.732 230.815 180.922C230.697 181.113 230.541 181.278 230.356 181.406C230.05 181.559 229.872 181.508 229.859 181.482Z" fill="#EB996E"/>
<path d="M235.928 180.258C235.035 177.547 234.787 174.665 235.202 171.842C235.673 174.623 235.916 177.437 235.928 180.258Z" fill="#EB996E"/>
</svg>
