<svg width="1080" height="720" viewBox="0 0 1080 720" fill="none" xmlns="http://www.w3.org/2000/svg">
<path fill-rule="evenodd" clip-rule="evenodd" d="M108.813 466.264C45.8362 483.096 8.40504 547.858 25.3678 611.005C42.3306 674.152 107.209 711.569 170.187 694.736C233.164 677.904 270.595 613.142 253.632 549.995C236.669 486.848 171.791 449.431 108.813 466.264ZM103.306 445.761C28.9203 465.642 -15.1764 542.084 4.81311 616.499C24.8026 690.913 101.309 735.121 175.694 715.239C250.08 695.358 294.176 618.916 274.187 544.501C254.197 470.087 177.691 425.879 103.306 445.761Z" fill="#979DFF" fill-opacity="0.1"/>
<path d="M56.0711 606.029C43.281 558.562 71.6081 509.773 119.341 497.054C167.075 484.335 216.139 512.504 228.929 559.971C241.719 607.438 213.392 656.227 165.659 668.946C117.925 681.665 68.8612 653.496 56.0711 606.029Z" fill="#979DFF" fill-opacity="0.1"/>
<path d="M898.415 240.462C915.03 223.846 941.97 223.846 958.585 240.462L1067.54 349.415C1084.15 366.03 1084.15 392.97 1067.54 409.585L958.585 518.538C941.97 535.154 915.03 535.154 898.415 518.538L789.462 409.585C772.846 392.97 772.846 366.03 789.462 349.415L898.415 240.462Z" fill="#979DFF" fill-opacity="0.1"/>
<path d="M832.151 560.86C832.151 560.228 832.668 559.712 833.3 559.712C833.932 559.712 834.449 560.228 834.449 560.86C834.449 561.492 833.932 562.009 833.3 562.009C832.662 562.009 832.151 561.498 832.151 560.86Z" fill="#979DFF"/>
<path d="M819.098 560.86C819.098 560.228 819.614 559.712 820.246 559.712C820.878 559.712 821.395 560.228 821.395 560.86C821.395 561.492 820.878 562.009 820.246 562.009C819.608 562.009 819.098 561.498 819.098 560.86Z" fill="#979DFF"/>
<path d="M806.038 560.86C806.038 560.228 806.555 559.712 807.187 559.712C807.819 559.712 808.335 560.228 808.335 560.86C808.335 561.492 807.819 562.009 807.187 562.009C806.555 562.009 806.038 561.498 806.038 560.86Z" fill="#979DFF"/>
<path d="M792.985 560.86C792.985 560.228 793.501 559.712 794.133 559.712C794.765 559.712 795.282 560.228 795.282 560.86C795.282 561.492 794.765 562.009 794.133 562.009C793.501 562.009 792.985 561.498 792.985 560.86Z" fill="#979DFF"/>
<path d="M779.931 560.86C779.931 560.228 780.448 559.712 781.08 559.712C781.712 559.712 782.228 560.228 782.228 560.86C782.228 561.492 781.712 562.009 781.08 562.009C780.442 562.009 779.931 561.498 779.931 560.86Z" fill="#979DFF"/>
<path d="M832.151 549.666C832.151 549.034 832.668 548.517 833.3 548.517C833.932 548.517 834.448 549.034 834.448 549.666C834.448 550.298 833.932 550.814 833.3 550.814C832.662 550.814 832.151 550.298 832.151 549.666Z" fill="#979DFF"/>
<path d="M819.098 549.666C819.098 549.034 819.614 548.517 820.246 548.517C820.878 548.517 821.395 549.034 821.395 549.666C821.395 550.298 820.878 550.814 820.246 550.814C819.608 550.814 819.098 550.298 819.098 549.666Z" fill="#979DFF"/>
<path d="M806.038 549.666C806.038 549.034 806.555 548.517 807.187 548.517C807.819 548.517 808.335 549.034 808.335 549.666C808.335 550.298 807.819 550.814 807.187 550.814C806.555 550.814 806.038 550.298 806.038 549.666Z" fill="#979DFF"/>
<path d="M792.985 549.666C792.985 549.034 793.501 548.517 794.133 548.517C794.765 548.517 795.282 549.034 795.282 549.666C795.282 550.298 794.765 550.814 794.133 550.814C793.501 550.814 792.985 550.298 792.985 549.666Z" fill="#979DFF"/>
<path d="M779.931 549.666C779.931 549.034 780.447 548.517 781.079 548.517C781.712 548.517 782.228 549.034 782.228 549.666C782.228 550.298 781.712 550.814 781.079 550.814C780.441 550.814 779.931 550.298 779.931 549.666Z" fill="#979DFF"/>
<path d="M832.151 538.468C832.151 537.836 832.668 537.319 833.3 537.319C833.932 537.319 834.448 537.836 834.448 538.468C834.448 539.1 833.932 539.616 833.3 539.616C832.662 539.616 832.151 539.1 832.151 538.468Z" fill="#979DFF"/>
<path d="M819.098 538.468C819.098 537.836 819.614 537.319 820.246 537.319C820.878 537.319 821.395 537.836 821.395 538.468C821.395 539.1 820.878 539.616 820.246 539.616C819.608 539.616 819.098 539.1 819.098 538.468Z" fill="#979DFF"/>
<path d="M806.038 538.468C806.038 537.836 806.555 537.319 807.187 537.319C807.819 537.319 808.335 537.836 808.335 538.468C808.335 539.1 807.819 539.616 807.187 539.616C806.555 539.616 806.038 539.1 806.038 538.468Z" fill="#979DFF"/>
<path d="M792.985 538.468C792.985 537.836 793.501 537.319 794.133 537.319C794.765 537.319 795.282 537.836 795.282 538.468C795.282 539.1 794.765 539.616 794.133 539.616C793.501 539.616 792.985 539.1 792.985 538.468Z" fill="#979DFF"/>
<path d="M871.319 560.86C871.319 560.228 871.835 559.712 872.467 559.712C873.099 559.712 873.616 560.228 873.616 560.86C873.616 561.492 873.099 562.009 872.467 562.009C871.829 562.009 871.319 561.498 871.319 560.86Z" fill="#979DFF"/>
<path d="M858.259 560.86C858.259 560.228 858.775 559.712 859.407 559.712C860.039 559.712 860.556 560.228 860.556 560.86C860.556 561.492 860.039 562.009 859.407 562.009C858.775 562.009 858.259 561.498 858.259 560.86Z" fill="#979DFF"/>
<path d="M845.205 560.86C845.205 560.228 845.722 559.712 846.354 559.712C846.986 559.712 847.502 560.228 847.502 560.86C847.502 561.492 846.986 562.009 846.354 562.009C845.722 562.009 845.205 561.498 845.205 560.86Z" fill="#979DFF"/>
<path d="M873.616 549.666C873.616 549.032 873.102 548.517 872.467 548.517C871.833 548.517 871.319 549.032 871.319 549.666C871.319 550.3 871.833 550.814 872.467 550.814C873.102 550.814 873.616 550.3 873.616 549.666Z" fill="#979DFF"/>
<path d="M858.259 549.666C858.259 549.034 858.775 548.517 859.407 548.517C860.039 548.517 860.556 549.034 860.556 549.666C860.556 550.298 860.039 550.814 859.407 550.814C858.775 550.814 858.259 550.298 858.259 549.666Z" fill="#979DFF"/>
<path d="M845.205 549.666C845.205 549.034 845.722 548.517 846.354 548.517C846.986 548.517 847.502 549.034 847.502 549.666C847.502 550.298 846.986 550.814 846.354 550.814C845.722 550.814 845.205 550.298 845.205 549.666Z" fill="#979DFF"/>
<path d="M871.319 538.468C871.319 537.836 871.835 537.319 872.467 537.319C873.099 537.319 873.616 537.836 873.616 538.468C873.616 539.1 873.099 539.616 872.467 539.616C871.829 539.616 871.319 539.1 871.319 538.468Z" fill="#979DFF"/>
<path d="M858.259 538.468C858.259 537.836 858.775 537.319 859.407 537.319C860.039 537.319 860.556 537.836 860.556 538.468C860.556 539.1 860.039 539.616 859.407 539.616C858.775 539.616 858.259 539.1 858.259 538.468Z" fill="#979DFF"/>
<path d="M845.205 538.468C845.205 537.836 845.722 537.319 846.354 537.319C846.986 537.319 847.502 537.836 847.502 538.468C847.502 539.1 846.986 539.616 846.354 539.616C845.722 539.616 845.205 539.1 845.205 538.468Z" fill="#979DFF"/>
<path d="M779.931 538.468C779.931 537.836 780.448 537.319 781.08 537.319C781.712 537.319 782.228 537.836 782.228 538.468C782.228 539.1 781.712 539.616 781.08 539.616C780.442 539.616 779.931 539.1 779.931 538.468Z" fill="#979DFF"/>
<path d="M766.871 560.86C766.871 560.228 767.388 559.712 768.02 559.712C768.652 559.712 769.168 560.228 769.168 560.86C769.168 561.492 768.652 562.009 768.02 562.009C767.388 562.009 766.871 561.498 766.871 560.86Z" fill="#979DFF"/>
<path d="M753.818 560.86C753.818 560.228 754.334 559.712 754.966 559.712C755.598 559.712 756.115 560.228 756.115 560.86C756.115 561.492 755.598 562.009 754.966 562.009C754.334 562.009 753.818 561.498 753.818 560.86Z" fill="#979DFF"/>
<path d="M766.871 549.666C766.871 549.034 767.388 548.517 768.02 548.517C768.652 548.517 769.168 549.034 769.168 549.666C769.168 550.298 768.652 550.814 768.02 550.814C767.388 550.814 766.871 550.298 766.871 549.666Z" fill="#979DFF"/>
<path d="M753.818 549.666C753.818 549.034 754.334 548.517 754.966 548.517C755.598 548.517 756.115 549.034 756.115 549.666C756.115 550.298 755.598 550.814 754.966 550.814C754.334 550.814 753.818 550.298 753.818 549.666Z" fill="#979DFF"/>
<path d="M766.871 538.468C766.871 537.836 767.388 537.319 768.02 537.319C768.652 537.319 769.168 537.836 769.168 538.468C769.168 539.1 768.652 539.616 768.02 539.616C767.388 539.616 766.871 539.1 766.871 538.468Z" fill="#979DFF"/>
<path d="M753.818 538.468C753.818 537.836 754.334 537.319 754.966 537.319C755.598 537.319 756.115 537.836 756.115 538.468C756.115 539.1 755.598 539.616 754.966 539.616C754.334 539.616 753.818 539.1 753.818 538.468Z" fill="#979DFF"/>
</svg>
