<svg width="34" height="34" viewBox="0 0 34 34" fill="none" xmlns="http://www.w3.org/2000/svg">
<g clip-path="url(#clip0_1611_5260)">
<path d="M28.3333 0H5.66667C4.16377 0 2.72243 0.597022 1.65973 1.65973C0.597022 2.72243 0 4.16377 0 5.66667L0 22.6667C0 24.1696 0.597022 25.6109 1.65973 26.6736C2.72243 27.7363 4.16377 28.3333 5.66667 28.3333H9.775L16.0806 33.6643C16.3364 33.8807 16.6606 33.9995 16.9957 33.9995C17.3309 33.9995 17.6551 33.8807 17.9109 33.6643L24.225 28.3333H28.3333C29.8362 28.3333 31.2776 27.7363 32.3403 26.6736C33.403 25.6109 34 24.1696 34 22.6667V5.66667C34 4.16377 33.403 2.72243 32.3403 1.65973C31.2776 0.597022 29.8362 0 28.3333 0V0ZM31.1667 22.6667C31.1667 23.4181 30.8682 24.1388 30.3368 24.6701C29.8054 25.2015 29.0848 25.5 28.3333 25.5H24.225C23.5553 25.5002 22.9074 25.7376 22.3961 26.1701L17 30.7275L11.6067 26.1701C11.0947 25.737 10.4456 25.4995 9.775 25.5H5.66667C4.91522 25.5 4.19455 25.2015 3.6632 24.6701C3.13184 24.1388 2.83333 23.4181 2.83333 22.6667V5.66667C2.83333 4.91522 3.13184 4.19455 3.6632 3.6632C4.19455 3.13184 4.91522 2.83333 5.66667 2.83333H28.3333C29.0848 2.83333 29.8054 3.13184 30.3368 3.6632C30.8682 4.19455 31.1667 4.91522 31.1667 5.66667V22.6667Z" fill="white"/>
<path d="M9.91667 9.91731H17C17.3757 9.91731 17.7361 9.76806 18.0017 9.50238C18.2674 9.2367 18.4167 8.87637 18.4167 8.50065C18.4167 8.12493 18.2674 7.76459 18.0017 7.49892C17.7361 7.23324 17.3757 7.08398 17 7.08398H9.91667C9.54094 7.08398 9.18061 7.23324 8.91493 7.49892C8.64926 7.76459 8.5 8.12493 8.5 8.50065C8.5 8.87637 8.64926 9.2367 8.91493 9.50238C9.18061 9.76806 9.54094 9.91731 9.91667 9.91731Z" fill="white"/>
<path d="M24.0833 12.75H9.91667C9.54094 12.75 9.18061 12.8993 8.91493 13.1649C8.64926 13.4306 8.5 13.7909 8.5 14.1667C8.5 14.5424 8.64926 14.9027 8.91493 15.1684C9.18061 15.4341 9.54094 15.5833 9.91667 15.5833H24.0833C24.4591 15.5833 24.8194 15.4341 25.0851 15.1684C25.3507 14.9027 25.5 14.5424 25.5 14.1667C25.5 13.7909 25.3507 13.4306 25.0851 13.1649C24.8194 12.8993 24.4591 12.75 24.0833 12.75Z" fill="white"/>
<path d="M24.0833 18.416H9.91667C9.54094 18.416 9.18061 18.5653 8.91493 18.831C8.64926 19.0966 8.5 19.457 8.5 19.8327C8.5 20.2084 8.64926 20.5688 8.91493 20.8344C9.18061 21.1001 9.54094 21.2494 9.91667 21.2494H24.0833C24.4591 21.2494 24.8194 21.1001 25.0851 20.8344C25.3507 20.5688 25.5 20.2084 25.5 19.8327C25.5 19.457 25.3507 19.0966 25.0851 18.831C24.8194 18.5653 24.4591 18.416 24.0833 18.416Z" fill="white"/>
</g>
<defs>
<clipPath id="clip0_1611_5260">
<rect width="34" height="34" fill="white"/>
</clipPath>
</defs>
</svg>
