<svg width="34" height="34" viewBox="0 0 34 34" fill="none" xmlns="http://www.w3.org/2000/svg">
<g clip-path="url(#clip0_944_4369)">
<path d="M27.6746 4.42286L25.3286 2.07403C24.6722 1.4143 23.8915 0.891308 23.0316 0.535307C22.1718 0.179307 21.2499 -0.00262932 20.3193 2.87094e-05H11.3333C9.45541 0.00227817 7.65504 0.749278 6.32714 2.07717C4.99925 3.40507 4.25225 5.20544 4.25 7.08336V26.9167C4.25225 28.7946 4.99925 30.595 6.32714 31.9229C7.65504 33.2508 9.45541 33.9978 11.3333 34H22.6667C24.5446 33.9978 26.345 33.2508 27.6729 31.9229C29.0008 30.595 29.7477 28.7946 29.75 26.9167V9.43078C29.7523 8.50029 29.57 7.57858 29.2138 6.71898C28.8576 5.85939 28.3344 5.07896 27.6746 4.42286V4.42286ZM25.6714 6.42603C25.8724 6.62623 26.0523 6.84649 26.2083 7.08336H22.6667V3.5417C22.9032 3.6994 23.1238 3.87969 23.3254 4.08003L25.6714 6.42603ZM26.9167 26.9167C26.9167 28.0439 26.4689 29.1249 25.6719 29.9219C24.8748 30.7189 23.7938 31.1667 22.6667 31.1667H11.3333C10.2062 31.1667 9.12516 30.7189 8.32813 29.9219C7.5311 29.1249 7.08333 28.0439 7.08333 26.9167V7.08336C7.08333 5.95619 7.5311 4.87519 8.32813 4.07816C9.12516 3.28113 10.2062 2.83336 11.3333 2.83336H19.8333V7.08336C19.8333 7.83481 20.1318 8.55548 20.6632 9.08683C21.1946 9.61819 21.9152 9.9167 22.6667 9.9167H26.9167V26.9167ZM22.6667 12.75C23.0424 12.75 23.4027 12.8993 23.6684 13.165C23.9341 13.4306 24.0833 13.791 24.0833 14.1667C24.0833 14.5424 23.9341 14.9028 23.6684 15.1684C23.4027 15.4341 23.0424 15.5834 22.6667 15.5834H11.3333C10.9576 15.5834 10.5973 15.4341 10.3316 15.1684C10.0659 14.9028 9.91667 14.5424 9.91667 14.1667C9.91667 13.791 10.0659 13.4306 10.3316 13.165C10.5973 12.8993 10.9576 12.75 11.3333 12.75H22.6667ZM24.0833 19.8334C24.0833 20.2091 23.9341 20.5694 23.6684 20.8351C23.4027 21.1008 23.0424 21.25 22.6667 21.25H11.3333C10.9576 21.25 10.5973 21.1008 10.3316 20.8351C10.0659 20.5694 9.91667 20.2091 9.91667 19.8334C9.91667 19.4576 10.0659 19.0973 10.3316 18.8316C10.5973 18.566 10.9576 18.4167 11.3333 18.4167H22.6667C23.0424 18.4167 23.4027 18.566 23.6684 18.8316C23.9341 19.0973 24.0833 19.4576 24.0833 19.8334ZM23.8113 24.6685C24.0316 24.9714 24.1228 25.3492 24.0652 25.7193C24.0076 26.0894 23.8058 26.4216 23.5039 26.6433C22.0686 27.6661 20.3686 28.2529 18.6079 28.3334C17.5792 28.3284 16.5818 27.9793 15.7746 27.3417C15.3099 27.0229 15.1328 26.9167 14.7829 26.9167C13.8358 27.0633 12.9421 27.4506 12.1876 28.0415C11.8883 28.2549 11.5178 28.3436 11.1544 28.2889C10.791 28.2342 10.463 28.0404 10.2398 27.7484C10.0166 27.4564 9.91556 27.0891 9.9581 26.724C10.0006 26.359 10.1834 26.0247 10.4677 25.7919C11.7161 24.8228 13.2151 24.2301 14.7886 24.0834C15.7323 24.0984 16.6446 24.4246 17.3839 25.0113C17.7209 25.3144 18.1548 25.4877 18.6079 25.5C19.7663 25.4133 20.8802 25.0175 21.8337 24.3539C22.1377 24.1336 22.5168 24.0429 22.8876 24.1019C23.2584 24.1609 23.5907 24.3646 23.8113 24.6685V24.6685Z" fill="white"/>
</g>
<defs>
<clipPath id="clip0_944_4369">
<rect width="34" height="34" fill="white"/>
</clipPath>
</defs>
</svg>
