<svg width="34" height="34" viewBox="0 0 34 34" fill="none" xmlns="http://www.w3.org/2000/svg">
<g clip-path="url(#clip0_944_4286)">
<path d="M14.8752 24.0832C14.5027 24.0835 14.1337 24.0103 13.7895 23.8678C13.4453 23.7254 13.1326 23.5165 12.8692 23.253L7.50853 18.0128C7.23989 17.7498 7.08673 17.3908 7.08274 17.0149C7.07876 16.6389 7.22428 16.2768 7.48728 16.0082C7.75029 15.7395 8.10924 15.5864 8.48517 15.5824C8.8611 15.5784 9.22322 15.7239 9.49187 15.9869L14.8653 21.2385L24.5071 11.7468C24.779 11.5076 25.1322 11.3816 25.4941 11.3947C25.8561 11.4078 26.1992 11.559 26.4532 11.8172C26.7071 12.0755 26.8524 12.4212 26.8593 12.7833C26.8663 13.1454 26.7343 13.4964 26.4904 13.7642L16.867 23.2658C16.6051 23.5263 16.2943 23.7326 15.9525 23.8729C15.6107 24.0131 15.2446 24.0846 14.8752 24.0832ZM34.0002 26.9165V17.4815C34.053 13.1146 32.4519 8.88927 29.5183 5.654C26.5847 2.41872 22.5358 0.41299 18.1845 0.0395033C15.7559 -0.130415 13.319 0.223301 11.0389 1.07672C8.75879 1.93014 6.68857 3.26335 4.96833 4.98615C3.24808 6.70895 1.91794 8.78114 1.0679 11.0625C0.217866 13.3439 -0.132238 15.7813 0.0412808 18.2097C0.667448 27.2112 8.61637 33.9998 18.5345 33.9998H26.9169C28.7948 33.9976 30.5952 33.2506 31.9231 31.9227C33.251 30.5948 33.998 28.7944 34.0002 26.9165ZM17.9919 2.86717C21.6277 3.18881 25.0071 4.87446 27.4511 7.58546C29.8951 10.2965 31.2226 13.8319 31.1669 17.4815V26.9165C31.1669 28.0437 30.7191 29.1247 29.9221 29.9217C29.125 30.7187 28.044 31.1665 26.9169 31.1665H18.5345C9.98628 31.1665 3.4002 25.6415 2.86895 18.0142C2.72948 16.0713 2.99216 14.1206 3.64058 12.2839C4.289 10.4471 5.30923 8.76381 6.63753 7.33912C7.96582 5.91444 9.57364 4.77898 11.3605 4.00369C13.1474 3.22839 15.075 2.82992 17.0229 2.83317C17.3444 2.83317 17.6689 2.84592 17.9919 2.86717Z" fill="white"/>
</g>
<defs>
<clipPath id="clip0_944_4286">
<rect width="34" height="34" fill="white"/>
</clipPath>
</defs>
</svg>
