<svg width="59" height="59" viewBox="0 0 59 59" fill="none" xmlns="http://www.w3.org/2000/svg">
<rect width="59" height="59" rx="14" fill="#FDB572"/>
<g clip-path="url(#clip0_752_3869)">
<path d="M35.4373 36.8908H30.3158V17.8089L34.7203 22.0876C34.9135 22.2688 35.1722 22.3691 35.4408 22.3668C35.7094 22.3646 35.9663 22.2599 36.1562 22.0754C36.3461 21.8909 36.4538 21.6414 36.4562 21.3805C36.4585 21.1196 36.3553 20.8682 36.1687 20.6806L31.1025 15.7591C30.8647 15.528 30.5823 15.3447 30.2716 15.2197C29.9609 15.0946 29.6278 15.0303 29.2915 15.0303C28.9552 15.0303 28.6221 15.0946 28.3114 15.2197C28.0006 15.3447 27.7183 15.528 27.4805 15.7591L22.4102 20.6845C22.2181 20.8717 22.1105 21.1252 22.1108 21.3894C22.1112 21.6537 22.2196 21.9069 22.4123 22.0935C22.6049 22.2801 22.8659 22.3847 23.1379 22.3843C23.4099 22.384 23.6706 22.2786 23.8627 22.0915L28.2672 17.8129V36.8908H23.1457C22.874 36.8908 22.6135 36.9956 22.4214 37.1822C22.2293 37.3688 22.1214 37.6219 22.1214 37.8858C22.1214 38.1497 22.2293 38.4028 22.4214 38.5894C22.6135 38.776 22.874 38.8808 23.1457 38.8808H35.4373C35.709 38.8808 35.9695 38.776 36.1616 38.5894C36.3537 38.4028 36.4616 38.1497 36.4616 37.8858C36.4616 37.6219 36.3537 37.3688 36.1616 37.1822C35.9695 36.9956 35.709 36.8908 35.4373 36.8908Z" fill="white"/>
</g>
<defs>
<clipPath id="clip0_752_3869">
<rect width="24.5833" height="23.881" fill="white" transform="translate(17 15)"/>
</clipPath>
</defs>
</svg>
