<svg width="171" height="38" viewBox="0 0 171 38" fill="none" xmlns="http://www.w3.org/2000/svg">
<rect width="38" height="38" rx="5" fill="url(#paint0_linear_742_3548)"/>
<path d="M53.92 9C54.96 9 55.93 9.3 56.83 9.9C57.75 10.5 58.49 11.31 59.05 12.33C59.61 13.35 59.89 14.49 59.89 15.75C59.89 16.99 59.61 18.12 59.05 19.14C58.49 20.16 57.75 20.98 56.83 21.6C55.93 22.2 54.96 22.5 53.92 22.5H48.4L48.7 21.96V28.17C48.7 28.69 48.54 29.13 48.22 29.49C47.9 29.83 47.48 30 46.96 30C46.46 30 46.05 29.83 45.73 29.49C45.41 29.13 45.25 28.69 45.25 28.17V10.83C45.25 10.31 45.42 9.88 45.76 9.54C46.12 9.18 46.56 9 47.08 9H53.92ZM53.92 19.08C54.3 19.08 54.67 18.92 55.03 18.6C55.39 18.28 55.69 17.87 55.93 17.37C56.17 16.85 56.29 16.31 56.29 15.75C56.29 15.17 56.17 14.63 55.93 14.13C55.69 13.63 55.39 13.23 55.03 12.93C54.67 12.61 54.3 12.45 53.92 12.45H48.34L48.7 11.91V19.56L48.37 19.08H53.92ZM64.8262 30C64.3062 30 63.8762 29.83 63.5362 29.49C63.1962 29.13 63.0262 28.69 63.0262 28.17V15.78C63.0262 15.26 63.1962 14.83 63.5362 14.49C63.8762 14.13 64.3062 13.95 64.8262 13.95C65.3462 13.95 65.7762 14.13 66.1162 14.49C66.4562 14.83 66.6262 15.26 66.6262 15.78V18.6L66.4162 16.59C66.6362 16.11 66.9162 15.69 67.2562 15.33C67.6162 14.95 68.0162 14.64 68.4562 14.4C68.8962 14.14 69.3662 13.95 69.8662 13.83C70.3662 13.71 70.8662 13.65 71.3662 13.65C71.9662 13.65 72.4662 13.82 72.8662 14.16C73.2862 14.5 73.4962 14.9 73.4962 15.36C73.4962 16.02 73.3262 16.5 72.9862 16.8C72.6462 17.08 72.2762 17.22 71.8762 17.22C71.4962 17.22 71.1462 17.15 70.8262 17.01C70.5262 16.87 70.1762 16.8 69.7762 16.8C69.4162 16.8 69.0462 16.89 68.6662 17.07C68.3062 17.23 67.9662 17.49 67.6462 17.85C67.3462 18.21 67.0962 18.66 66.8962 19.2C66.7162 19.72 66.6262 20.34 66.6262 21.06V28.17C66.6262 28.69 66.4562 29.13 66.1162 29.49C65.7762 29.83 65.3462 30 64.8262 30ZM90.9302 21.99C90.9302 23.63 90.5602 25.08 89.8202 26.34C89.1002 27.58 88.1202 28.55 86.8802 29.25C85.6602 29.95 84.2902 30.3 82.7702 30.3C81.2502 30.3 79.8702 29.95 78.6302 29.25C77.4102 28.55 76.4302 27.58 75.6902 26.34C74.9702 25.08 74.6102 23.63 74.6102 21.99C74.6102 20.35 74.9702 18.91 75.6902 17.67C76.4302 16.41 77.4102 15.43 78.6302 14.73C79.8702 14.01 81.2502 13.65 82.7702 13.65C84.2902 13.65 85.6602 14.01 86.8802 14.73C88.1202 15.43 89.1002 16.41 89.8202 17.67C90.5602 18.91 90.9302 20.35 90.9302 21.99ZM87.3302 21.99C87.3302 20.97 87.1202 20.09 86.7002 19.35C86.3002 18.59 85.7502 18 85.0502 17.58C84.3702 17.16 83.6102 16.95 82.7702 16.95C81.9302 16.95 81.1602 17.16 80.4602 17.58C79.7802 18 79.2302 18.59 78.8102 19.35C78.4102 20.09 78.2102 20.97 78.2102 21.99C78.2102 22.99 78.4102 23.87 78.8102 24.63C79.2302 25.37 79.7802 25.95 80.4602 26.37C81.1602 26.79 81.9302 27 82.7702 27C83.6102 27 84.3702 26.79 85.0502 26.37C85.7502 25.95 86.3002 25.37 86.7002 24.63C87.1202 23.87 87.3302 22.99 87.3302 21.99ZM100.741 13.65C101.581 13.65 102.351 13.78 103.051 14.04C103.751 14.3 104.351 14.63 104.851 15.03C105.371 15.43 105.771 15.84 106.051 16.26C106.351 16.66 106.501 17 106.501 17.28L105.721 17.67V15.48C105.721 14.96 105.891 14.53 106.231 14.19C106.571 13.83 107.001 13.65 107.521 13.65C108.041 13.65 108.471 13.82 108.811 14.16C109.151 14.5 109.321 14.94 109.321 15.48V28.83C109.321 30.57 108.941 31.96 108.181 33C107.441 34.06 106.461 34.82 105.241 35.28C104.021 35.76 102.711 36 101.311 36C100.911 36 100.391 35.95 99.7509 35.85C99.1109 35.75 98.5009 35.63 97.9209 35.49C97.3409 35.35 96.9009 35.22 96.6009 35.1C96.0009 34.84 95.5809 34.51 95.3409 34.11C95.1209 33.73 95.0809 33.32 95.2209 32.88C95.4009 32.3 95.6909 31.9 96.0909 31.68C96.4909 31.48 96.9109 31.46 97.3509 31.62C97.5509 31.68 97.8809 31.8 98.3409 31.98C98.8009 32.16 99.3009 32.32 99.8409 32.46C100.401 32.62 100.891 32.7 101.311 32.7C102.811 32.7 103.921 32.4 104.641 31.8C105.361 31.2 105.721 30.37 105.721 29.31V26.7L106.081 26.97C106.081 27.23 105.941 27.55 105.661 27.93C105.401 28.29 105.031 28.65 104.551 29.01C104.091 29.37 103.541 29.68 102.901 29.94C102.261 30.18 101.581 30.3 100.861 30.3C99.4409 30.3 98.1609 29.95 97.0209 29.25C95.8809 28.53 94.9809 27.55 94.3209 26.31C93.6609 25.05 93.3309 23.61 93.3309 21.99C93.3309 20.35 93.6609 18.91 94.3209 17.67C94.9809 16.41 95.8709 15.43 96.9909 14.73C98.1109 14.01 99.3609 13.65 100.741 13.65ZM101.311 16.95C100.411 16.95 99.6209 17.17 98.9409 17.61C98.2609 18.05 97.7309 18.65 97.3509 19.41C96.9709 20.17 96.7809 21.03 96.7809 21.99C96.7809 22.93 96.9709 23.78 97.3509 24.54C97.7309 25.3 98.2609 25.9 98.9409 26.34C99.6209 26.78 100.411 27 101.311 27C102.231 27 103.031 26.78 103.711 26.34C104.391 25.9 104.921 25.3 105.301 24.54C105.681 23.78 105.871 22.93 105.871 21.99C105.871 21.03 105.681 20.17 105.301 19.41C104.921 18.65 104.391 18.05 103.711 17.61C103.031 17.17 102.231 16.95 101.311 16.95ZM115.012 30C114.492 30 114.062 29.83 113.722 29.49C113.382 29.13 113.212 28.69 113.212 28.17V15.78C113.212 15.26 113.382 14.83 113.722 14.49C114.062 14.13 114.492 13.95 115.012 13.95C115.532 13.95 115.962 14.13 116.302 14.49C116.642 14.83 116.812 15.26 116.812 15.78V18.6L116.602 16.59C116.822 16.11 117.102 15.69 117.442 15.33C117.802 14.95 118.202 14.64 118.642 14.4C119.082 14.14 119.552 13.95 120.052 13.83C120.552 13.71 121.052 13.65 121.552 13.65C122.152 13.65 122.652 13.82 123.052 14.16C123.472 14.5 123.682 14.9 123.682 15.36C123.682 16.02 123.512 16.5 123.172 16.8C122.832 17.08 122.462 17.22 122.062 17.22C121.682 17.22 121.332 17.15 121.012 17.01C120.712 16.87 120.362 16.8 119.962 16.8C119.602 16.8 119.232 16.89 118.852 17.07C118.492 17.23 118.152 17.49 117.832 17.85C117.532 18.21 117.282 18.66 117.082 19.2C116.902 19.72 116.812 20.34 116.812 21.06V28.17C116.812 28.69 116.642 29.13 116.302 29.49C115.962 29.83 115.532 30 115.012 30ZM133.106 30.3C131.406 30.3 129.926 29.95 128.666 29.25C127.426 28.53 126.466 27.56 125.786 26.34C125.126 25.12 124.796 23.74 124.796 22.2C124.796 20.4 125.156 18.87 125.876 17.61C126.616 16.33 127.576 15.35 128.756 14.67C129.936 13.99 131.186 13.65 132.506 13.65C133.526 13.65 134.486 13.86 135.386 14.28C136.306 14.7 137.116 15.28 137.816 16.02C138.516 16.74 139.066 17.58 139.466 18.54C139.886 19.5 140.096 20.52 140.096 21.6C140.076 22.08 139.886 22.47 139.526 22.77C139.166 23.07 138.746 23.22 138.266 23.22H126.806L125.906 20.22H136.916L136.256 20.82V20.01C136.216 19.43 136.006 18.91 135.626 18.45C135.266 17.99 134.806 17.63 134.246 17.37C133.706 17.09 133.126 16.95 132.506 16.95C131.906 16.95 131.346 17.03 130.826 17.19C130.306 17.35 129.856 17.62 129.476 18C129.096 18.38 128.796 18.89 128.576 19.53C128.356 20.17 128.246 20.98 128.246 21.96C128.246 23.04 128.466 23.96 128.906 24.72C129.366 25.46 129.946 26.03 130.646 26.43C131.366 26.81 132.126 27 132.926 27C133.666 27 134.256 26.94 134.696 26.82C135.136 26.7 135.486 26.56 135.746 26.4C136.026 26.22 136.276 26.07 136.496 25.95C136.856 25.77 137.196 25.68 137.516 25.68C137.956 25.68 138.316 25.83 138.596 26.13C138.896 26.43 139.046 26.78 139.046 27.18C139.046 27.72 138.766 28.21 138.206 28.65C137.686 29.09 136.956 29.48 136.016 29.82C135.076 30.14 134.106 30.3 133.106 30.3ZM142.311 27.51C142.111 27.23 142.021 26.87 142.041 26.43C142.061 25.99 142.321 25.61 142.821 25.29C143.141 25.09 143.481 25.01 143.841 25.05C144.201 25.07 144.551 25.25 144.891 25.59C145.471 26.17 146.081 26.62 146.721 26.94C147.361 27.26 148.161 27.42 149.121 27.42C149.421 27.4 149.751 27.36 150.111 27.3C150.471 27.22 150.781 27.06 151.041 26.82C151.321 26.56 151.461 26.17 151.461 25.65C151.461 25.21 151.311 24.86 151.011 24.6C150.711 24.34 150.311 24.12 149.811 23.94C149.331 23.76 148.791 23.59 148.191 23.43C147.571 23.25 146.931 23.05 146.271 22.83C145.631 22.61 145.041 22.33 144.501 21.99C143.961 21.63 143.521 21.16 143.181 20.58C142.841 20 142.671 19.27 142.671 18.39C142.671 17.39 142.951 16.54 143.511 15.84C144.071 15.14 144.791 14.6 145.671 14.22C146.571 13.84 147.511 13.65 148.491 13.65C149.111 13.65 149.761 13.73 150.441 13.89C151.121 14.03 151.771 14.27 152.391 14.61C153.011 14.93 153.531 15.36 153.951 15.9C154.171 16.2 154.301 16.56 154.341 16.98C154.381 17.4 154.191 17.78 153.771 18.12C153.471 18.36 153.121 18.47 152.721 18.45C152.321 18.41 151.991 18.27 151.731 18.03C151.391 17.59 150.931 17.24 150.351 16.98C149.791 16.72 149.141 16.59 148.401 16.59C148.101 16.59 147.771 16.63 147.411 16.71C147.071 16.77 146.771 16.92 146.511 17.16C146.251 17.38 146.121 17.74 146.121 18.24C146.121 18.7 146.271 19.07 146.571 19.35C146.871 19.61 147.271 19.83 147.771 20.01C148.291 20.17 148.841 20.33 149.421 20.49C150.021 20.65 150.631 20.84 151.251 21.06C151.871 21.28 152.441 21.57 152.961 21.93C153.481 22.29 153.901 22.76 154.221 23.34C154.541 23.9 154.701 24.62 154.701 25.5C154.701 26.52 154.401 27.39 153.801 28.11C153.201 28.83 152.451 29.38 151.551 29.76C150.651 30.12 149.731 30.3 148.791 30.3C147.611 30.3 146.431 30.1 145.251 29.7C144.071 29.28 143.091 28.55 142.311 27.51ZM156.784 27.51C156.584 27.23 156.494 26.87 156.514 26.43C156.534 25.99 156.794 25.61 157.294 25.29C157.614 25.09 157.954 25.01 158.314 25.05C158.674 25.07 159.024 25.25 159.364 25.59C159.944 26.17 160.554 26.62 161.194 26.94C161.834 27.26 162.634 27.42 163.594 27.42C163.894 27.4 164.224 27.36 164.584 27.3C164.944 27.22 165.254 27.06 165.514 26.82C165.794 26.56 165.934 26.17 165.934 25.65C165.934 25.21 165.784 24.86 165.484 24.6C165.184 24.34 164.784 24.12 164.284 23.94C163.804 23.76 163.264 23.59 162.664 23.43C162.044 23.25 161.404 23.05 160.744 22.83C160.104 22.61 159.514 22.33 158.974 21.99C158.434 21.63 157.994 21.16 157.654 20.58C157.314 20 157.144 19.27 157.144 18.39C157.144 17.39 157.424 16.54 157.984 15.84C158.544 15.14 159.264 14.6 160.144 14.22C161.044 13.84 161.984 13.65 162.964 13.65C163.584 13.65 164.234 13.73 164.914 13.89C165.594 14.03 166.244 14.27 166.864 14.61C167.484 14.93 168.004 15.36 168.424 15.9C168.644 16.2 168.774 16.56 168.814 16.98C168.854 17.4 168.664 17.78 168.244 18.12C167.944 18.36 167.594 18.47 167.194 18.45C166.794 18.41 166.464 18.27 166.204 18.03C165.864 17.59 165.404 17.24 164.824 16.98C164.264 16.72 163.614 16.59 162.874 16.59C162.574 16.59 162.244 16.63 161.884 16.71C161.544 16.77 161.244 16.92 160.984 17.16C160.724 17.38 160.594 17.74 160.594 18.24C160.594 18.7 160.744 19.07 161.044 19.35C161.344 19.61 161.744 19.83 162.244 20.01C162.764 20.17 163.314 20.33 163.894 20.49C164.494 20.65 165.104 20.84 165.724 21.06C166.344 21.28 166.914 21.57 167.434 21.93C167.954 22.29 168.374 22.76 168.694 23.34C169.014 23.9 169.174 24.62 169.174 25.5C169.174 26.52 168.874 27.39 168.274 28.11C167.674 28.83 166.924 29.38 166.024 29.76C165.124 30.12 164.204 30.3 163.264 30.3C162.084 30.3 160.904 30.1 159.724 29.7C158.544 29.28 157.564 28.55 156.784 27.51Z" fill="url(#paint1_linear_742_3548)"/>
<path d="M8 8.77943C8 7.38354 9.13159 6.25195 10.5275 6.25195C11.9234 6.25195 13.0549 7.38354 13.0549 8.77943V21.9223C13.0549 23.3182 11.9234 24.4498 10.5275 24.4498C9.13159 24.4498 8 23.3182 8 21.9223V8.77943Z" fill="white"/>
<path d="M23.1648 11.3069C23.1648 9.91101 24.2964 8.77943 25.6923 8.77943C27.0882 8.77943 28.2198 9.91101 28.2198 11.3069V21.4168C28.2198 22.8127 27.0882 23.9443 25.6923 23.9443C24.2964 23.9443 23.1648 22.8127 23.1648 21.4168V11.3069Z" fill="white"/>
<path d="M28.2198 21.4168C28.2198 27.0003 23.6934 31.5267 18.1099 31.5267C12.5263 31.5267 8 27.0003 8 21.4168C8 17.6747 10.0331 14.4075 13.0549 12.6594V21.4168C13.0549 24.2086 15.3181 26.4717 18.1099 26.4717C20.9017 26.4717 23.1648 24.2086 23.1648 21.4168V12.6594C26.1867 14.4075 28.2198 17.6747 28.2198 21.4168Z" fill="white"/>
<path fill-rule="evenodd" clip-rule="evenodd" d="M22.532 8.88488C22.0218 9.65022 21.9011 10.6098 21.9011 11.3077V21.4176C21.9011 22.0444 21.7193 22.9678 21.1516 23.7562C20.5561 24.5833 19.5702 25.2088 18.1099 25.2088C16.6496 25.2088 15.6637 24.5833 15.0682 23.7562C14.5005 22.9678 14.3187 22.0444 14.3187 21.4176C14.3187 20.9988 14.6582 20.6593 15.077 20.6593C15.4957 20.6593 15.8352 20.9988 15.8352 21.4176C15.8352 21.8017 15.9567 22.3949 16.2989 22.8701C16.6133 23.3068 17.1439 23.6923 18.1099 23.6923C19.076 23.6923 19.6066 23.3068 19.921 22.8701C20.2632 22.3949 20.3847 21.8017 20.3847 21.4176V11.3077C20.3847 10.4891 20.5167 9.17396 21.2702 8.04369C22.0599 6.85916 23.4495 6 25.6924 6C27.9352 6 29.3248 6.85916 30.1145 8.04369C30.868 9.17396 31 10.4891 31 11.3077C31 11.7265 30.6606 12.0659 30.2418 12.0659C29.823 12.0659 29.4836 11.7265 29.4836 11.3077C29.4836 10.6098 29.3629 9.65022 28.8527 8.88488C28.3786 8.17381 27.4934 7.51648 25.6924 7.51648C23.8913 7.51648 23.0061 8.17381 22.532 8.88488Z" fill="white"/>
<defs>
<linearGradient id="paint0_linear_742_3548" x1="19" y1="0" x2="19" y2="38" gradientUnits="userSpaceOnUse">
<stop stop-color="#83C0FF"/>
<stop offset="1" stop-color="#979DFF"/>
</linearGradient>
<linearGradient id="paint1_linear_742_3548" x1="107" y1="0" x2="107" y2="38" gradientUnits="userSpaceOnUse">
<stop stop-color="#83C0FF"/>
<stop offset="1" stop-color="#979DFF"/>
</linearGradient>
</defs>
</svg>
