<svg width="22" height="22" viewBox="0 0 22 22" fill="none" xmlns="http://www.w3.org/2000/svg">
<path d="M5.3788 2L0 7.3788L2.6894 9.04358L5.3788 7.3788L6.89752 4.6894L5.3788 2Z" fill="#FF2820"/>
<path d="M5.3788 7.37891H0V14.3713L2.6894 15.8482L5.3788 14.3713V7.37891Z" fill="#0084FF"/>
<path d="M0 14.3711V17.9569C0 18.9431 0.80682 19.7499 1.79295 19.7499H5.3788L6.89752 16.8948L5.3788 14.3711H0Z" fill="#0066DD"/>
<path d="M20.4038 3.90966L17.0772 6.5449V6.57192L15.9922 10.714L17.0772 14.9058L20.389 17.5713C20.8334 17.9442 21.5147 17.631 21.5147 17.0493V4.43166C21.5147 3.84999 20.8482 3.5368 20.4038 3.90966V3.90966Z" fill="#00AD3C"/>
<path d="M17.0778 6.54496V3.77236C17.0778 2.79758 16.2881 2 15.323 2H11.8133H5.37891V7.3788H11.9679V10.875L15.508 10.4806L17.0778 6.54496Z" fill="#FFBA00"/>
<path d="M11.9679 14.3712H5.37891V19.75H11.8133H15.323C16.2881 19.75 17.0778 18.9536 17.0778 17.9802V14.9091L15.3216 11.3011L11.9679 10.875V14.3712Z" fill="#00AD3C"/>
<path d="M11.9668 10.874L17.0767 14.9081V6.54395L11.9668 10.874Z" fill="#00831E"/>
</svg>
