<svg width="31" height="31" viewBox="0 0 31 31" fill="none" xmlns="http://www.w3.org/2000/svg">
<path d="M15.5 12.9167C14.4723 12.9167 13.4867 12.5084 12.76 11.7817C12.0333 11.055 11.625 10.0694 11.625 9.04167C11.625 8.01395 12.0333 7.02833 12.76 6.30163C13.4867 5.57492 14.4723 5.16667 15.5 5.16667C16.5277 5.16667 17.5133 5.57492 18.24 6.30163C18.9667 7.02833 19.375 8.01395 19.375 9.04167C19.375 10.0694 18.9667 11.055 18.24 11.7817C17.5133 12.5084 16.5277 12.9167 15.5 12.9167ZM11.5837 19.6966C11.8493 18.8668 12.3717 18.1428 13.0755 17.6291C13.7792 17.1154 14.628 16.8386 15.4994 16.8386C16.3707 16.8386 17.2195 17.1154 17.9233 17.6291C18.627 18.1428 19.1494 18.8668 19.415 19.6966C19.5007 20.0286 19.7147 20.3129 20.01 20.4871C20.3053 20.6612 20.6576 20.711 20.9896 20.6253C21.3215 20.5397 21.6059 20.3257 21.78 20.0304C21.9542 19.7351 22.0039 19.3827 21.9183 19.0508C20.2249 12.6609 10.7712 12.6635 9.083 19.0508C9.03637 19.2163 9.02327 19.3895 9.04447 19.5602C9.06568 19.7309 9.12075 19.8956 9.20648 20.0448C9.2922 20.1939 9.40684 20.3244 9.54367 20.4286C9.6805 20.5328 9.83676 20.6086 10.0033 20.6516C10.1698 20.6946 10.3433 20.704 10.5134 20.679C10.6836 20.6541 10.8471 20.5954 10.9943 20.5065C11.1415 20.4175 11.2695 20.3001 11.3707 20.161C11.4719 20.0219 11.5443 19.8641 11.5837 19.6966ZM15.5116 30.5673C14.8744 30.5677 14.2592 30.3337 13.7834 29.9098L8.94221 25.8333H5.16667C3.79638 25.8333 2.48222 25.289 1.51328 24.32C0.544344 23.3511 0 22.037 0 20.6667V5.16667C0 3.79638 0.544344 2.48222 1.51328 1.51328C2.48222 0.544344 3.79638 0 5.16667 0L25.8333 0C27.2036 0 28.5178 0.544344 29.4867 1.51328C30.4557 2.48222 31 3.79638 31 5.16667V20.6667C31 22.037 30.4557 23.3511 29.4867 24.32C28.5178 25.289 27.2036 25.8333 25.8333 25.8333H22.1482L17.1792 29.9408C16.7188 30.3468 16.1254 30.5698 15.5116 30.5673ZM5.16667 2.58333C4.48152 2.58333 3.82444 2.8555 3.33997 3.33997C2.8555 3.82444 2.58333 4.48152 2.58333 5.16667V20.6667C2.58333 21.3518 2.8555 22.0089 3.33997 22.4934C3.82444 22.9778 4.48152 23.25 5.16667 23.25H9.41496C9.71934 23.25 10.0139 23.3575 10.2468 23.5535L15.4729 27.9581L20.8617 23.5458C21.0932 23.3545 21.3842 23.25 21.6845 23.25H25.8333C26.5185 23.25 27.1756 22.9778 27.66 22.4934C28.1445 22.0089 28.4167 21.3518 28.4167 20.6667V5.16667C28.4167 4.48152 28.1445 3.82444 27.66 3.33997C27.1756 2.8555 26.5185 2.58333 25.8333 2.58333H5.16667Z" fill="#72B8FF"/>
</svg>
