<svg width="77" height="77" viewBox="0 0 77 77" fill="none" xmlns="http://www.w3.org/2000/svg">
<path d="M38.5 4.12081e-07C59.763 6.39666e-07 77 17.237 77 38.5C77 59.763 59.763 77 38.5 77C17.237 77 1.84495e-07 59.763 4.12081e-07 38.5C6.39666e-07 17.237 17.237 1.84495e-07 38.5 4.12081e-07ZM38.5 71.0512C56.4775 71.0512 71.0512 56.4775 71.0512 38.5C71.0512 20.5225 56.4775 5.94878 38.5 5.94878C20.5225 5.94878 5.94878 20.5225 5.94878 38.5C5.94878 56.4775 20.5225 71.0512 38.5 71.0512Z" fill="#EDF2FF"/>
<path d="M38.5 4.12081e-07C46.8372 5.01317e-07 54.9491 2.70634 61.6162 7.71214C68.2833 12.7179 73.1453 19.7527 75.4713 27.7588C77.7973 35.765 77.4616 44.3098 74.5146 52.1088C71.5676 59.9077 66.1686 66.5393 59.1293 71.0066L55.9418 65.9839C61.8934 62.2069 66.4582 56.6 68.9498 50.006C71.4415 43.4121 71.7253 36.1876 69.7587 29.4185C67.7921 22.6494 63.6814 16.7016 58.0444 12.4693C52.4075 8.23695 45.549 5.94878 38.5 5.94878L38.5 4.12081e-07Z" fill="#979DFF"/>
<path d="M18.15 45.2V43.05L26.55 31H30V42.725H32.325V45.2H30V49H27.2V45.2H18.15ZM27.325 33.9L21.425 42.725H27.325V33.9ZM34.3115 33.375V30.775H39.5115V49H36.6365V33.375H34.3115ZM42.9768 35.175C42.9768 33.9583 43.3268 33.0083 44.0268 32.325C44.7434 31.625 45.6601 31.275 46.7768 31.275C47.8934 31.275 48.8018 31.625 49.5018 32.325C50.2184 33.0083 50.5768 33.9583 50.5768 35.175C50.5768 36.3917 50.2184 37.35 49.5018 38.05C48.8018 38.75 47.8934 39.1 46.7768 39.1C45.6601 39.1 44.7434 38.75 44.0268 38.05C43.3268 37.35 42.9768 36.3917 42.9768 35.175ZM58.2268 31.6L48.2518 49H45.4518L55.4268 31.6H58.2268ZM46.7768 33C45.7268 33 45.2018 33.725 45.2018 35.175C45.2018 36.6417 45.7268 37.375 46.7768 37.375C47.2768 37.375 47.6601 37.2 47.9268 36.85C48.2101 36.4833 48.3518 35.925 48.3518 35.175C48.3518 33.725 47.8268 33 46.7768 33ZM53.1518 45.4C53.1518 44.1833 53.5018 43.2333 54.2018 42.55C54.9184 41.85 55.8351 41.5 56.9518 41.5C58.0518 41.5 58.9518 41.85 59.6518 42.55C60.3684 43.2333 60.7268 44.1833 60.7268 45.4C60.7268 46.6167 60.3684 47.575 59.6518 48.275C58.9518 48.975 58.0518 49.325 56.9518 49.325C55.8351 49.325 54.9184 48.975 54.2018 48.275C53.5018 47.575 53.1518 46.6167 53.1518 45.4ZM56.9268 43.225C55.8768 43.225 55.3518 43.95 55.3518 45.4C55.3518 46.85 55.8768 47.575 56.9268 47.575C57.9768 47.575 58.5018 46.85 58.5018 45.4C58.5018 43.95 57.9768 43.225 56.9268 43.225Z" fill="#979DFF"/>
</svg>
