<svg width="53" height="56" viewBox="0 0 53 56" fill="none" xmlns="http://www.w3.org/2000/svg">
<g clip-path="url(#clip0_875_4719)">
<path d="M39.7367 5.28246C37.0413 2.76289 33.7402 1.06009 30.1886 0.357325C26.6371 -0.345441 22.9697 -0.0215659 19.581 1.29409C16.1923 2.60975 13.2106 4.86739 10.9569 7.82403C8.70321 10.7807 7.26277 14.3244 6.79061 18.0738C6.36656 21.3614 6.7057 24.7075 7.77932 27.8289C8.85294 30.9503 10.6294 33.7552 12.9585 36.0061C14.3988 37.3276 15.561 38.9478 16.3714 40.7639C17.1819 42.5799 17.623 44.5524 17.6667 46.5562V46.9282C17.669 49.1887 18.5283 51.3559 20.0559 52.9543C21.5836 54.5527 23.6549 55.4518 25.8154 55.4542H27.1846C29.345 55.4518 31.4163 54.5527 32.944 52.9543C34.4717 51.3559 35.331 49.1887 35.3333 46.9282V45.6597C35.3664 43.8886 35.7647 42.1458 36.5011 40.5506C37.2375 38.9555 38.2945 37.5456 39.5998 36.4174C41.7167 34.4776 43.4155 32.0892 44.5835 29.4106C45.7516 26.7319 46.3624 23.8242 46.3753 20.8799C46.3883 17.9357 45.8031 15.0221 44.6586 12.3324C43.5141 9.64261 41.8365 7.238 39.7367 5.27784V5.28246ZM27.1846 50.8331H25.8154C24.826 50.8318 23.8774 50.42 23.1777 49.688C22.4781 48.956 22.0845 47.9635 22.0833 46.9282C22.0833 46.9282 22.0679 46.3274 22.0657 46.2119H30.9167V46.9282C30.9155 47.9635 30.5219 48.956 29.8223 49.688C29.1226 50.42 28.174 50.8318 27.1846 50.8331ZM36.6804 32.9469C34.1661 35.2287 32.3502 38.2352 31.4599 41.5908H28.7083V24.9916C29.9956 24.5155 31.1108 23.6348 31.9014 22.4701C32.692 21.3054 33.1193 19.9136 33.125 18.4851C33.125 17.8723 32.8923 17.2846 32.4782 16.8512C32.064 16.4179 31.5023 16.1745 30.9167 16.1745C30.331 16.1745 29.7693 16.4179 29.3551 16.8512C28.941 17.2846 28.7083 17.8723 28.7083 18.4851C28.7083 19.0979 28.4757 19.6856 28.0615 20.1189C27.6474 20.5522 27.0857 20.7956 26.5 20.7956C25.9143 20.7956 25.3526 20.5522 24.9385 20.1189C24.5243 19.6856 24.2917 19.0979 24.2917 18.4851C24.2917 17.8723 24.059 17.2846 23.6448 16.8512C23.2307 16.4179 22.669 16.1745 22.0833 16.1745C21.4976 16.1745 20.9359 16.4179 20.5218 16.8512C20.1076 17.2846 19.875 17.8723 19.875 18.4851C19.8806 19.9136 20.308 21.3054 21.0986 22.4701C21.8892 23.6348 23.0044 24.5155 24.2917 24.9916V41.5908H21.3722C20.3763 38.1462 18.5083 35.0477 15.9662 32.6235C13.8086 30.5199 12.2711 27.8145 11.5351 24.8264C10.7992 21.8383 10.8956 18.6924 11.8128 15.7597C12.7301 12.8271 14.43 10.2302 16.7119 8.27549C18.9938 6.32078 21.7626 5.08984 24.6914 4.72793C25.2985 4.65702 25.9089 4.62153 26.5199 4.62164C30.3128 4.60984 33.9745 6.07412 36.793 8.72984C38.4265 10.2539 39.7317 12.1238 40.6222 14.2157C41.5126 16.3075 41.9679 18.5735 41.9579 20.8634C41.9478 23.1533 41.4727 25.4148 40.564 27.498C39.6553 29.5813 38.3338 31.4386 36.687 32.9469H36.6804Z" fill="white"/>
</g>
<defs>
<clipPath id="clip0_875_4719">
<rect width="53" height="55.4537" fill="white"/>
</clipPath>
</defs>
</svg>
