<svg width="25" height="25" viewBox="0 0 25 25" fill="none" xmlns="http://www.w3.org/2000/svg">
<g clip-path="url(#clip0_893_9291)">
<path d="M1.04167 6.24934H23.9583C24.2346 6.24934 24.4996 6.1396 24.6949 5.94425C24.8903 5.7489 25 5.48395 25 5.20768C25 4.93141 24.8903 4.66646 24.6949 4.47111C24.4996 4.27576 24.2346 4.16602 23.9583 4.16602H1.04167C0.765399 4.16602 0.500447 4.27576 0.305097 4.47111C0.109747 4.66646 0 4.93141 0 5.20768C0 5.48395 0.109747 5.7489 0.305097 5.94425C0.500447 6.1396 0.765399 6.24934 1.04167 6.24934V6.24934Z" fill="#A0A0A0"/>
<path d="M1.04167 11.4583H15.625C15.9013 11.4583 16.1662 11.3486 16.3616 11.1532C16.5569 10.9579 16.6667 10.6929 16.6667 10.4167C16.6667 10.1404 16.5569 9.87545 16.3616 9.6801C16.1662 9.48475 15.9013 9.375 15.625 9.375H1.04167C0.765399 9.375 0.500447 9.48475 0.305097 9.6801C0.109747 9.87545 0 10.1404 0 10.4167C0 10.6929 0.109747 10.9579 0.305097 11.1532C0.500447 11.3486 0.765399 11.4583 1.04167 11.4583V11.4583Z" fill="#A0A0A0"/>
<path d="M15.625 19.791H1.04167C0.765399 19.791 0.500447 19.9008 0.305097 20.0961C0.109747 20.2915 0 20.5564 0 20.8327C0 21.109 0.109747 21.3739 0.305097 21.5693C0.500447 21.7646 0.765399 21.8744 1.04167 21.8744H15.625C15.9013 21.8744 16.1662 21.7646 16.3616 21.5693C16.5569 21.3739 16.6667 21.109 16.6667 20.8327C16.6667 20.5564 16.5569 20.2915 16.3616 20.0961C16.1662 19.9008 15.9013 19.791 15.625 19.791Z" fill="#A0A0A0"/>
<path d="M23.9583 14.584H1.04167C0.765399 14.584 0.500447 14.6937 0.305097 14.8891C0.109747 15.0844 0 15.3494 0 15.6257C0 15.9019 0.109747 16.1669 0.305097 16.3622C0.500447 16.5576 0.765399 16.6673 1.04167 16.6673H23.9583C24.2346 16.6673 24.4996 16.5576 24.6949 16.3622C24.8903 16.1669 25 15.9019 25 15.6257C25 15.3494 24.8903 15.0844 24.6949 14.8891C24.4996 14.6937 24.2346 14.584 23.9583 14.584Z" fill="#A0A0A0"/>
</g>
<defs>
<clipPath id="clip0_893_9291">
<rect width="25" height="25" fill="white"/>
</clipPath>
</defs>
</svg>
