<svg width="29" height="29" viewBox="0 0 29 29" fill="none" xmlns="http://www.w3.org/2000/svg">
<g clip-path="url(#clip0_1218_4850)">
<path d="M24.1667 14.1667H15.8333V5.83333C15.8333 5.61232 15.7455 5.40036 15.5893 5.24408C15.433 5.0878 15.221 5 15 5V5C14.779 5 14.567 5.0878 14.4107 5.24408C14.2545 5.40036 14.1667 5.61232 14.1667 5.83333V14.1667H5.83333C5.61232 14.1667 5.40036 14.2545 5.24408 14.4107C5.0878 14.567 5 14.779 5 15V15C5 15.221 5.0878 15.433 5.24408 15.5893C5.40036 15.7455 5.61232 15.8333 5.83333 15.8333H14.1667V24.1667C14.1667 24.3877 14.2545 24.5996 14.4107 24.7559C14.567 24.9122 14.779 25 15 25C15.221 25 15.433 24.9122 15.5893 24.7559C15.7455 24.5996 15.8333 24.3877 15.8333 24.1667V15.8333H24.1667C24.3877 15.8333 24.5996 15.7455 24.7559 15.5893C24.9122 15.433 25 15.221 25 15C25 14.779 24.9122 14.567 24.7559 14.4107C24.5996 14.2545 24.3877 14.1667 24.1667 14.1667Z" fill="#FDB572"/>
</g>
<defs>
<clipPath id="clip0_1218_4850">
<rect width="20" height="20" fill="white" transform="translate(5 5)"/>
</clipPath>
</defs>
</svg>
