<svg width="92" height="92" viewBox="0 0 92 92" fill="none" xmlns="http://www.w3.org/2000/svg">
<path d="M46 4.92356e-07C71.4051 7.64277e-07 92 20.5949 92 46C92 71.4051 71.4051 92 46 92C20.5949 92 2.20435e-07 71.4051 4.92356e-07 46C7.64277e-07 20.5949 20.5949 2.20435e-07 46 4.92356e-07ZM46 84.8924C67.4797 84.8924 84.8924 67.4797 84.8924 46C84.8924 24.5203 67.4797 7.10764 46 7.10764C24.5203 7.10764 7.10764 24.5203 7.10764 46C7.10764 67.4797 24.5203 84.8924 46 84.8924Z" fill="#FFF2E6"/>
<path d="M46 4.92356e-07C55.9613 5.98976e-07 65.6534 3.23354 73.6193 9.21451C81.5852 15.1955 87.3944 23.6006 90.1735 33.1664C92.9526 42.7322 92.5515 52.9416 89.0304 62.2598C85.5094 71.5781 79.0586 79.5016 70.648 84.8391L66.8396 78.8379C73.9506 74.3251 79.4046 67.6259 82.3816 59.7475C85.3586 51.869 85.6978 43.2371 83.3481 35.1494C80.9984 27.0617 76.0868 19.9552 69.3518 14.8984C62.6167 9.84155 54.4221 7.10764 46 7.10764L46 4.92356e-07Z" fill="#FDB572"/>
<path d="M19.35 39.25V36.13H25.59V58H22.14V39.25H19.35ZM30.2883 46.78C30.2883 43.32 30.8683 40.62 32.0283 38.68C33.2083 36.72 35.2283 35.74 38.0883 35.74C40.9483 35.74 42.9583 36.72 44.1183 38.68C45.2983 40.62 45.8883 43.32 45.8883 46.78C45.8883 50.28 45.2983 53.02 44.1183 55C42.9583 56.96 40.9483 57.94 38.0883 57.94C35.2283 57.94 33.2083 56.96 32.0283 55C30.8683 53.02 30.2883 50.28 30.2883 46.78ZM42.5283 46.78C42.5283 45.16 42.4183 43.79 42.1983 42.67C41.9983 41.55 41.5783 40.64 40.9383 39.94C40.2983 39.22 39.3483 38.86 38.0883 38.86C36.8283 38.86 35.8783 39.22 35.2383 39.94C34.5983 40.64 34.1683 41.55 33.9483 42.67C33.7483 43.79 33.6483 45.16 33.6483 46.78C33.6483 48.46 33.7483 49.87 33.9483 51.01C34.1483 52.15 34.5683 53.07 35.2083 53.77C35.8683 54.47 36.8283 54.82 38.0883 54.82C39.3483 54.82 40.2983 54.47 40.9383 53.77C41.5983 53.07 42.0283 52.15 42.2283 51.01C42.4283 49.87 42.5283 48.46 42.5283 46.78ZM48.967 41.41C48.967 39.95 49.387 38.81 50.227 37.99C51.087 37.15 52.187 36.73 53.527 36.73C54.867 36.73 55.957 37.15 56.797 37.99C57.657 38.81 58.087 39.95 58.087 41.41C58.087 42.87 57.657 44.02 56.797 44.86C55.957 45.7 54.867 46.12 53.527 46.12C52.187 46.12 51.087 45.7 50.227 44.86C49.387 44.02 48.967 42.87 48.967 41.41ZM67.267 37.12L55.297 58H51.937L63.907 37.12H67.267ZM53.527 38.8C52.267 38.8 51.637 39.67 51.637 41.41C51.637 43.17 52.267 44.05 53.527 44.05C54.127 44.05 54.587 43.84 54.907 43.42C55.247 42.98 55.417 42.31 55.417 41.41C55.417 39.67 54.787 38.8 53.527 38.8ZM61.177 53.68C61.177 52.22 61.597 51.08 62.437 50.26C63.297 49.42 64.397 49 65.737 49C67.057 49 68.137 49.42 68.977 50.26C69.837 51.08 70.267 52.22 70.267 53.68C70.267 55.14 69.837 56.29 68.977 57.13C68.137 57.97 67.057 58.39 65.737 58.39C64.397 58.39 63.297 57.97 62.437 57.13C61.597 56.29 61.177 55.14 61.177 53.68ZM65.707 51.07C64.447 51.07 63.817 51.94 63.817 53.68C63.817 55.42 64.447 56.29 65.707 56.29C66.967 56.29 67.597 55.42 67.597 53.68C67.597 51.94 66.967 51.07 65.707 51.07Z" fill="#FDB572"/>
</svg>
