<svg width="255" height="219" viewBox="0 0 255 219" fill="none" xmlns="http://www.w3.org/2000/svg">
<path d="M251.651 218.705C251.651 218.705 251.916 218.705 252.456 218.705H254.903V218.756C242.246 218.818 190.704 218.868 129.083 218.868L37.8 218.823L10.1419 218.756H2.62125H0.663751H0H0.663751H2.62125L10.1419 218.728L37.8 218.683L129.083 218.638C190.704 218.638 242.246 218.688 254.903 218.75V218.756H252.456C251.916 218.716 251.651 218.705 251.651 218.705Z" fill="#263238"/>
<path d="M230.606 0.151367H104.533V178.042H230.606V0.151367Z" fill="white"/>
<path d="M230.608 178.043C230.608 176.856 230.552 105.238 230.473 0.151877L230.608 0.28125H104.546L104.692 0.134999C104.692 66.7969 104.692 128.441 104.664 178.026L104.546 177.908L230.619 178.026L104.546 178.144H104.389V178.026C104.389 128.441 104.389 66.7969 104.389 0.134999V0H104.546H230.608H230.743V0.134999C230.664 105.238 230.608 176.856 230.608 178.043Z" fill="#263238"/>
<path d="M163.08 118.26H116.787C114.708 118.26 113.023 119.945 113.023 122.023V126.838C113.023 128.916 114.708 130.601 116.787 130.601H163.08C165.159 130.601 166.843 128.916 166.843 126.838V122.023C166.843 119.945 165.159 118.26 163.08 118.26Z" fill="#F5F5F5"/>
<path d="M219.241 118.26H174.14C172.062 118.26 170.377 119.945 170.377 122.023V126.838C170.377 128.916 172.062 130.601 174.14 130.601H219.241C221.32 130.601 223.004 128.916 223.004 126.838V122.023C223.004 119.945 221.32 118.26 219.241 118.26Z" fill="#F5F5F5"/>
<path d="M219.982 143.551H116.533C114.454 143.551 112.77 145.236 112.77 147.314V152.129C112.77 154.207 114.454 155.892 116.533 155.892H219.982C222.06 155.892 223.745 154.207 223.745 152.129V147.314C223.745 145.236 222.06 143.551 219.982 143.551Z" fill="#F5F5F5"/>
<path d="M137.735 113.294C137.735 113.372 132.538 113.44 126.12 113.44C119.701 113.44 114.504 113.372 114.504 113.294C114.504 113.215 119.701 113.147 126.12 113.147C132.538 113.147 137.735 113.215 137.735 113.294Z" fill="#263238"/>
<path d="M192.702 113.294C192.702 113.372 188.607 113.44 183.556 113.44C178.505 113.44 174.404 113.372 174.404 113.294C174.404 113.215 178.499 113.147 183.556 113.147C188.613 113.147 192.702 113.215 192.702 113.294Z" fill="#263238"/>
<path d="M152.482 138.459C152.482 138.538 144.045 138.605 133.639 138.605C123.232 138.605 114.795 138.538 114.795 138.459C114.795 138.38 123.232 138.312 133.639 138.312C144.045 138.312 152.482 138.38 152.482 138.459Z" fill="#263238"/>
<path d="M220.085 90.2422H114.453C112.43 90.2422 110.791 91.8817 110.791 93.9041V100.069C110.791 102.091 112.43 103.731 114.453 103.731H220.085C222.107 103.731 223.747 102.091 223.747 100.069V93.9041C223.747 91.8817 222.107 90.2422 220.085 90.2422Z" fill="#E0E0E0"/>
<path d="M191.328 96.9871C191.328 97.0715 181.304 97.1333 168.946 97.1333C156.588 97.1333 146.559 97.0715 146.559 96.9871C146.559 96.9027 156.582 96.8408 168.946 96.8408C181.31 96.8408 191.328 96.9083 191.328 96.9871Z" fill="#263238"/>
<path d="M220.085 8.23047H114.453C112.43 8.23047 110.791 9.86994 110.791 11.8923V18.0573C110.791 20.0797 112.43 21.7192 114.453 21.7192H220.085C222.107 21.7192 223.747 20.0797 223.747 18.0573V11.8923C223.747 9.86994 222.107 8.23047 220.085 8.23047Z" fill="#E0E0E0"/>
<path d="M191.328 14.9744C191.328 15.0531 181.304 15.1206 168.946 15.1206C156.588 15.1206 146.559 15.0531 146.559 14.9744C146.559 14.8956 156.582 14.8281 168.946 14.8281C181.31 14.8281 191.328 14.89 191.328 14.9744Z" fill="#263238"/>
<path d="M230.607 24.9802C230.607 25.0646 202.359 25.1321 167.517 25.1321C132.676 25.1321 104.416 25.0646 104.416 24.9802C104.416 24.8959 132.665 24.834 167.517 24.834C202.37 24.834 230.607 24.9015 230.607 24.9802Z" fill="#EBEBEB"/>
<path d="M230.607 84.657C230.607 84.7414 202.359 84.8032 167.517 84.8032C132.676 84.8032 104.416 84.7414 104.416 84.657C104.416 84.5726 132.665 84.5107 167.517 84.5107C202.37 84.5107 230.607 84.5782 230.607 84.657Z" fill="#EBEBEB"/>
<path d="M163.08 38.5088H116.787C114.708 38.5088 113.023 40.1936 113.023 42.2719V47.0869C113.023 49.1652 114.708 50.85 116.787 50.85H163.08C165.159 50.85 166.843 49.1652 166.843 47.0869V42.2719C166.843 40.1936 165.159 38.5088 163.08 38.5088Z" fill="#F5F5F5"/>
<path d="M219.241 38.5088H174.14C172.062 38.5088 170.377 40.1936 170.377 42.2719V47.0869C170.377 49.1652 172.062 50.85 174.14 50.85H219.241C221.32 50.85 223.004 49.1652 223.004 47.0869V42.2719C223.004 40.1936 221.32 38.5088 219.241 38.5088Z" fill="#F5F5F5"/>
<path d="M219.982 63.7979H116.533C114.454 63.7979 112.77 65.4827 112.77 67.561V72.376C112.77 74.4543 114.454 76.1391 116.533 76.1391H219.982C222.06 76.1391 223.745 74.4543 223.745 72.376V67.561C223.745 65.4827 222.06 63.7979 219.982 63.7979Z" fill="#F5F5F5"/>
<path d="M137.735 33.5418C137.735 33.6205 132.538 33.688 126.12 33.688C119.701 33.688 114.504 33.6205 114.504 33.5418C114.504 33.463 119.701 33.3955 126.12 33.3955C132.538 33.3955 137.735 33.463 137.735 33.5418Z" fill="#263238"/>
<path d="M192.702 33.5418C192.702 33.6205 188.607 33.688 183.556 33.688C178.505 33.688 174.404 33.6205 174.404 33.5418C174.404 33.463 178.499 33.3955 183.556 33.3955C188.613 33.3955 192.702 33.463 192.702 33.5418Z" fill="#263238"/>
<path d="M152.482 58.7087C152.482 58.7875 144.045 58.855 133.639 58.855C123.232 58.855 114.795 58.7875 114.795 58.7087C114.795 58.63 123.232 58.5625 133.639 58.5625C144.045 58.5625 152.482 58.63 152.482 58.7087Z" fill="#263238"/>
<path d="M219.851 163.389C219.851 163.474 211.622 163.536 201.469 163.536C191.316 163.536 183.092 163.474 183.092 163.389C183.092 163.305 191.316 163.243 201.469 163.243C211.622 163.243 219.851 163.311 219.851 163.389Z" fill="#263238"/>
<path d="M158.582 45.9738C158.297 46.0675 158.005 46.1408 157.71 46.1932C155.501 46.5997 153.22 46.2738 151.213 45.265C150.84 45.0714 150.503 44.8145 150.217 44.5057C149.904 44.1735 149.695 43.7571 149.615 43.3075C149.564 43.0678 149.563 42.82 149.612 42.5798C149.661 42.3397 149.76 42.1124 149.902 41.9125C150.069 41.7059 150.293 41.553 150.546 41.473C150.799 41.3929 151.07 41.3893 151.325 41.4625C151.46 41.5017 151.585 41.5685 151.692 41.6585C151.8 41.7486 151.888 41.86 151.95 41.9857C152.074 42.2404 152.111 42.5288 152.057 42.8069C151.939 43.3523 151.67 43.8535 151.28 44.2525C150.513 45.1138 149.548 45.7759 148.468 46.1819C147.305 46.6211 146.045 46.7339 144.823 46.5082C144.173 46.3975 143.561 46.129 143.04 45.7263C142.759 45.5205 142.532 45.2486 142.381 44.9347C142.23 44.6207 142.159 44.2744 142.173 43.9263C142.21 43.5688 142.344 43.2282 142.562 42.9419C142.775 42.6364 143.09 42.417 143.45 42.3232C143.641 42.2856 143.838 42.2979 144.022 42.359C144.207 42.4202 144.372 42.5279 144.502 42.6719C144.749 42.962 144.883 43.3316 144.879 43.7125C144.886 44.0851 144.797 44.4531 144.62 44.7813C144.431 45.1047 144.169 45.38 143.855 45.5857C143.231 45.9592 142.551 46.2308 141.842 46.39C140.475 46.7782 138.984 47.2 137.465 46.8569C136.704 46.6918 136.006 46.3133 135.452 45.7657C135.164 45.4867 134.938 45.1512 134.787 44.7804C134.636 44.4096 134.564 44.0115 134.574 43.6113C134.58 43.3541 134.637 43.1007 134.743 42.8659C134.848 42.6312 134.999 42.4199 135.187 42.2444C135.395 42.0807 135.644 41.9791 135.907 41.9512C136.17 41.9234 136.435 41.9704 136.672 42.0869C136.917 42.1968 137.114 42.3903 137.228 42.6326C137.343 42.8749 137.367 43.1502 137.297 43.4088C137.145 43.8856 136.836 44.2964 136.419 44.5732C134.909 45.6088 133.173 46.2683 131.357 46.4969C130.472 46.6494 129.563 46.5699 128.718 46.2663C128.302 46.098 127.936 45.8271 127.652 45.479C127.369 45.1308 127.179 44.7166 127.098 44.275C127.032 43.8324 127.131 43.3806 127.379 43.0075C127.626 42.6343 128.003 42.3664 128.437 42.2557C128.658 42.2132 128.886 42.2304 129.097 42.3056C129.309 42.3807 129.497 42.5111 129.641 42.6832C129.906 43.0165 130.054 43.4275 130.063 43.8532C130.082 44.2646 129.993 44.6739 129.804 45.04C129.604 45.3848 129.331 45.6822 129.005 45.9119C128.376 46.3238 127.676 46.6173 126.941 46.7782C125.563 47.1438 124.128 47.4025 122.823 46.9244C122.208 46.7021 121.666 46.3125 121.26 45.7994C120.866 45.3082 120.666 44.6899 120.697 44.0613C120.757 43.479 121.024 42.9377 121.451 42.5369C121.644 42.3431 121.883 42.2005 122.145 42.1219C122.407 42.0433 122.685 42.0313 122.953 42.0869H123.009V42.1432C123.027 43.2471 122.624 44.3166 121.884 45.1357C121.358 45.752 120.676 46.2162 119.91 46.48C119.437 46.6435 118.935 46.7086 118.436 46.6713C118.098 46.6207 117.93 46.5757 117.93 46.5757C118.585 46.6826 119.257 46.6207 119.882 46.3957C120.624 46.1246 121.281 45.6628 121.788 45.0569C122.484 44.2526 122.853 43.2172 122.823 42.1544L122.885 42.2275C122.644 42.183 122.395 42.1982 122.161 42.2717C121.927 42.3453 121.714 42.4749 121.541 42.6494C121.152 43.0232 120.911 43.5243 120.86 44.0613C120.776 45.1863 121.682 46.3113 122.863 46.7163C124.044 47.1213 125.478 46.9132 126.845 46.5419C127.551 46.3846 128.221 46.1006 128.825 45.7038C129.118 45.4953 129.364 45.2269 129.545 44.9163C129.713 44.59 129.791 44.225 129.77 43.8588C129.763 43.493 129.636 43.1396 129.41 42.8519C129.296 42.7141 129.148 42.6096 128.979 42.5492C128.811 42.4888 128.63 42.4749 128.454 42.5088C128.087 42.6081 127.77 42.8391 127.562 43.1576C127.355 43.4761 127.272 43.8599 127.329 44.2357C127.404 44.6286 127.577 44.9964 127.832 45.305C128.086 45.6137 128.414 45.8533 128.786 46.0019C129.586 46.2861 130.447 46.3578 131.283 46.21C133.05 45.9856 134.738 45.3414 136.205 44.3313C136.565 44.0936 136.836 43.7435 136.976 43.3357C137.029 43.1414 137.011 42.9344 136.924 42.7526C136.837 42.5708 136.688 42.4263 136.503 42.3457C136.317 42.2566 136.11 42.2206 135.905 42.2414C135.699 42.2622 135.504 42.3392 135.339 42.4638C135.181 42.613 135.054 42.7924 134.966 42.9914C134.878 43.1904 134.831 43.405 134.827 43.6225C134.819 43.9814 134.886 44.3381 135.022 44.6701C135.159 45.0021 135.362 45.3023 135.62 45.5519C136.134 46.0595 136.782 46.4106 137.488 46.5644C138.905 46.8907 140.362 46.4969 141.723 46.1088C142.402 45.9553 143.053 45.6972 143.653 45.3438C143.931 45.1652 144.164 44.9245 144.333 44.6407C144.486 44.3552 144.563 44.0359 144.558 43.7125C144.564 43.3985 144.456 43.0929 144.255 42.8519C144.158 42.7428 144.034 42.6609 143.896 42.6145C143.758 42.5681 143.61 42.5588 143.467 42.5875C143.177 42.6868 142.922 42.8684 142.733 43.1101C142.544 43.3518 142.43 43.6432 142.404 43.9488C142.399 44.2541 142.47 44.5559 142.609 44.8276C142.748 45.0993 142.952 45.3326 143.203 45.5069C143.697 45.8857 144.276 46.1386 144.89 46.2438C146.067 46.4608 147.28 46.3538 148.4 45.9344C149.452 45.552 150.393 44.9164 151.14 44.0838C151.502 43.7181 151.756 43.2583 151.871 42.7563C151.937 42.5324 151.916 42.2918 151.811 42.0831C151.707 41.8743 151.527 41.7129 151.308 41.6313C151.093 41.5666 150.863 41.568 150.649 41.6351C150.434 41.7023 150.245 41.8322 150.105 42.0082C149.978 42.1852 149.889 42.3865 149.844 42.5994C149.798 42.8123 149.797 43.0323 149.84 43.2457C149.932 43.6472 150.114 44.0225 150.374 44.3424C150.633 44.6623 150.963 44.9183 151.337 45.0907C152.534 45.7156 153.844 46.0979 155.19 46.2157C156.042 46.2844 156.899 46.2542 157.743 46.1257L158.402 46.0019C158.461 45.9889 158.521 45.9795 158.582 45.9738Z" fill="#9DCEFF"/>
<path d="M213.611 45.3032C213.387 45.444 213.15 45.5609 212.902 45.652C212.197 45.9399 211.446 46.098 210.685 46.1189C209.475 46.1624 208.276 45.8828 207.209 45.3089C206.525 44.9699 205.943 44.4555 205.522 43.8182C205.289 43.4557 205.183 43.0268 205.218 42.5976C205.243 42.3703 205.313 42.1504 205.425 41.9513C205.537 41.7521 205.689 41.5777 205.87 41.4389C206.066 41.2865 206.309 41.207 206.557 41.2139C206.811 41.2225 207.053 41.3247 207.237 41.5007C207.413 41.6833 207.545 41.903 207.623 42.1435C207.702 42.384 207.726 42.6392 207.693 42.8901C207.602 43.3978 207.355 43.8642 206.984 44.2232C206.62 44.5903 206.207 44.9063 205.758 45.1626C204.819 45.716 203.767 46.0524 202.681 46.147C201.519 46.2806 200.343 46.0632 199.306 45.5226C198.763 45.231 198.312 44.7949 198.001 44.2626C197.846 43.984 197.745 43.6787 197.703 43.3626C197.672 42.8715 197.799 42.3833 198.065 41.9693C198.331 41.5554 198.723 41.2375 199.182 41.062C199.349 41.0099 199.525 40.992 199.699 41.0094C199.873 41.0268 200.042 41.0791 200.195 41.1632C200.497 41.3331 200.734 41.5981 200.87 41.917C201.003 42.2314 201.065 42.5712 201.052 42.9123C201.04 43.2534 200.953 43.5876 200.797 43.8914C200.478 44.485 200.018 44.9911 199.458 45.3651C198.342 46.1374 197.035 46.5888 195.681 46.6702C194.326 46.7515 192.975 46.4596 191.774 45.8264C191.182 45.5257 190.646 45.1262 190.188 44.6451C189.706 44.1652 189.424 43.5196 189.4 42.8395C189.407 42.4967 189.513 42.1632 189.704 41.8789C189.896 41.5946 190.165 41.3715 190.48 41.2364C190.646 41.1712 190.825 41.1478 191.002 41.1685C191.178 41.1891 191.347 41.253 191.493 41.3545C191.771 41.554 191.97 41.8446 192.055 42.1757C192.135 42.4882 192.142 42.8146 192.076 43.1303C192.011 43.446 191.875 43.7427 191.679 43.9982C191.315 44.4809 190.876 44.9024 190.379 45.247C189.48 45.9122 188.45 46.3794 187.358 46.6179C186.265 46.8564 185.134 46.8608 184.04 46.6307C183.022 46.4468 182.107 45.899 181.464 45.0895C181.165 44.695 180.998 44.217 180.985 43.7226C180.972 43.2502 181.089 42.7831 181.323 42.3726C181.431 42.1715 181.58 41.9945 181.758 41.8524C181.937 41.7103 182.143 41.6059 182.364 41.5457C182.576 41.498 182.796 41.498 183.008 41.5457C183.22 41.5934 183.419 41.6875 183.59 41.8214C183.896 42.0637 184.133 42.3815 184.279 42.7434C184.425 43.1053 184.475 43.499 184.422 43.8857C184.307 44.5506 183.953 45.1506 183.427 45.5732C183 45.9287 182.498 46.1826 181.959 46.3157C181.221 46.4816 180.461 46.5291 179.709 46.4564L179.146 46.4057C179.081 46.4139 179.015 46.4139 178.949 46.4057C179.015 46.3983 179.081 46.3983 179.146 46.4057H179.737C180.492 46.4543 181.25 46.3899 181.987 46.2145C182.505 46.0739 182.985 45.8203 183.393 45.472C183.877 45.0463 184.187 44.4578 184.265 43.8182C184.307 43.4632 184.258 43.1031 184.122 42.7724C183.986 42.4416 183.768 42.151 183.489 41.9282C183.337 41.814 183.162 41.7342 182.977 41.6943C182.791 41.6545 182.599 41.6556 182.414 41.6976C182.222 41.7556 182.043 41.851 181.887 41.9784C181.732 42.1059 181.603 42.2628 181.509 42.4401C181.287 42.8211 181.182 43.2587 181.207 43.6987C181.232 44.1387 181.386 44.5617 181.649 44.9151C182.266 45.6731 183.134 46.1842 184.096 46.3551C185.156 46.5784 186.252 46.5745 187.311 46.3437C188.369 46.113 189.367 45.6606 190.239 45.0164C190.708 44.6837 191.121 44.2794 191.465 43.8182C191.637 43.5965 191.757 43.3384 191.814 43.0635C191.872 42.7886 191.866 42.5042 191.797 42.232C191.731 41.9655 191.574 41.7305 191.352 41.5682C191.244 41.4919 191.118 41.4437 190.987 41.428C190.855 41.4123 190.722 41.4295 190.599 41.4782C190.337 41.5939 190.114 41.7818 189.955 42.02C189.797 42.2582 189.71 42.5366 189.704 42.8226C189.733 43.4277 189.988 44 190.419 44.4257C190.857 44.8825 191.368 45.2627 191.932 45.5507C193.088 46.1504 194.383 46.4282 195.684 46.3551C196.984 46.2797 198.238 45.8455 199.306 45.1007C199.834 44.7659 200.27 44.306 200.577 43.762C200.714 43.4965 200.791 43.2047 200.803 42.9066C200.816 42.6085 200.764 42.3111 200.65 42.0351C200.554 41.7701 200.362 41.5508 200.112 41.4206C199.862 41.2904 199.573 41.2588 199.3 41.332C198.903 41.4886 198.566 41.7664 198.335 42.1259C198.105 42.4854 197.994 42.9083 198.018 43.3345C198.055 43.6133 198.144 43.8825 198.282 44.1276C198.566 44.6178 198.981 45.0191 199.48 45.2864C200.463 45.8021 201.578 46.0136 202.681 45.8939C203.726 45.7996 204.736 45.4749 205.64 44.9432C206.072 44.7014 206.469 44.4025 206.821 44.0545C207.158 43.7308 207.386 43.31 207.474 42.8507C207.504 42.6343 207.485 42.4138 207.419 42.2054C207.353 41.9971 207.241 41.8063 207.091 41.647C206.946 41.5069 206.754 41.4245 206.552 41.4152C206.35 41.4059 206.152 41.4703 205.994 41.5964C205.839 41.7199 205.709 41.8729 205.612 42.0467C205.516 42.2204 205.454 42.4114 205.432 42.6089C205.4 43.003 205.495 43.3971 205.702 43.7339C206.106 44.3438 206.663 44.8381 207.316 45.1682C208.347 45.7418 209.511 46.0328 210.691 46.012C211.44 45.9984 212.181 45.8615 212.885 45.607C213.369 45.427 213.599 45.2864 213.611 45.3032Z" fill="#9DCEFF"/>
<path d="M161.314 70.1492C161.247 70.1923 161.175 70.2281 161.1 70.256L160.453 70.5485C159.891 70.8017 159.042 71.1729 157.933 71.5892C156.585 72.1096 155.187 72.4867 153.76 72.7142C152.866 72.8449 151.963 72.8995 151.06 72.8773C150.04 72.8968 149.025 72.7447 148.056 72.4273C147.512 72.2426 147.021 71.93 146.624 71.516C146.227 71.1019 145.934 70.5984 145.772 70.0479C145.689 69.7488 145.666 69.4362 145.705 69.1282C145.743 68.8201 145.843 68.5229 145.997 68.2535C146.153 67.9671 146.375 67.7224 146.645 67.5402C146.916 67.3581 147.226 67.2439 147.55 67.2073C147.892 67.2014 148.227 67.2972 148.515 67.4824C148.802 67.6677 149.028 67.9341 149.164 68.2479C149.471 68.8713 149.522 69.5902 149.305 70.2504C149.069 70.9071 148.663 71.4895 148.129 71.9379C147.594 72.3915 147 72.77 146.363 73.0629C145.049 73.7461 143.53 73.9241 142.093 73.5635C141.35 73.3343 140.683 72.9094 140.16 72.3334C139.637 71.7575 139.279 71.0516 139.123 70.2898C139.056 69.897 139.056 69.4957 139.123 69.1029C139.178 68.6904 139.345 68.301 139.607 67.9779C139.732 67.8025 139.893 67.656 140.079 67.5483C140.266 67.4406 140.473 67.3741 140.687 67.3535C140.915 67.3492 141.138 67.4171 141.325 67.5474C141.512 67.6778 141.653 67.8639 141.728 68.0792C141.835 68.484 141.854 68.9074 141.782 69.3202C141.71 69.7329 141.55 70.1251 141.312 70.4698C140.896 71.177 140.363 71.8084 139.737 72.3373C138.503 73.3929 136.927 73.9617 135.304 73.9368C133.681 73.912 132.122 73.2951 130.922 72.2023C130.345 71.6658 129.951 70.9613 129.797 70.1885C129.72 69.7988 129.745 69.3957 129.87 69.0185C130.007 68.6486 130.233 68.3182 130.528 68.0567C130.82 67.7892 131.188 67.6183 131.58 67.5673C131.781 67.5383 131.987 67.5541 132.181 67.6134C132.375 67.6727 132.554 67.7741 132.705 67.9104C132.969 68.1858 133.154 68.5264 133.242 68.8971C133.33 69.2679 133.318 69.6554 133.206 70.0198C132.986 70.7037 132.583 71.3145 132.042 71.786C131.542 72.2512 130.993 72.6605 130.405 73.0067C129.279 73.6717 128.029 74.0969 126.731 74.2554C125.519 74.4153 124.286 74.3058 123.12 73.9348C122.566 73.749 122.059 73.4437 121.635 73.0404C121.225 72.6501 120.945 72.1437 120.831 71.5892C120.709 71.0602 120.76 70.5061 120.977 70.0085C121.081 69.7686 121.244 69.5588 121.45 69.3985C121.657 69.2382 121.9 69.1327 122.158 69.0917C122.401 69.0548 122.648 69.0693 122.885 69.1342C123.121 69.1991 123.341 69.313 123.531 69.4685C123.71 69.6178 123.844 69.8128 123.921 70.0328C123.997 70.2528 124.012 70.4894 123.964 70.7173C123.87 71.1328 123.643 71.5061 123.317 71.7804C123.03 72.0318 122.71 72.2437 122.366 72.4104C121.773 72.7043 121.154 72.9415 120.516 73.1192C119.637 73.3708 118.73 73.5051 117.816 73.5185C117.498 73.5298 117.181 73.5167 116.865 73.4792H117.107C117.27 73.4792 117.506 73.4792 117.816 73.4792C118.72 73.4384 119.615 73.2873 120.482 73.0292C121.11 72.8408 121.719 72.598 122.305 72.3035C122.635 72.1394 122.941 71.9313 123.216 71.6848C123.503 71.4265 123.7 71.0837 123.778 70.706C123.819 70.506 123.804 70.2988 123.736 70.1066C123.667 69.9144 123.548 69.7444 123.39 69.6148C123.218 69.4794 123.02 69.3806 122.808 69.3245C122.596 69.2684 122.375 69.2561 122.158 69.2885C121.931 69.3272 121.718 69.4228 121.538 69.5664C121.358 69.71 121.217 69.897 121.129 70.1098C120.933 70.5677 120.889 71.0766 121.005 71.561C121.142 72.0816 121.414 72.5568 121.793 72.939C122.173 73.3211 122.646 73.5967 123.165 73.7379C124.297 74.0943 125.494 74.1943 126.67 74.0304C128.601 73.7886 130.407 72.9419 131.828 71.6117C132.336 71.1731 132.714 70.6028 132.919 69.9635C133.016 69.6473 133.027 69.3111 132.952 68.989C132.877 68.667 132.718 68.3705 132.491 68.1298C132.227 67.9285 131.897 67.8331 131.567 67.8622C131.236 67.8913 130.928 68.0429 130.703 68.2873C130.451 68.5173 130.258 68.8048 130.14 69.1254C130.032 69.4576 130.011 69.812 130.078 70.1548C130.23 70.8694 130.602 71.5184 131.141 72.011C132.292 73.0549 133.784 73.6429 135.338 73.6646C136.891 73.6864 138.399 73.1404 139.579 72.1292C140.184 71.6235 140.696 71.0163 141.092 70.3348C141.298 70.0126 141.444 69.6564 141.525 69.2829C141.616 68.925 141.604 68.5488 141.491 68.1973C141.44 68.0358 141.339 67.8947 141.202 67.7938C141.066 67.6929 140.902 67.6373 140.732 67.6348C140.56 67.6557 140.393 67.7126 140.244 67.8017C140.095 67.8908 139.966 68.0103 139.866 68.1523C139.655 68.4487 139.508 68.7861 139.436 69.1426C139.363 69.4991 139.366 69.8669 139.444 70.2223C139.591 70.932 139.925 71.5896 140.411 72.1266C140.898 72.6637 141.52 73.0608 142.211 73.2767C143.581 73.6208 145.029 73.4528 146.284 72.8042C147.51 72.2135 148.686 71.3585 149.097 70.1379C149.294 69.5412 149.249 68.891 148.973 68.3267C148.861 68.0554 148.67 67.8237 148.426 67.6613C148.181 67.499 147.894 67.4134 147.6 67.4154C147.315 67.4487 147.042 67.5498 146.805 67.7103C146.567 67.8709 146.371 68.0861 146.233 68.3379C146.092 68.5803 146.001 68.8486 145.965 69.1268C145.929 69.4051 145.95 69.6877 146.025 69.9579C146.176 70.4766 146.448 70.9517 146.82 71.3432C147.192 71.7347 147.652 72.0312 148.163 72.2079C149.109 72.5259 150.101 72.6819 151.099 72.6692C151.992 72.6983 152.886 72.6513 153.771 72.5285C155.189 72.3214 156.582 71.9689 157.928 71.4767C159.053 71.0773 159.885 70.7229 160.465 70.4923L161.123 70.2223L161.314 70.1492Z" fill="#9DCEFF"/>
<path d="M45.988 46.7781L45.3523 98.0331C45.2455 106.746 46.8655 119.571 60.6524 119.116C72.5886 117.816 75.7555 106.521 75.8399 98.3875C75.8849 94.5288 75.9299 91.3112 75.958 90.9175C75.958 90.9175 89.0192 89.8488 90.1217 76.945C90.6561 70.7125 90.6842 57.7806 90.6224 46.0806C90.5732 40.0208 88.2442 34.2016 84.0989 29.7811C79.9536 25.3606 74.2959 22.663 68.2517 22.225L67.003 22.1293C53.5142 21.9381 45.8136 33.2837 45.988 46.7781Z" fill="#FFBE9D"/>
<path d="M75.9651 90.917C75.9651 90.917 67.792 90.7989 59.5176 84.7295C59.5176 84.7295 62.9263 94.4608 75.8976 94.2358L75.9651 90.917Z" fill="#EB996E"/>
<path d="M68.5704 51.3689C68.3173 51.6333 66.8267 50.4295 64.6611 50.3733C62.4954 50.317 60.8867 51.3745 60.6617 51.0989C60.5492 50.9752 60.8136 50.497 61.5223 50.002C62.4698 49.3666 63.5942 49.0476 64.7342 49.0908C65.862 49.1195 66.9499 49.5143 67.8336 50.2158C68.4861 50.7614 68.6998 51.2564 68.5704 51.3689Z" fill="#263238"/>
<path d="M68.5066 55.8399C68.4762 56.2945 68.2702 56.7194 67.9322 57.0249C67.5942 57.3303 67.1506 57.4924 66.6953 57.4768C66.2478 57.4768 65.8185 57.299 65.5021 56.9825C65.1856 56.666 65.0078 56.2368 65.0078 55.7893C65.0368 55.3352 65.2416 54.9103 65.5787 54.6047C65.9158 54.2991 66.3587 54.1368 66.8134 54.1524C67.0355 54.1517 67.2556 54.1948 67.4609 54.2792C67.6663 54.3637 67.853 54.4879 68.0103 54.6447C68.1676 54.8014 68.2924 54.9877 68.3776 55.1928C68.4627 55.3979 68.5066 55.6178 68.5066 55.8399Z" fill="#263238"/>
<path d="M74.0137 66.4034C74.0137 66.2909 75.2624 66.1671 77.2762 66.0602C77.7881 66.0602 78.2774 65.9759 78.4012 65.6384C78.4834 65.1192 78.4049 64.5873 78.1762 64.114L76.9105 60.1315C75.223 54.5065 74.0587 49.8602 74.2837 49.7927C74.5087 49.7252 76.0612 54.2534 77.7374 59.9177C78.1424 61.3127 78.5249 62.6346 78.8624 63.9059C79.0143 64.4965 79.2956 65.1715 78.9806 65.914C78.8945 66.088 78.7696 66.2399 78.6155 66.3579C78.4614 66.4759 78.2822 66.5569 78.0918 66.5946C77.8066 66.65 77.5155 66.6689 77.2256 66.6509C75.2343 66.6002 74.0137 66.5215 74.0137 66.4034Z" fill="#263238"/>
<path d="M67.6525 43.2561C67.4444 43.7398 65.7118 43.3742 63.6418 43.4811C61.5718 43.588 59.8618 44.0436 59.6256 43.588C59.5187 43.363 59.8393 42.9242 60.5425 42.4967C61.4699 41.9677 62.5128 41.6741 63.58 41.6417C64.6401 41.5857 65.6975 41.7945 66.6569 42.2492C67.3881 42.598 67.7425 43.0142 67.6525 43.2561Z" fill="#263238"/>
<path d="M88.1783 47.2441C87.9533 47.6379 86.2658 47.2047 84.2408 47.1429C82.2158 47.081 80.5002 47.3397 80.3033 46.9291C80.2133 46.7379 80.5508 46.3666 81.2596 46.0741C82.2209 45.6925 83.2529 45.5218 84.2858 45.5735C85.3283 45.6058 86.3521 45.8589 87.2896 46.316C87.9534 46.6816 88.2796 47.0585 88.1783 47.2441Z" fill="#263238"/>
<path d="M46.3505 56.4199C46.1368 56.3074 37.6655 53.1461 37.3055 61.9942C36.9455 70.8424 45.8893 69.3855 45.9286 69.1324C45.968 68.8792 46.3505 56.4199 46.3505 56.4199Z" fill="#FFBE9D"/>
<path d="M43.3626 65.6669C43.3232 65.6387 43.1995 65.7681 42.9351 65.875C42.5736 66.0173 42.1716 66.0173 41.8101 65.875C40.8876 65.4925 40.162 63.9794 40.1845 62.3819C40.1938 61.6227 40.3726 60.8751 40.7076 60.1937C40.8022 59.9219 40.9619 59.6772 41.1727 59.4812C41.3834 59.2851 41.639 59.1435 41.917 59.0687C42.095 59.028 42.2818 59.0513 42.4443 59.1346C42.6069 59.218 42.7349 59.356 42.8057 59.5244C42.9182 59.7775 42.8507 59.9519 42.9013 59.9687C42.952 59.9856 43.0982 59.8281 43.0363 59.4625C42.9972 59.2437 42.884 59.0451 42.7157 58.9C42.4793 58.706 42.1768 58.6112 41.872 58.6356C41.5019 58.6911 41.1524 58.8408 40.8568 59.0703C40.5613 59.2998 40.3298 59.6014 40.1845 59.9462C39.78 60.6973 39.562 61.5346 39.5488 62.3875C39.5488 64.1762 40.3813 65.8806 41.6413 66.325C41.8768 66.4022 42.1264 66.4266 42.3723 66.3965C42.6183 66.3663 42.8546 66.2824 43.0645 66.1506C43.3345 65.8806 43.3907 65.6837 43.3626 65.6669Z" fill="#EB996E"/>
<path d="M71.9002 72.5345C71.9958 72.3095 70.2633 71.792 69.0427 70.1607C68.535 69.4488 68.1228 68.6735 67.8165 67.8545C67.5577 67.2076 67.3608 66.8082 67.254 66.8364C67.1471 66.8645 67.1808 67.2976 67.3271 68.0007C67.5108 68.9344 67.8946 69.8171 68.4521 70.5882C69.03 71.3588 69.8082 71.9561 70.7021 72.3151C71.4165 72.5907 71.8721 72.6076 71.9002 72.5345Z" fill="#263238"/>
<path d="M88.2816 52.1824C88.0229 52.4411 86.5322 51.243 84.3441 51.1868C82.156 51.1305 80.5697 52.188 80.3391 51.9124C80.2266 51.7886 80.4966 51.3105 81.1997 50.8155C82.1472 50.1801 83.2716 49.8611 84.4116 49.9043C85.5412 49.9329 86.6308 50.3277 87.5166 51.0293C88.1916 51.5749 88.4054 52.0643 88.2816 52.1824Z" fill="#263238"/>
<path d="M87.9245 56.4698C87.8941 56.9244 87.6882 57.3493 87.3502 57.6548C87.0121 57.9602 86.5686 58.1223 86.1133 58.1067C85.6657 58.1067 85.2365 57.9289 84.92 57.6124C84.6036 57.2959 84.4258 56.8667 84.4258 56.4192C84.4562 55.9646 84.6622 55.5396 85.0002 55.2342C85.3382 54.9287 85.7817 54.7667 86.237 54.7823C86.6846 54.7823 87.1138 54.9601 87.4303 55.2765C87.7467 55.593 87.9245 56.0222 87.9245 56.4698Z" fill="#263238"/>
<path d="M99.628 28.9465C98.749 27.5186 97.3857 26.4545 95.7871 25.9485C94.1884 25.4424 92.4611 25.5283 90.9205 26.1903C91.3161 24.1423 91.0312 22.0211 90.1093 20.1501C89.1873 18.2791 87.6789 16.7608 85.8139 15.8267C83.9489 14.8926 81.8296 14.5939 79.7791 14.9762C77.7286 15.3584 75.8593 16.4007 74.4561 17.944C74.3446 17.3968 74.1165 16.8799 73.7875 16.4286C73.4585 15.9773 73.0362 15.602 72.5493 15.3284C71.5735 14.7845 70.4908 14.4601 69.3768 14.3778C66.7364 14.0849 64.0654 14.4896 61.6304 15.5517C59.1954 16.6137 57.0815 18.2959 55.4999 20.4303C52.927 20.1249 50.3184 20.4286 47.8845 21.3168C45.4506 22.205 43.2595 23.6528 41.488 25.5434C37.3311 30.1503 36.5436 40.8209 41.0999 50.0403L42.1686 55.8172C43.5974 55.8172 44.9024 55.9184 45.7855 56.7059C46.9836 57.7803 47.518 59.8053 49.5036 59.0403C50.5161 58.6465 51.4386 56.5259 51.7536 55.4965C54 48.6287 54.7443 41.3583 53.9361 34.1778C55.3545 32.6667 57.0503 31.4426 58.9311 30.5721L58.7793 30.7128C62.3849 29.4584 66.463 28.2265 69.883 29.9196C72.538 31.2303 74.1018 33.9865 76.0705 36.1803C77.9024 38.2093 80.1262 39.8464 82.6078 40.993C85.0894 42.1395 87.7774 42.7717 90.5099 42.8515C90.7012 46.4853 90.3974 51.6209 90.5887 55.2265L93.6993 49.444C93.9408 49.0283 94.1604 48.6002 94.3574 48.1615L94.4249 48.0265C94.9874 47.5709 95.4037 46.7384 96.3487 45.6584C97.2514 44.5971 97.8457 43.3085 98.0668 41.9329C98.288 40.5573 98.1276 39.1473 97.603 37.8565C98.9551 36.8627 99.904 35.4152 100.276 33.7789C100.648 32.1426 100.418 30.4271 99.628 28.9465Z" fill="#263238"/>
<path d="M94.3378 29.082C94.3378 29.082 94.3715 29.1439 94.4052 29.2733C94.4509 29.4575 94.4773 29.6461 94.484 29.8358C94.5127 30.5603 94.3352 31.2781 93.9721 31.9058C93.7149 32.339 93.3791 32.7205 92.9821 33.0308C92.5104 33.3918 91.9551 33.6279 91.3677 33.717C90.685 33.8245 89.9861 33.753 89.3393 33.5095C88.6925 33.2659 88.12 32.8587 87.6777 32.3277L87.8971 32.142C88.1103 32.3754 88.2752 32.6486 88.3824 32.9459C88.4895 33.2432 88.5368 33.5588 88.5215 33.8745C88.5148 34.2966 88.4237 34.7131 88.2537 35.0995C88.0837 35.4859 87.8381 35.8344 87.5315 36.1245C86.9495 36.6418 86.215 36.9557 85.439 37.0189C84.1486 37.113 82.8653 36.7594 81.8052 36.0177C81.0988 35.5381 80.4463 34.9837 79.859 34.3639C79.6338 34.1489 79.4268 33.9156 79.2402 33.6664C79.4878 33.8551 79.7209 34.0619 79.9377 34.2852C80.5494 34.8632 81.2121 35.3847 81.9177 35.8433C82.9464 36.531 84.1776 36.8502 85.4109 36.7489C86.1262 36.6838 86.8021 36.3921 87.3402 35.9164C87.8906 35.3841 88.2098 34.6568 88.229 33.8914C88.2497 33.3273 88.0477 32.7777 87.6665 32.3614L87.8859 32.1702C88.2958 32.6637 88.8255 33.0438 89.4242 33.2742C90.023 33.5047 90.6708 33.5777 91.3059 33.4864C91.8186 33.409 92.3074 33.2171 92.7358 32.9249C93.1643 32.6328 93.5215 32.248 93.7809 31.7989C94.1397 31.2021 94.3338 30.5208 94.3434 29.8245C94.3884 29.352 94.3153 29.0877 94.3378 29.082Z" fill="#455A64"/>
<path d="M83.2677 19.3838C83.2677 19.3838 83.3352 19.3838 83.4589 19.4682C83.6296 19.5672 83.7932 19.6781 83.9483 19.8C84.5357 20.2532 84.9967 20.8498 85.287 21.5325C85.5016 22.0483 85.5862 22.609 85.5332 23.1651C85.4803 23.7213 85.2914 24.2559 84.9833 24.7219C84.6108 25.2915 84.0322 25.6947 83.3689 25.8469C83.0157 25.9234 82.6506 25.9275 82.2958 25.8588C81.941 25.7902 81.6037 25.6503 81.3045 25.4475C81.1197 25.3077 80.955 25.143 80.8152 24.9582L81.0683 24.8119C81.196 25.1303 81.2559 25.4718 81.2443 25.8147C81.2327 26.1575 81.1497 26.4942 81.0008 26.8032C80.7416 27.3792 80.2874 27.8453 79.7183 28.1194C79.246 28.3389 78.7315 28.4525 78.2108 28.4525C77.69 28.4525 77.1755 28.3389 76.7033 28.1194C76.0812 27.8321 75.5271 27.4161 75.0777 26.8988C74.9025 26.7201 74.7564 26.5151 74.6445 26.2913C74.6445 26.2913 74.8245 26.4882 75.1564 26.82C75.6209 27.2961 76.1728 27.6781 76.782 27.945C77.2277 28.1362 77.7089 28.2305 78.1937 28.2217C78.6786 28.213 79.156 28.1014 79.5945 27.8944C80.0948 27.6345 80.4916 27.2119 80.7195 26.6963C80.8483 26.4231 80.9197 26.1265 80.9294 25.8246C80.9391 25.5228 80.8868 25.2222 80.7758 24.9413L80.3033 23.8557L81.0289 24.8007C81.1478 24.9599 81.29 25.1002 81.4508 25.2169C81.7162 25.3979 82.0155 25.5231 82.3307 25.585C82.6459 25.6468 82.9704 25.6441 83.2845 25.5769C83.8744 25.4488 84.3922 25.0983 84.7302 24.5982C85.0206 24.1686 85.2026 23.675 85.2604 23.1597C85.3182 22.6443 85.2501 22.1227 85.062 21.6394C84.8001 20.977 84.3835 20.3868 83.847 19.9182C83.4983 19.5469 83.2508 19.4063 83.2677 19.3838Z" fill="#455A64"/>
<path d="M158.389 83.9023L137.942 99.506C137.655 99.726 137.417 100.002 137.241 100.318C137.065 100.633 136.956 100.981 136.92 101.34C136.883 101.7 136.921 102.063 137.03 102.407C137.139 102.751 137.317 103.069 137.554 103.342C137.996 103.854 138.618 104.176 139.291 104.242C139.964 104.308 140.637 104.112 141.17 103.697L161.42 87.9466L164.16 82.541L158.389 83.9023Z" fill="#9DCEFF"/>
<path opacity="0.5" d="M161.538 83.1543L162.984 84.8418L161.42 87.9468C161.232 87.9667 161.042 87.9434 160.864 87.8787C160.687 87.8139 160.526 87.7095 160.395 87.5734C160.264 87.4372 160.165 87.2729 160.107 87.093C160.049 86.913 160.032 86.7222 160.059 86.5349C159.874 86.5605 159.686 86.5397 159.511 86.4743C159.336 86.4089 159.18 86.301 159.057 86.1604C158.935 86.0198 158.849 85.8508 158.808 85.6687C158.766 85.4867 158.771 85.2972 158.822 85.1174C158.822 85.1174 157.758 85.0218 158.36 83.9024L161.538 83.1543Z" fill="white"/>
<path d="M137.941 99.4902L141.294 103.585L142.419 102.713L139.207 98.5283L137.941 99.4902Z" fill="#263238"/>
<path d="M136.45 138.578L135.713 138.443L150.754 112.152L148.369 104.569C148.369 104.569 145.613 93.7749 147.908 91.0186C147.908 91.0186 152.931 85.1011 154.562 85.1855C156.194 85.2698 157.493 85.5905 157.819 86.8167C157.819 86.8167 160.592 86.4905 161.324 87.3792C161.813 87.994 162.249 88.6488 162.629 89.3367C162.629 89.3367 165.644 89.0892 166.459 91.6992C166.459 91.6992 169.311 93.1674 169.559 95.2824C169.806 97.3974 168.996 107.264 168.09 109.789C167.185 112.315 163.849 117.614 162.876 125.438C161.903 133.262 158.449 138.342 155.384 149.772L147.064 153.062L136.45 138.578Z" fill="#FFBE9D"/>
<path d="M157.681 86.6484C157.743 86.7328 156.708 87.4191 155.926 88.6847C155.144 89.9503 154.958 91.1653 154.852 91.1484C154.862 90.2124 155.13 89.2973 155.626 88.5035C156.122 87.7097 156.827 87.0679 157.664 86.6484H157.681Z" fill="#EB996E"/>
<path d="M162.466 89.3369C162.523 89.4269 161.533 90.0232 160.751 91.1594C159.969 92.2957 159.721 93.4094 159.626 93.4094C159.53 93.4094 159.626 92.1775 160.475 90.9794C160.935 90.2237 161.637 89.6451 162.466 89.3369Z" fill="#EB996E"/>
<path d="M166.303 91.6318C166.365 91.7106 165.617 92.3687 164.93 93.3587C164.244 94.3487 163.873 95.2768 163.777 95.2431C163.863 94.4819 164.166 93.7614 164.649 93.1675C165.039 92.5052 165.614 91.9714 166.303 91.6318Z" fill="#EB996E"/>
<path d="M152.202 92.4857C151.657 92.308 151.088 92.2114 150.515 92.1988C149.952 92.2865 149.406 92.4591 148.895 92.7107C148.867 92.7107 148.974 92.497 149.249 92.2945C149.616 92.0405 150.044 91.8907 150.489 91.861C150.934 91.8312 151.378 91.9227 151.775 92.1257C152.067 92.2889 152.202 92.452 152.202 92.4857Z" fill="#EB996E"/>
<path d="M158.176 96.2381C157.835 95.6859 157.416 95.1857 156.933 94.7531C156.083 94.0893 155.161 94.0499 155.172 93.9487C155.183 93.8474 155.403 93.8531 155.779 93.8981C156.274 93.9741 156.742 94.1731 157.14 94.4767C157.538 94.7804 157.854 95.179 158.058 95.6362C158.204 95.9905 158.215 96.2268 158.176 96.2381Z" fill="#EB996E"/>
<path d="M164.133 97.5091C164.06 97.5822 163.402 96.8397 162.282 96.5472C161.597 96.4154 160.896 96.3813 160.201 96.446C160.201 96.4066 160.398 96.2716 160.797 96.176C161.319 96.0662 161.858 96.0813 162.373 96.2202C162.887 96.359 163.361 96.6176 163.756 96.9747C164.049 97.256 164.161 97.4866 164.133 97.5091Z" fill="#EB996E"/>
<path d="M12.3695 126.191C12.3695 126.191 3.13883 178.549 3.59445 183.448C4.05008 188.348 6.49133 196.133 12.032 197.466C15.551 198.252 19.2004 198.252 22.7195 197.466L16.0763 133.155L12.3695 126.191Z" fill="#9DCEFF"/>
<path d="M39.3645 99.1797C39.3645 99.1797 28.3283 107.055 25.8645 109.333C15.6608 118.98 13.5289 122.929 12.3645 126.208C11.2002 129.487 19.452 205.256 19.452 205.256L21.1395 218.503L98.5789 218.7V151.037L86.9521 103.41L79.7915 101.373L78.3458 95.6979C78.3458 95.6979 69.4527 89.1279 54.7827 88.9479C50.2827 88.886 43.8814 90.6635 40.3152 93.4479L39.3645 99.1797Z" fill="#9DCEFF"/>
<path d="M78.2658 103.607C78.2658 103.607 86.2252 103.253 86.9283 103.41C89.3808 103.973 96.114 110.16 103.803 117.765C111.116 125.022 125.527 140.125 125.527 140.125C125.527 140.125 128.115 137.515 131.068 141.002L142.436 124.465C142.436 124.465 159.513 126.557 162.168 139.444C162.168 139.444 156.937 149.434 152.651 156.572C152.651 156.572 136.794 182.892 124.267 178.122C112.826 173.757 98.4765 162.124 96.4571 159.638L79.5821 147.617C79.5821 147.617 68.0396 125.612 73.1414 114.61L78.2658 103.607Z" fill="#9DCEFF"/>
<path d="M79.7669 101.375C79.6291 101.362 79.4932 101.334 79.3619 101.29L78.2369 100.987C77.2413 100.733 75.79 100.385 73.9788 100.042C69.2541 99.168 64.4811 98.5801 59.6856 98.2809C54.893 97.9405 50.0817 97.9556 45.2913 98.3259C43.4519 98.4834 41.9781 98.714 40.9656 98.8884L39.8013 99.119C39.6678 99.1576 39.5295 99.1766 39.3906 99.1753C39.5171 99.1202 39.6491 99.0787 39.7844 99.0515L40.9375 98.759C42.3672 98.4504 43.8133 98.2232 45.2688 98.0784C50.07 97.6384 54.8992 97.5914 59.7081 97.9378C64.5132 98.2343 69.2924 98.8583 74.0125 99.8053C75.8238 100.182 77.2694 100.565 78.265 100.863L79.39 101.228C79.5209 101.262 79.6473 101.312 79.7669 101.375Z" fill="#263238"/>
<path d="M49.6096 97.4364C49.514 97.4364 49.2609 96.1539 49.0471 94.5395C48.8334 92.9252 48.7153 91.6145 48.8109 91.5977C49.106 92.5392 49.2946 93.5109 49.3734 94.4945C49.5984 96.1314 49.7053 97.4252 49.6096 97.4364Z" fill="#263238"/>
<path d="M52.4976 97.1894C51.7286 95.3317 51.5864 93.2739 52.0926 91.3281C52.1938 91.3281 52.0419 92.6556 52.1544 94.27C52.2669 95.8844 52.5932 97.1613 52.4976 97.1894Z" fill="#263238"/>
<g opacity="0.3">
<path opacity="0.3" d="M39.6152 99.117C51.7315 101.26 64.0165 99.117 76.8415 100.653C64.4665 98.0876 51.5627 96.8726 39.6152 99.117Z" fill="black"/>
</g>
<g opacity="0.3">
<path opacity="0.3" d="M18.3258 197.567C11.5083 181.597 12.3183 163.552 13.2633 146.222L18.3258 197.567Z" fill="black"/>
</g>
<path d="M12.3703 137.605C12.3888 137.672 12.4001 137.739 12.4041 137.808C12.4041 137.96 12.4491 138.157 12.4772 138.399C12.5335 138.961 12.6178 139.709 12.7191 140.688C12.916 142.696 13.2028 145.565 13.5516 149.125C14.2435 156.224 15.1885 166.04 16.3191 176.868C17.4497 187.696 18.5691 197.489 19.4803 204.565C19.9247 208.104 20.3072 210.967 20.6053 212.941C20.7347 213.914 20.836 214.679 20.9035 215.219C20.9372 215.467 20.9597 215.664 20.9766 215.815C20.9827 215.883 20.9827 215.951 20.9766 216.018C20.9538 215.954 20.9387 215.888 20.9316 215.821L20.8247 215.231C20.7403 214.668 20.6166 213.931 20.4647 212.981C20.1553 211.006 19.7335 208.149 19.2553 204.616C18.2935 197.545 17.1235 187.741 15.9928 176.919C14.8622 166.096 13.9566 156.269 13.3266 149.165C13.0228 145.627 12.7641 142.752 12.601 140.727C12.5278 139.749 12.466 138.984 12.4266 138.438C12.4266 138.19 12.4266 137.994 12.3872 137.836C12.3721 137.76 12.3664 137.683 12.3703 137.605Z" fill="#263238"/>
<path d="M64.7946 129.038C64.6308 129.063 64.4651 129.073 64.2996 129.066H62.8652C61.6277 129.066 59.8277 129.066 57.6114 129.128C53.1733 129.229 47.0477 129.556 40.3258 130.349C33.6039 131.142 27.5683 132.289 23.2314 133.257C21.0602 133.724 19.2939 134.129 18.107 134.427L16.712 134.753C16.5517 134.797 16.388 134.827 16.2227 134.843C16.3751 134.776 16.5332 134.724 16.6952 134.686L18.0733 134.297C19.2714 133.96 21.0152 133.521 23.1808 133.021C34.4758 130.424 46.017 129.05 57.6058 128.92C59.8558 128.92 61.6277 128.92 62.8708 128.965L64.2996 129.021C64.4647 129.014 64.6303 129.019 64.7946 129.038Z" fill="#263238"/>
<path d="M35.0628 145.992C34.9672 145.992 35.1472 138.741 35.4566 129.803C35.7659 120.865 36.1034 113.614 36.1991 113.62C36.2947 113.626 36.1147 120.871 35.7997 129.815C35.4847 138.758 35.1528 145.998 35.0628 145.992Z" fill="#263238"/>
<path d="M74.6325 145.098C74.5273 144.952 74.4315 144.8 74.3456 144.642C74.1469 144.308 73.8881 143.864 73.5694 143.309L70.7119 138.398C69.2661 135.98 68.0657 133.423 67.1287 130.765C66.6094 129.178 66.2513 127.542 66.06 125.883C65.8967 124.098 65.8967 122.302 66.06 120.517C66.2975 117.057 67.1629 113.67 68.6137 110.521C69.2803 109.157 70.1301 107.891 71.1394 106.758C72.0271 105.781 73.0455 104.931 74.1656 104.232C75.7788 103.195 77.6251 102.576 79.5375 102.432C80.2334 102.374 80.9339 102.414 81.6188 102.55C80.9292 102.513 80.2383 102.513 79.5487 102.55C77.6724 102.739 75.8698 103.38 74.295 104.418C73.2029 105.118 72.2113 105.964 71.3475 106.932C70.3678 108.053 69.5447 109.302 68.9006 110.645C67.4802 113.764 66.6324 117.114 66.3975 120.533C66.2398 122.294 66.2398 124.066 66.3975 125.827C66.5837 127.463 66.9304 129.078 67.4325 130.647C68.3518 133.291 69.5215 135.842 70.9256 138.263L73.6875 143.225L74.4131 144.592C74.5013 144.753 74.5748 144.923 74.6325 145.098Z" fill="#263238"/>
<g opacity="0.3">
<path opacity="0.3" d="M17.4768 134.78C22.3705 134.526 27.2364 133.885 32.0287 132.862C31.4374 134.979 31.1625 137.172 31.2131 139.37C32.7327 137.658 33.8392 135.62 34.4474 133.413C34.6216 134.614 35.0368 135.767 35.668 136.803C36.2992 137.839 37.1334 138.737 38.1206 139.443C38.6027 137.267 38.713 135.024 38.4468 132.811C45.6881 131.941 52.8806 130.75 60.0243 129.239C45.5651 128.889 31.1339 130.684 17.2012 134.566" fill="black"/>
</g>
<path d="M110.576 170.871C110.457 170.819 110.346 170.753 110.244 170.674L109.316 170.055C108.517 169.493 107.369 168.722 105.941 167.727C103.128 165.747 99.2412 162.962 95.0168 159.812C90.7924 156.662 87.018 153.737 84.3293 151.594C82.9793 150.525 81.888 149.648 81.1399 149.035L80.2849 148.326C80.1801 148.248 80.0839 148.16 79.998 148.062C80.113 148.125 80.2222 148.198 80.3243 148.281L81.213 148.945L84.4587 151.431C87.1981 153.535 90.9893 156.426 95.2137 159.576C99.4381 162.726 103.263 165.533 106.076 167.569L109.383 169.977L110.277 170.635C110.383 170.705 110.483 170.784 110.576 170.871Z" fill="#263238"/>
<path d="M129.469 153.613C129.418 153.613 129.469 152.758 129.351 151.403C129.096 147.849 128.026 144.402 126.223 141.328C125.532 140.153 125.025 139.472 125.065 139.438C125.217 139.57 125.351 139.722 125.464 139.888C125.798 140.316 126.11 140.761 126.398 141.222C128.326 144.275 129.416 147.783 129.559 151.392C129.589 151.933 129.589 152.476 129.559 153.017C129.556 153.219 129.525 153.42 129.469 153.613Z" fill="#263238"/>
<path d="M132.957 152.336C132.973 151.756 133.02 151.178 133.098 150.603C133.203 149.216 133.176 147.823 133.019 146.441C132.859 145.059 132.567 143.695 132.147 142.368C131.827 141.345 131.585 140.731 131.618 140.709C131.715 140.833 131.793 140.972 131.849 141.12C132.035 141.504 132.2 141.899 132.344 142.301C133.311 144.963 133.638 147.814 133.3 150.626C133.233 151.16 133.16 151.593 133.092 151.886C133.068 152.041 133.023 152.193 132.957 152.336Z" fill="#263238"/>
<path d="M159.375 145.097C159.375 145.097 159.375 144.99 159.245 144.883C159.148 144.822 159.069 144.737 159.015 144.636C158.953 144.518 158.908 144.377 158.829 144.242C158.677 143.955 158.3 143.741 158.03 143.325C157.738 142.863 157.511 142.364 157.355 141.84C156.971 140.504 156.312 139.262 155.42 138.195C154.885 137.575 154.304 136.996 153.682 136.463C153.022 135.879 152.321 135.343 151.584 134.859C150.871 134.339 150.119 133.875 149.334 133.47L147.084 132.379C146.375 132.041 145.712 131.693 145.065 131.417L143.265 130.646C142.997 130.544 142.736 130.426 142.483 130.292C142.241 130.151 142.044 129.994 141.842 129.881L141.279 129.572C141.099 129.476 140.947 129.347 140.812 129.263C140.537 129.088 140.295 128.993 140.137 128.908C139.98 128.824 139.901 128.779 139.907 128.768C139.994 128.787 140.079 128.818 140.16 128.858C140.405 128.943 140.644 129.047 140.874 129.167C141.215 129.382 141.573 129.57 141.943 129.729C142.162 129.836 142.37 129.994 142.595 130.118C142.82 130.241 143.102 130.331 143.372 130.449L145.183 131.181C145.83 131.445 146.505 131.794 147.225 132.126L149.475 133.2C150.27 133.608 151.031 134.079 151.753 134.606C152.502 135.095 153.213 135.64 153.879 136.238C154.51 136.781 155.097 137.373 155.634 138.009C156.537 139.108 157.193 140.387 157.558 141.761C157.699 142.273 157.905 142.765 158.171 143.224C158.407 143.618 158.773 143.848 158.93 144.174C159.015 144.332 159.048 144.478 159.099 144.585C159.144 144.68 159.21 144.765 159.29 144.833C159.431 144.979 159.38 145.108 159.375 145.097Z" fill="#263238"/>
<path d="M87.2127 217.395C87.1339 217.395 87.0664 203.164 87.0664 185.608C87.0664 168.053 87.1339 153.821 87.2127 153.821C87.2914 153.821 87.3589 168.053 87.3589 185.608C87.3589 203.164 87.297 217.395 87.2127 217.395Z" fill="#263238"/>
</svg>
