<svg width="24" height="24" viewBox="0 0 24 24" fill="none" xmlns="http://www.w3.org/2000/svg">
<g clip-path="url(#clip0_256_3368)">
<path d="M12 0C9.62663 0 7.30655 0.703788 5.33316 2.02236C3.35977 3.34094 1.8217 5.21509 0.913451 7.4078C0.00519943 9.60051 -0.232441 12.0133 0.230582 14.3411C0.693605 16.6689 1.83649 18.8071 3.51472 20.4853C5.19295 22.1635 7.33115 23.3064 9.65892 23.7694C11.9867 24.2324 14.3995 23.9948 16.5922 23.0866C18.7849 22.1783 20.6591 20.6402 21.9776 18.6668C23.2962 16.6935 24 14.3734 24 12C23.9966 8.81846 22.7312 5.76821 20.4815 3.51852C18.2318 1.26883 15.1815 0.00344108 12 0V0ZM12 22C10.0222 22 8.08879 21.4135 6.4443 20.3147C4.79981 19.2159 3.51809 17.6541 2.76121 15.8268C2.00433 13.9996 1.8063 11.9889 2.19215 10.0491C2.578 8.10929 3.53041 6.32746 4.92894 4.92893C6.32746 3.53041 8.10929 2.578 10.0491 2.19215C11.9889 1.8063 13.9996 2.00433 15.8268 2.7612C17.6541 3.51808 19.2159 4.79981 20.3147 6.4443C21.4135 8.08879 22 10.0222 22 12C21.9971 14.6513 20.9426 17.1931 19.0679 19.0679C17.1931 20.9426 14.6513 21.9971 12 22Z" fill="#A0A0A0"/>
<path d="M12.7171 5.06283C12.1404 4.95776 11.5477 4.98072 10.9809 5.13007C10.4141 5.27943 9.88703 5.55154 9.43701 5.92714C8.987 6.30274 8.62503 6.77265 8.37673 7.30363C8.12843 7.83461 7.99986 8.41367 8.00012 8.99983C8.00012 9.26505 8.10548 9.5194 8.29302 9.70694C8.48055 9.89448 8.7349 9.99983 9.00012 9.99983C9.26534 9.99983 9.51969 9.89448 9.70723 9.70694C9.89476 9.5194 10.0001 9.26505 10.0001 8.99983C9.99987 8.70561 10.0645 8.41495 10.1895 8.14859C10.3145 7.88223 10.4967 7.64672 10.7231 7.45886C10.9496 7.271 11.2147 7.13542 11.4995 7.06178C11.7844 6.98814 12.082 6.97825 12.3711 7.03283C12.7662 7.10952 13.1294 7.30222 13.4144 7.58632C13.6994 7.87043 13.8932 8.23303 13.9711 8.62783C14.0498 9.04223 13.9955 9.47091 13.8159 9.85257C13.6363 10.2342 13.3406 10.5493 12.9711 10.7528C12.3593 11.1073 11.8537 11.6193 11.507 12.2356C11.1604 12.8519 10.9853 13.5499 11.0001 14.2568V14.9998C11.0001 15.265 11.1055 15.5194 11.293 15.7069C11.4805 15.8945 11.7349 15.9998 12.0001 15.9998C12.2653 15.9998 12.5197 15.8945 12.7072 15.7069C12.8948 15.5194 13.0001 15.265 13.0001 14.9998V14.2568C12.9876 13.9088 13.0669 13.5637 13.2302 13.2561C13.3934 12.9486 13.6349 12.6894 13.9301 12.5048C14.6546 12.1069 15.2381 11.4943 15.6002 10.7512C15.9623 10.0082 16.0854 9.17119 15.9524 8.35536C15.8194 7.53952 15.437 6.78492 14.8576 6.19533C14.2783 5.60573 13.5305 5.2101 12.7171 5.06283Z" fill="#A0A0A0"/>
<path d="M13.0001 18C13.0001 17.4477 12.5524 17 12.0001 17C11.4478 17 11.0001 17.4477 11.0001 18C11.0001 18.5523 11.4478 19 12.0001 19C12.5524 19 13.0001 18.5523 13.0001 18Z" fill="#A0A0A0"/>
</g>
<defs>
<clipPath id="clip0_256_3368">
<rect width="24" height="24" fill="white"/>
</clipPath>
</defs>
</svg>
