<svg width="24" height="24" viewBox="0 0 24 24" fill="none" xmlns="http://www.w3.org/2000/svg">
<g clip-path="url(#clip0_283_2084)">
<path d="M23.1213 9.06911L15.5363 1.48311C14.5975 0.5471 13.3259 0.0214844 12.0003 0.0214844C10.6746 0.0214844 9.40301 0.5471 8.46426 1.48311L0.879256 9.06911C0.599682 9.34689 0.378026 9.67741 0.227139 10.0415C0.0762514 10.4056 -0.00086626 10.796 0.00025622 11.1901V21.0071C0.00025622 21.8028 0.316327 22.5658 0.878936 23.1284C1.44155 23.691 2.20461 24.0071 3.00026 24.0071H21.0003C21.7959 24.0071 22.559 23.691 23.1216 23.1284C23.6842 22.5658 24.0003 21.8028 24.0003 21.0071V11.1901C24.0014 10.796 23.9243 10.4056 23.7734 10.0415C23.6225 9.67741 23.4008 9.34689 23.1213 9.06911V9.06911ZM15.0003 22.0071H9.00026V18.0731C9.00026 17.2775 9.31633 16.5144 9.87894 15.9518C10.4415 15.3892 11.2046 15.0731 12.0003 15.0731C12.7959 15.0731 13.559 15.3892 14.1216 15.9518C14.6842 16.5144 15.0003 17.2775 15.0003 18.0731V22.0071ZM22.0003 21.0071C22.0003 21.2723 21.8949 21.5267 21.7074 21.7142C21.5198 21.9018 21.2655 22.0071 21.0003 22.0071H17.0003V18.0731C17.0003 16.747 16.4735 15.4753 15.5358 14.5376C14.5981 13.5999 13.3263 13.0731 12.0003 13.0731C10.6742 13.0731 9.40241 13.5999 8.46472 14.5376C7.52704 15.4753 7.00026 16.747 7.00026 18.0731V22.0071H3.00026C2.73504 22.0071 2.48069 21.9018 2.29315 21.7142C2.10561 21.5267 2.00026 21.2723 2.00026 21.0071V11.1901C2.00118 10.9251 2.10645 10.6711 2.29326 10.4831L9.87826 2.90011C10.442 2.33904 11.2049 2.02405 12.0003 2.02405C12.7956 2.02405 13.5586 2.33904 14.1223 2.90011L21.7073 10.4861C21.8933 10.6734 21.9985 10.9261 22.0003 11.1901V21.0071Z" fill="#A0A0A0"/>
</g>
<defs>
<clipPath id="clip0_283_2084">
<rect width="24" height="24" fill="white"/>
</clipPath>
</defs>
</svg>
