<svg width="24" height="24" viewBox="0 0 24 24" fill="none" xmlns="http://www.w3.org/2000/svg">
<g clip-path="url(#clip0_256_3321)">
<path d="M19.7999 4.41885C18.6275 2.83025 17.0457 1.58991 15.2233 0.830281C13.401 0.0706512 11.4065 -0.179738 9.4529 0.105851C7.55274 0.376001 5.75634 1.13861 4.24215 2.31792C2.72795 3.49723 1.54867 5.0522 0.821445 6.82835C0.0942225 8.6045 -0.155627 10.54 0.0967171 12.4426C0.349061 14.3452 1.09482 16.1487 2.2599 17.6739C2.75596 18.3576 3.01574 19.1843 2.9999 20.0289V20.9999C2.9999 21.7955 3.31597 22.5586 3.87858 23.1212C4.44119 23.6838 5.20425 23.9999 5.9999 23.9999H12.9999C13.7955 23.9999 14.5586 23.6838 15.1212 23.1212C15.6838 22.5586 15.9999 21.7955 15.9999 20.9999H16.4939C17.7057 20.9969 18.8755 20.5552 19.7868 19.7564C20.698 18.9576 21.2892 17.8558 21.4509 16.6549L21.6699 14.9999H21.9999C22.2641 15.0054 22.5266 14.9575 22.7718 14.859C23.017 14.7605 23.2397 14.6134 23.4266 14.4265C23.6134 14.2397 23.7605 14.017 23.859 13.7718C23.9576 13.5266 24.0055 13.264 23.9999 12.9999C23.9999 11.5799 21.0679 5.98485 19.7999 4.41885ZM20.7929 12.9999C20.5504 12.9999 20.3163 13.0881 20.134 13.248C19.9517 13.4078 19.8337 13.6285 19.8019 13.8689L19.4679 16.3939C19.3708 17.1143 19.016 17.7751 18.4693 18.2542C17.9225 18.7333 17.2208 18.9982 16.4939 18.9999H14.9999C14.7347 18.9999 14.4803 19.1052 14.2928 19.2927C14.1053 19.4803 13.9999 19.7346 13.9999 19.9999V20.9999C13.9999 21.2651 13.8945 21.5194 13.707 21.707C13.5195 21.8945 13.2651 21.9999 12.9999 21.9999H5.9999C5.73468 21.9999 5.48033 21.8945 5.29279 21.707C5.10525 21.5194 4.9999 21.2651 4.9999 20.9999V20.0289C5.01501 18.745 4.6109 17.4912 3.8489 16.4579C2.89676 15.2106 2.28725 13.7361 2.08083 12.1806C1.87441 10.6251 2.07826 9.0427 2.67216 7.5903C3.26606 6.13791 4.22936 4.86602 5.46651 3.90081C6.70366 2.93561 8.17166 2.31062 9.7249 2.08785C10.149 2.02898 10.5767 1.99957 11.0049 1.99985C12.41 1.99796 13.7959 2.32727 15.0499 2.96109C16.304 3.59491 17.3911 4.51538 18.2229 5.64785C19.8023 7.92024 21.0724 10.3926 21.9999 12.9999H20.7929ZM16.1999 8.01085C16.1345 7.89688 16.0472 7.79692 15.9432 7.71668C15.8391 7.63644 15.7202 7.5775 15.5934 7.54323C15.4665 7.50896 15.3341 7.50003 15.2038 7.51695C15.0735 7.53388 14.9478 7.57632 14.8339 7.64185L13.8519 8.20585C13.3426 7.68963 12.7024 7.32181 11.9999 7.14185V5.99985C11.9999 5.73463 11.8945 5.48028 11.707 5.29274C11.5195 5.10521 11.2651 4.99985 10.9999 4.99985C10.7347 4.99985 10.4803 5.10521 10.2928 5.29274C10.1053 5.48028 9.9999 5.73463 9.9999 5.99985V7.14185C9.29634 7.32131 8.65502 7.68917 8.1449 8.20585L7.1629 7.64185C7.04904 7.57619 6.92337 7.5336 6.79305 7.51651C6.66273 7.49941 6.53033 7.50816 6.40339 7.54224C6.27645 7.57632 6.15747 7.63506 6.05324 7.71513C5.949 7.79519 5.86156 7.895 5.7959 8.00885C5.73024 8.12271 5.68764 8.24838 5.67055 8.3787C5.65346 8.50902 5.6622 8.64142 5.69628 8.76836C5.73036 8.8953 5.78911 9.01428 5.86917 9.11851C5.94923 9.22275 6.04904 9.31019 6.1629 9.37585L7.1559 9.94685C7.05648 10.2892 7.004 10.6434 6.9999 10.9999C7.00497 11.3564 7.05846 11.7107 7.1589 12.0529L6.1659 12.6239C5.93595 12.7565 5.76811 12.975 5.69928 13.2313C5.63046 13.4877 5.66629 13.7609 5.7989 13.9909C5.93151 14.2208 6.15003 14.3886 6.40639 14.4575C6.66275 14.5263 6.93595 14.4905 7.1659 14.3579L8.1479 13.7939C8.65719 14.3101 9.29742 14.6779 9.9999 14.8579V15.9999C9.9999 16.2651 10.1053 16.5194 10.2928 16.707C10.4803 16.8945 10.7347 16.9999 10.9999 16.9999C11.2651 16.9999 11.5195 16.8945 11.707 16.707C11.8945 16.5194 11.9999 16.2651 11.9999 15.9999V14.8579C12.7034 14.6784 13.3448 14.3105 13.8549 13.7939L14.8369 14.3579C14.9508 14.4235 15.0764 14.4661 15.2067 14.4832C15.3371 14.5003 15.4695 14.4915 15.5964 14.4575C15.7233 14.4234 15.8423 14.3646 15.9466 14.2846C16.0508 14.2045 16.1382 14.1047 16.2039 13.9909C16.2696 13.877 16.3122 13.7513 16.3292 13.621C16.3463 13.4907 16.3376 13.3583 16.3035 13.2313C16.2694 13.1044 16.2107 12.9854 16.1306 12.8812C16.0506 12.777 15.9508 12.6895 15.8369 12.6239L14.8439 12.0529C14.9433 11.7105 14.9958 11.3563 14.9999 10.9999C14.9948 10.6433 14.9413 10.289 14.8409 9.94685L15.8339 9.37585C16.0633 9.24324 16.2307 9.02501 16.2993 8.76908C16.3679 8.51314 16.3322 8.24044 16.1999 8.01085ZM10.9999 12.9999C10.6043 12.9999 10.2177 12.8826 9.88876 12.6628C9.55986 12.443 9.30351 12.1307 9.15214 11.7652C9.00076 11.3998 8.96116 10.9976 9.03833 10.6097C9.1155 10.2217 9.30598 9.86534 9.58568 9.58564C9.86539 9.30593 10.2218 9.11545 10.6097 9.03828C10.9977 8.96111 11.3998 9.00072 11.7653 9.15209C12.1307 9.30347 12.4431 9.55981 12.6628 9.88871C12.8826 10.2176 12.9999 10.6043 12.9999 10.9999C12.9999 11.5303 12.7892 12.039 12.4141 12.4141C12.039 12.7891 11.5303 12.9999 10.9999 12.9999Z" fill="#A0A0A0"/>
</g>
<defs>
<clipPath id="clip0_256_3321">
<rect width="24" height="24" fill="white"/>
</clipPath>
</defs>
</svg>
