<svg width="24" height="24" viewBox="0 0 24 24" fill="none" xmlns="http://www.w3.org/2000/svg">
<g clip-path="url(#clip0_256_3232)">
<path d="M22.4998 3.97559H19.4138C19.2161 3.97563 19.0228 4.0343 18.8584 4.14418C18.694 4.25407 18.5658 4.41023 18.4902 4.59293C18.4145 4.77563 18.3947 4.97666 18.4333 5.17062C18.4718 5.36457 18.567 5.54273 18.7068 5.68259L19.7928 6.76859L16.2068 10.3536C16.0163 10.5357 15.7629 10.6373 15.4993 10.6373C15.2358 10.6373 14.9824 10.5357 14.7918 10.3536L14.6218 10.1826C14.0505 9.63666 13.2906 9.33201 12.5003 9.33201C11.7101 9.33201 10.9502 9.63666 10.3788 10.1826L5.27885 15.2826C5.09094 15.471 4.98559 15.7264 4.98596 15.9925C4.98634 16.2586 5.09241 16.5137 5.28085 16.7016C5.46928 16.8895 5.72465 16.9948 5.99076 16.9945C6.25688 16.9941 6.51194 16.888 6.69985 16.6996L11.7998 11.5996C11.9903 11.4173 12.2437 11.3155 12.5073 11.3155C12.771 11.3155 13.0244 11.4173 13.2148 11.5996L13.3848 11.7706C13.9565 12.3161 14.7162 12.6204 15.5063 12.6204C16.2965 12.6204 17.0562 12.3161 17.6278 11.7706L21.2138 8.18459L22.2998 9.27059C22.4402 9.40814 22.6179 9.5013 22.8109 9.53843C23.0038 9.57557 23.2034 9.55504 23.3848 9.4794C23.5661 9.40377 23.7212 9.27638 23.8306 9.11315C23.94 8.94992 23.9988 8.75808 23.9998 8.56159V5.47559C23.9998 5.07776 23.8418 4.69623 23.5605 4.41493C23.2792 4.13362 22.8977 3.97559 22.4998 3.97559Z" fill="#A0A0A0"/>
<path d="M23 21.976H5C4.20435 21.976 3.44129 21.6599 2.87868 21.0973C2.31607 20.5347 2 19.7716 2 18.976V1C2 0.734784 1.89464 0.48043 1.70711 0.292893C1.51957 0.105357 1.26522 0 1 0C0.734784 0 0.48043 0.105357 0.292893 0.292893C0.105357 0.48043 0 0.734784 0 1L0 18.976C0.00158786 20.3016 0.528882 21.5724 1.46622 22.5098C2.40356 23.4471 3.67441 23.9744 5 23.976H23C23.2652 23.976 23.5196 23.8706 23.7071 23.6831C23.8946 23.4956 24 23.2412 24 22.976C24 22.7108 23.8946 22.4564 23.7071 22.2689C23.5196 22.0814 23.2652 21.976 23 21.976Z" fill="#A0A0A0"/>
</g>
<defs>
<clipPath id="clip0_256_3232">
<rect width="24" height="24" fill="white"/>
</clipPath>
</defs>
</svg>
