<svg width="169" height="29" viewBox="0 0 169 29" fill="none" xmlns="http://www.w3.org/2000/svg">
<path d="M16.18 2C16.58 2 16.9 2.14 17.14 2.42C17.4 2.68 17.53 3.01 17.53 3.41V21.47C17.53 21.91 17.38 22.28 17.08 22.58C16.8 22.86 16.44 23 16 23C15.8 23 15.58 22.96 15.34 22.88C15.12 22.8 14.95 22.69 14.83 22.55L2.5 6.56L3.19 6.17V21.62C3.19 22 3.06 22.33 2.8 22.61C2.54 22.87 2.21 23 1.81 23C1.39 23 1.05 22.87 0.79 22.61C0.55 22.33 0.43 22 0.43 21.62V3.53C0.43 3.07 0.58 2.7 0.88 2.42C1.18 2.14 1.54 2 1.96 2C2.18 2 2.41 2.05 2.65 2.15C2.91 2.23 3.1 2.36 3.22 2.54L15.25 18.2L14.8 18.62V3.41C14.8 3.01 14.93 2.68 15.19 2.42C15.45 2.14 15.78 2 16.18 2ZM37.222 15.11C37.222 16.71 36.872 18.13 36.172 19.37C35.472 20.59 34.522 21.55 33.322 22.25C32.122 22.95 30.772 23.3 29.272 23.3C27.772 23.3 26.422 22.95 25.222 22.25C24.022 21.55 23.062 20.59 22.342 19.37C21.642 18.13 21.292 16.71 21.292 15.11C21.292 13.49 21.642 12.07 22.342 10.85C23.062 9.61 24.022 8.64 25.222 7.94C26.422 7.22 27.772 6.86 29.272 6.86C30.772 6.86 32.122 7.22 33.322 7.94C34.522 8.64 35.472 9.61 36.172 10.85C36.872 12.07 37.222 13.49 37.222 15.11ZM34.222 15.11C34.222 14.01 34.002 13.06 33.562 12.26C33.122 11.44 32.522 10.8 31.762 10.34C31.022 9.86 30.192 9.62 29.272 9.62C28.352 9.62 27.512 9.86 26.752 10.34C25.992 10.8 25.392 11.44 24.952 12.26C24.512 13.06 24.292 14.01 24.292 15.11C24.292 16.17 24.512 17.11 24.952 17.93C25.392 18.75 25.992 19.39 26.752 19.85C27.512 20.31 28.352 20.54 29.272 20.54C30.192 20.54 31.022 20.31 31.762 19.85C32.522 19.39 33.122 18.75 33.562 17.93C34.002 17.11 34.222 16.17 34.222 15.11ZM48.5376 6.95C50.0176 6.95 51.1576 7.32 51.9576 8.06C52.7576 8.78 53.2876 9.76 53.5476 11L53.0676 10.85L53.2776 10.37C53.5376 9.85 53.9276 9.33 54.4476 8.81C54.9876 8.27 55.6276 7.83 56.3676 7.49C57.1076 7.13 57.8976 6.95 58.7376 6.95C60.1176 6.95 61.1876 7.25 61.9476 7.85C62.7076 8.43 63.2376 9.22 63.5376 10.22C63.8376 11.2 63.9876 12.3 63.9876 13.52V21.47C63.9876 21.91 63.8476 22.28 63.5676 22.58C63.2876 22.86 62.9276 23 62.4876 23C62.0676 23 61.7076 22.86 61.4076 22.58C61.1276 22.28 60.9876 21.91 60.9876 21.47V13.55C60.9876 12.85 60.8876 12.21 60.6876 11.63C60.5076 11.05 60.1776 10.59 59.6976 10.25C59.2376 9.89 58.5976 9.71 57.7776 9.71C56.9976 9.71 56.2976 9.89 55.6776 10.25C55.0776 10.59 54.6076 11.05 54.2676 11.63C53.9276 12.21 53.7576 12.85 53.7576 13.55V21.47C53.7576 21.91 53.6176 22.28 53.3376 22.58C53.0576 22.86 52.6976 23 52.2576 23C51.8176 23 51.4576 22.86 51.1776 22.58C50.8976 22.28 50.7576 21.91 50.7576 21.47V13.52C50.7576 12.82 50.6576 12.18 50.4576 11.6C50.2776 11.02 49.9576 10.56 49.4976 10.22C49.0376 9.88 48.3976 9.71 47.5776 9.71C46.7976 9.71 46.1076 9.88 45.5076 10.22C44.9076 10.56 44.4376 11.02 44.0976 11.6C43.7776 12.18 43.6176 12.82 43.6176 13.52V21.47C43.6176 21.91 43.4676 22.28 43.1676 22.58C42.8876 22.86 42.5376 23 42.1176 23C41.6776 23 41.3176 22.86 41.0376 22.58C40.7576 22.28 40.6176 21.91 40.6176 21.47V8.75C40.6176 8.31 40.7576 7.95 41.0376 7.67C41.3176 7.37 41.6776 7.22 42.1176 7.22C42.5376 7.22 42.8876 7.37 43.1676 7.67C43.4676 7.95 43.6176 8.31 43.6176 8.75V10.52L43.0476 10.85C43.1876 10.41 43.4176 9.96 43.7376 9.5C44.0576 9.04 44.4576 8.62 44.9376 8.24C45.4376 7.86 45.9876 7.55 46.5876 7.31C47.1876 7.07 47.8376 6.95 48.5376 6.95ZM76.1359 6.86C77.5359 6.86 78.7759 7.21 79.8559 7.91C80.9559 8.61 81.8259 9.58 82.4659 10.82C83.1059 12.04 83.4259 13.45 83.4259 15.05C83.4259 16.65 83.1059 18.07 82.4659 19.31C81.8259 20.55 80.9659 21.53 79.8859 22.25C78.8059 22.95 77.5859 23.3 76.2259 23.3C75.4659 23.3 74.7459 23.18 74.0659 22.94C73.3859 22.68 72.7859 22.36 72.2659 21.98C71.7459 21.58 71.3159 21.16 70.9759 20.72C70.6559 20.28 70.4559 19.87 70.3759 19.49L71.1859 19.1V21.71C71.1859 22.13 71.0359 22.49 70.7359 22.79C70.4559 23.07 70.1059 23.21 69.6859 23.21C69.2459 23.21 68.8859 23.07 68.6059 22.79C68.3259 22.51 68.1859 22.15 68.1859 21.71V2.33C68.1859 1.89 68.3259 1.53 68.6059 1.25C68.8859 0.95 69.2459 0.8 69.6859 0.8C70.1059 0.8 70.4559 0.95 70.7359 1.25C71.0359 1.53 71.1859 1.89 71.1859 2.33V10.76L70.7059 10.49C70.7659 10.11 70.9559 9.72 71.2759 9.32C71.5959 8.9 71.9959 8.5 72.4759 8.12C72.9759 7.74 73.5359 7.44 74.1559 7.22C74.7959 6.98 75.4559 6.86 76.1359 6.86ZM75.8059 9.62C74.8459 9.62 74.0059 9.86 73.2859 10.34C72.5859 10.82 72.0359 11.47 71.6359 12.29C71.2359 13.09 71.0359 14.01 71.0359 15.05C71.0359 16.09 71.2359 17.03 71.6359 17.87C72.0359 18.69 72.5859 19.34 73.2859 19.82C74.0059 20.3 74.8459 20.54 75.8059 20.54C76.7459 20.54 77.5659 20.3 78.2659 19.82C78.9659 19.34 79.5159 18.68 79.9159 17.84C80.3359 17 80.5459 16.07 80.5459 15.05C80.5459 14.01 80.3359 13.09 79.9159 12.29C79.5159 11.47 78.9659 10.82 78.2659 10.34C77.5659 9.86 76.7459 9.62 75.8059 9.62ZM88.3188 23C87.8788 23 87.5188 22.86 87.2388 22.58C86.9588 22.28 86.8188 21.91 86.8188 21.47V8.75C86.8188 8.31 86.9588 7.95 87.2388 7.67C87.5188 7.37 87.8788 7.22 88.3188 7.22C88.7388 7.22 89.0888 7.37 89.3688 7.67C89.6688 7.95 89.8188 8.31 89.8188 8.75V12.11L89.5188 10.82C89.6788 10.26 89.9188 9.74 90.2388 9.26C90.5788 8.78 90.9788 8.36 91.4388 8C91.8988 7.64 92.4088 7.36 92.9688 7.16C93.5488 6.96 94.1488 6.86 94.7688 6.86C95.2888 6.86 95.7388 7 96.1188 7.28C96.4988 7.56 96.6888 7.91 96.6888 8.33C96.6888 8.87 96.5488 9.27 96.2688 9.53C95.9888 9.77 95.6788 9.89 95.3388 9.89C95.0388 9.89 94.7488 9.83 94.4688 9.71C94.1888 9.57 93.8588 9.5 93.4788 9.5C93.0588 9.5 92.6288 9.61 92.1888 9.83C91.7488 10.05 91.3488 10.38 90.9888 10.82C90.6288 11.24 90.3388 11.74 90.1188 12.32C89.9188 12.9 89.8188 13.55 89.8188 14.27V21.47C89.8188 21.91 89.6688 22.28 89.3688 22.58C89.0888 22.86 88.7388 23 88.3188 23ZM106.034 23.3C104.374 23.3 102.934 22.96 101.714 22.28C100.494 21.58 99.544 20.63 98.864 19.43C98.204 18.21 97.874 16.82 97.874 15.26C97.874 13.5 98.224 12 98.924 10.76C99.644 9.5 100.574 8.54 101.714 7.88C102.854 7.2 104.064 6.86 105.344 6.86C106.324 6.86 107.254 7.06 108.134 7.46C109.014 7.84 109.794 8.38 110.474 9.08C111.174 9.76 111.724 10.57 112.124 11.51C112.524 12.43 112.734 13.44 112.754 14.54C112.734 14.94 112.574 15.27 112.274 15.53C111.974 15.79 111.624 15.92 111.224 15.92H99.554L98.834 13.37H110.114L109.544 13.91V13.16C109.504 12.46 109.274 11.85 108.854 11.33C108.434 10.79 107.914 10.38 107.294 10.1C106.674 9.8 106.024 9.65 105.344 9.65C104.744 9.65 104.164 9.75 103.604 9.95C103.064 10.13 102.574 10.43 102.134 10.85C101.714 11.27 101.374 11.83 101.114 12.53C100.874 13.21 100.754 14.06 100.754 15.08C100.754 16.18 100.984 17.14 101.444 17.96C101.904 18.78 102.524 19.42 103.304 19.88C104.084 20.32 104.944 20.54 105.884 20.54C106.624 20.54 107.234 20.47 107.714 20.33C108.194 20.17 108.594 19.98 108.914 19.76C109.234 19.54 109.514 19.33 109.754 19.13C110.054 18.95 110.354 18.86 110.654 18.86C111.014 18.86 111.314 18.99 111.554 19.25C111.794 19.49 111.914 19.78 111.914 20.12C111.914 20.56 111.694 20.96 111.254 21.32C110.714 21.84 109.964 22.3 109.004 22.7C108.064 23.1 107.074 23.3 106.034 23.3ZM129.192 6.98C129.632 6.98 129.992 7.13 130.272 7.43C130.552 7.71 130.692 8.07 130.692 8.51V21.47C130.692 21.91 130.552 22.28 130.272 22.58C129.992 22.86 129.632 23 129.192 23C128.772 23 128.412 22.86 128.112 22.58C127.832 22.28 127.692 21.91 127.692 21.47V19.31L128.322 19.4C128.322 19.76 128.172 20.16 127.872 20.6C127.592 21.04 127.202 21.47 126.702 21.89C126.202 22.29 125.612 22.63 124.932 22.91C124.252 23.17 123.522 23.3 122.742 23.3C121.362 23.3 120.122 22.95 119.022 22.25C117.922 21.53 117.052 20.55 116.412 19.31C115.772 18.07 115.452 16.66 115.452 15.08C115.452 13.46 115.772 12.04 116.412 10.82C117.052 9.58 117.912 8.61 118.992 7.91C120.092 7.21 121.312 6.86 122.652 6.86C123.512 6.86 124.302 7 125.022 7.28C125.762 7.56 126.402 7.92 126.942 8.36C127.482 8.8 127.892 9.27 128.172 9.77C128.472 10.25 128.622 10.71 128.622 11.15L127.692 11.24V8.51C127.692 8.09 127.832 7.73 128.112 7.43C128.412 7.13 128.772 6.98 129.192 6.98ZM123.072 20.54C124.012 20.54 124.842 20.3 125.562 19.82C126.282 19.34 126.842 18.69 127.242 17.87C127.642 17.03 127.842 16.1 127.842 15.08C127.842 14.04 127.642 13.11 127.242 12.29C126.842 11.47 126.282 10.82 125.562 10.34C124.842 9.86 124.012 9.62 123.072 9.62C122.152 9.62 121.332 9.86 120.612 10.34C119.912 10.82 119.352 11.47 118.932 12.29C118.532 13.11 118.332 14.04 118.332 15.08C118.332 16.1 118.532 17.03 118.932 17.87C119.352 18.69 119.912 19.34 120.612 19.82C121.332 20.3 122.152 20.54 123.072 20.54ZM142.845 6.95C144.245 6.95 145.485 7.3 146.565 8C147.665 8.7 148.535 9.66 149.175 10.88C149.815 12.08 150.135 13.48 150.135 15.08C150.135 16.68 149.815 18.1 149.175 19.34C148.535 20.56 147.675 21.52 146.595 22.22C145.515 22.92 144.295 23.27 142.935 23.27C142.175 23.27 141.455 23.15 140.775 22.91C140.095 22.67 139.495 22.36 138.975 21.98C138.455 21.58 138.025 21.16 137.685 20.72C137.365 20.28 137.165 19.87 137.085 19.49L137.895 19.1V27.47C137.895 27.91 137.745 28.27 137.445 28.55C137.165 28.85 136.815 29 136.395 29C135.955 29 135.595 28.85 135.315 28.55C135.035 28.27 134.895 27.91 134.895 27.47V8.69C134.895 8.27 135.035 7.91 135.315 7.61C135.595 7.31 135.955 7.16 136.395 7.16C136.815 7.16 137.165 7.31 137.445 7.61C137.745 7.91 137.895 8.27 137.895 8.69V10.76L137.415 10.49C137.475 10.11 137.665 9.72 137.985 9.32C138.305 8.9 138.705 8.51 139.185 8.15C139.685 7.79 140.245 7.5 140.865 7.28C141.505 7.06 142.165 6.95 142.845 6.95ZM142.515 9.71C141.555 9.71 140.715 9.95 139.995 10.43C139.295 10.89 138.745 11.52 138.345 12.32C137.945 13.12 137.745 14.04 137.745 15.08C137.745 16.1 137.945 17.03 138.345 17.87C138.745 18.69 139.295 19.34 139.995 19.82C140.715 20.28 141.555 20.51 142.515 20.51C143.455 20.51 144.275 20.28 144.975 19.82C145.675 19.34 146.225 18.69 146.625 17.87C147.045 17.03 147.255 16.1 147.255 15.08C147.255 14.06 147.045 13.15 146.625 12.35C146.225 11.53 145.675 10.89 144.975 10.43C144.275 9.95 143.455 9.71 142.515 9.71ZM161.478 6.95C162.878 6.95 164.118 7.3 165.198 8C166.298 8.7 167.168 9.66 167.808 10.88C168.448 12.08 168.768 13.48 168.768 15.08C168.768 16.68 168.448 18.1 167.808 19.34C167.168 20.56 166.308 21.52 165.228 22.22C164.148 22.92 162.928 23.27 161.568 23.27C160.808 23.27 160.088 23.15 159.408 22.91C158.728 22.67 158.128 22.36 157.608 21.98C157.088 21.58 156.658 21.16 156.318 20.72C155.998 20.28 155.798 19.87 155.718 19.49L156.528 19.1V27.47C156.528 27.91 156.378 28.27 156.078 28.55C155.798 28.85 155.448 29 155.028 29C154.588 29 154.228 28.85 153.948 28.55C153.668 28.27 153.528 27.91 153.528 27.47V8.69C153.528 8.27 153.668 7.91 153.948 7.61C154.228 7.31 154.588 7.16 155.028 7.16C155.448 7.16 155.798 7.31 156.078 7.61C156.378 7.91 156.528 8.27 156.528 8.69V10.76L156.048 10.49C156.108 10.11 156.298 9.72 156.618 9.32C156.938 8.9 157.338 8.51 157.818 8.15C158.318 7.79 158.878 7.5 159.498 7.28C160.138 7.06 160.798 6.95 161.478 6.95ZM161.148 9.71C160.188 9.71 159.348 9.95 158.628 10.43C157.928 10.89 157.378 11.52 156.978 12.32C156.578 13.12 156.378 14.04 156.378 15.08C156.378 16.1 156.578 17.03 156.978 17.87C157.378 18.69 157.928 19.34 158.628 19.82C159.348 20.28 160.188 20.51 161.148 20.51C162.088 20.51 162.908 20.28 163.608 19.82C164.308 19.34 164.858 18.69 165.258 17.87C165.678 17.03 165.888 16.1 165.888 15.08C165.888 14.06 165.678 13.15 165.258 12.35C164.858 11.53 164.308 10.89 163.608 10.43C162.908 9.95 162.088 9.71 161.148 9.71Z" fill="#72B8FF"/>
</svg>
