<svg width="158" height="28" viewBox="0 0 158 28" fill="none" xmlns="http://www.w3.org/2000/svg">
<path d="M15.16 0.969999C15.68 0.969999 16.1 1.15 16.42 1.51C16.74 1.85 16.9 2.28 16.9 2.8V13.66C16.9 15.32 16.54 16.79 15.82 18.07C15.12 19.35 14.15 20.35 12.91 21.07C11.67 21.79 10.23 22.15 8.59 22.15C6.95 22.15 5.5 21.79 4.24 21.07C3 20.35 2.02 19.35 1.3 18.07C0.6 16.79 0.25 15.32 0.25 13.66V2.8C0.25 2.28 0.43 1.85 0.79 1.51C1.15 1.15 1.61 0.969999 2.17 0.969999C2.63 0.969999 3.04 1.15 3.4 1.51C3.78 1.85 3.97 2.28 3.97 2.8V13.66C3.97 14.66 4.18 15.53 4.6 16.27C5.04 16.99 5.61 17.55 6.31 17.95C7.03 18.35 7.79 18.55 8.59 18.55C9.45 18.55 10.25 18.35 10.99 17.95C11.73 17.55 12.33 16.99 12.79 16.27C13.25 15.53 13.48 14.66 13.48 13.66V2.8C13.48 2.28 13.63 1.85 13.93 1.51C14.23 1.15 14.64 0.969999 15.16 0.969999ZM22.2423 14.23C21.8223 14.23 21.4623 14.09 21.1623 13.81C20.8823 13.51 20.7423 13.15 20.7423 12.73C20.7423 12.29 20.8823 11.94 21.1623 11.68C21.4623 11.4 21.8223 11.26 22.2423 11.26H27.8823C28.3023 11.26 28.6623 11.41 28.9623 11.71C29.2623 11.99 29.4123 12.35 29.4123 12.79C29.4123 13.19 29.2623 13.53 28.9623 13.81C28.6623 14.09 28.3023 14.23 27.8823 14.23H22.2423ZM41.879 0.999999C42.919 0.999999 43.889 1.3 44.789 1.9C45.709 2.5 46.449 3.31 47.009 4.33C47.569 5.35 47.849 6.49 47.849 7.75C47.849 8.99 47.569 10.12 47.009 11.14C46.449 12.16 45.709 12.98 44.789 13.6C43.889 14.2 42.919 14.5 41.879 14.5H36.359L36.659 13.96V20.17C36.659 20.69 36.499 21.13 36.179 21.49C35.859 21.83 35.439 22 34.919 22C34.419 22 34.009 21.83 33.689 21.49C33.369 21.13 33.209 20.69 33.209 20.17V2.83C33.209 2.31 33.379 1.88 33.719 1.54C34.079 1.18 34.519 0.999999 35.039 0.999999H41.879ZM41.879 11.08C42.259 11.08 42.629 10.92 42.989 10.6C43.349 10.28 43.649 9.87 43.889 9.37C44.129 8.85 44.249 8.31 44.249 7.75C44.249 7.17 44.129 6.63 43.889 6.13C43.649 5.63 43.349 5.23 42.989 4.93C42.629 4.61 42.259 4.45 41.879 4.45H36.299L36.659 3.91V11.56L36.329 11.08H41.879ZM52.7852 22C52.2652 22 51.8352 21.83 51.4952 21.49C51.1552 21.13 50.9852 20.69 50.9852 20.17V7.78C50.9852 7.26 51.1552 6.83 51.4952 6.49C51.8352 6.13 52.2652 5.95 52.7852 5.95C53.3052 5.95 53.7352 6.13 54.0752 6.49C54.4152 6.83 54.5852 7.26 54.5852 7.78V10.6L54.3752 8.59C54.5952 8.11 54.8752 7.69 55.2152 7.33C55.5752 6.95 55.9752 6.64 56.4152 6.4C56.8552 6.14 57.3252 5.95 57.8252 5.83C58.3252 5.71 58.8252 5.65 59.3252 5.65C59.9252 5.65 60.4252 5.82 60.8252 6.16C61.2452 6.5 61.4552 6.9 61.4552 7.36C61.4552 8.02 61.2852 8.5 60.9452 8.8C60.6052 9.08 60.2352 9.22 59.8352 9.22C59.4552 9.22 59.1052 9.15 58.7852 9.01C58.4852 8.87 58.1352 8.8 57.7352 8.8C57.3752 8.8 57.0052 8.89 56.6252 9.07C56.2652 9.23 55.9252 9.49 55.6052 9.85C55.3052 10.21 55.0552 10.66 54.8552 11.2C54.6752 11.72 54.5852 12.34 54.5852 13.06V20.17C54.5852 20.69 54.4152 21.13 54.0752 21.49C53.7352 21.83 53.3052 22 52.7852 22ZM78.8891 13.99C78.8891 15.63 78.5191 17.08 77.7791 18.34C77.0591 19.58 76.0791 20.55 74.8391 21.25C73.6191 21.95 72.2491 22.3 70.7291 22.3C69.2091 22.3 67.8291 21.95 66.5891 21.25C65.3691 20.55 64.3891 19.58 63.6491 18.34C62.9291 17.08 62.5691 15.63 62.5691 13.99C62.5691 12.35 62.9291 10.91 63.6491 9.67C64.3891 8.41 65.3691 7.43 66.5891 6.73C67.8291 6.01 69.2091 5.65 70.7291 5.65C72.2491 5.65 73.6191 6.01 74.8391 6.73C76.0791 7.43 77.0591 8.41 77.7791 9.67C78.5191 10.91 78.8891 12.35 78.8891 13.99ZM75.2891 13.99C75.2891 12.97 75.0791 12.09 74.6591 11.35C74.2591 10.59 73.7091 10 73.0091 9.58C72.3291 9.16 71.5691 8.95 70.7291 8.95C69.8891 8.95 69.1191 9.16 68.4191 9.58C67.7391 10 67.1891 10.59 66.7691 11.35C66.3691 12.09 66.1691 12.97 66.1691 13.99C66.1691 14.99 66.3691 15.87 66.7691 16.63C67.1891 17.37 67.7391 17.95 68.4191 18.37C69.1191 18.79 69.8891 19 70.7291 19C71.5691 19 72.3291 18.79 73.0091 18.37C73.7091 17.95 74.2591 17.37 74.6591 16.63C75.0791 15.87 75.2891 14.99 75.2891 13.99ZM88.6998 5.65C89.5398 5.65 90.3098 5.78 91.0098 6.04C91.7098 6.3 92.3098 6.63 92.8098 7.03C93.3298 7.43 93.7298 7.84 94.0098 8.26C94.3098 8.66 94.4598 9 94.4598 9.28L93.6798 9.67V7.48C93.6798 6.96 93.8498 6.53 94.1898 6.19C94.5298 5.83 94.9598 5.65 95.4798 5.65C95.9998 5.65 96.4298 5.82 96.7698 6.16C97.1098 6.5 97.2798 6.94 97.2798 7.48V20.83C97.2798 22.57 96.8998 23.96 96.1398 25C95.3998 26.06 94.4198 26.82 93.1998 27.28C91.9798 27.76 90.6698 28 89.2698 28C88.8698 28 88.3498 27.95 87.7098 27.85C87.0698 27.75 86.4598 27.63 85.8798 27.49C85.2998 27.35 84.8598 27.22 84.5598 27.1C83.9598 26.84 83.5398 26.51 83.2998 26.11C83.0798 25.73 83.0398 25.32 83.1798 24.88C83.3598 24.3 83.6498 23.9 84.0498 23.68C84.4498 23.48 84.8698 23.46 85.3098 23.62C85.5098 23.68 85.8398 23.8 86.2998 23.98C86.7598 24.16 87.2598 24.32 87.7998 24.46C88.3598 24.62 88.8498 24.7 89.2698 24.7C90.7698 24.7 91.8798 24.4 92.5998 23.8C93.3198 23.2 93.6798 22.37 93.6798 21.31V18.7L94.0398 18.97C94.0398 19.23 93.8998 19.55 93.6198 19.93C93.3598 20.29 92.9898 20.65 92.5098 21.01C92.0498 21.37 91.4998 21.68 90.8598 21.94C90.2198 22.18 89.5398 22.3 88.8198 22.3C87.3998 22.3 86.1198 21.95 84.9798 21.25C83.8398 20.53 82.9398 19.55 82.2798 18.31C81.6198 17.05 81.2898 15.61 81.2898 13.99C81.2898 12.35 81.6198 10.91 82.2798 9.67C82.9398 8.41 83.8298 7.43 84.9498 6.73C86.0698 6.01 87.3198 5.65 88.6998 5.65ZM89.2698 8.95C88.3698 8.95 87.5798 9.17 86.8998 9.61C86.2198 10.05 85.6898 10.65 85.3098 11.41C84.9298 12.17 84.7398 13.03 84.7398 13.99C84.7398 14.93 84.9298 15.78 85.3098 16.54C85.6898 17.3 86.2198 17.9 86.8998 18.34C87.5798 18.78 88.3698 19 89.2698 19C90.1898 19 90.9898 18.78 91.6698 18.34C92.3498 17.9 92.8798 17.3 93.2598 16.54C93.6398 15.78 93.8298 14.93 93.8298 13.99C93.8298 13.03 93.6398 12.17 93.2598 11.41C92.8798 10.65 92.3498 10.05 91.6698 9.61C90.9898 9.17 90.1898 8.95 89.2698 8.95ZM102.971 22C102.451 22 102.021 21.83 101.681 21.49C101.341 21.13 101.171 20.69 101.171 20.17V7.78C101.171 7.26 101.341 6.83 101.681 6.49C102.021 6.13 102.451 5.95 102.971 5.95C103.491 5.95 103.921 6.13 104.261 6.49C104.601 6.83 104.771 7.26 104.771 7.78V10.6L104.561 8.59C104.781 8.11 105.061 7.69 105.401 7.33C105.761 6.95 106.161 6.64 106.601 6.4C107.041 6.14 107.511 5.95 108.011 5.83C108.511 5.71 109.011 5.65 109.511 5.65C110.111 5.65 110.611 5.82 111.011 6.16C111.431 6.5 111.641 6.9 111.641 7.36C111.641 8.02 111.471 8.5 111.131 8.8C110.791 9.08 110.421 9.22 110.021 9.22C109.641 9.22 109.291 9.15 108.971 9.01C108.671 8.87 108.321 8.8 107.921 8.8C107.561 8.8 107.191 8.89 106.811 9.07C106.451 9.23 106.111 9.49 105.791 9.85C105.491 10.21 105.241 10.66 105.041 11.2C104.861 11.72 104.771 12.34 104.771 13.06V20.17C104.771 20.69 104.601 21.13 104.261 21.49C103.921 21.83 103.491 22 102.971 22ZM121.065 22.3C119.365 22.3 117.885 21.95 116.625 21.25C115.385 20.53 114.425 19.56 113.745 18.34C113.085 17.12 112.755 15.74 112.755 14.2C112.755 12.4 113.115 10.87 113.835 9.61C114.575 8.33 115.535 7.35 116.715 6.67C117.895 5.99 119.145 5.65 120.465 5.65C121.485 5.65 122.445 5.86 123.345 6.28C124.265 6.7 125.075 7.28 125.775 8.02C126.475 8.74 127.025 9.58 127.425 10.54C127.845 11.5 128.055 12.52 128.055 13.6C128.035 14.08 127.845 14.47 127.485 14.77C127.125 15.07 126.705 15.22 126.225 15.22H114.765L113.865 12.22H124.875L124.215 12.82V12.01C124.175 11.43 123.965 10.91 123.585 10.45C123.225 9.99 122.765 9.63 122.205 9.37C121.665 9.09 121.085 8.95 120.465 8.95C119.865 8.95 119.305 9.03 118.785 9.19C118.265 9.35 117.815 9.62 117.435 10C117.055 10.38 116.755 10.89 116.535 11.53C116.315 12.17 116.205 12.98 116.205 13.96C116.205 15.04 116.425 15.96 116.865 16.72C117.325 17.46 117.905 18.03 118.605 18.43C119.325 18.81 120.085 19 120.885 19C121.625 19 122.215 18.94 122.655 18.82C123.095 18.7 123.445 18.56 123.705 18.4C123.985 18.22 124.235 18.07 124.455 17.95C124.815 17.77 125.155 17.68 125.475 17.68C125.915 17.68 126.275 17.83 126.555 18.13C126.855 18.43 127.005 18.78 127.005 19.18C127.005 19.72 126.725 20.21 126.165 20.65C125.645 21.09 124.915 21.48 123.975 21.82C123.035 22.14 122.065 22.3 121.065 22.3ZM130.27 19.51C130.07 19.23 129.98 18.87 130 18.43C130.02 17.99 130.28 17.61 130.78 17.29C131.1 17.09 131.44 17.01 131.8 17.05C132.16 17.07 132.51 17.25 132.85 17.59C133.43 18.17 134.04 18.62 134.68 18.94C135.32 19.26 136.12 19.42 137.08 19.42C137.38 19.4 137.71 19.36 138.07 19.3C138.43 19.22 138.74 19.06 139 18.82C139.28 18.56 139.42 18.17 139.42 17.65C139.42 17.21 139.27 16.86 138.97 16.6C138.67 16.34 138.27 16.12 137.77 15.94C137.29 15.76 136.75 15.59 136.15 15.43C135.53 15.25 134.89 15.05 134.23 14.83C133.59 14.61 133 14.33 132.46 13.99C131.92 13.63 131.48 13.16 131.14 12.58C130.8 12 130.63 11.27 130.63 10.39C130.63 9.39 130.91 8.54 131.47 7.84C132.03 7.14 132.75 6.6 133.63 6.22C134.53 5.84 135.47 5.65 136.45 5.65C137.07 5.65 137.72 5.73 138.4 5.89C139.08 6.03 139.73 6.27 140.35 6.61C140.97 6.93 141.49 7.36 141.91 7.9C142.13 8.2 142.26 8.56 142.3 8.98C142.34 9.4 142.15 9.78 141.73 10.12C141.43 10.36 141.08 10.47 140.68 10.45C140.28 10.41 139.95 10.27 139.69 10.03C139.35 9.59 138.89 9.24 138.31 8.98C137.75 8.72 137.1 8.59 136.36 8.59C136.06 8.59 135.73 8.63 135.37 8.71C135.03 8.77 134.73 8.92 134.47 9.16C134.21 9.38 134.08 9.74 134.08 10.24C134.08 10.7 134.23 11.07 134.53 11.35C134.83 11.61 135.23 11.83 135.73 12.01C136.25 12.17 136.8 12.33 137.38 12.49C137.98 12.65 138.59 12.84 139.21 13.06C139.83 13.28 140.4 13.57 140.92 13.93C141.44 14.29 141.86 14.76 142.18 15.34C142.5 15.9 142.66 16.62 142.66 17.5C142.66 18.52 142.36 19.39 141.76 20.11C141.16 20.83 140.41 21.38 139.51 21.76C138.61 22.12 137.69 22.3 136.75 22.3C135.57 22.3 134.39 22.1 133.21 21.7C132.03 21.28 131.05 20.55 130.27 19.51ZM144.743 19.51C144.543 19.23 144.453 18.87 144.473 18.43C144.493 17.99 144.753 17.61 145.253 17.29C145.573 17.09 145.913 17.01 146.273 17.05C146.633 17.07 146.983 17.25 147.323 17.59C147.903 18.17 148.513 18.62 149.153 18.94C149.793 19.26 150.593 19.42 151.553 19.42C151.853 19.4 152.183 19.36 152.543 19.3C152.903 19.22 153.213 19.06 153.473 18.82C153.753 18.56 153.893 18.17 153.893 17.65C153.893 17.21 153.743 16.86 153.443 16.6C153.143 16.34 152.743 16.12 152.243 15.94C151.763 15.76 151.223 15.59 150.623 15.43C150.003 15.25 149.363 15.05 148.703 14.83C148.063 14.61 147.473 14.33 146.933 13.99C146.393 13.63 145.953 13.16 145.613 12.58C145.273 12 145.103 11.27 145.103 10.39C145.103 9.39 145.383 8.54 145.943 7.84C146.503 7.14 147.223 6.6 148.103 6.22C149.003 5.84 149.943 5.65 150.923 5.65C151.543 5.65 152.193 5.73 152.873 5.89C153.553 6.03 154.203 6.27 154.823 6.61C155.443 6.93 155.963 7.36 156.383 7.9C156.603 8.2 156.733 8.56 156.773 8.98C156.813 9.4 156.623 9.78 156.203 10.12C155.903 10.36 155.553 10.47 155.153 10.45C154.753 10.41 154.423 10.27 154.163 10.03C153.823 9.59 153.363 9.24 152.783 8.98C152.223 8.72 151.573 8.59 150.833 8.59C150.533 8.59 150.203 8.63 149.843 8.71C149.503 8.77 149.203 8.92 148.943 9.16C148.683 9.38 148.553 9.74 148.553 10.24C148.553 10.7 148.703 11.07 149.003 11.35C149.303 11.61 149.703 11.83 150.203 12.01C150.723 12.17 151.273 12.33 151.853 12.49C152.453 12.65 153.063 12.84 153.683 13.06C154.303 13.28 154.873 13.57 155.393 13.93C155.913 14.29 156.333 14.76 156.653 15.34C156.973 15.9 157.133 16.62 157.133 17.5C157.133 18.52 156.833 19.39 156.233 20.11C155.633 20.83 154.883 21.38 153.983 21.76C153.083 22.12 152.163 22.3 151.223 22.3C150.043 22.3 148.863 22.1 147.683 21.7C146.503 21.28 145.523 20.55 144.743 19.51Z" fill="#72B8FF"/>
</svg>
