<svg width="30" height="30" viewBox="0 0 30 30" fill="none" xmlns="http://www.w3.org/2000/svg">
<g clip-path="url(#clip0_615_2826)">
<path d="M24.9362 6.921L20.5813 2.56351C19.7704 1.74868 18.8061 1.10267 17.744 0.662829C16.682 0.22299 15.5433 -0.00195328 14.3938 0.00100537H8.75C7.09301 0.0029902 5.50445 0.662108 4.33277 1.83378C3.1611 3.00545 2.50198 4.59401 2.5 6.25101V23.751C2.50198 25.408 3.1611 26.9966 4.33277 28.1682C5.50445 29.3399 7.09301 29.999 8.75 30.001H21.25C22.907 29.999 24.4956 29.3399 25.6672 28.1682C26.8389 26.9966 27.498 25.408 27.5 23.751V13.1073C27.5031 11.9578 27.2781 10.8191 26.838 9.75722C26.398 8.69533 25.7515 7.73131 24.9362 6.921V6.921ZM23.1687 8.6885C23.5504 9.08119 23.8787 9.52249 24.145 10.001H18.75C18.4185 10.001 18.1005 9.86931 17.8661 9.63489C17.6317 9.40047 17.5 9.08253 17.5 8.75101V3.35601C17.9787 3.62216 18.4204 3.94996 18.8137 4.33101L23.1687 8.6885ZM25 23.751C25 24.7456 24.6049 25.6994 23.9017 26.4027C23.1984 27.1059 22.2446 27.501 21.25 27.501H8.75C7.75544 27.501 6.80161 27.1059 6.09835 26.4027C5.39509 25.6994 5 24.7456 5 23.751V6.25101C5 5.25644 5.39509 4.30262 6.09835 3.59936C6.80161 2.89609 7.75544 2.50101 8.75 2.50101H14.3938C14.5988 2.50101 14.7975 2.54101 15 2.55976V8.75101C15 9.74557 15.3951 10.6994 16.0983 11.4027C16.8016 12.1059 17.7554 12.501 18.75 12.501H24.9412C24.96 12.7035 25 12.901 25 13.1073V23.751Z" fill="#72B8FF"/>
</g>
<defs>
<clipPath id="clip0_615_2826">
<rect width="30" height="30" fill="white"/>
</clipPath>
</defs>
</svg>
