<svg width="112" height="112" viewBox="0 0 112 112" fill="none" xmlns="http://www.w3.org/2000/svg">
<path d="M56 5.9939e-07C86.9279 9.30424e-07 112 25.0721 112 56C112 86.9279 86.9279 112 56 112C25.0721 112 2.68356e-07 86.9279 5.9939e-07 56C9.30424e-07 25.0721 25.0721 2.68356e-07 56 5.9939e-07ZM56 103.347C82.1491 103.347 103.347 82.1492 103.347 56C103.347 29.8509 82.1491 8.65277 56 8.65277C29.8509 8.65277 8.65278 29.8509 8.65278 56C8.65278 82.1492 29.8508 103.347 56 103.347Z" fill="#EDF2FF"/>
<path d="M56 5.9939e-07C68.1268 7.29188e-07 79.9259 3.93649 89.6235 11.2177C99.3211 18.4988 106.393 28.7312 109.776 40.3765C113.16 52.0218 112.671 64.4507 108.385 75.7946C104.098 87.1385 96.2453 96.7845 86.0063 103.282L81.3699 95.9766C90.0268 90.4827 96.6665 82.3272 100.291 72.7361C103.915 63.1449 104.328 52.6365 101.467 42.7906C98.6067 32.9446 92.6274 24.2933 84.4282 18.1372C76.229 11.981 66.253 8.65277 56 8.65277L56 5.9939e-07Z" fill="#72B8FF"/>
<path d="M26.61 63.68V60.67L38.37 43.8H43.2V60.215H46.455V63.68H43.2V69H39.28V63.68H26.61ZM39.455 47.86L31.195 60.215H39.455V47.86ZM49.2361 47.125V43.485H56.5161V69H52.4911V47.125H49.2361ZM61.3675 49.645C61.3675 47.9417 61.8575 46.6117 62.8375 45.655C63.8408 44.675 65.1241 44.185 66.6875 44.185C68.2508 44.185 69.5225 44.675 70.5025 45.655C71.5058 46.6117 72.0075 47.9417 72.0075 49.645C72.0075 51.3483 71.5058 52.69 70.5025 53.67C69.5225 54.65 68.2508 55.14 66.6875 55.14C65.1241 55.14 63.8408 54.65 62.8375 53.67C61.8575 52.69 61.3675 51.3483 61.3675 49.645ZM82.7175 44.64L68.7525 69H64.8325L78.7975 44.64H82.7175ZM66.6875 46.6C65.2175 46.6 64.4825 47.615 64.4825 49.645C64.4825 51.6983 65.2175 52.725 66.6875 52.725C67.3875 52.725 67.9241 52.48 68.2975 51.99C68.6941 51.4767 68.8925 50.695 68.8925 49.645C68.8925 47.615 68.1575 46.6 66.6875 46.6ZM75.6125 63.96C75.6125 62.2567 76.1025 60.9267 77.0825 59.97C78.0858 58.99 79.3691 58.5 80.9325 58.5C82.4725 58.5 83.7325 58.99 84.7125 59.97C85.7158 60.9267 86.2175 62.2567 86.2175 63.96C86.2175 65.6633 85.7158 67.005 84.7125 67.985C83.7325 68.965 82.4725 69.455 80.9325 69.455C79.3691 69.455 78.0858 68.965 77.0825 67.985C76.1025 67.005 75.6125 65.6633 75.6125 63.96ZM80.8975 60.915C79.4275 60.915 78.6925 61.93 78.6925 63.96C78.6925 65.99 79.4275 67.005 80.8975 67.005C82.3675 67.005 83.1025 65.99 83.1025 63.96C83.1025 61.93 82.3675 60.915 80.8975 60.915Z" fill="#58A8FA"/>
</svg>
