<svg width="19" height="20" viewBox="0 0 19 20" fill="none" xmlns="http://www.w3.org/2000/svg">
<path d="M16.2244 6.63924L8.67192 0.805903C8.08204 0.351224 7.38405 0.0773986 6.65536 0.0147894C5.92666 -0.0478198 5.19573 0.103234 4.54361 0.451201C3.89149 0.799168 3.34366 1.33045 2.96088 1.98614C2.57809 2.64183 2.37531 3.3963 2.375 4.1659V15.8326C2.37513 16.6025 2.57793 17.3574 2.96089 18.0134C3.34385 18.6693 3.892 19.2008 4.5445 19.5487C5.197 19.8967 5.92832 20.0475 6.65732 19.9845C7.38632 19.9215 8.08447 19.6471 8.67429 19.1917L16.2268 13.3584C16.7281 12.9714 17.1358 12.4655 17.4168 11.8818C17.6978 11.298 17.8443 10.6528 17.8443 9.9984C17.8443 9.34399 17.6978 8.69877 17.4168 8.11502C17.1358 7.53127 16.7281 7.02541 16.2268 6.6384L16.2244 6.63924ZM15.2871 12.0142L7.73458 17.8476C7.38072 18.1198 6.96221 18.2836 6.52537 18.3209C6.08853 18.3582 5.65041 18.2675 5.25949 18.0589C4.86858 17.8503 4.54012 17.5319 4.31047 17.139C4.08082 16.7461 3.95895 16.2939 3.95833 15.8326V4.1659C3.95394 3.70369 4.07352 3.24956 4.30332 2.85567C4.53313 2.46179 4.86384 2.14415 5.25746 1.93924C5.59225 1.75998 5.96247 1.66634 6.33808 1.6659C6.8415 1.66793 7.33101 1.83998 7.73458 2.15674L15.2871 7.99007C15.5875 8.22232 15.8318 8.52574 16.0002 8.87579C16.1685 9.22585 16.2563 9.61271 16.2563 10.0051C16.2563 10.3974 16.1685 10.7843 16.0002 11.1343C15.8318 11.4844 15.5875 11.7878 15.2871 12.0201V12.0142Z" fill="white"/>
</svg>
