<svg width="21" height="21" viewBox="0 0 21 21" fill="none" xmlns="http://www.w3.org/2000/svg">
<rect width="21" height="21" rx="4" fill="#FDB572"/>
<g clip-path="url(#clip0_532_5334)">
<path d="M16.4583 9.95833H11.0417V4.54167C11.0417 4.39801 10.9846 4.26023 10.883 4.15865C10.7814 4.05707 10.6437 4 10.5 4V4C10.3563 4 10.2186 4.05707 10.117 4.15865C10.0154 4.26023 9.95833 4.39801 9.95833 4.54167V9.95833H4.54167C4.39801 9.95833 4.26023 10.0154 4.15865 10.117C4.05707 10.2186 4 10.3563 4 10.5V10.5C4 10.6437 4.05707 10.7814 4.15865 10.883C4.26023 10.9846 4.39801 11.0417 4.54167 11.0417H9.95833V16.4583C9.95833 16.602 10.0154 16.7398 10.117 16.8414C10.2186 16.9429 10.3563 17 10.5 17C10.6437 17 10.7814 16.9429 10.883 16.8414C10.9846 16.7398 11.0417 16.602 11.0417 16.4583V11.0417H16.4583C16.602 11.0417 16.7398 10.9846 16.8414 10.883C16.9429 10.7814 17 10.6437 17 10.5C17 10.3563 16.9429 10.2186 16.8414 10.117C16.7398 10.0154 16.602 9.95833 16.4583 9.95833Z" fill="white"/>
</g>
<defs>
<clipPath id="clip0_532_5334">
<rect width="13" height="13" fill="white" transform="translate(4 4)"/>
</clipPath>
</defs>
</svg>
