<svg width="42" height="42" viewBox="0 0 42 42" fill="none" xmlns="http://www.w3.org/2000/svg">
<g clip-path="url(#clip0_891_8841)">
<path d="M40.25 19.25H22.75V1.75C22.75 1.28587 22.5656 0.840752 22.2374 0.512563C21.9092 0.184374 21.4641 0 21 0V0C20.5359 0 20.0908 0.184374 19.7626 0.512563C19.4344 0.840752 19.25 1.28587 19.25 1.75V19.25H1.75C1.28587 19.25 0.840752 19.4344 0.512563 19.7626C0.184374 20.0908 0 20.5359 0 21H0C0 21.4641 0.184374 21.9092 0.512563 22.2374C0.840752 22.5656 1.28587 22.75 1.75 22.75H19.25V40.25C19.25 40.7141 19.4344 41.1592 19.7626 41.4874C20.0908 41.8156 20.5359 42 21 42C21.4641 42 21.9092 41.8156 22.2374 41.4874C22.5656 41.1592 22.75 40.7141 22.75 40.25V22.75H40.25C40.7141 22.75 41.1592 22.5656 41.4874 22.2374C41.8156 21.9092 42 21.4641 42 21C42 20.5359 41.8156 20.0908 41.4874 19.7626C41.1592 19.4344 40.7141 19.25 40.25 19.25Z" fill="#979DFF"/>
</g>
<defs>
<clipPath id="clip0_891_8841">
<rect width="42" height="42" fill="white"/>
</clipPath>
</defs>
</svg>
