<svg width="13" height="13" viewBox="0 0 13 13" fill="none" xmlns="http://www.w3.org/2000/svg">
<g clip-path="url(#clip0_532_5322)">
<path d="M12.4583 5.95833H7.04167V0.541667C7.04167 0.398008 6.9846 0.260233 6.88302 0.158651C6.78143 0.0570683 6.64366 0 6.5 0V0C6.35634 0 6.21857 0.0570683 6.11698 0.158651C6.0154 0.260233 5.95833 0.398008 5.95833 0.541667V5.95833H0.541667C0.398008 5.95833 0.260233 6.0154 0.158651 6.11698C0.0570683 6.21857 0 6.35634 0 6.5H0C0 6.64366 0.0570683 6.78143 0.158651 6.88302C0.260233 6.9846 0.398008 7.04167 0.541667 7.04167H5.95833V12.4583C5.95833 12.602 6.0154 12.7398 6.11698 12.8414C6.21857 12.9429 6.35634 13 6.5 13C6.64366 13 6.78143 12.9429 6.88302 12.8414C6.9846 12.7398 7.04167 12.602 7.04167 12.4583V7.04167H12.4583C12.602 7.04167 12.7398 6.9846 12.8414 6.88302C12.9429 6.78143 13 6.64366 13 6.5C13 6.35634 12.9429 6.21857 12.8414 6.11698C12.7398 6.0154 12.602 5.95833 12.4583 5.95833Z" fill="white"/>
</g>
<defs>
<clipPath id="clip0_532_5322">
<rect width="13" height="13" fill="white"/>
</clipPath>
</defs>
</svg>
