<svg width="325" height="187" viewBox="0 0 325 187" fill="none" xmlns="http://www.w3.org/2000/svg">
<path d="M275.528 22.2287C269.596 0.0910948 282.686 -22.6098 304.705 -28.5097C326.724 -34.4097 349.41 -21.295 355.342 0.842657C361.274 22.9803 348.184 45.6812 326.165 51.5811C304.146 57.481 281.46 44.3664 275.528 22.2287Z" stroke="#676FF4" stroke-opacity="0.2" stroke-width="16"/>
<path d="M-29.4719 176.229C-35.4036 154.091 -22.3139 131.39 -0.295058 125.49C21.7238 119.59 44.4103 132.705 50.342 154.843C56.2738 176.98 43.1841 199.681 21.1652 205.581C-0.853642 211.481 -23.5401 198.366 -29.4719 176.229Z" stroke="#676FF4" stroke-opacity="0.2" stroke-width="16"/>
<path d="M78.7207 46.1004C78.7207 45.2088 79.4494 44.4801 80.341 44.4801C81.2326 44.4801 81.9613 45.2088 81.9613 46.1004C81.9613 46.992 81.2326 47.7207 80.341 47.7207C79.4494 47.7207 78.7207 47.0006 78.7207 46.1004Z" fill="#676FF4" fill-opacity="0.2"/>
<path d="M62.4805 46.1004C62.4805 45.2088 63.2092 44.4801 64.1008 44.4801C64.9924 44.4801 65.7211 45.2088 65.7211 46.1004C65.7211 46.992 64.9924 47.7207 64.1008 47.7207C63.2006 47.7207 62.4805 47.0006 62.4805 46.1004Z" fill="#676FF4" fill-opacity="0.2"/>
<path d="M78.7207 33.8602C78.7207 32.9686 79.4494 32.2398 80.341 32.2398C81.2326 32.2398 81.9613 32.9686 81.9613 33.8602C81.9613 34.7517 81.2326 35.4805 80.341 35.4805C79.4494 35.4805 78.7207 34.7517 78.7207 33.8602Z" fill="#676FF4" fill-opacity="0.2"/>
<path d="M62.4805 33.8602C62.4805 32.9686 63.2092 32.2398 64.1008 32.2398C64.9924 32.2398 65.7211 32.9686 65.7211 33.8602C65.7211 34.7517 64.9924 35.4805 64.1008 35.4805C63.2006 35.4805 62.4805 34.7517 62.4805 33.8602Z" fill="#676FF4" fill-opacity="0.2"/>
<path d="M78.7207 21.6219C78.7207 20.7303 79.4494 20.0016 80.341 20.0016C81.2326 20.0016 81.9613 20.7303 81.9613 21.6219C81.9613 22.5135 81.2326 23.2422 80.341 23.2422C79.4494 23.2422 78.7207 22.5135 78.7207 21.6219Z" fill="#676FF4" fill-opacity="0.2"/>
<path d="M62.4805 21.6219C62.4805 20.7303 63.2092 20.0016 64.1008 20.0016C64.9924 20.0016 65.7211 20.7303 65.7211 21.6219C65.7211 22.5135 64.9924 23.2422 64.1008 23.2422C63.2006 23.2422 62.4805 22.5135 62.4805 21.6219Z" fill="#676FF4" fill-opacity="0.2"/>
<path d="M46.2402 46.1004C46.2402 45.2088 46.9689 44.4801 47.8605 44.4801C48.7521 44.4801 49.4808 45.2088 49.4808 46.1004C49.4808 46.992 48.7521 47.7207 47.8605 47.7207C46.9689 47.7207 46.2402 47.0006 46.2402 46.1004Z" fill="#676FF4" fill-opacity="0.2"/>
<path d="M30 46.1004C30 45.2088 30.7287 44.4801 31.6203 44.4801C32.5119 44.4801 33.2406 45.2088 33.2406 46.1004C33.2406 46.992 32.5119 47.7207 31.6203 47.7207C30.7287 47.7207 30 47.0006 30 46.1004Z" fill="#676FF4" fill-opacity="0.2"/>
<path d="M46.2402 33.8602C46.2402 32.9686 46.9689 32.2398 47.8605 32.2398C48.7521 32.2398 49.4808 32.9686 49.4808 33.8602C49.4808 34.7517 48.7521 35.4805 47.8605 35.4805C46.9689 35.4805 46.2402 34.7517 46.2402 33.8602Z" fill="#676FF4" fill-opacity="0.2"/>
<path d="M30 33.8602C30 32.9686 30.7287 32.2398 31.6203 32.2398C32.5119 32.2398 33.2406 32.9686 33.2406 33.8602C33.2406 34.7517 32.5119 35.4805 31.6203 35.4805C30.7287 35.4805 30 34.7517 30 33.8602Z" fill="#676FF4" fill-opacity="0.2"/>
<path d="M46.2402 21.6219C46.2402 20.7303 46.9689 20.0016 47.8605 20.0016C48.7521 20.0016 49.4808 20.7303 49.4808 21.6219C49.4808 22.5135 48.7521 23.2422 47.8605 23.2422C46.9689 23.2422 46.2402 22.5135 46.2402 21.6219Z" fill="#676FF4" fill-opacity="0.2"/>
<path d="M30 21.6199C30 20.7283 30.7287 19.9996 31.6203 19.9996C32.5119 19.9996 33.2406 20.7283 33.2406 21.6199C33.2406 22.5115 32.5119 23.2402 31.6203 23.2402C30.7287 23.2402 30 22.5115 30 21.6199Z" fill="#676FF4" fill-opacity="0.2"/>
</svg>
