<svg width="39" height="39" viewBox="0 0 39 39" fill="none" xmlns="http://www.w3.org/2000/svg">
<g clip-path="url(#clip0_1112_6342)">
<path d="M37.8153 15.306C35.2949 11.2012 29.5619 4.31445 19.4999 4.31445C9.4379 4.31445 3.7049 11.2012 1.18453 15.306C0.405383 16.5662 -0.00732422 18.0185 -0.00732422 19.5001C-0.00732422 20.9817 0.405383 22.434 1.18453 23.6942C3.7049 27.799 9.4379 34.6857 19.4999 34.6857C29.5619 34.6857 35.2949 27.799 37.8153 23.6942C38.5944 22.434 39.0071 20.9817 39.0071 19.5001C39.0071 18.0185 38.5944 16.5662 37.8153 15.306V15.306ZM35.0446 21.9928C32.8801 25.5126 27.9808 31.4357 19.4999 31.4357C11.019 31.4357 6.11965 25.5126 3.95515 21.9928C3.49224 21.2438 3.24706 20.3806 3.24706 19.5001C3.24706 18.6195 3.49224 17.7564 3.95515 17.0073C6.11965 13.4876 11.019 7.56445 19.4999 7.56445C27.9808 7.56445 32.8801 13.4811 35.0446 17.0073C35.5076 17.7564 35.7527 18.6195 35.7527 19.5001C35.7527 20.3806 35.5076 21.2438 35.0446 21.9928V21.9928Z" fill="#979DFF"/>
<path d="M19.4995 11.375C17.8925 11.375 16.3217 11.8515 14.9855 12.7443C13.6494 13.6371 12.608 14.906 11.993 16.3907C11.378 17.8753 11.2171 19.509 11.5306 21.0851C11.8441 22.6612 12.618 24.1089 13.7543 25.2452C14.8906 26.3815 16.3383 27.1554 17.9144 27.4689C19.4905 27.7824 21.1242 27.6215 22.6088 27.0065C24.0935 26.3916 25.3624 25.3502 26.2552 24.014C27.148 22.6779 27.6245 21.107 27.6245 19.5C27.6219 17.3459 26.7651 15.2808 25.2419 13.7576C23.7187 12.2344 21.6536 11.3776 19.4995 11.375V11.375ZM19.4995 24.375C18.5353 24.375 17.5928 24.0891 16.7911 23.5534C15.9894 23.0177 15.3646 22.2564 14.9956 21.3656C14.6266 20.4748 14.5301 19.4946 14.7182 18.5489C14.9063 17.6033 15.3706 16.7346 16.0524 16.0529C16.7342 15.3711 17.6028 14.9068 18.5485 14.7187C19.4941 14.5306 20.4743 14.6271 21.3651 14.9961C22.2559 15.3651 23.0173 15.9899 23.5529 16.7916C24.0886 17.5933 24.3745 18.5358 24.3745 19.5C24.3745 20.7929 23.8609 22.0329 22.9467 22.9471C22.0324 23.8614 20.7924 24.375 19.4995 24.375Z" fill="#979DFF"/>
</g>
<defs>
<clipPath id="clip0_1112_6342">
<rect width="39" height="39" fill="white"/>
</clipPath>
</defs>
</svg>
