<svg width="10" height="11" viewBox="0 0 10 11" fill="none" xmlns="http://www.w3.org/2000/svg">
<g clip-path="url(#clip0_749_3681)">
<path d="M4.99975 7.8693C4.72598 7.86983 4.4548 7.81101 4.20171 7.69619C3.94862 7.58137 3.71858 7.41281 3.52475 7.20013L0.120585 3.45555C0.0421252 3.36924 -0.00195312 3.25219 -0.00195312 3.13013C-0.00195313 3.00808 0.0421252 2.89102 0.120585 2.80471C0.199045 2.71841 0.305459 2.66992 0.416418 2.66992C0.527377 2.66992 0.633792 2.71841 0.712252 2.80471L4.11642 6.5493C4.35079 6.80679 4.6685 6.95142 4.99975 6.95142C5.331 6.95142 5.64871 6.80679 5.88308 6.5493L9.28725 2.80471C9.36571 2.71841 9.47213 2.66992 9.58308 2.66992C9.69404 2.66992 9.80046 2.71841 9.87892 2.80471C9.95738 2.89102 10.0015 3.00808 10.0015 3.13013C10.0015 3.25219 9.95738 3.36924 9.87892 3.45555L6.47475 7.20013C6.28092 7.41281 6.05089 7.58137 5.79779 7.69619C5.5447 7.81101 5.27352 7.86983 4.99975 7.8693Z" fill="#A0A0A0"/>
</g>
<defs>
<clipPath id="clip0_749_3681">
<rect width="10" height="11" fill="white"/>
</clipPath>
</defs>
</svg>
