<svg width="18" height="18" viewBox="0 0 18 18" fill="none" xmlns="http://www.w3.org/2000/svg">
<g clip-path="url(#clip0_312_4175)">
<path d="M9.00014 12.8772C8.50735 12.8781 8.01922 12.7818 7.56366 12.5939C7.1081 12.4061 6.69403 12.1302 6.34514 11.7822L0.217639 5.65471C0.0764112 5.51348 -0.00292969 5.32194 -0.00292969 5.12221C-0.00292969 4.92248 0.0764112 4.73094 0.217639 4.58971C0.358867 4.44848 0.550413 4.36914 0.750139 4.36914C0.949865 4.36914 1.14141 4.44848 1.28264 4.58971L7.41014 10.7172C7.83201 11.1386 8.40389 11.3752 9.00014 11.3752C9.59639 11.3752 10.1683 11.1386 10.5901 10.7172L16.7176 4.58971C16.8589 4.44848 17.0504 4.36914 17.2501 4.36914C17.4499 4.36914 17.6414 4.44848 17.7826 4.58971C17.9239 4.73094 18.0032 4.92248 18.0032 5.12221C18.0032 5.32194 17.9239 5.51348 17.7826 5.65471L11.6551 11.7822C11.3062 12.1302 10.8922 12.4061 10.4366 12.5939C9.98105 12.7818 9.49293 12.8781 9.00014 12.8772V12.8772Z" fill="#A0A0A0"/>
</g>
<defs>
<clipPath id="clip0_312_4175">
<rect width="18" height="18" fill="white"/>
</clipPath>
</defs>
</svg>
