<svg width="33" height="33" viewBox="0 0 33 33" fill="none" xmlns="http://www.w3.org/2000/svg">
<g clip-path="url(#clip0_2014_5468)">
<path d="M16.0548 16.9454C17.6397 16.9454 19.1891 16.4754 20.5069 15.5948C21.8248 14.7143 22.8519 13.4627 23.4585 11.9984C24.065 10.5341 24.2237 8.92278 23.9145 7.36828C23.6053 5.81377 22.8421 4.38587 21.7213 3.26513C20.6006 2.14439 19.1727 1.38116 17.6182 1.07195C16.0637 0.762743 14.4524 0.921441 12.9881 1.52798C11.5238 2.13452 10.2722 3.16165 9.39163 4.4795C8.51107 5.79734 8.04108 7.34671 8.04108 8.93167C8.0432 11.0564 8.88818 13.0935 10.3906 14.5959C11.893 16.0983 13.9301 16.9432 16.0548 16.9454ZM16.0548 3.58921C17.1114 3.58921 18.1443 3.90254 19.0229 4.48957C19.9015 5.07661 20.5862 5.91099 20.9906 6.8872C21.3949 7.86341 21.5007 8.9376 21.2946 9.97393C21.0884 11.0103 20.5796 11.9622 19.8325 12.7094C19.0853 13.4565 18.1334 13.9653 17.097 14.1715C16.0607 14.3776 14.9865 14.2718 14.0103 13.8675C13.0341 13.4631 12.1997 12.7783 11.6127 11.8998C11.0256 11.0212 10.7123 9.98831 10.7123 8.93167C10.7123 7.51476 11.2752 6.15588 12.2771 5.15398C13.279 4.15207 14.6379 3.58921 16.0548 3.58921V3.58921Z" fill="#FDB572"/>
<path d="M16.0548 19.6172C12.8678 19.6207 9.81241 20.8883 7.55888 23.1418C5.30536 25.3954 4.03778 28.4508 4.03424 31.6377C4.03424 31.992 4.17496 32.3317 4.42543 32.5822C4.67591 32.8326 5.01563 32.9733 5.36986 32.9733C5.72408 32.9733 6.0638 32.8326 6.31428 32.5822C6.56476 32.3317 6.70547 31.992 6.70547 31.6377C6.70547 29.1581 7.69049 26.7801 9.44382 25.0268C11.1972 23.2734 13.5752 22.2884 16.0548 22.2884C18.5344 22.2884 20.9124 23.2734 22.6658 25.0268C24.4191 26.7801 25.4041 29.1581 25.4041 31.6377C25.4041 31.992 25.5448 32.3317 25.7953 32.5822C26.0458 32.8326 26.3855 32.9733 26.7397 32.9733C27.0939 32.9733 27.4337 32.8326 27.6841 32.5822C27.9346 32.3317 28.0753 31.992 28.0753 31.6377C28.0718 28.4508 26.8042 25.3954 24.5507 23.1418C22.2972 20.8883 19.2418 19.6207 16.0548 19.6172V19.6172Z" fill="#FDB572"/>
</g>
<g clip-path="url(#clip1_2014_5468)">
<path d="M31.9521 15.5652C31.8924 15.3753 31.7732 15.2096 31.6121 15.0927C31.4511 14.9758 31.2566 14.9138 31.0576 14.9159H29.7833L29.3962 13.7096C29.3354 13.5197 29.2158 13.354 29.0547 13.2365C28.8936 13.119 28.6993 13.0557 28.4999 13.0557C28.3005 13.0557 28.1063 13.119 27.9452 13.2365C27.7841 13.354 27.6645 13.5197 27.6036 13.7096L27.2166 14.9159H25.9423C25.7439 14.9162 25.5507 14.9792 25.3902 15.0958C25.2297 15.2125 25.1102 15.3769 25.0487 15.5656C24.9873 15.7542 24.987 15.9575 25.048 16.1463C25.1089 16.3351 25.228 16.4998 25.3881 16.6169L26.4253 17.3753L26.031 18.5965C25.9672 18.7859 25.9664 18.9908 26.0287 19.1807C26.0909 19.3706 26.2128 19.5353 26.3763 19.6503C26.537 19.7689 26.7317 19.8325 26.9314 19.8315C27.1311 19.8305 27.3252 19.765 27.4846 19.6447L28.4999 18.8975L29.5155 19.6438C29.6759 19.7618 29.8695 19.8259 30.0686 19.8268C30.2677 19.8278 30.462 19.7656 30.6235 19.6492C30.785 19.5328 30.9055 19.3682 30.9675 19.1791C31.0296 18.9899 31.0301 18.7859 30.9689 18.5965L30.5746 17.3753L31.6129 16.6169C31.7749 16.5013 31.8953 16.3366 31.9564 16.1471C32.0175 15.9577 32.016 15.7537 31.9521 15.5652ZM31.2687 16.1459L30.0601 17.0293C30.0104 17.0656 29.9735 17.1165 29.9545 17.175C29.9356 17.2334 29.9355 17.2964 29.9545 17.3548L30.4139 18.7753C30.4371 18.8473 30.4369 18.9249 30.4133 18.9968C30.3897 19.0687 30.3439 19.1313 30.2824 19.1755C30.221 19.2198 30.1471 19.2434 30.0714 19.243C29.9957 19.2426 29.9221 19.2182 29.8611 19.1734L28.6726 18.2984C28.6225 18.2616 28.562 18.2418 28.4999 18.2418C28.4378 18.2418 28.3773 18.2616 28.3273 18.2984L27.1387 19.1734C27.0778 19.2189 27.004 19.2437 26.9279 19.2444C26.8519 19.2451 26.7776 19.2216 26.7159 19.1772C26.6541 19.1329 26.6081 19.07 26.5845 18.9977C26.5609 18.9254 26.5609 18.8475 26.5846 18.7753L27.0454 17.3548C27.0643 17.2964 27.0643 17.2334 27.0454 17.175C27.0264 17.1165 26.9895 17.0656 26.9398 17.0293L25.7311 16.1459C25.6703 16.1013 25.625 16.0386 25.6019 15.9668C25.5788 15.895 25.5789 15.8177 25.6024 15.746C25.6258 15.6743 25.6713 15.6118 25.7323 15.5675C25.7934 15.5232 25.8669 15.4993 25.9423 15.4993H27.4298C27.4916 15.4992 27.5517 15.4796 27.6016 15.4433C27.6515 15.4069 27.6886 15.3556 27.7075 15.2968L28.1596 13.8878C28.1828 13.8157 28.2283 13.7528 28.2895 13.7082C28.3507 13.6636 28.4245 13.6396 28.5002 13.6396C28.576 13.6396 28.6498 13.6636 28.711 13.7082C28.7722 13.7528 28.8177 13.8157 28.8409 13.8878L29.293 15.2968C29.3119 15.3556 29.3489 15.4069 29.3988 15.4433C29.4487 15.4796 29.5089 15.4992 29.5706 15.4993H31.0581C31.1336 15.4993 31.2071 15.5232 31.2681 15.5675C31.3292 15.6118 31.3747 15.6743 31.3981 15.746C31.4215 15.8177 31.4217 15.895 31.3985 15.9668C31.3754 16.0386 31.3302 16.1013 31.2693 16.1459H31.2687Z" fill="#FDB572"/>
</g>
<path d="M28.1957 13.5078L28.4493 13.457H28.7029L28.8551 13.6092L29.4638 15.3846H29.616H30.9348L31.3913 15.486L31.4928 15.6889V16.044L30.0725 17.1599L30.0218 17.3121L30.5797 18.8338V19.1382L30.4783 19.2904L30.1739 19.3411H29.971L28.6015 18.3266H28.4493L26.9783 19.3411L26.7754 19.2904L26.4203 18.9353L26.9276 17.1599L25.558 16.2469L25.4565 15.8918L25.7609 15.3846H27.5363L27.7899 14.6237L28.1957 13.5078Z" fill="#FDB572"/>
<path fill-rule="evenodd" clip-rule="evenodd" d="M28.4443 13.4062H28.7239L28.8993 13.5816L29.5 15.3338H30.9404L31.4259 15.4417L31.5435 15.6769V16.0686L30.1158 17.1904L30.0755 17.3112L30.6305 18.8248V19.1535L30.5083 19.3367L30.1781 19.3918H29.9543L28.5847 18.3773H28.4651L26.9882 19.3958L26.7495 19.3361L26.3633 18.95L26.8686 17.1815L25.5144 16.2787L25.4017 15.8845L25.7322 15.3338H27.4997L27.7422 14.6063L28.1578 13.4636L28.4443 13.4062ZM28.4543 13.5077L28.2336 13.5518L27.8378 14.6403L27.5728 15.4352H25.7896L25.5114 15.899L25.6017 16.215L26.9865 17.1382L26.4773 18.9205L26.8013 19.2445L26.9684 19.2863L28.4335 18.2758H28.6182L29.9878 19.2903H30.1697L30.4483 19.2439L30.529 19.1228V18.8428L29.968 17.3128L30.0292 17.1294L31.4421 16.0193V15.7008L31.3568 15.5302L30.9292 15.4352H29.4276L28.8109 13.6367L28.6819 13.5077H28.4543Z" fill="#FDB572"/>
<defs>
<clipPath id="clip0_2014_5468">
<rect width="32.0548" height="32.0548" fill="white" transform="translate(0.0274048 0.917969)"/>
</clipPath>
<clipPath id="clip1_2014_5468">
<rect width="7" height="7" fill="white" transform="translate(25 13)"/>
</clipPath>
</defs>
</svg>
