<svg width="21" height="20" viewBox="0 0 21 20" fill="none" xmlns="http://www.w3.org/2000/svg">
<g clip-path="url(#clip0_752_3972)">
<path d="M5.6875 0C4.87527 0 4.09632 0.307291 3.52199 0.854272C2.94766 1.40125 2.625 2.14312 2.625 2.91667V17.0833C2.625 17.8569 2.94766 18.5987 3.52199 19.1457C4.09632 19.6927 4.87527 20 5.6875 20C6.49973 20 7.27868 19.6927 7.85301 19.1457C8.42734 18.5987 8.75 17.8569 8.75 17.0833V2.91667C8.75 2.14312 8.42734 1.40125 7.85301 0.854272C7.27868 0.307291 6.49973 0 5.6875 0ZM7 17.0833C7 17.4149 6.86172 17.7328 6.61558 17.9672C6.36944 18.2016 6.0356 18.3333 5.6875 18.3333C5.3394 18.3333 5.00556 18.2016 4.75942 17.9672C4.51328 17.7328 4.375 17.4149 4.375 17.0833V2.91667C4.375 2.58515 4.51328 2.2672 4.75942 2.03278C5.00556 1.79836 5.3394 1.66667 5.6875 1.66667C6.0356 1.66667 6.36944 1.79836 6.61558 2.03278C6.86172 2.2672 7 2.58515 7 2.91667V17.0833Z" fill="white"/>
<path d="M15.3125 0C14.5003 0 13.7213 0.307291 13.147 0.854272C12.5727 1.40125 12.25 2.14312 12.25 2.91667V17.0833C12.25 17.8569 12.5727 18.5987 13.147 19.1457C13.7213 19.6927 14.5003 20 15.3125 20C16.1247 20 16.9037 19.6927 17.478 19.1457C18.0523 18.5987 18.375 17.8569 18.375 17.0833V2.91667C18.375 2.14312 18.0523 1.40125 17.478 0.854272C16.9037 0.307291 16.1247 0 15.3125 0ZM16.625 17.0833C16.625 17.4149 16.4867 17.7328 16.2406 17.9672C15.9944 18.2016 15.6606 18.3333 15.3125 18.3333C14.9644 18.3333 14.6306 18.2016 14.3844 17.9672C14.1383 17.7328 14 17.4149 14 17.0833V2.91667C14 2.58515 14.1383 2.2672 14.3844 2.03278C14.6306 1.79836 14.9644 1.66667 15.3125 1.66667C15.6606 1.66667 15.9944 1.79836 16.2406 2.03278C16.4867 2.2672 16.625 2.58515 16.625 2.91667V17.0833Z" fill="white"/>
</g>
<defs>
<clipPath id="clip0_752_3972">
<rect width="21" height="20" fill="white"/>
</clipPath>
</defs>
</svg>
