<svg width="40" height="40" viewBox="0 0 40 40" fill="none" xmlns="http://www.w3.org/2000/svg">
<g clip-path="url(#clip0_1116_10151)">
<path d="M37 3.60477C36.0631 2.82132 34.9651 2.25375 33.7841 1.94238C32.6031 1.631 31.3681 1.58345 30.1667 1.8031L23.7967 2.95977C22.326 3.22984 20.9888 3.98648 20 5.1081C19.0086 3.98454 17.6676 3.22773 16.1933 2.95977L9.83333 1.8031C8.63193 1.58326 7.39689 1.63019 6.21563 1.94056C5.03437 2.25094 3.93578 2.81718 2.99761 3.59919C2.05944 4.38121 1.30464 5.35989 0.786637 6.46595C0.26863 7.57201 8.13541e-05 8.77842 0 9.99977L0 27.9881C9.57598e-05 29.9394 0.684961 31.8289 1.93522 33.327C3.18548 34.8252 4.92185 35.8372 6.84167 36.1864L17.3183 38.0914C19.0916 38.4136 20.9084 38.4136 22.6817 38.0914L33.1667 36.1864C35.085 35.8354 36.8194 34.8227 38.068 33.3247C39.3166 31.8267 40.0003 29.9382 40 27.9881V9.99977C40.0008 8.77885 39.7323 7.57277 39.2138 6.46743C38.6952 5.36208 37.9394 4.38466 37 3.60477ZM18.3333 34.8798C18.1933 34.8598 18.0533 34.8364 17.9133 34.8114L7.43833 32.9081C6.28627 32.6985 5.24432 32.0912 4.49415 31.1921C3.74397 30.293 3.33316 29.1591 3.33333 27.9881V9.99977C3.33333 8.67369 3.86012 7.40192 4.7978 6.46424C5.73548 5.52656 7.00725 4.99977 8.33333 4.99977C8.63515 5.00049 8.93632 5.02782 9.23333 5.08144L15.6 6.2481C16.366 6.38828 17.0588 6.79222 17.5581 7.38984C18.0574 7.98746 18.3316 8.74103 18.3333 9.51977V34.8798ZM36.6667 27.9881C36.6668 29.1591 36.256 30.293 35.5059 31.1921C34.7557 32.0912 33.7137 32.6985 32.5617 32.9081L22.0867 34.8114C21.9467 34.8364 21.8067 34.8598 21.6667 34.8798V9.51977C21.6665 8.73912 21.9404 7.9832 22.4405 7.38378C22.9407 6.78437 23.6353 6.37951 24.4033 6.23977L30.7717 5.0731C31.4929 4.94189 32.2341 4.97086 32.9429 5.15795C33.6516 5.34505 34.3106 5.6857 34.873 6.15578C35.4355 6.62586 35.8877 7.21386 36.1977 7.87814C36.5077 8.54242 36.6678 9.26673 36.6667 9.99977V27.9881Z" fill="#FF89D0"/>
</g>
<defs>
<clipPath id="clip0_1116_10151">
<rect width="40" height="40" fill="white"/>
</clipPath>
</defs>
</svg>
