<svg width="33" height="33" viewBox="0 0 33 33" fill="none" xmlns="http://www.w3.org/2000/svg">
<g clip-path="url(#clip0_1116_10474)">
<path d="M30.525 2.97367C29.752 2.32732 28.8462 1.85908 27.8719 1.60219C26.8976 1.34531 25.8787 1.30608 24.8875 1.48729L19.6322 2.44154C18.4189 2.66435 17.3158 3.28858 16.5 4.21392C15.6821 3.28698 14.5758 2.66261 13.3595 2.44154L8.1125 1.48729C7.12134 1.30592 6.10243 1.34464 5.12789 1.6007C4.15335 1.85676 3.24701 2.3239 2.47303 2.96907C1.69904 3.61423 1.07633 4.42164 0.648975 5.33414C0.22162 6.24664 6.71171e-05 7.24193 0 8.24954L0 23.0899C7.90018e-05 24.6998 0.565093 26.2585 1.59656 27.4945C2.62802 28.7305 4.06053 29.5654 5.64437 29.8535L14.2876 31.4252C15.7506 31.691 17.2494 31.691 18.7124 31.4252L27.3625 29.8535C28.9451 29.5639 30.376 28.7285 31.4061 27.4926C32.4362 26.2568 33.0002 24.6988 33 23.0899V8.24954C33.0006 7.24228 32.7792 6.24727 32.3514 5.33536C31.9236 4.42345 31.3 3.61708 30.525 2.97367ZM15.125 28.7755C15.0095 28.759 14.894 28.7398 14.7785 28.7192L6.13662 27.1489C5.18618 26.976 4.32657 26.475 3.70767 25.7332C3.08877 24.9914 2.74985 24.056 2.75 23.0899V8.24954C2.75 7.15552 3.1846 6.10631 3.95818 5.33273C4.73177 4.55914 5.78098 4.12454 6.875 4.12454C7.124 4.12514 7.37246 4.14768 7.6175 4.19192L12.87 5.15442C13.502 5.27006 14.0735 5.60332 14.4854 6.09635C14.8973 6.58939 15.1236 7.21108 15.125 7.85354V28.7755ZM30.25 23.0899C30.2501 24.056 29.9112 24.9914 29.2923 25.7332C28.6734 26.475 27.8138 26.976 26.8634 27.1489L18.2215 28.7192C18.106 28.7398 17.9905 28.759 17.875 28.7755V7.85354C17.8749 7.20951 18.1008 6.58587 18.5134 6.09135C18.926 5.59684 19.4991 5.26282 20.1327 5.14754L25.3866 4.18504C25.9816 4.07679 26.5931 4.10069 27.1779 4.25504C27.7626 4.4094 28.3062 4.69044 28.7703 5.07825C29.2343 5.46606 29.6074 5.95117 29.8631 6.4992C30.1188 7.04723 30.2509 7.64479 30.25 8.24954V23.0899Z" fill="#979DFF"/>
</g>
<defs>
<clipPath id="clip0_1116_10474">
<rect width="33" height="33" fill="white"/>
</clipPath>
</defs>
</svg>
