<svg width="84" height="84" viewBox="0 0 84 84" fill="none" xmlns="http://www.w3.org/2000/svg">
<rect x="0.5" y="0.5" width="83" height="83" rx="14.5" stroke="#A0A0A0" stroke-dasharray="6 6"/>
<path d="M50.2502 53.1664H42.9585V25.999L49.2293 32.0906C49.5044 32.3487 49.8727 32.4915 50.2551 32.4882C50.6375 32.485 51.0033 32.336 51.2736 32.0734C51.544 31.8107 51.6974 31.4554 51.7007 31.0839C51.704 30.7125 51.5571 30.3546 51.2914 30.0875L44.0785 23.0806C43.7399 22.7517 43.338 22.4907 42.8956 22.3127C42.4532 22.1346 41.979 22.043 41.5002 22.043C41.0213 22.043 40.5471 22.1346 40.1047 22.3127C39.6623 22.4907 39.2604 22.7517 38.9218 23.0806L31.7031 30.0931C31.4296 30.3595 31.2763 30.7205 31.2769 31.0967C31.2774 31.4729 31.4318 31.8335 31.706 32.0991C31.9802 32.3648 32.3518 32.5137 32.7391 32.5132C33.1264 32.5126 33.4975 32.3627 33.771 32.0963L40.0418 26.0046V53.1664H32.7502C32.3634 53.1664 31.9925 53.3156 31.719 53.5813C31.4455 53.847 31.2918 54.2073 31.2918 54.583C31.2918 54.9587 31.4455 55.3191 31.719 55.5848C31.9925 55.8504 32.3634 55.9997 32.7502 55.9997H50.2502C50.6369 55.9997 51.0079 55.8504 51.2814 55.5848C51.5548 55.3191 51.7085 54.9587 51.7085 54.583C51.7085 54.2073 51.5548 53.847 51.2814 53.5813C51.0079 53.3156 50.6369 53.1664 50.2502 53.1664Z" fill="#A0A0A0"/>
</svg>
