<svg width="33" height="33" viewBox="0 0 33 33" fill="none" xmlns="http://www.w3.org/2000/svg">
<g clip-path="url(#clip0_1996_6917)">
<path d="M16.0548 16.9454C17.6397 16.9454 19.1891 16.4754 20.5069 15.5948C21.8248 14.7143 22.8519 13.4627 23.4585 11.9984C24.065 10.5341 24.2237 8.92278 23.9145 7.36828C23.6053 5.81377 22.8421 4.38587 21.7213 3.26513C20.6006 2.14439 19.1727 1.38116 17.6182 1.07195C16.0637 0.762743 14.4524 0.921441 12.9881 1.52798C11.5238 2.13452 10.2722 3.16165 9.39163 4.4795C8.51107 5.79734 8.04108 7.34671 8.04108 8.93167C8.0432 11.0564 8.88818 13.0935 10.3906 14.5959C11.893 16.0983 13.9301 16.9432 16.0548 16.9454ZM16.0548 3.58921C17.1114 3.58921 18.1443 3.90254 19.0229 4.48957C19.9015 5.07661 20.5862 5.91099 20.9906 6.8872C21.3949 7.86341 21.5007 8.9376 21.2946 9.97393C21.0884 11.0103 20.5796 11.9622 19.8325 12.7094C19.0853 13.4565 18.1334 13.9653 17.097 14.1715C16.0607 14.3776 14.9865 14.2718 14.0103 13.8675C13.0341 13.4631 12.1997 12.7783 11.6127 11.8998C11.0256 11.0212 10.7123 9.98831 10.7123 8.93167C10.7123 7.51476 11.2752 6.15588 12.2771 5.15398C13.279 4.15207 14.6379 3.58921 16.0548 3.58921Z" fill="#979DFF"/>
<path d="M16.0548 19.6172C12.8678 19.6207 9.81241 20.8883 7.55888 23.1418C5.30536 25.3954 4.03778 28.4508 4.03424 31.6377C4.03424 31.992 4.17496 32.3317 4.42543 32.5822C4.67591 32.8326 5.01563 32.9733 5.36986 32.9733C5.72408 32.9733 6.0638 32.8326 6.31428 32.5822C6.56476 32.3317 6.70547 31.992 6.70547 31.6377C6.70547 29.1581 7.69049 26.7801 9.44382 25.0268C11.1972 23.2734 13.5752 22.2884 16.0548 22.2884C18.5344 22.2884 20.9124 23.2734 22.6658 25.0268C24.4191 26.7801 25.4041 29.1581 25.4041 31.6377C25.4041 31.992 25.5448 32.3317 25.7953 32.5822C26.0458 32.8326 26.3855 32.9733 26.7397 32.9733C27.0939 32.9733 27.4337 32.8326 27.6841 32.5822C27.9346 32.3317 28.0753 31.992 28.0753 31.6377C28.0718 28.4508 26.8042 25.3954 24.5507 23.1418C22.2972 20.8883 19.2418 19.6207 16.0548 19.6172Z" fill="#979DFF"/>
</g>
<defs>
<clipPath id="clip0_1996_6917">
<rect width="32.0548" height="32.0548" fill="white" transform="translate(0.0274048 0.917969)"/>
</clipPath>
</defs>
</svg>
