<svg width="22" height="22" viewBox="0 0 22 22" fill="none" xmlns="http://www.w3.org/2000/svg">
<path d="M11 22C17.0751 22 22 17.0751 22 11C22 4.92487 17.0751 0 11 0C4.92487 0 0 4.92487 0 11C0 17.0751 4.92487 22 11 22Z" fill="#827DDC"/>
<path d="M15.1914 8.20437L13.9226 6.93555C13.7036 6.71666 13.4064 6.57607 13.0765 6.55948L11.4545 4.9375L4 6.24538V15.5831L10.4008 21.9838C10.5987 21.9945 10.7979 22.0002 10.9985 22.0002C16.5855 22.0002 21.1993 17.8347 21.9046 12.4401L17.2672 7.80261C17.2672 7.80257 17.2671 7.80253 17.267 7.80244C17.0362 7.57166 16.7173 7.42891 16.3651 7.42891C15.8381 7.42891 15.3859 7.74852 15.1914 8.20437Z" fill="#6E64C3"/>
<path d="M4.00391 15.5831L11.4584 16.8909V4.9375L4.00391 6.24534V15.5831Z" fill="#302C89"/>
<path d="M11.9961 14.9101C12.2748 15.1353 12.6293 15.2704 13.0154 15.2704C13.9119 15.2704 14.6387 14.5436 14.6387 13.6471V9.74414H11.9961L11.9961 14.9101Z" fill="#302C89"/>
<path d="M13.0154 9.13712C13.7277 9.13712 14.3051 8.5597 14.3051 7.84737C14.3051 7.13507 13.7277 6.55762 13.0154 6.55762C12.6007 6.55762 12.232 6.75356 11.9961 7.05764V8.63709C12.232 8.94122 12.6007 9.13712 13.0154 9.13712Z" fill="#302C89"/>
<path d="M17.9748 10.5801H15.1719V14.0276C15.4665 14.3744 15.9056 14.5943 16.3957 14.5943C16.8246 14.5943 17.2355 14.4228 17.5371 14.1179C17.8386 13.813 18.0057 13.4002 18.001 12.9715L17.9748 10.5801Z" fill="#302C89"/>
<path d="M16.3694 9.98002C17.0739 9.98002 17.6451 9.40889 17.6451 8.70437C17.6451 7.99984 17.0739 7.42871 16.3694 7.42871C15.6649 7.42871 15.0938 7.99984 15.0938 8.70437C15.0938 9.40889 15.6649 9.98002 16.3694 9.98002Z" fill="#302C89"/>
<path d="M9.19793 9.57661H8.08589V12.8256H7.41477V9.57661H6.30273V8.90918H9.19788V9.57661H9.19793V9.57661Z" fill="white"/>
</svg>
