<svg width="29" height="29" viewBox="0 0 29 29" fill="none" xmlns="http://www.w3.org/2000/svg">
<g clip-path="url(#clip0_1_4831)">
<path d="M24.1054 6.68991L19.8955 2.47766C19.1117 1.68999 18.1795 1.06552 17.1529 0.64034C16.1262 0.215162 15.0255 -0.00228287 13.9143 0.000577167H8.45866C6.8569 0.00249583 5.32129 0.639643 4.18867 1.77226C3.05606 2.90488 2.41891 4.44048 2.41699 6.04224V22.9589C2.41891 24.5607 3.05606 26.0963 4.18867 27.2289C5.32129 28.3615 6.8569 28.9987 8.45866 29.0006H20.542C22.1438 28.9987 23.6794 28.3615 24.812 27.2289C25.9446 26.0963 26.5817 24.5607 26.5837 22.9589V12.67C26.5867 11.5588 26.3692 10.4581 25.9438 9.43159C25.5183 8.40509 24.8935 7.4732 24.1054 6.68991ZM22.3968 8.39849C22.7658 8.77809 23.0831 9.20468 23.3405 9.66724H18.1253C17.8049 9.66724 17.4975 9.53994 17.2709 9.31333C17.0443 9.08672 16.917 8.77938 16.917 8.45891V3.24374C17.3797 3.50103 17.8067 3.8179 18.187 4.18624L22.3968 8.39849ZM24.167 22.9589C24.167 23.9203 23.7851 24.8424 23.1053 25.5222C22.4254 26.202 21.5034 26.5839 20.542 26.5839H8.45866C7.49725 26.5839 6.57522 26.202 5.8954 25.5222C5.21558 24.8424 4.83366 23.9203 4.83366 22.9589V6.04224C4.83366 5.08083 5.21558 4.1588 5.8954 3.47898C6.57522 2.79916 7.49725 2.41724 8.45866 2.41724H13.9143C14.1125 2.41724 14.3046 2.45591 14.5003 2.47404V8.45891C14.5003 9.42032 14.8822 10.3424 15.5621 11.0222C16.2419 11.702 17.1639 12.0839 18.1253 12.0839H24.1102C24.1283 12.2797 24.167 12.4706 24.167 12.67V22.9589Z" fill="white"/>
</g>
<defs>
<clipPath id="clip0_1_4831">
<rect width="29" height="29" fill="white"/>
</clipPath>
</defs>
</svg>
