<svg width="43" height="43" viewBox="0 0 43 43" fill="none" xmlns="http://www.w3.org/2000/svg">
<path d="M34.0417 43H8.95833C6.58331 42.9972 4.30637 42.0524 2.62698 40.373C0.94758 38.6936 0.00284491 36.4167 0 34.0417L0 8.95833C0.00284491 6.58331 0.94758 4.30637 2.62698 2.62698C4.30637 0.94758 6.58331 0.00284491 8.95833 0L34.0417 0C36.4167 0.00284491 38.6936 0.94758 40.373 2.62698C42.0524 4.30637 42.9972 6.58331 43 8.95833V34.0417C42.9972 36.4167 42.0524 38.6936 40.373 40.373C38.6936 42.0524 36.4167 42.9972 34.0417 43V43ZM8.95833 3.58333C7.53279 3.58333 6.16564 4.14963 5.15763 5.15763C4.14963 6.16564 3.58333 7.53279 3.58333 8.95833V34.0417C3.58333 35.4672 4.14963 36.8344 5.15763 37.8424C6.16564 38.8504 7.53279 39.4167 8.95833 39.4167H34.0417C35.4672 39.4167 36.8344 38.8504 37.8424 37.8424C38.8504 36.8344 39.4167 35.4672 39.4167 34.0417V8.95833C39.4167 7.53279 38.8504 6.16564 37.8424 5.15763C36.8344 4.14963 35.4672 3.58333 34.0417 3.58333H8.95833ZM16.7377 30.4673C15.9909 30.4648 15.2579 30.2652 14.6128 29.8886C13.9756 29.5239 13.4467 28.9964 13.0803 28.3602C12.7139 27.724 12.523 27.0018 12.5273 26.2676V16.7324C12.5267 15.9981 12.7192 15.2765 13.0856 14.6401C13.4519 14.0036 13.9792 13.4748 14.6145 13.1065C15.2498 12.7382 15.9707 12.5434 16.7051 12.5418C17.4394 12.5401 18.1612 12.7316 18.7982 13.0971L28.2546 17.8181C28.9114 18.1727 29.4615 18.6965 29.8478 19.3353C30.2341 19.974 30.4425 20.7045 30.4515 21.4509C30.4604 22.1973 30.2696 22.9325 29.8987 23.5803C29.5279 24.2282 28.9905 24.765 28.3424 25.1353L18.7104 29.9495C18.1096 30.2922 17.4293 30.4707 16.7377 30.4673V30.4673ZM16.693 16.134C16.5942 16.1339 16.4972 16.1599 16.4117 16.2092C16.3187 16.2609 16.2416 16.3369 16.1886 16.429C16.1356 16.5212 16.1086 16.6261 16.1107 16.7324V26.2676C16.1113 26.3724 16.1391 26.4751 16.1914 26.5658C16.2438 26.6566 16.3188 26.7321 16.4092 26.7851C16.4995 26.838 16.6021 26.8665 16.7068 26.8679C16.8116 26.8692 16.9148 26.8432 17.0065 26.7926L26.6385 21.9766C26.7102 21.9205 26.7673 21.8478 26.8047 21.7648C26.8422 21.6818 26.8589 21.5909 26.8535 21.5C26.8557 21.3934 26.8287 21.2883 26.7753 21.196C26.7219 21.1038 26.6442 21.028 26.5507 20.9768L17.1015 16.2558C16.9783 16.1802 16.8374 16.1382 16.693 16.134V16.134Z" fill="#9E9E9E"/>
</svg>
