<svg width="29" height="29" viewBox="0 0 29 29" fill="none" xmlns="http://www.w3.org/2000/svg">
<g clip-path="url(#clip0_1_4829)">
<path d="M22.9583 29H6.04167C4.43991 28.9981 2.9043 28.3609 1.77168 27.2283C0.639066 26.0957 0.00191866 24.5601 0 22.9583L0 6.04167C0.00191866 4.43991 0.639066 2.9043 1.77168 1.77168C2.9043 0.639066 4.43991 0.00191866 6.04167 0L22.9583 0C24.5601 0.00191866 26.0957 0.639066 27.2283 1.77168C28.3609 2.9043 28.9981 4.43991 29 6.04167V22.9583C28.9981 24.5601 28.3609 26.0957 27.2283 27.2283C26.0957 28.3609 24.5601 28.9981 22.9583 29ZM6.04167 2.41667C5.08026 2.41667 4.15822 2.79859 3.4784 3.4784C2.79859 4.15822 2.41667 5.08026 2.41667 6.04167V22.9583C2.41667 23.9197 2.79859 24.8418 3.4784 25.5216C4.15822 26.2014 5.08026 26.5833 6.04167 26.5833H22.9583C23.9197 26.5833 24.8418 26.2014 25.5216 25.5216C26.2014 24.8418 26.5833 23.9197 26.5833 22.9583V6.04167C26.5833 5.08026 26.2014 4.15822 25.5216 3.4784C24.8418 2.79859 23.9197 2.41667 22.9583 2.41667H6.04167ZM11.2882 20.5477C10.7845 20.546 10.2902 20.4114 9.85517 20.1574C9.42542 19.9114 9.06873 19.5557 8.8216 19.1266C8.57447 18.6976 8.44577 18.2105 8.44867 17.7154V11.2846C8.44826 10.7894 8.5781 10.3027 8.82516 9.87353C9.07222 9.44432 9.42782 9.08763 9.85627 8.83925C10.2847 8.59087 10.771 8.45953 11.2662 8.45842C11.7614 8.45731 12.2483 8.58646 12.6778 8.83292L19.0554 12.0169C19.4984 12.256 19.8694 12.6093 20.1299 13.0401C20.3904 13.4709 20.531 13.9635 20.537 14.4669C20.5431 14.9703 20.4144 15.4661 20.1643 15.903C19.9142 16.3399 19.5518 16.702 19.1146 16.9517L12.6186 20.1985C12.2135 20.4296 11.7547 20.55 11.2882 20.5477ZM11.258 10.881C11.1914 10.881 11.126 10.8985 11.0683 10.9318C11.0057 10.9666 10.9537 11.0179 10.9179 11.0801C10.8821 11.1422 10.864 11.2129 10.8653 11.2846V17.7154C10.8657 17.786 10.8845 17.8553 10.9198 17.9165C10.9551 17.9777 11.0057 18.0286 11.0667 18.0643C11.1276 18.1001 11.1968 18.1193 11.2674 18.1202C11.338 18.1211 11.4077 18.1036 11.4695 18.0694L17.9655 14.8214C18.0139 14.7836 18.0523 14.7346 18.0776 14.6786C18.1029 14.6226 18.1142 14.5613 18.1105 14.5C18.112 14.4281 18.0938 14.3572 18.0578 14.295C18.0218 14.2328 17.9694 14.1817 17.9063 14.1472L11.5335 10.9632C11.4505 10.9122 11.3555 10.8839 11.258 10.881Z" fill="white"/>
</g>
<defs>
<clipPath id="clip0_1_4829">
<rect width="29" height="29" fill="white"/>
</clipPath>
</defs>
</svg>
